<svg width="93" height="93" viewBox="0 0 93 93" fill="none" xmlns="http://www.w3.org/2000/svg">
    <g filter="url(#sec_3_img_cir_in_svg__sec_3_img_cir_in_svg__filter0_b)">
        <circle cx="46.5" cy="46.5" r="46.5" fill="url(#sec_3_img_cir_in_svg__sec_3_img_cir_in_svg__paint0_linear)"/>
    </g>
    <path d="M21.874 67h1.131v-9.295h-1.13V67zm3.463 0h1.079v-4.121c0-1.222.897-1.859 1.898-1.859 1.092 0 1.599.533 1.599 1.729V67h1.079v-4.173c0-1.976-.988-2.743-2.392-2.743-1.118 0-1.872.559-2.184 1.196v-1.079h-1.08V67zm9.875.117c1.651 0 2.496-.832 2.496-2.067 0-1.443-.988-1.755-2.392-2.015-1.248-.221-1.586-.468-1.586-1.079 0-.585.507-.975 1.287-.975.858 0 1.274.325 1.43 1.066h1.04c-.182-1.469-1.235-1.963-2.457-1.963-1.066 0-2.3.65-2.3 1.911 0 1.183.597 1.677 2.365 2.002 1.053.195 1.586.429 1.586 1.144 0 .728-.455 1.079-1.482 1.079-1.092 0-1.52-.507-1.599-1.313h-1.053c.065 1.391 1.04 2.21 2.665 2.21zm4.686-8.333c.39 0 .715-.325.715-.715a.721.721 0 00-.715-.715.721.721 0 00-.715.715c0 .39.325.715.715.715zM39.378 67h1.08v-6.799h-1.08V67zm5.992-1.118c-1.144 0-2.093-.884-2.093-2.366v-.104c0-1.43.806-2.431 2.158-2.431 1.326 0 2.158.884 2.158 2.405v.091c0 1.521-.962 2.405-2.223 2.405zm.013 3.601c1.898 0 3.237-.962 3.25-2.938v-6.344h-1.08v1.092c-.39-.663-1.091-1.209-2.222-1.209-1.872 0-3.172 1.534-3.172 3.38v.091c0 1.872 1.313 3.224 3.094 3.224.988 0 1.91-.624 2.3-1.287v.988c0 1.456-.844 2.093-2.183 2.093-1.157 0-1.807-.403-1.963-1.183h-1.105c.182 1.144 1.066 2.093 3.08 2.093zM50.816 67h1.08v-4.121c0-1.222.896-1.859 1.897-1.859 1.092 0 1.6.533 1.6 1.729V67h1.078v-4.173c0-1.976-.988-2.743-2.392-2.743-1.118 0-1.872.559-2.184 1.196v-4.329h-1.079V67zm9.837.091c.442 0 .702-.065.923-.143v-.91a2.221 2.221 0 01-.832.143c-.546 0-.845-.325-.845-.988v-4.082h1.586v-.91h-1.586v-1.547h-1.08v1.547h-.974v.91h.975v4.186c0 1.066.598 1.794 1.833 1.794zm4.66.026c1.65 0 2.496-.832 2.496-2.067 0-1.443-.988-1.755-2.392-2.015-1.248-.221-1.586-.468-1.586-1.079 0-.585.507-.975 1.287-.975.858 0 1.274.325 1.43 1.066h1.04c-.182-1.469-1.235-1.963-2.457-1.963-1.066 0-2.301.65-2.301 1.911 0 1.183.598 1.677 2.366 2.002 1.053.195 1.586.429 1.586 1.144 0 .728-.455 1.079-1.482 1.079-1.092 0-1.521-.507-1.6-1.313h-1.052c.065 1.391 1.04 2.21 2.665 2.21z" fill="#3F3F67"/>
    <rect x="32" y="33.636" width="6.818" height="15.909" rx="3.409" fill="#FBB52E"/>
    <rect x="42.091" y="29.091" width="6.818" height="20.454" rx="3.409" fill="#FBB52E"/>
    <rect x="52.184" y="20" width="6.818" height="29.545" rx="3.409" fill="#FBB52E"/>
    <defs>
        <linearGradient id="sec_3_img_cir_in_svg__sec_3_img_cir_in_svg__paint0_linear" x1="59.5" y1="47" x2="63.535" y2="117.401" gradientUnits="userSpaceOnUse">
            <stop stop-color="#fff"/>
            <stop offset="1" stop-color="#fff" stop-opacity="0"/>
        </linearGradient>
        <filter id="sec_3_img_cir_in_svg__sec_3_img_cir_in_svg__filter0_b" x="-4" y="-4" width="101" height="101" filterUnits="userSpaceOnUse" color-interpolation-filters="sRGB">
            <feFlood flood-opacity="0" result="BackgroundImageFix"/>
            <feGaussianBlur stdDeviation="2"/>
            <feComposite in2="SourceAlpha" operator="in" result="effect1_backgroundBlur"/>
            <feBlend in="SourceGraphic" in2="effect1_backgroundBlur" result="shape"/>
        </filter>
    </defs>
</svg>
