<svg width="120" height="120" viewBox="0 0 134 134" fill="none" xmlns="http://www.w3.org/2000/svg">
    <g filter="url(#sec_3_img_cir_re_svg__sec_3_img_cir_re_svg__filter0_b)">
        <circle cx="67" cy="67" r="67" fill="url(#sec_3_img_cir_re_svg__sec_3_img_cir_re_svg__paint0_linear)"/>
    </g>
    <rect x="43" y="37" width="51" height="6.8" rx="3.4" fill="#29CA60"/>
    <rect x="43" y="50.6" width="51" height="6.8" rx="3.4" fill="#29CA60"/>
    <rect x="43" y="64.2" width="30.6" height="6.8" rx="3.4" fill="#29CA60"/>
    <path d="M44.423 92.3v-3.975h2.01c1.455 0 2.355.48 2.355 1.935v.06c0 1.32-.825 1.98-2.355 1.98h-2.01zM43.118 98h1.305v-4.665h1.65L49.268 98h1.455l-3.285-4.755c1.47-.285 2.655-1.155 2.655-2.925v-.06c0-2.145-1.695-2.985-3.75-2.985h-3.225V98zm12.32.135c1.77 0 3.074-.825 3.344-2.4h-1.245c-.165.915-.87 1.365-2.085 1.365-1.605 0-2.46-.99-2.52-2.775h5.91v-.405c0-2.805-1.71-3.9-3.525-3.9-2.16 0-3.675 1.65-3.675 4.02v.12c0 2.415 1.575 3.975 3.795 3.975zm-2.46-4.815c.21-1.395 1.064-2.265 2.34-2.265 1.29 0 2.13.645 2.25 2.265h-4.59zm11.555 3.78c-1.53 0-2.58-.945-2.58-2.955v-.12c0-2.01 1.11-2.97 2.565-2.97 1.32 0 2.415.99 2.415 2.97v.12c0 1.905-.84 2.955-2.4 2.955zm-3.78 3.63h1.245v-4.02c.45.78 1.365 1.425 2.655 1.425 2.16 0 3.57-1.65 3.57-4.05v-.12c0-2.445-1.515-3.945-3.57-3.945-1.14 0-2.205.69-2.655 1.455v-1.32h-1.245v10.575zm12.659-2.595c2.235 0 3.87-1.635 3.87-4.005v-.12c0-2.355-1.635-3.99-3.855-3.99-2.22 0-3.855 1.65-3.855 4.005v.12c0 2.295 1.605 3.99 3.84 3.99zm.015-1.035c-1.59 0-2.565-1.17-2.565-2.955v-.12c0-1.8.99-2.97 2.565-2.97 1.56 0 2.565 1.17 2.565 2.985v.105c0 1.77-.99 2.955-2.565 2.955zm5.783.9h1.245v-4.305c0-1.935 1.005-2.43 2.58-2.505v-1.17c-1.41.045-2.085.66-2.58 1.545v-1.41H79.21V98zm8.098.105c.51 0 .81-.075 1.065-.165v-1.05c-.27.105-.57.165-.96.165-.63 0-.975-.375-.975-1.14v-4.71h1.83v-1.05h-1.83V88.37h-1.245v1.785h-1.125v1.05h1.125v4.83c0 1.23.69 2.07 2.115 2.07zm5.377.03c1.905 0 2.88-.96 2.88-2.385 0-1.665-1.14-2.025-2.76-2.325-1.44-.255-1.83-.54-1.83-1.245 0-.675.585-1.125 1.485-1.125.99 0 1.47.375 1.65 1.23h1.2c-.21-1.695-1.425-2.265-2.835-2.265-1.23 0-2.655.75-2.655 2.205 0 1.365.69 1.935 2.73 2.31 1.215.225 1.83.495 1.83 1.32 0 .84-.525 1.245-1.71 1.245-1.26 0-1.755-.585-1.845-1.515H89.61c.075 1.605 1.2 2.55 3.075 2.55z" fill="#3F3F67"/>
    <defs>
        <linearGradient id="sec_3_img_cir_re_svg__sec_3_img_cir_re_svg__paint0_linear" x1="42.806" y1="43.271" x2="76.306" y2="198.208" gradientUnits="userSpaceOnUse">
            <stop offset=".095" stop-color="#fff"/>
            <stop offset="1" stop-color="#fff" stop-opacity="0"/>
        </linearGradient>
        <filter id="sec_3_img_cir_re_svg__sec_3_img_cir_re_svg__filter0_b" x="-4" y="-4" width="142" height="142" filterUnits="userSpaceOnUse" color-interpolation-filters="sRGB">
            <feFlood flood-opacity="0" result="BackgroundImageFix"/>
            <feGaussianBlur stdDeviation="2"/>
            <feComposite in2="SourceAlpha" operator="in" result="effect1_backgroundBlur"/>
            <feBlend in="SourceGraphic" in2="effect1_backgroundBlur" result="shape"/>
        </filter>
    </defs>
</svg>
