<svg width="655" height="766" viewBox="0 0 655 766" fill="none" xmlns="http://www.w3.org/2000/svg">
    <g filter="url(#app_store_svg__app_store_svg__filter0_diii)">
        <rect x="135" y="40" width="299" height="604.927" rx="30" fill="#F6F6FC"/>
    </g>
    <mask id="app_store_svg__a" fill="#fff">
        <path fill-rule="evenodd" clip-rule="evenodd" d="M168.984 51.463c-11.046 0-20 8.955-20 20v540c0 11.046 8.954 20 20 20h229.878c11.045 0 20-8.954 20-20v-540c0-11.045-8.955-20-20-20h-36.817v6.041c0 11.046-8.954 20-20 20H225.8c-11.045 0-20-8.954-20-20v-6.04h-36.816z"/>
    </mask>
    <g filter="url(#app_store_svg__app_store_svg__filter1_i)">
        <path fill-rule="evenodd" clip-rule="evenodd" d="M168.984 51.463c-11.046 0-20 8.955-20 20v540c0 11.046 8.954 20 20 20h229.878c11.045 0 20-8.954 20-20v-540c0-11.045-8.955-20-20-20h-36.817v6.041c0 11.046-8.954 20-20 20H225.8c-11.045 0-20-8.954-20-20v-6.04h-36.816z" fill="url(#app_store_svg__app_store_svg__paint0_linear)"/>
    </g>
    <path d="M362.045 51.463v-1h-1v1h1zm-156.245 0h1v-1h-1v1zm-55.816 20c0-10.493 8.507-19 19-19v-2c-11.598 0-21 9.402-21 21h2zm0 540v-540h-2v540h2zm19 19c-10.493 0-19-8.506-19-19h-2c0 11.598 9.402 21 21 21v-2zm229.878 0H168.984v2h229.878v-2zm19-19c0 10.494-8.507 19-19 19v2c11.597 0 21-9.402 21-21h-2zm0-540v540h2v-540h-2zm-19-19c10.493 0 19 8.507 19 19h2c0-11.598-9.402-21-21-21v2zm-36.817 0h36.817v-2h-36.817v2zm-1-1v6.041h2v-6.04h-2zm0 6.041c0 10.494-8.506 19-19 19v2c11.598 0 21-9.402 21-21h-2zm-19 19H225.8v2h116.245v-2zm-116.245 0c-10.493 0-19-8.506-19-19h-2c0 11.598 9.402 21 21 21v-2zm-19-19v-6.04h-2v6.04h2zm-37.816-5.04H205.8v-2h-36.816v2z" fill="url(#app_store_svg__app_store_svg__paint1_linear)" mask="url(#app_store_svg__a)"/>
    <rect x="182" y="486.463" width="58" height="57" rx="10" fill="#E9EBF3" fill-opacity=".6"/>
    <rect x="182" y="159.463" width="209" height="146" rx="10" fill="#E9EBF3" fill-opacity=".6"/>
    <rect x="182" y="333.463" width="58" height="57" rx="10" fill="#E9EBF3" fill-opacity=".6"/>
    <rect x="182" y="409.463" width="58" height="57" rx="10" fill="#E9EBF3" fill-opacity=".6"/>
    <rect x="182" y="131.463" width="136" height="6" rx="3" fill="#E9EBF3"/>
    <rect x="182" y="143.463" width="21" height="6" rx="3" fill="#E9EBF3"/>
    <rect x="210" y="143.463" width="57" height="6" rx="3" fill="#E9EBF3"/>
    <path d="M191.471 112.26a1.077 1.077 0 00-1.97-.259l-.166.287-.165-.287a1.077 1.077 0 00-1.469-.394h-.001c-.513.297-.69.956-.393 1.469l.786 1.363-2.902 5.026h-2.115a1.076 1.076 0 000 2.151h8.168l-1.242-2.151h-2.327l3.689-6.388a1.07 1.07 0 00.107-.817z" fill="#69B4FE"/>
    <path d="M195.595 119.465h-2.116l-2.405-4.166-1.242 2.151 3.735 6.469a1.07 1.07 0 00.933.538 1.076 1.076 0 00.929-1.614l-.708-1.227h.874a1.076 1.076 0 000-2.151zm-12.142 3.012l-.212.366a1.077 1.077 0 001.863 1.076l.832-1.442h-2.483z" fill="#69B4FE"/>
    <g filter="url(#app_store_svg__app_store_svg__filter2_d)">
        <g filter="url(#app_store_svg__app_store_svg__filter3_b)">
            <rect x="271" y="248.463" width="343" height="456" rx="8" fill="#fff" fill-opacity=".6"/>
            <rect x="271" y="248.463" width="343" height="456" rx="8" stroke="#fff" stroke-width="2"/>
        </g>
        <path d="M375.312 318.631c.924 0 1.694.228 2.31.682.616.455 1.023 1.075 1.221 1.859h-1.32a2.102 2.102 0 00-.836-1.001c-.381-.249-.836-.374-1.364-.374-.484 0-.92.114-1.309.341-.381.228-.682.55-.902.968-.213.418-.319.91-.319 1.474 0 .594.11 1.104.33 1.529.22.426.528.752.924.979.403.22.869.33 1.397.33.645 0 1.199-.198 1.661-.594.462-.403.741-.953.836-1.65h-2.849v-.924h3.905v1.199a3.713 3.713 0 01-.616 1.562 3.44 3.44 0 01-1.265 1.111c-.521.279-1.118.418-1.793.418-.755 0-1.423-.168-2.002-.506a3.464 3.464 0 01-1.342-1.397c-.315-.601-.473-1.287-.473-2.057s.158-1.452.473-2.046a3.397 3.397 0 011.331-1.397c.579-.337 1.247-.506 2.002-.506zm9.586 6.149h-3.278l-.594 1.683h-1.342l2.86-7.645h1.441l2.849 7.645h-1.342l-.594-1.683zm-.352-.968l-1.287-3.63-1.287 3.63h2.574zm11.271-4.994v7.645h-1.265v-5.731l-2.211 5.731h-1.1l-2.222-5.731v5.731h-1.254v-7.645h1.518l2.53 6.105 2.486-6.105h1.518zm2.762.891v2.354h2.86v.968h-2.86v2.409h3.19v1.023h-4.444v-7.766h4.444v1.012h-3.19zm11.074 2.86c0 .785-.162 1.471-.484 2.057a3.273 3.273 0 01-1.397 1.353c-.609.323-1.339.484-2.189.484h-2.596v-7.766h2.596c.85 0 1.58.162 2.189.484a3.22 3.22 0 011.397 1.342c.322.58.484 1.262.484 2.046zm-4.169 2.761c.931 0 1.646-.242 2.145-.726.498-.484.748-1.162.748-2.035 0-.872-.25-1.551-.748-2.035-.499-.484-1.214-.726-2.145-.726h-1.243v5.522h1.243zm9.027-6.732a3.8 3.8 0 011.947.506 3.564 3.564 0 011.375 1.419c.338.602.506 1.284.506 2.046 0 .763-.168 1.449-.506 2.057a3.642 3.642 0 01-1.375 1.419 3.79 3.79 0 01-1.947.506 3.873 3.873 0 01-1.969-.506 3.757 3.757 0 01-1.375-1.419c-.337-.608-.506-1.294-.506-2.057 0-.762.169-1.444.506-2.046a3.673 3.673 0 011.375-1.419 3.883 3.883 0 011.969-.506zm0 1.166c-.498 0-.942.114-1.331.341a2.37 2.37 0 00-.913.979c-.212.426-.319.921-.319 1.485 0 .565.107 1.06.319 1.485.22.426.525.752.913.979.389.228.833.341 1.331.341.492 0 .928-.113 1.309-.341.389-.227.69-.553.902-.979.22-.425.33-.92.33-1.485 0-.564-.11-1.059-.33-1.485a2.29 2.29 0 00-.902-.979 2.507 2.507 0 00-1.309-.341zm13.146-.946v7.645h-1.265v-5.731l-2.211 5.731h-1.1l-2.222-5.731v5.731h-1.254v-7.645h1.518l2.53 6.105 2.486-6.105h1.518z" fill="#8E8E92"/>
        <path d="M287 386.964l311-.002" stroke="#E6EBF0" stroke-linecap="square"/>
        <rect x="295" y="314.463" width="60" height="57" rx="5" fill="url(#app_store_svg__app_store_svg__paint2_linear)"/>
        <path d="M383.981 361.02a.377.377 0 00-.307-.251l-4.03-.566-1.802-3.534a.384.384 0 00-.342-.206.384.384 0 00-.342.206l-1.802 3.534-4.03.566a.377.377 0 00-.307.251.36.36 0 00.096.378l2.916 2.751-.688 3.884a.361.361 0 00.151.36.388.388 0 00.401.028l3.605-1.834 3.604 1.834a.395.395 0 00.402-.028.361.361 0 00.151-.36l-.688-3.884 2.916-2.751a.36.36 0 00.096-.378zm16 0a.377.377 0 00-.307-.251l-4.03-.566-1.802-3.534a.384.384 0 00-.342-.206.384.384 0 00-.342.206l-1.802 3.534-4.03.566a.377.377 0 00-.307.251.36.36 0 00.096.378l2.916 2.751-.688 3.884a.361.361 0 00.151.36.388.388 0 00.401.028l3.605-1.834 3.604 1.834a.395.395 0 00.402-.028.361.361 0 00.151-.36l-.688-3.884 2.916-2.751a.36.36 0 00.096-.378zm51 0a.377.377 0 00-.307-.251l-4.03-.566-1.802-3.534a.384.384 0 00-.342-.206.384.384 0 00-.342.206l-1.802 3.534-4.03.566a.377.377 0 00-.307.251.36.36 0 00.096.378l2.916 2.751-.688 3.884a.361.361 0 00.151.36.388.388 0 00.401.028l3.605-1.834 3.604 1.834a.395.395 0 00.402-.028.361.361 0 00.151-.36l-.688-3.884 2.916-2.751a.36.36 0 00.096-.378zm-35 0a.377.377 0 00-.307-.251l-4.03-.566-1.802-3.534a.384.384 0 00-.342-.206.384.384 0 00-.342.206l-1.802 3.534-4.03.566a.377.377 0 00-.307.251.36.36 0 00.096.378l2.916 2.751-.688 3.884a.361.361 0 00.151.36.388.388 0 00.401.028l3.605-1.834 3.604 1.834a.395.395 0 00.402-.028.361.361 0 00.151-.36l-.688-3.884 2.916-2.751a.36.36 0 00.096-.378zm17 0a.377.377 0 00-.307-.251l-4.03-.566-1.802-3.534a.384.384 0 00-.342-.206.384.384 0 00-.342.206l-1.802 3.534-4.03.566a.377.377 0 00-.307.251.36.36 0 00.096.378l2.916 2.751-.688 3.884a.361.361 0 00.151.36.388.388 0 00.401.028l3.605-1.834 3.604 1.834a.395.395 0 00.402-.028.361.361 0 00.151-.36l-.688-3.884 2.916-2.751a.36.36 0 00.096-.378z" fill="#86868A"/>
        <rect x="540" y="332.463" width="60" height="20" rx="10" fill="#5BDBA5"/>
        <rect x="371" y="339.463" width="120" height="6" rx="3" fill="#D8DCEA"/>
        <rect x="289" y="418.463" width="100" height="246" rx="10" fill="#F6EADE"/>
        <rect x="289" y="504.463" width="100" height="160" rx="10" fill="#FDD0A2"/>
        <rect x="394" y="418.463" width="99" height="246" rx="10" fill="#FFCCC7"/>
        <rect x="394" y="506.463" width="99" height="158" rx="10" fill="#FAB4AD"/>
        <rect x="498" y="418.463" width="100" height="246" rx="10" fill="#BDF"/>
        <rect x="498" y="507.463" width="100" height="157" rx="10" fill="#6BB6FF"/>
        <path opacity=".5" d="M351.825 353.938c.106-6.938-5.535-18.366-8.202-22.116-3.626-5.094-8.138-3.337-9.189-2.524-.229.177-.564.437-.986.735a19.1 19.1 0 01-2.176 1.324c-.211.107-.427.218-.656.321-.014.009-.033.014-.046.023-.097.046-.198.088-.294.13a.058.058 0 01-.028.009c-.004.005-.013.005-.018.01-.083.037-.165.069-.248.102a2.422 2.422 0 01-.202.079c-.078.032-.156.06-.238.093-.014.004-.023.009-.037.014-.009.004-.014.004-.023.009-.087.033-.179.065-.271.098-.05.018-.101.037-.151.051-.092.032-.189.06-.28.093-.028.009-.051.018-.078.023a8.921 8.921 0 01-.391.116c-.123.037-.247.065-.376.098-.027.004-.055.014-.083.023-.013.005-.022.005-.036.009-.138.033-.276.065-.418.093-.128.028-.262.051-.39.075a13.32 13.32 0 01-.854.125c-.023.005-.05.005-.073.009-.11.014-.225.024-.335.033-.028.005-.055.005-.087.005-.12.009-.239.013-.358.018-.023 0-.051 0-.074.005-.128.004-.252.009-.381.009-.147 0-.298 0-.445-.009h-.046a7.397 7.397 0 01-.445-.033 4.961 4.961 0 01-.285-.032c-.014 0-.023 0-.037-.005h-.013a8.64 8.64 0 01-.317-.046h-.009l-.243-.042a5.752 5.752 0 01-.423-.084 13.874 13.874 0 01-.427-.102c-.032-.009-.064-.019-.096-.023-.147-.038-.289-.079-.436-.121l-.046-.014c-.197-.061-.39-.121-.583-.186h-.004a.12.12 0 01-.046-.019l-.239-.083c-.014-.005-.032-.01-.046-.019-.069-.023-.133-.051-.202-.074-.032-.01-.059-.023-.092-.033-.105-.042-.206-.079-.307-.121-.055-.023-.11-.046-.165-.065-.037-.014-.069-.028-.106-.041l-.431-.182-.101-.042c-.143-.06-.28-.125-.418-.185-2.387-1.079-4.572-2.352-6.545-2.533-3.92-.381-8.34 5.855-8.34 5.855-3.865 5.103-6.072 12.139-5.949 17.46-.022 2.882.602 5.317 1.97 6.772.872.924 2.042 1.454 3.543 1.44 6.609-.046 10.185-6.334 16.868-8.816a15.769 15.769 0 015.462-.99c6.972-.051 8.67 4.23 12.668 7.032 1.969 1.38 4.493 2.403 8.477 2.37 3.681-.028 4.934-2.565 4.833-6.121z" fill="#32438B"/>
        <path d="M347.167 358.182c-3.984.027-6.513-.995-8.478-2.371-3.998-2.802-5.696-7.082-12.668-7.031-2.061.014-3.851.39-5.462.99-6.687 2.486-10.263 8.774-16.872 8.821-1.501.009-2.672-.516-3.544-1.441-3.864-4.104-1.794-16.038 3.984-23.655 0 0 4.416-6.232 8.336-5.865 1.973.186 4.158 1.455 6.545 2.533.316.144.638.283.959.418l.257.107c.101.042.207.084.308.121.091.037.179.069.27.102.032.009.065.023.092.032.087.033.175.061.262.093.004 0 .009.005.014.005.101.033.202.07.302.098.056.018.106.032.161.051.055.018.106.032.161.046.321.093.642.182.968.251.055.014.106.023.161.033.055.009.11.023.161.032.11.019.22.042.33.056.05.009.101.019.147.023.009 0 .014.005.023.005.046.009.096.014.142.019a.07.07 0 01.028.004c.05.009.101.014.151.019h.009c.055.004.106.014.161.014.064.004.133.014.197.018a.414.414 0 00.078.005c.042.005.083.005.124.009.046.005.097.005.143.005.059 0 .119.005.179.005h.215c.074 0 .143 0 .216-.005.041 0 .087-.005.133-.005.051 0 .101-.004.152-.004.059-.005.124-.005.183-.01.028 0 .06-.004.087-.004l.152-.014h.037c.068-.005.137-.014.206-.019h.005c.073-.009.151-.018.225-.023.055-.005.11-.014.165-.019l.115-.014c.133-.018.266-.041.399-.06.069-.014.138-.023.206-.037.056-.01.111-.019.166-.033.036-.009.073-.014.11-.023.018-.005.032-.005.05-.009.055-.01.106-.024.156-.033l.06-.014c.064-.014.124-.028.188-.046.087-.019.175-.042.262-.065.064-.019.133-.033.197-.051.069-.019.138-.038.207-.061.05-.014.101-.032.151-.046l.308-.098c.124-.042.252-.084.372-.13.055-.019.105-.037.156-.06.064-.024.128-.047.188-.075a9.611 9.611 0 00.555-.228c.074-.032.147-.065.225-.097.051-.023.096-.042.142-.065.225-.102.446-.214.657-.321a18.99 18.99 0 002.175-1.324c.423-.298.758-.558.987-.735 1.051-.813 5.568-2.57 9.189 2.524 3.924 5.502 14.252 27.573 3.374 27.652z" fill="#F7FBFF"/>
        <path d="M347.162 357.61c-3.984.028-6.513-.995-8.477-2.37-3.998-2.803-5.696-7.083-12.669-7.032a15.75 15.75 0 00-5.461.99c-6.688 2.482-10.263 8.77-16.868 8.816-1.501.009-2.672-.516-3.544-1.44-3.864-4.104-1.794-16.038 3.984-23.656 0 0 4.416-6.232 8.336-5.864 1.973.185 4.158 1.454 6.545 2.532.316.144.638.284.959.419.087.037.17.069.257.107.101.041.207.083.308.12.091.038.179.07.27.103.033.009.065.023.092.032.087.033.175.061.262.093.004 0 .009.005.014.005.101.032.202.069.302.097.056.019.106.033.161.051.055.019.106.033.161.047.321.093.642.181.968.251.055.014.106.023.161.032.055.01.11.024.161.033.11.018.22.042.33.056.051.009.101.018.147.023.009 0 .014.005.023.005.046.009.096.014.142.018a1.553 1.553 0 00.179.023h.009c.055.005.106.014.161.014.064.005.133.014.197.019a.414.414 0 00.078.005c.042.004.083.004.124.009.046.005.097.005.143.005.059 0 .119.004.179.004h.215c.074 0 .143 0 .216-.004.041 0 .087-.005.129-.005.05 0 .101-.005.151-.005.06-.004.124-.004.184-.009.027 0 .059-.005.087-.005l.151-.014h.037c.069-.004.138-.014.207-.018h.004c.074-.01.152-.019.225-.023.055-.005.11-.014.165-.019l.115-.014c.133-.019.266-.042.399-.06.069-.014.138-.024.207-.038a1.92 1.92 0 00.165-.032c.037-.009.074-.014.11-.023.019-.005.032-.005.051-.01.055-.009.105-.023.156-.032l.059-.014c.065-.014.124-.028.189-.047.087-.018.174-.041.261-.065.065-.018.133-.032.198-.051.069-.018.137-.037.206-.06.051-.014.101-.033.152-.047l.307-.097c.124-.042.253-.084.372-.13.055-.019.106-.038.156-.061.064-.023.129-.046.188-.074.124-.047.248-.098.372-.149a2.91 2.91 0 00.184-.079c.073-.032.146-.065.225-.098.05-.023.096-.041.142-.065.225-.102.445-.213.656-.32a18.862 18.862 0 002.176-1.325c.422-.297.757-.557.987-.734 1.055-.818 5.567-2.575 9.193 2.519 3.92 5.507 14.247 27.582 3.369 27.661z" fill="#E3F1FF"/>
        <path d="M316.983 344.007c2.705-2.738 2.705-7.179 0-9.917a6.865 6.865 0 00-9.795 0c-2.705 2.738-2.705 7.179 0 9.917a6.865 6.865 0 009.795 0z" fill="#C4E1FF"/>
        <path d="M313.812 334.815l-.179 2.481c-.005.037-.009.075-.023.107a.409.409 0 01-.142.195l-1.047.772a.408.408 0 01-.528-.037l-.922-.916a.403.403 0 01-.115-.218c-.009-.037-.009-.07-.009-.107l.179-2.482a.407.407 0 01.436-.381l1.969.144c.23.014.399.214.381.442z" fill="#32438B"/>
        <path d="M313.61 337.403a.402.402 0 01-.142.195l-1.047.772a.408.408 0 01-.528-.037l-.922-.916a.403.403 0 01-.115-.218 2.283 2.283 0 012.754.204z" fill="#1F307A"/>
        <path d="M310.402 343.287l.179-2.482a.378.378 0 01.023-.107.402.402 0 01.142-.195l1.046-.772a.408.408 0 01.528.038l.923.915c.06.061.101.135.115.219a.426.426 0 01.009.107l-.179 2.481a.408.408 0 01-.436.381l-1.969-.144a.414.414 0 01-.381-.441z" fill="#32438B"/>
        <path d="M310.604 340.698a.402.402 0 01.142-.195l1.046-.772a.408.408 0 01.528.038l.923.915a.413.413 0 01.115.219 2.285 2.285 0 01-2.754-.205z" fill="#1F307A"/>
        <path d="M316.277 340.684l-2.451-.181c-.037-.005-.074-.009-.106-.023a.405.405 0 01-.193-.144l-.761-1.06a.42.42 0 01.036-.534l.904-.935a.403.403 0 01.216-.116c.037-.009.069-.009.106-.009l2.451.181a.41.41 0 01.376.442l-.142 1.993a.406.406 0 01-.436.386z" fill="#32438B"/>
        <path d="M313.72 340.48a.405.405 0 01-.193-.144l-.761-1.06a.42.42 0 01.036-.534l.904-.934a.398.398 0 01.216-.117 2.353 2.353 0 01-.202 2.789z" fill="#1F307A"/>
        <path d="M307.909 337.236l2.451.181c.037.005.074.009.106.023a.405.405 0 01.193.144l.762 1.06a.42.42 0 01-.037.534l-.904.935a.4.4 0 01-.216.116c-.037.009-.069.009-.106.009l-2.451-.181a.411.411 0 01-.376-.442l.142-1.993a.406.406 0 01.436-.386z" fill="#32438B"/>
        <path d="M310.466 337.44a.405.405 0 01.193.144l.762 1.06a.42.42 0 01-.037.535l-.904.934a.4.4 0 01-.216.116 2.351 2.351 0 01-.358-1.427 2.3 2.3 0 01.56-1.362z" fill="#1F307A"/>
        <path opacity=".5" d="M312.486 333.095l-1.075.976 1.997.149-.922-1.125zm-.859 11.902l1.07-.971-1.992-.149.922 1.12zm6.339-5.512l-.964-1.087-.147 2.021 1.111-.934zm-11.759-.869l.963 1.088.147-2.022-1.11.934z" fill="#32438B"/>
        <path d="M343.185 343.501c2.65-2.683 2.65-7.032 0-9.714a6.723 6.723 0 00-9.593 0c-2.65 2.682-2.65 7.031 0 9.714a6.724 6.724 0 009.593 0z" fill="#C4E1FF"/>
        <path opacity=".5" d="M339.266 337.344a2.228 2.228 0 000-3.122 2.161 2.161 0 00-3.083 0 2.226 2.226 0 000 3.122 2.161 2.161 0 003.083 0zm.328 7.381c1.166-.304 1.868-1.507 1.568-2.688a2.178 2.178 0 00-2.655-1.587c-1.166.304-1.868 1.507-1.568 2.688a2.178 2.178 0 002.655 1.587zm2.561-4.041c-1.185.228-2.323-.562-2.543-1.761-.225-1.199.555-2.352 1.739-2.575a2.176 2.176 0 012.543 1.762c.22 1.194-.56 2.351-1.739 2.574zm-6.456 1.272c1.145-.376 1.773-1.621 1.402-2.781a2.174 2.174 0 00-2.746-1.419c-1.146.375-1.773 1.62-1.402 2.78a2.175 2.175 0 002.746 1.42z" fill="#32438B"/>
        <path d="M339.879 335.98c.295-1.182-.412-2.382-1.579-2.682a2.178 2.178 0 00-2.648 1.599c-.296 1.182.411 2.382 1.578 2.681 1.167.3 2.353-.416 2.649-1.598z" fill="#9C3"/>
        <path d="M340.628 343.802a2.228 2.228 0 000-3.122 2.161 2.161 0 00-3.083 0 2.226 2.226 0 000 3.122 2.161 2.161 0 003.083 0z" fill="#FE3198"/>
        <path d="M341.787 340.378c1.204 0 2.181-.989 2.181-2.208 0-1.219-.977-2.207-2.181-2.207-1.204 0-2.18.988-2.18 2.207 0 1.219.976 2.208 2.18 2.208z" fill="#3B9BFF"/>
        <path d="M335.467 341.679c-1.184.228-2.322-.563-2.543-1.762a2.199 2.199 0 011.74-2.574c1.184-.228 2.322.562 2.543 1.761.22 1.195-.556 2.347-1.74 2.575z" fill="#FEB800"/>
        <path d="M338.35 335.326a.679.679 0 01-.671.688.678.678 0 01-.679-.679.678.678 0 01.67-.688.678.678 0 01.68.679zm-2.672 4.169a.676.676 0 01-.67.687.676.676 0 01-.679-.678.677.677 0 01.67-.688c.372 0 .675.297.679.679zm4.094 2.746a.677.677 0 01-.67.688.676.676 0 01-.679-.679.676.676 0 01.67-.687.679.679 0 01.679.678zm2.754-4.085a.677.677 0 01-.67.688.676.676 0 01-.679-.679.676.676 0 01.67-.687.673.673 0 01.679.678z" fill="#fff"/>
        <path d="M331.442 329.484l.023 2.947c.009 1.329-1.047 2.416-2.364 2.425l-7.674.056c-1.313.01-2.387-1.059-2.396-2.393l-.023-2.937c1.602.725 3.295 1.366 5.072 1.529.307.028.619.042.936.042a13.098 13.098 0 002.552-.275 14.996 14.996 0 003.874-1.394z" fill="#1F307A"/>
        <path d="M328.183 333.03l-5.646.042a.274.274 0 01-.275-.274c0-.154.119-.279.271-.279l5.645-.042c.152 0 .276.121.276.274 0 .154-.12.279-.271.279z" fill="#9C3"/>
        <path opacity=".2" d="M326.687 331.036l-1.96 3.858-2.575.018 1.928-3.792c.307.028.619.042.936.042a13.656 13.656 0 001.671-.126zm1.79-.376l-2.144 4.22-.803.004 2.033-4.001c.317-.065.62-.139.914-.223z" fill="#fff"/>
        <path opacity=".5" d="M329.688 344.769c-1.289.247-2.538-.618-2.781-1.924-.243-1.306.61-2.57 1.9-2.816s2.538.618 2.782 1.924c.238 1.306-.611 2.57-1.901 2.816z" fill="#32438B"/>
        <path d="M331.314 343.096c.379-1.155-.238-2.402-1.378-2.785a2.17 2.17 0 00-2.751 1.395c-.379 1.155.238 2.402 1.379 2.786a2.17 2.17 0 002.75-1.396z" fill="#32438B"/>
        <path d="M330.762 342.111a1.56 1.56 0 01-1.23 1.822 1.544 1.544 0 01-1.799-1.246 1.56 1.56 0 011.23-1.821 1.545 1.545 0 011.799 1.245z" fill="#D4E9FF"/>
        <path d="M330.588 342.143c.142.767-.344 1.502-1.088 1.641-.743.139-1.459-.362-1.602-1.129-.142-.767.345-1.501 1.088-1.641.744-.139 1.46.367 1.602 1.129z" fill="#1F307A"/>
        <path opacity=".5" d="M322.615 344.76c-1.289.246-2.538-.618-2.781-1.924-.243-1.306.61-2.57 1.9-2.816 1.29-.247 2.538.618 2.782 1.924.238 1.31-.611 2.57-1.901 2.816z" fill="#32438B"/>
        <path d="M324.314 341.985c.22 1.195-.556 2.347-1.735 2.57a2.175 2.175 0 01-2.538-1.756c-.221-1.195.555-2.347 1.734-2.57 1.175-.223 2.314.562 2.539 1.756z" fill="#32438B"/>
        <path d="M323.689 342.106a1.56 1.56 0 01-1.23 1.822 1.544 1.544 0 01-1.799-1.245 1.562 1.562 0 011.23-1.822 1.537 1.537 0 011.799 1.245z" fill="#D4E9FF"/>
        <path d="M323.52 342.139c.142.767-.345 1.501-1.088 1.64-.744.14-1.46-.362-1.602-1.129-.142-.767.344-1.501 1.088-1.64.743-.14 1.459.362 1.602 1.129z" fill="#1F307A"/>
        <path d="M323.634 336.441a.34.34 0 01-.326.349.34.34 0 01-.018-.679c.188-.004.34.14.344.33zm1.102-.028a.34.34 0 01-.326.349.34.34 0 01-.018-.679.337.337 0 01.344.33zm1.102-.028a.34.34 0 01-.326.349.34.34 0 01-.019-.678.34.34 0 01.345.329zm1.097-.027a.34.34 0 01-.326.348.34.34 0 01-.019-.678.337.337 0 01.345.33zm1.101-.024a.34.34 0 01-.326.349.34.34 0 01-.018-.679.337.337 0 01.344.33zm-3.832.902a.34.34 0 01-.326.349.34.34 0 01-.345-.33.34.34 0 01.326-.349.337.337 0 01.345.33zm1.101-.028a.34.34 0 01-.326.349.34.34 0 01-.018-.679.335.335 0 01.344.33zm1.102-.023a.34.34 0 01-.326.348.34.34 0 01-.019-.678.333.333 0 01.345.33zm1.097-.028a.34.34 0 01-.326.349.34.34 0 01-.019-.679.336.336 0 01.345.33zm-2.731.804a.34.34 0 01-.326.348.34.34 0 01-.019-.678.336.336 0 01.345.33zm1.101-.023a.338.338 0 01-.326.348.34.34 0 01-.018-.678.335.335 0 01.344.33zm1.097-.028a.338.338 0 01-.326.348.34.34 0 01-.018-.678.335.335 0 01.344.33z" fill="#C4E1FF"/>
        <path d="M331.143 347.125l-10.74.08a.634.634 0 01-.633-.633.634.634 0 01.624-.641l10.74-.079a.634.634 0 01.634.632.631.631 0 01-.625.641z" fill="#1F307A"/>
        <path d="M323.745 346.833l-2.86.018a.284.284 0 01-.285-.283c0-.158.124-.288.28-.288l2.86-.019c.156 0 .285.125.285.283a.285.285 0 01-.28.289z" fill="#FE3198"/>
        <path d="M330.248 346.786l-2.859.019a.285.285 0 01-.285-.284c0-.158.124-.288.28-.288l2.86-.018c.156 0 .284.125.284.283a.28.28 0 01-.28.288z" fill="#9C3"/>
        <path d="M314.585 578.193v7.351H306v8.577h7.358v9.189h17.17v7.964h7.972v9.189h15.943V603.31H371v-17.766h-7.358v-8.576h-9.199V561.04h-9.198v-8.577h-14.717v8.577h-7.971v17.153h-7.972z" fill="#F7AC61"/>
        <path fill="#F89F97" d="M408 547.463h69v73h-69z"/>
        <path d="M551 596.463l28-25v47h-53l25-22z" fill="#449DF2"/>
        <circle cx="544" cy="578.463" r="24" fill="#BDF"/>
    </g>
    <rect opacity=".6" x="312" y="720.268" width="61" height="26.463" rx="13.232" fill="#fff"/>
    <path d="M333.247 730.857h-2.183V737h-1.167v-6.143h-2.167v-.966h5.517v.966zm.786 3.453c0-.381.056-.736.166-1.065a2.57 2.57 0 01.484-.854c.211-.241.468-.43.771-.567a2.489 2.489 0 011.03-.205c.388 0 .733.069 1.036.205.306.137.563.326.771.567.212.241.373.525.483.854.111.329.166.684.166 1.065v.102c0 .384-.055.741-.166 1.069-.11.329-.271.614-.483.855a2.2 2.2 0 01-.767.561 2.47 2.47 0 01-1.03.206 2.52 2.52 0 01-1.04-.206 2.244 2.244 0 01-.771-.561 2.576 2.576 0 01-.484-.855 3.346 3.346 0 01-.166-1.069v-.102zm1.167.102c0 .241.025.467.073.679.053.211.131.399.235.561.107.16.242.287.405.381.163.091.357.137.581.137.218 0 .407-.046.567-.137.162-.094.296-.221.4-.381.107-.162.186-.35.234-.561.052-.212.078-.438.078-.679v-.102c0-.235-.026-.458-.078-.669a1.636 1.636 0 00-.234-.557 1.185 1.185 0 00-.4-.381 1.119 1.119 0 00-.577-.141c-.221 0-.413.047-.576.141a1.176 1.176 0 00-.4.381 1.813 1.813 0 00-.235.557 3.008 3.008 0 00-.073.669v.102zm4.898-.093c0-.4.049-.766.146-1.098.098-.332.238-.617.42-.855.182-.237.402-.421.659-.552.261-.13.552-.195.874-.195.29 0 .546.051.767.152.221.097.415.239.581.424V729.5h1.172v7.5h-1.06l-.058-.537a1.706 1.706 0 01-.601.474 1.91 1.91 0 01-.81.161c-.319 0-.608-.067-.865-.201a2 2 0 01-.659-.561 2.74 2.74 0 01-.42-.845 3.764 3.764 0 01-.146-1.069v-.103zm1.167.103c0 .238.022.46.068.669.046.208.117.39.215.547.101.156.228.28.381.371.156.088.342.132.556.132.267 0 .485-.057.655-.171.169-.117.304-.274.405-.469v-2.295a1.223 1.223 0 00-.41-.459c-.169-.114-.383-.171-.64-.171-.218 0-.405.046-.561.137-.153.091-.28.216-.381.376a1.847 1.847 0 00-.22.557 3.16 3.16 0 00-.068.673v.103zm8.364 2.578a1.17 1.17 0 01-.083-.229 4.378 4.378 0 01-.054-.284 1.993 1.993 0 01-.278.24 2.185 2.185 0 01-1.211.371c-.28 0-.534-.039-.762-.118a1.846 1.846 0 01-.581-.332 1.487 1.487 0 01-.503-1.127c0-.567.21-1 .63-1.299.423-.3 1.029-.45 1.817-.45h.854v-.346c0-.28-.094-.502-.283-.664-.189-.166-.456-.249-.801-.249a1.3 1.3 0 00-.41.058.837.837 0 00-.293.152.627.627 0 00-.176.229.69.69 0 00-.058.283h-1.167c0-.205.047-.403.141-.595.098-.196.239-.368.425-.518.186-.153.412-.275.679-.366a2.88 2.88 0 01.923-.137c.312 0 .602.039.869.117.267.075.498.189.693.342.195.15.348.339.459.567.111.224.166.488.166.791v2.353c0 .231.016.443.049.635.036.189.086.353.151.493V737h-1.196zm-1.406-.845c.149 0 .289-.018.42-.053a1.73 1.73 0 00.356-.147 1.21 1.21 0 00.273-.21 1.1 1.1 0 00.186-.239v-.991h-.742c-.475 0-.827.076-1.055.229a.746.746 0 00-.337.654.84.84 0 00.054.303.656.656 0 00.161.239.84.84 0 00.278.157c.114.039.249.058.406.058zm6.137-1.269l.201.635 1.484-3.804h1.294l-2.676 6.084a3.523 3.523 0 01-.229.429 2.093 2.093 0 01-.352.435 1.722 1.722 0 01-.493.332 1.56 1.56 0 01-.674.137c-.107 0-.216-.01-.327-.03a2.474 2.474 0 01-.288-.058l.166-.908h.093l.122.009c.042.004.081.005.117.005.039.004.07.005.093.005a.48.48 0 00.302-.102 1.432 1.432 0 00.406-.484c.045-.081.078-.136.097-.166l.347-.654-2.246-5.034h1.289l1.274 3.169z" fill="#525F7F"/>
    <rect x="379" y="720.268" width="61" height="26.463" rx="13.232" fill="#6BB6FF"/>
    <path d="M401.167 736.111a2.482 2.482 0 01-.425.396c-.163.12-.345.224-.547.312a3.255 3.255 0 01-.659.205 3.667 3.667 0 01-.752.074c-.426 0-.804-.083-1.133-.249a2.491 2.491 0 01-.835-.679 3.178 3.178 0 01-.517-1.021 4.432 4.432 0 01-.181-1.259v-.879c0-.449.059-.869.176-1.26.117-.391.285-.731.503-1.021a2.41 2.41 0 01.81-.683 2.302 2.302 0 011.094-.254c.368 0 .697.05.986.151.29.101.539.248.747.44.209.189.373.42.494.693.123.274.201.58.234.918h-1.152a2.334 2.334 0 00-.137-.517 1.202 1.202 0 00-.249-.391.995.995 0 00-.381-.244 1.398 1.398 0 00-.522-.088c-.248 0-.461.062-.64.185a1.45 1.45 0 00-.44.494 2.39 2.39 0 00-.258.717 4.411 4.411 0 00-.088.85v.889c.003.296.032.579.088.849.058.27.148.51.268.718.124.205.282.369.474.493s.423.187.693.191a2.094 2.094 0 00.674-.093c.107-.033.205-.073.293-.122a.724.724 0 00.215-.191l.01-1.421h-1.285v-.913h2.432l.01 2.71zm4.634.889a1.109 1.109 0 01-.083-.229 4.378 4.378 0 01-.054-.284 2.052 2.052 0 01-.278.24 2.17 2.17 0 01-1.211.371c-.28 0-.534-.039-.762-.118a1.835 1.835 0 01-.581-.332 1.487 1.487 0 01-.503-1.127c0-.567.21-1 .63-1.299.423-.3 1.028-.45 1.816-.45h.855v-.346c0-.28-.095-.502-.284-.664-.188-.166-.455-.249-.8-.249-.157 0-.293.019-.41.058a.829.829 0 00-.293.152.616.616 0 00-.176.229.69.69 0 00-.059.283h-1.167c0-.205.047-.403.142-.595.097-.196.239-.368.425-.518a2.13 2.13 0 01.678-.366 2.89 2.89 0 01.923-.137c.313 0 .602.039.869.117.267.075.498.189.694.342.195.15.348.339.459.567.11.224.166.488.166.791v2.353c0 .231.016.443.049.635.035.189.086.353.151.493V737h-1.196zm-1.407-.845c.15 0 .29-.018.42-.053.134-.04.253-.088.357-.147.107-.062.198-.132.273-.21.078-.078.14-.158.186-.239v-.991h-.742c-.476 0-.827.076-1.055.229a.744.744 0 00-.337.654.84.84 0 00.054.303.644.644 0 00.161.239.83.83 0 00.278.157c.114.039.249.058.405.058zm4.717-4.438l.029.556c.105-.205.245-.364.42-.478.176-.117.388-.176.635-.176.225 0 .41.046.557.137.15.088.262.226.337.415.104-.169.237-.303.4-.4a1.1 1.1 0 01.591-.152c.172 0 .33.029.474.088.146.055.27.145.371.269.104.123.184.281.239.473.058.192.088.423.088.694V737h-1.084v-3.867c0-.212-.046-.357-.137-.435a.485.485 0 00-.342-.122.48.48 0 00-.488.347V737h-1.06v-3.867c0-.205-.042-.348-.127-.43a.442.442 0 00-.336-.127.525.525 0 00-.323.088.562.562 0 00-.18.239V737h-1.084v-5.283h1.02zm7.793 5.381a2.81 2.81 0 01-1.069-.196 2.497 2.497 0 01-.83-.537 2.434 2.434 0 01-.533-.805 2.682 2.682 0 01-.19-1.011v-.2c0-.42.067-.798.2-1.133a2.77 2.77 0 01.542-.86c.228-.237.492-.419.791-.546.303-.127.62-.191.952-.191.385 0 .723.065 1.016.195.293.127.537.308.732.542.199.232.349.507.45.826.101.319.151.669.151 1.049v.494h-3.662c.019.205.07.395.151.571.082.176.187.329.318.459.133.127.288.228.464.303.179.071.374.107.585.107.297 0 .569-.059.816-.176a1.6 1.6 0 00.61-.483l.635.596c-.085.127-.194.25-.327.371a2.42 2.42 0 01-.469.317 2.867 2.867 0 01-.605.22 2.87 2.87 0 01-.728.088zm-.141-4.536c-.163 0-.315.029-.455.087-.14.059-.265.145-.376.259-.11.111-.205.248-.283.41-.075.16-.128.342-.161.547h2.476v-.088a1.61 1.61 0 00-.093-.449 1.146 1.146 0 00-.22-.39 1.048 1.048 0 00-.371-.274 1.217 1.217 0 00-.517-.102zm7.128 3.007a.524.524 0 00-.053-.239.491.491 0 00-.196-.2 1.502 1.502 0 00-.38-.171 5.197 5.197 0 00-.616-.151 6.379 6.379 0 01-.849-.235 2.82 2.82 0 01-.65-.327 1.435 1.435 0 01-.415-.439 1.16 1.16 0 01-.146-.586c0-.215.05-.419.151-.611a1.56 1.56 0 01.43-.512c.189-.147.416-.262.683-.347.271-.088.572-.132.904-.132.351 0 .665.044.942.132.28.088.516.208.708.361.192.15.339.327.44.533.104.205.156.424.156.659h-1.167a.72.72 0 00-.274-.557 1.007 1.007 0 00-.341-.176 1.453 1.453 0 00-.464-.068 1.57 1.57 0 00-.459.059.975.975 0 00-.318.146.59.59 0 00-.19.21.628.628 0 00-.015.493.486.486 0 00.176.195c.085.059.202.113.352.162.149.045.343.089.581.131.332.059.63.132.893.22.267.088.493.195.679.322.189.127.334.279.435.455.1.172.151.375.151.61 0 .234-.054.449-.161.644a1.546 1.546 0 01-.459.508c-.199.14-.438.249-.718.327a3.44 3.44 0 01-.933.118 3.11 3.11 0 01-1.015-.152 2.386 2.386 0 01-.738-.405 1.753 1.753 0 01-.454-.567 1.478 1.478 0 01-.151-.644h1.133a.833.833 0 00.415.693c.117.069.247.119.39.152.144.029.289.044.435.044.361 0 .636-.061.825-.181.189-.124.283-.282.283-.474z" fill="#fff"/>
    <rect opacity=".6" x="446" y="720.268" width="61" height="26.463" rx="13.232" fill="#fff"/>
    <path d="M463.841 735.35h-2.222l-.488 1.65h-1.211l2.309-7.109h1.031l2.265 7.109h-1.206l-.478-1.65zm-1.924-1.001h1.631l-.806-2.788-.825 2.788zm8.139-2.73a3.85 3.85 0 01.791.083.914.914 0 01.181.049l-.166 1.147a4.79 4.79 0 00-1.059-.122c-.391 0-.707.082-.948.245a1.436 1.436 0 00-.527.678V737h-1.167v-5.283h1.094l.053.825c.215-.286.469-.511.762-.674.296-.166.625-.249.986-.249zm4.688 4.551a1.29 1.29 0 00.776-.259.882.882 0 00.244-.288.683.683 0 00.088-.361h1.104c.003.254-.055.493-.176.717a1.862 1.862 0 01-.483.582 2.407 2.407 0 01-.703.395 2.418 2.418 0 01-.84.147 2.55 2.55 0 01-1.07-.21 2.181 2.181 0 01-.766-.572 2.504 2.504 0 01-.464-.844 3.418 3.418 0 01-.151-1.026v-.176c0-.361.05-.703.151-1.025.104-.322.259-.604.464-.845.205-.241.46-.431.766-.571a2.49 2.49 0 011.065-.215c.319 0 .613.049.884.147.273.097.507.234.703.41a1.877 1.877 0 01.62 1.43h-1.104a.927.927 0 00-.078-.405.938.938 0 00-.229-.332 1.17 1.17 0 00-.806-.307c-.244 0-.448.05-.61.151a1.126 1.126 0 00-.391.391 1.67 1.67 0 00-.21.546 3.342 3.342 0 00-.058.625v.176c0 .215.019.425.058.63.042.205.112.389.21.552.098.159.228.29.391.39.162.098.368.147.615.147zm7.065.83a1.239 1.239 0 01-.083-.229 5.212 5.212 0 01-.053-.284 1.91 1.91 0 01-.62.43 2.17 2.17 0 01-.87.181 2.31 2.31 0 01-.761-.118 1.824 1.824 0 01-.581-.332 1.495 1.495 0 01-.503-1.127c0-.567.21-1 .63-1.299.423-.3 1.028-.45 1.816-.45h.854v-.346c0-.28-.094-.502-.283-.664-.189-.166-.455-.249-.8-.249-.157 0-.293.019-.411.058a.846.846 0 00-.293.152.624.624 0 00-.175.229.69.69 0 00-.059.283h-1.167c0-.205.047-.403.142-.595.097-.196.239-.368.424-.518.186-.153.412-.275.679-.366.27-.091.578-.137.923-.137.312 0 .602.039.869.117.267.075.498.189.693.342.196.15.349.339.459.567.111.224.166.488.166.791v2.353c0 .231.017.443.049.635.036.189.087.353.152.493V737h-1.197zm-1.406-.845c.15 0 .29-.018.42-.053a1.74 1.74 0 00.357-.147c.107-.062.198-.132.273-.21.078-.078.14-.158.185-.239v-.991h-.742c-.475 0-.827.076-1.054.229a.744.744 0 00-.337.654c0 .108.018.209.053.303.036.091.09.171.162.239a.821.821 0 00.278.157c.114.039.249.058.405.058zm3.887-1.836c0-.4.049-.766.146-1.098.098-.332.238-.617.42-.855.183-.237.402-.421.659-.552.261-.13.552-.195.874-.195.29 0 .546.051.767.152.221.097.415.239.581.424V729.5h1.172v7.5h-1.06l-.058-.537a1.698 1.698 0 01-.601.474 1.91 1.91 0 01-.81.161c-.319 0-.607-.067-.865-.201a2.01 2.01 0 01-.659-.561 2.74 2.74 0 01-.42-.845 3.764 3.764 0 01-.146-1.069v-.103zm1.167.103c0 .238.023.46.068.669.046.208.117.39.215.547.101.156.228.28.381.371.156.088.342.132.557.132.266 0 .485-.057.654-.171.169-.117.304-.274.405-.469v-2.295a1.223 1.223 0 00-.41-.459c-.169-.114-.383-.171-.64-.171-.218 0-.405.046-.561.137-.153.091-.28.216-.381.376a1.847 1.847 0 00-.22.557 3.226 3.226 0 00-.068.673v.103zm7.456 2.676a2.81 2.81 0 01-1.069-.196 2.502 2.502 0 01-.831-.537 2.447 2.447 0 01-.532-.805 2.663 2.663 0 01-.19-1.011v-.2c0-.42.067-.798.2-1.133.137-.335.317-.622.542-.86.228-.237.492-.419.791-.546.303-.127.62-.191.952-.191.384 0 .723.065 1.016.195.293.127.537.308.732.542.199.232.349.507.449.826.101.319.152.669.152 1.049v.494h-3.662c.019.205.07.395.151.571.081.176.187.329.317.459.134.127.289.228.464.303.179.071.375.107.586.107.296 0 .568-.059.816-.176.25-.117.454-.278.61-.483l.635.596c-.085.127-.194.25-.327.371a2.42 2.42 0 01-.469.317 2.856 2.856 0 01-.606.22 2.857 2.857 0 01-.727.088zm-.142-4.536c-.162 0-.314.029-.454.087-.14.059-.265.145-.376.259-.11.111-.205.248-.283.41-.075.16-.129.342-.161.547h2.475v-.088a1.574 1.574 0 00-.092-.449 1.146 1.146 0 00-.22-.39 1.057 1.057 0 00-.371-.274 1.221 1.221 0 00-.518-.102z" fill="#525F7F"/>
    <rect opacity=".6" x="510" y="720.268" width="61" height="26.463" rx="13.232" fill="#fff"/>
    <path d="M528.085 735.169a.885.885 0 00-.108-.444 1.002 1.002 0 00-.297-.342 1.919 1.919 0 00-.459-.254 5.363 5.363 0 00-.577-.205 6.733 6.733 0 01-.83-.303 3.309 3.309 0 01-.727-.439 2.268 2.268 0 01-.518-.611 1.64 1.64 0 01-.195-.81c0-.306.065-.58.195-.821a1.97 1.97 0 01.532-.62c.222-.169.479-.299.772-.39.293-.091.599-.137.918-.137.342 0 .661.054.957.161.299.104.56.252.781.444.225.189.402.417.532.684.131.264.197.557.201.879h-1.172a1.64 1.64 0 00-.118-.488 1.087 1.087 0 00-.649-.635 1.529 1.529 0 00-.542-.088c-.176 0-.338.023-.488.068-.15.046-.28.113-.391.201a.926.926 0 00-.347.737c0 .166.043.311.127.434.085.121.196.227.332.318.137.091.293.171.469.239.179.065.365.125.557.181.296.088.579.197.849.327.271.127.508.281.713.464.205.179.368.387.489.625.12.237.18.509.18.815 0 .316-.066.594-.2.835a1.835 1.835 0 01-.537.606 2.509 2.509 0 01-.781.371 3.504 3.504 0 01-1.577.058 2.832 2.832 0 01-1.167-.503 2.319 2.319 0 01-.445-.434 2.114 2.114 0 01-.293-.552 2.13 2.13 0 01-.112-.674h1.177c.016.215.063.402.141.562.078.159.183.293.313.4.13.104.281.184.454.239a2.04 2.04 0 001.074.015c.153-.042.287-.104.401-.186a.936.936 0 00.268-.307.891.891 0 00.098-.42zm4.804 1.929c-.39 0-.747-.065-1.069-.196a2.497 2.497 0 01-.83-.537 2.431 2.431 0 01-.532-.805 2.663 2.663 0 01-.191-1.011v-.2c0-.42.067-.798.201-1.133.136-.335.317-.622.542-.86.227-.237.491-.419.791-.546.302-.127.62-.191.952-.191.384 0 .722.065 1.015.195.293.127.537.308.733.542.198.232.348.507.449.826.101.319.151.669.151 1.049v.494h-3.662c.02.205.07.395.152.571.081.176.187.329.317.459.133.127.288.228.464.303.179.071.374.107.586.107.296 0 .568-.059.815-.176.251-.117.454-.278.611-.483l.634.596a1.97 1.97 0 01-.327.371 2.36 2.36 0 01-.469.317c-.179.091-.38.164-.605.22a2.865 2.865 0 01-.728.088zm-.141-4.536a1.127 1.127 0 00-.83.346 1.483 1.483 0 00-.283.41c-.075.16-.129.342-.162.547h2.476v-.088a1.61 1.61 0 00-.093-.449 1.16 1.16 0 00-.219-.39 1.06 1.06 0 00-.372-.274 1.217 1.217 0 00-.517-.102zm7.056 4.438a1.109 1.109 0 01-.083-.229 4.378 4.378 0 01-.054-.284 1.876 1.876 0 01-.62.43 2.17 2.17 0 01-.869.181c-.28 0-.534-.039-.762-.118a1.835 1.835 0 01-.581-.332 1.487 1.487 0 01-.503-1.127c0-.567.21-1 .63-1.299.423-.3 1.028-.45 1.816-.45h.855v-.346c0-.28-.095-.502-.284-.664-.188-.166-.455-.249-.8-.249-.157 0-.293.019-.411.058a.832.832 0 00-.292.152.616.616 0 00-.176.229.69.69 0 00-.059.283h-1.167c0-.205.047-.403.142-.595.097-.196.239-.368.425-.518a2.13 2.13 0 01.678-.366c.27-.091.578-.137.923-.137.313 0 .602.039.869.117.267.075.498.189.694.342.195.15.348.339.459.567.11.224.166.488.166.791v2.353c0 .231.016.443.048.635.036.189.087.353.152.493V737h-1.196zm-1.407-.845c.15 0 .29-.018.42-.053a1.74 1.74 0 00.357-.147c.107-.062.198-.132.273-.21.078-.078.14-.158.186-.239v-.991h-.743c-.475 0-.826.076-1.054.229a.744.744 0 00-.337.654.84.84 0 00.054.303.644.644 0 00.161.239.83.83 0 00.278.157c.114.039.249.058.405.058zm7.671-4.536a3.803 3.803 0 01.791.083.914.914 0 01.181.049l-.166 1.147a4.791 4.791 0 00-1.06-.122c-.39 0-.706.082-.947.245a1.43 1.43 0 00-.527.678V737h-1.167v-5.283h1.093l.054.825c.215-.286.469-.511.762-.674.296-.166.625-.249.986-.249zm4.688 4.551a1.294 1.294 0 00.776-.259.882.882 0 00.244-.288.693.693 0 00.088-.361h1.104c.003.254-.056.493-.176.717a1.865 1.865 0 01-.484.582 2.382 2.382 0 01-.703.395 2.418 2.418 0 01-.84.147c-.406 0-.763-.07-1.069-.21a2.181 2.181 0 01-.766-.572 2.487 2.487 0 01-.464-.844 3.419 3.419 0 01-.152-1.026v-.176c0-.361.051-.703.152-1.025.104-.322.258-.604.464-.845.205-.241.46-.431.766-.571a2.49 2.49 0 011.065-.215c.319 0 .613.049.883.147.274.097.508.234.703.41a1.862 1.862 0 01.621 1.43h-1.104a.957.957 0 00-.078-.405.94.94 0 00-.23-.332 1.173 1.173 0 00-.805-.307c-.244 0-.448.05-.611.151a1.123 1.123 0 00-.39.391 1.67 1.67 0 00-.21.546 3.342 3.342 0 00-.059.625v.176c0 .215.02.425.059.63.042.205.112.389.21.552.097.159.228.29.39.39.163.098.368.147.616.147zm4.863-3.721c.182-.26.404-.464.664-.61.264-.147.557-.22.879-.22.273 0 .524.041.752.122.231.082.428.209.591.381.162.169.289.389.381.659.091.267.136.588.136.962V737h-1.167v-3.267a1.52 1.52 0 00-.078-.517.905.905 0 00-.215-.362.827.827 0 00-.337-.209 1.384 1.384 0 00-.454-.069c-.254 0-.478.054-.674.161a1.34 1.34 0 00-.478.425V737h-1.167v-7.5h1.167v2.949z" fill="#525F7F"/>
    <g filter="url(#app_store_svg__app_store_svg__filter4_bd)">
        <circle cx="137.5" cy="256.963" r="97.5" fill="#F7F7FE" fill-opacity=".4"/>
        <circle cx="137.5" cy="256.963" r="96" stroke="#fff" stroke-width="3"/>
    </g>
    <path d="M139.568 168.501h-.209a7.34 7.34 0 00-.839.037c-2.004.23-10.579 1.832-11.02 12.425-.433 10.385 8.448 14.534 10.847 15.463.39.151.802.211 1.221.211 32.246 0 58.169 26.239 58.169 58.168 0 13.884-4.732 27.44-13.188 37.935-5.493 6.818-6.302 17.471.363 23.149 4.705 4.007 11.66 4.223 16.028-.149 15.618-15.632 25.249-37.227 25.249-60.935 0-47.736-38.885-86.304-86.621-86.304z" fill="url(#app_store_svg__app_store_svg__paint3_linear)"/>
    <g filter="url(#app_store_svg__app_store_svg__filter5_b)">
        <circle cx="138.726" cy="255.737" r="59.481" fill="#fff"/>
    </g>
    <path d="M157.82 249.108c.15-.8.225-1.613.226-2.427-.009-7.561-6.146-13.684-13.708-13.675a13.692 13.692 0 00-12.855 9.025 6.846 6.846 0 00-9.189 4.763 10.27 10.27 0 001.523 20.425h8.557a1.711 1.711 0 100-3.423h-8.557a6.846 6.846 0 110-13.692c.945 0 1.712-.766 1.712-1.711a3.423 3.423 0 015.819-2.439 1.712 1.712 0 002.89-.945c.929-5.589 6.213-9.366 11.802-8.437 5.589.929 9.366 6.212 8.437 11.801-.055.334-.127.664-.215.99a1.713 1.713 0 00.707 1.883 6.845 6.845 0 01-3.769 12.55h-5.134a1.71 1.71 0 100 3.423h5.134c5.672-.006 10.265-4.608 10.259-10.279a10.264 10.264 0 00-3.639-7.832z" fill="#E8EAF2"/>
    <path d="M148.949 269.432a1.71 1.71 0 00-2.378 0l-5.639 5.635v-24.963a1.712 1.712 0 00-3.423 0v24.963l-5.636-5.635a1.711 1.711 0 00-2.42 2.419l8.557 8.558c.667.669 1.751.67 2.42.003l.004-.003 8.557-8.558a1.71 1.71 0 00-.042-2.419z" fill="#E8EAF2"/>
    <path d="M215.137 121.491c0 .468-.117.901-.351 1.3-.234.39-.581.706-1.04.949-.459.234-1.018.351-1.677.351-.65 0-1.231-.108-1.742-.325a3.043 3.043 0 01-1.235-.962 2.786 2.786 0 01-.52-1.456h1.95c.043.373.191.685.442.936.26.243.602.364 1.027.364.381 0 .672-.1.871-.299.208-.208.312-.472.312-.793 0-.286-.082-.52-.247-.702a1.769 1.769 0 00-.624-.455 11.486 11.486 0 00-1.04-.39 11.008 11.008 0 01-1.404-.559 2.722 2.722 0 01-.936-.819c-.251-.355-.377-.819-.377-1.391 0-.789.282-1.408.845-1.859.572-.459 1.326-.689 2.262-.689.971 0 1.742.234 2.314.702.581.468.91 1.092.988 1.872h-1.976a1.35 1.35 0 00-.416-.806c-.225-.217-.533-.325-.923-.325-.338 0-.611.091-.819.273-.208.173-.312.429-.312.767 0 .269.078.494.234.676.165.173.368.316.611.429.251.113.589.238 1.014.377.589.208 1.066.403 1.43.585.373.182.689.455.949.819.26.364.39.841.39 1.43zm7.59-6.669v1.456h-2.535V124h-1.833v-7.722h-2.522v-1.456h6.89zm5.312-.13c.858 0 1.634.199 2.327.598a4.267 4.267 0 011.651 1.677c.408.711.611 1.517.611 2.418 0 .901-.203 1.712-.611 2.431a4.267 4.267 0 01-1.651 1.677c-.693.399-1.469.598-2.327.598a4.651 4.651 0 01-2.34-.598 4.397 4.397 0 01-1.651-1.677c-.398-.719-.598-1.53-.598-2.431s.2-1.707.598-2.418a4.397 4.397 0 011.651-1.677 4.651 4.651 0 012.34-.598zm0 1.69c-.537 0-1.009.121-1.417.364a2.53 2.53 0 00-.962 1.053c-.225.451-.338.979-.338 1.586 0 .607.113 1.14.338 1.599.234.451.555.797.962 1.04.408.243.88.364 1.417.364.538 0 1.01-.121 1.417-.364a2.45 2.45 0 00.949-1.04c.234-.459.351-.992.351-1.599s-.117-1.135-.351-1.586a2.44 2.44 0 00-.949-1.053c-.407-.243-.879-.364-1.417-.364zM238.791 124l-2.145-3.575h-.806V124h-1.833v-9.178h3.497c1.066 0 1.876.26 2.431.78.563.52.845 1.205.845 2.054 0 .693-.195 1.274-.585 1.742-.382.468-.936.78-1.664.936l2.288 3.666h-2.028zm-2.951-4.836h1.508c1.048 0 1.573-.464 1.573-1.391 0-.442-.13-.784-.39-1.027-.252-.251-.646-.377-1.183-.377h-1.508v2.795zm13.575-4.342l-3.107 5.967V124h-1.846v-3.211l-3.12-5.967h2.106l1.95 4.017 1.95-4.017h2.067z" fill="#69B4FE"/>
    <defs>
        <filter id="app_store_svg__app_store_svg__filter0_diii" x="55" y="0" width="459" height="764.927" filterUnits="userSpaceOnUse" color-interpolation-filters="sRGB">
            <feFlood flood-opacity="0" result="BackgroundImageFix"/>
            <feColorMatrix in="SourceAlpha" values="0 0 0 0 0 0 0 0 0 0 0 0 0 0 0 0 0 0 127 0"/>
            <feOffset dy="40"/>
            <feGaussianBlur stdDeviation="40"/>
            <feColorMatrix values="0 0 0 0 0.14934 0 0 0 0 0.158652 0 0 0 0 0.191667 0 0 0 0.38 0"/>
            <feBlend in2="BackgroundImageFix" result="effect1_dropShadow"/>
            <feBlend in="SourceGraphic" in2="effect1_dropShadow" result="shape"/>
            <feColorMatrix in="SourceAlpha" values="0 0 0 0 0 0 0 0 0 0 0 0 0 0 0 0 0 0 127 0" result="hardAlpha"/>
            <feOffset dx="-2" dy="-4"/>
            <feGaussianBlur stdDeviation="5"/>
            <feComposite in2="hardAlpha" operator="arithmetic" k2="-1" k3="1"/>
            <feColorMatrix values="0 0 0 0 0.602951 0 0 0 0 0.606526 0 0 0 0 0.629167 0 0 0 1 0"/>
            <feBlend in2="shape" result="effect2_innerShadow"/>
            <feColorMatrix in="SourceAlpha" values="0 0 0 0 0 0 0 0 0 0 0 0 0 0 0 0 0 0 127 0" result="hardAlpha"/>
            <feOffset dy="4"/>
            <feGaussianBlur stdDeviation="10"/>
            <feComposite in2="hardAlpha" operator="arithmetic" k2="-1" k3="1"/>
            <feColorMatrix values="0 0 0 0 1 0 0 0 0 1 0 0 0 0 1 0 0 0 1 0"/>
            <feBlend in2="effect2_innerShadow" result="effect3_innerShadow"/>
            <feColorMatrix in="SourceAlpha" values="0 0 0 0 0 0 0 0 0 0 0 0 0 0 0 0 0 0 127 0" result="hardAlpha"/>
            <feOffset dx="2" dy="-2"/>
            <feGaussianBlur stdDeviation="3"/>
            <feComposite in2="hardAlpha" operator="arithmetic" k2="-1" k3="1"/>
            <feColorMatrix values="0 0 0 0 0 0 0 0 0 0 0 0 0 0 0 0 0 0 0.15 0"/>
            <feBlend in2="effect3_innerShadow" result="effect4_innerShadow"/>
        </filter>
        <filter id="app_store_svg__app_store_svg__filter1_i" x="148.984" y="51.463" width="269.878" height="581" filterUnits="userSpaceOnUse" color-interpolation-filters="sRGB">
            <feFlood flood-opacity="0" result="BackgroundImageFix"/>
            <feBlend in="SourceGraphic" in2="BackgroundImageFix" result="shape"/>
            <feColorMatrix in="SourceAlpha" values="0 0 0 0 0 0 0 0 0 0 0 0 0 0 0 0 0 0 127 0" result="hardAlpha"/>
            <feOffset dy="1"/>
            <feGaussianBlur stdDeviation="1"/>
            <feComposite in2="hardAlpha" operator="arithmetic" k2="-1" k3="1"/>
            <feColorMatrix values="0 0 0 0 0.844063 0 0 0 0 0.853395 0 0 0 0 0.9125 0 0 0 0.47 0"/>
            <feBlend in2="shape" result="effect1_innerShadow"/>
        </filter>
        <filter id="app_store_svg__app_store_svg__filter2_d" x="230" y="227.463" width="425" height="538" filterUnits="userSpaceOnUse" color-interpolation-filters="sRGB">
            <feFlood flood-opacity="0" result="BackgroundImageFix"/>
            <feColorMatrix in="SourceAlpha" values="0 0 0 0 0 0 0 0 0 0 0 0 0 0 0 0 0 0 127 0"/>
            <feOffset dy="20"/>
            <feGaussianBlur stdDeviation="20"/>
            <feColorMatrix values="0 0 0 0 0.798437 0 0 0 0 0.808646 0 0 0 0 0.875 0 0 0 0.67 0"/>
            <feBlend in2="BackgroundImageFix" result="effect1_dropShadow"/>
            <feBlend in="SourceGraphic" in2="effect1_dropShadow" result="shape"/>
        </filter>
        <filter id="app_store_svg__app_store_svg__filter3_b" x="260" y="237.463" width="365" height="478" filterUnits="userSpaceOnUse" color-interpolation-filters="sRGB">
            <feFlood flood-opacity="0" result="BackgroundImageFix"/>
            <feGaussianBlur stdDeviation="5"/>
            <feComposite in2="SourceAlpha" operator="in" result="effect1_backgroundBlur"/>
            <feBlend in="SourceGraphic" in2="effect1_backgroundBlur" result="shape"/>
        </filter>
        <filter id="app_store_svg__app_store_svg__filter4_bd" x="0" y="139.463" width="275" height="275" filterUnits="userSpaceOnUse" color-interpolation-filters="sRGB">
            <feFlood flood-opacity="0" result="BackgroundImageFix"/>
            <feGaussianBlur stdDeviation="5"/>
            <feComposite in2="SourceAlpha" operator="in" result="effect1_backgroundBlur"/>
            <feColorMatrix in="SourceAlpha" values="0 0 0 0 0 0 0 0 0 0 0 0 0 0 0 0 0 0 127 0"/>
            <feOffset dy="20"/>
            <feGaussianBlur stdDeviation="20"/>
            <feColorMatrix values="0 0 0 0 0.578003 0 0 0 0 0.660566 0 0 0 0 0.820833 0 0 0 0.29 0"/>
            <feBlend in2="effect1_backgroundBlur" result="effect2_dropShadow"/>
            <feBlend in="SourceGraphic" in2="effect2_dropShadow" result="shape"/>
        </filter>
        <filter id="app_store_svg__app_store_svg__filter5_b" x="69.245" y="186.256" width="138.962" height="138.962" filterUnits="userSpaceOnUse" color-interpolation-filters="sRGB">
            <feFlood flood-opacity="0" result="BackgroundImageFix"/>
            <feGaussianBlur stdDeviation="5"/>
            <feComposite in2="SourceAlpha" operator="in" result="effect1_backgroundBlur"/>
            <feBlend in="SourceGraphic" in2="effect1_backgroundBlur" result="shape"/>
        </filter>
        <linearGradient id="app_store_svg__app_store_svg__paint0_linear" x1="213.5" y1="187.963" x2="317.5" y2="679.463" gradientUnits="userSpaceOnUse">
            <stop stop-color="#fff"/>
            <stop offset="1" stop-color="#fff" stop-opacity="0"/>
        </linearGradient>
        <linearGradient id="app_store_svg__app_store_svg__paint1_linear" x1="159" y1="631.463" x2="159" y2="291.463" gradientUnits="userSpaceOnUse">
            <stop stop-color="#EBEBF4"/>
            <stop offset="1" stop-color="#DBDBE0" stop-opacity="0"/>
        </linearGradient>
        <linearGradient id="app_store_svg__app_store_svg__paint2_linear" x1="325" y1="314.463" x2="325" y2="371.463" gradientUnits="userSpaceOnUse">
            <stop stop-color="#6BB6FF"/>
            <stop offset="1" stop-color="#3D98EF"/>
        </linearGradient>
        <linearGradient id="app_store_svg__app_store_svg__paint3_linear" x1="182.562" y1="168.501" x2="198.5" y2="245.463" gradientUnits="userSpaceOnUse">
            <stop stop-color="#F96C5D"/>
            <stop offset="1" stop-color="#FFB74A"/>
        </linearGradient>
    </defs>
</svg>
