<svg width="397" height="638" viewBox="0 0 397 638" fill="none" xmlns="http://www.w3.org/2000/svg">
<g filter="url(#filter0_bd)">
<rect x="80" y="40" width="236.263" height="478" rx="30" fill="white" fill-opacity="0.5"/>
<rect x="81" y="41" width="234.263" height="476" rx="29" stroke="white" stroke-opacity="0.8" stroke-width="2"/>
</g>
<path d="M86 76.1974C86 59.6288 99.4315 46.1974 116 46.1974L281 46.1974C297.569 46.1974 311 59.6288 311 76.1974V481.802C311 498.371 297.569 511.802 281 511.802H116C99.4315 511.802 86 498.371 86 481.802L86 76.1974Z" fill="white"/>
<path d="M86 456H311V482C311 498.569 297.569 512 281 512H116C99.4315 512 86 498.569 86 482V456Z" fill="#492EF9"/>
<path d="M86.1287 75.8621C86.1287 59.2935 99.5601 45.8621 116.129 45.8621H281.129C297.697 45.8621 311.129 59.2935 311.129 75.8621V196.862H86.1287V75.8621Z" fill="url(#paint0_linear)"/>
<path d="M134.31 274.117C136.156 274.117 137.521 272.934 137.521 271.374C137.521 269.619 136.429 268.995 134.362 268.67C132.464 268.384 132.126 267.916 132.126 267.006C132.126 266.135 132.789 265.498 134.063 265.498C135.35 265.498 136.026 265.979 136.247 267.149H137.261C137.079 265.498 135.922 264.588 134.063 264.588C132.308 264.588 131.073 265.68 131.073 267.11C131.073 268.761 132.23 269.372 134.18 269.671C135.948 269.957 136.429 270.399 136.429 271.452C136.429 272.505 135.506 273.207 134.31 273.207C132.438 273.207 131.996 272.271 131.853 271.166H130.761C130.93 272.752 131.827 274.117 134.31 274.117ZM139.925 265.784C140.315 265.784 140.64 265.459 140.64 265.069C140.64 264.679 140.315 264.354 139.925 264.354C139.535 264.354 139.21 264.679 139.21 265.069C139.21 265.459 139.535 265.784 139.925 265.784ZM139.405 274H140.484V267.201H139.405V274ZM142.693 274H143.772V269.879C143.772 268.657 144.669 268.02 145.67 268.02C146.762 268.02 147.269 268.553 147.269 269.749V274H148.348V269.827C148.348 267.851 147.36 267.084 145.956 267.084C144.838 267.084 144.084 267.643 143.772 268.28V267.201H142.693V274ZM153.166 272.882C152.022 272.882 151.073 271.998 151.073 270.516V270.412C151.073 268.982 151.879 267.981 153.231 267.981C154.557 267.981 155.389 268.865 155.389 270.386V270.477C155.389 271.998 154.427 272.882 153.166 272.882ZM153.179 276.483C155.077 276.483 156.416 275.521 156.429 273.545V267.201H155.35V268.293C154.96 267.63 154.258 267.084 153.127 267.084C151.255 267.084 149.955 268.618 149.955 270.464V270.555C149.955 272.427 151.268 273.779 153.049 273.779C154.037 273.779 154.96 273.155 155.35 272.492V273.48C155.35 274.936 154.505 275.573 153.166 275.573C152.009 275.573 151.359 275.17 151.203 274.39H150.098C150.28 275.534 151.164 276.483 153.179 276.483ZM158.639 274H159.731V263.951H158.639V274ZM162.303 271.374H163.135L163.317 264.705H162.121L162.303 271.374ZM162.706 274.065C163.161 274.065 163.538 273.701 163.538 273.233C163.538 272.765 163.161 272.401 162.706 272.401C162.251 272.401 161.874 272.765 161.874 273.233C161.874 273.701 162.251 274.065 162.706 274.065ZM169.177 274H170.308V269.463L174.455 274H175.82L171.478 269.216L175.612 264.692H174.351L170.308 269.177V264.705H169.177V274ZM178.917 273.259C177.968 273.259 177.63 272.817 177.63 272.115C177.63 271.114 178.631 270.776 179.996 270.776H180.932V271.621C180.932 272.674 180.061 273.259 178.917 273.259ZM178.813 274.117C179.814 274.117 180.425 273.779 180.932 273.142V274H182.011V269.515C182.011 267.617 180.828 267.084 179.528 267.084C178.215 267.084 176.98 267.656 176.837 269.203H177.916C178.02 268.371 178.54 267.981 179.476 267.981C180.516 267.981 180.932 268.436 180.932 269.515V270.009H179.957C178.215 270.009 176.551 270.542 176.551 272.115C176.551 273.506 177.552 274.117 178.813 274.117ZM184.13 274H185.209V270.269C185.209 268.592 186.08 268.163 187.445 268.098V267.084C186.223 267.123 185.638 267.656 185.209 268.423V267.201H184.13V274ZM190.761 273.259C189.812 273.259 189.474 272.817 189.474 272.115C189.474 271.114 190.475 270.776 191.84 270.776H192.776V271.621C192.776 272.674 191.905 273.259 190.761 273.259ZM190.657 274.117C191.658 274.117 192.269 273.779 192.776 273.142V274H193.855V269.515C193.855 267.617 192.672 267.084 191.372 267.084C190.059 267.084 188.824 267.656 188.681 269.203H189.76C189.864 268.371 190.384 267.981 191.32 267.981C192.36 267.981 192.776 268.436 192.776 269.515V270.009H191.801C190.059 270.009 188.395 270.542 188.395 272.115C188.395 273.506 189.396 274.117 190.657 274.117ZM198.796 274.117C200.733 274.117 202.15 272.7 202.15 270.646V270.542C202.15 268.501 200.733 267.084 198.809 267.084C196.885 267.084 195.468 268.514 195.468 270.555V270.659C195.468 272.648 196.859 274.117 198.796 274.117ZM198.809 273.22C197.431 273.22 196.586 272.206 196.586 270.659V270.555C196.586 268.995 197.444 267.981 198.809 267.981C200.161 267.981 201.032 268.995 201.032 270.568V270.659C201.032 272.193 200.174 273.22 198.809 273.22ZM203.821 274H204.9V270.477L207.916 274H209.229L206.07 270.36L208.982 267.201H207.721L204.9 270.334V263.951H203.821V274ZM213.052 274.117C214.586 274.117 215.717 273.402 215.951 272.037H214.872C214.729 272.83 214.118 273.22 213.065 273.22C211.674 273.22 210.933 272.362 210.881 270.815H216.003V270.464C216.003 268.033 214.521 267.084 212.948 267.084C211.076 267.084 209.763 268.514 209.763 270.568V270.672C209.763 272.765 211.128 274.117 213.052 274.117ZM210.92 269.944C211.102 268.735 211.843 267.981 212.948 267.981C214.066 267.981 214.794 268.54 214.898 269.944H210.92ZM224.479 274.117C226.351 274.117 227.573 272.687 227.573 270.607V270.503C227.573 268.384 226.26 267.084 224.479 267.084C223.491 267.084 222.568 267.682 222.178 268.345V263.951H221.099V274H222.178V272.882C222.568 273.558 223.374 274.117 224.479 274.117ZM224.375 273.22C223.049 273.22 222.139 272.401 222.139 270.659V270.555C222.139 268.813 223.101 267.981 224.362 267.981C225.506 267.981 226.455 268.839 226.455 270.555V270.659C226.455 272.31 225.727 273.22 224.375 273.22ZM229.733 276.366H230.825L234.582 267.201H233.477L231.592 272.076L229.512 267.201H228.355L231.02 273.298L229.733 276.366ZM241.55 274.117C243.201 274.117 244.046 273.285 244.046 272.05C244.046 270.607 243.058 270.295 241.654 270.035C240.406 269.814 240.068 269.567 240.068 268.956C240.068 268.371 240.575 267.981 241.355 267.981C242.213 267.981 242.629 268.306 242.785 269.047H243.825C243.643 267.578 242.59 267.084 241.368 267.084C240.302 267.084 239.067 267.734 239.067 268.995C239.067 270.178 239.665 270.672 241.433 270.997C242.486 271.192 243.019 271.426 243.019 272.141C243.019 272.869 242.564 273.22 241.537 273.22C240.445 273.22 240.016 272.713 239.938 271.907H238.885C238.95 273.298 239.925 274.117 241.55 274.117ZM245.69 274H246.769V269.84C246.769 268.618 247.679 268.02 248.563 268.02C249.499 268.02 250.006 268.514 250.006 269.71V274H251.085V269.84C251.085 268.618 251.995 268.02 252.879 268.02C253.815 268.02 254.322 268.514 254.322 269.71V274H255.401V269.788C255.401 267.812 254.335 267.084 253.113 267.084C252.268 267.084 251.254 267.474 250.786 268.358C250.435 267.448 249.668 267.084 248.797 267.084C247.822 267.084 247.081 267.604 246.769 268.241V267.201H245.69V274ZM259.823 274.117C260.915 274.117 261.669 273.558 261.981 272.921V274H263.06V267.201H261.981V271.322C261.981 272.544 261.071 273.181 260.109 273.181C259.043 273.181 258.536 272.648 258.536 271.452V267.201H257.457V271.504C257.457 273.376 258.471 274.117 259.823 274.117ZM265.266 274H266.358V263.951H265.266V274ZM271.349 274.117C272.883 274.117 274.014 273.402 274.248 272.037H273.169C273.026 272.83 272.415 273.22 271.362 273.22C269.971 273.22 269.23 272.362 269.178 270.815H274.3V270.464C274.3 268.033 272.818 267.084 271.245 267.084C269.373 267.084 268.06 268.514 268.06 270.568V270.672C268.06 272.765 269.425 274.117 271.349 274.117ZM269.217 269.944C269.399 268.735 270.14 267.981 271.245 267.981C272.363 267.981 273.091 268.54 273.195 269.944H269.217Z" fill="#1E1D1D"/>
<path d="M201.85 113.18C204.694 113.18 206.584 111.434 206.584 109.202C206.584 106.628 205.018 105.764 201.994 105.35C199.762 105.026 199.33 104.504 199.33 103.46C199.33 102.47 200.086 101.768 201.544 101.768C203.02 101.768 203.794 102.344 204.028 103.694H206.224C205.972 101.228 204.316 99.968 201.544 99.968C198.862 99.968 197.062 101.552 197.062 103.658C197.062 106.07 198.52 107.006 201.598 107.42C203.686 107.762 204.28 108.212 204.28 109.4C204.28 110.588 203.272 111.38 201.85 111.38C199.672 111.38 199.15 110.3 198.988 109.004H196.684C196.864 111.434 198.34 113.18 201.85 113.18ZM208.974 113H211.386V100.13H208.974V113ZM214.421 113H216.599V103.136L222.395 113H224.879V100.13H222.701V109.436L217.283 100.13H214.421V113ZM233.611 113.18C237.247 113.18 239.479 111.02 239.479 107.456V106.268H233.881V108.068H237.121C237.049 109.85 236.059 111.308 233.647 111.308C230.947 111.308 229.669 109.418 229.669 106.664V106.52C229.669 103.694 231.127 101.822 233.647 101.822C235.321 101.822 236.473 102.56 236.761 104.27H239.155C238.813 101.192 236.365 99.932 233.611 99.932C229.849 99.932 227.185 102.668 227.185 106.502V106.646C227.185 110.444 229.489 113.18 233.611 113.18ZM241.79 113H249.674V111.092H244.184V100.13H241.79V113ZM252.101 109.13H253.865L254.207 100.13H251.777L252.101 109.13ZM252.965 113.126C253.775 113.126 254.423 112.514 254.423 111.74C254.423 110.948 253.775 110.336 252.965 110.336C252.173 110.336 251.525 110.948 251.525 111.74C251.525 112.514 252.173 113.126 252.965 113.126ZM197.476 134H199.87V127.988L204.82 134H207.646L202.048 127.268L207.376 121.112H204.802L199.87 126.962V121.13H197.476V134ZM214.075 123.092L215.965 129.068H212.167L214.075 123.092ZM208.351 134H210.601L211.609 130.814H216.523L217.549 134H220.033L215.785 121.13H212.653L208.351 134ZM224.391 127.088V122.984H226.317C227.847 122.984 228.765 123.488 228.765 124.964V125.036C228.765 126.404 227.919 127.088 226.317 127.088H224.391ZM221.997 134H224.391V128.798H225.921L229.287 134H231.879L228.261 128.438C229.863 128.024 231.123 126.998 231.123 124.982V124.91C231.123 122.282 229.143 121.13 226.317 121.13H221.997V134ZM238.526 123.092L240.416 129.068H236.618L238.526 123.092ZM232.802 134H235.052L236.06 130.814H240.974L242 134H244.484L240.236 121.13H237.104L232.802 134ZM251.596 134.18C255.502 134.18 258.076 131.354 258.076 127.592V127.448C258.076 123.668 255.43 120.95 251.596 120.95C247.78 120.95 245.08 123.74 245.08 127.502V127.646C245.08 131.354 247.654 134.18 251.596 134.18ZM251.632 132.254C249.292 132.254 247.582 130.436 247.582 127.628V127.484C247.582 124.712 249.076 122.858 251.596 122.858C254.116 122.858 255.592 124.82 255.592 127.466V127.61C255.592 130.4 254.062 132.254 251.632 132.254ZM260.388 134H262.782V127.988L267.732 134H270.558L264.96 127.268L270.288 121.112H267.714L262.782 126.962V121.13H260.388V134ZM272.253 134H280.605V132.11H274.647V128.348H279.183V126.548H274.647V123.02H280.299V121.13H272.253V134ZM196.39 162H209.832V159.322H201.928L206.062 155.292C208.272 153.16 209.702 151.054 209.702 148.636C209.702 145.36 207.414 143.15 203.566 143.15C199.64 143.15 197.196 145.49 196.962 149.546H200.134C200.446 146.92 201.616 145.854 203.462 145.854C205.256 145.854 206.244 146.946 206.244 148.688C206.244 150.456 205.178 152.094 203.41 153.966L196.39 161.376V162ZM214.648 162.182C215.818 162.182 216.728 161.298 216.728 160.154C216.728 159.01 215.818 158.1 214.648 158.1C213.504 158.1 212.594 159.01 212.594 160.154C212.594 161.298 213.504 162.182 214.648 162.182ZM226.251 162.26C231.113 162.26 234.025 158.698 234.025 153.108V152.172C234.025 146.582 230.957 143.15 226.251 143.15C221.571 143.15 218.451 146.608 218.451 152.25V153.186C218.451 158.776 221.519 162.26 226.251 162.26ZM226.329 159.504C223.547 159.504 221.935 157.372 221.935 153.16V152.224C221.935 148.09 223.469 145.854 226.277 145.854C229.059 145.854 230.567 148.246 230.567 152.198V153.108C230.567 157.32 229.189 159.504 226.329 159.504Z" fill="white"/>
<circle cx="285" cy="75" r="14" fill="white" stroke="#FF1FCE" stroke-width="2"/>
<path d="M280.54 80H282.58L285.1 75.815L287.62 80H289.9L286.465 74.45L289.63 69.275H287.575L285.31 73.085L283.03 69.275H280.78L283.99 74.495L280.54 80Z" fill="#FF1FCE"/>
<circle cx="260" cy="457" r="27" fill="#321C8D"/>
<rect x="172" y="175" width="57" height="57" rx="9" fill="#492EF9" stroke="#8696FF" stroke-width="2"/>
<path d="M161.82 138C163.332 135.425 168.373 124.63 169.748 120.519C170.482 118.351 169.473 117.448 168.511 117.177C167.457 116.86 166.449 116.77 165.44 118.667C162.278 124.539 156.642 132.083 156 134.115" stroke="#FFE003" stroke-width="2" stroke-miterlimit="10" stroke-linecap="round" stroke-linejoin="round"/>
<path d="M161.82 138C163.332 135.425 168.373 124.63 169.748 120.519C170.482 118.351 169.473 117.448 168.511 117.177C167.457 116.86 166.449 116.77 165.44 118.667C162.278 124.539 156.642 132.083 156 134.115" stroke="#FFE313" stroke-width="2" stroke-miterlimit="10" stroke-linecap="round" stroke-linejoin="round"/>
<path d="M161.82 138C163.332 135.425 168.373 124.63 169.748 120.519C170.482 118.351 169.473 117.448 168.511 117.177C167.457 116.86 166.449 116.77 165.44 118.667C162.278 124.539 156.642 132.083 156 134.115" stroke="#FFE835" stroke-width="2" stroke-miterlimit="10" stroke-linecap="round" stroke-linejoin="round"/>
<path d="M161.82 138C163.332 135.425 168.373 124.63 169.748 120.519C170.482 118.351 169.473 117.448 168.511 117.177C167.457 116.86 166.449 116.77 165.44 118.667C162.278 124.539 156.642 132.083 156 134.115" stroke="#FFEB51" stroke-width="2" stroke-miterlimit="10" stroke-linecap="round" stroke-linejoin="round"/>
<path d="M161.82 138C163.332 135.425 168.373 124.63 169.748 120.519C170.482 118.351 169.473 117.448 168.511 117.177C167.457 116.86 166.449 116.77 165.44 118.667C162.278 124.539 156.642 132.083 156 134.115" stroke="#FFEE6E" stroke-width="2" stroke-miterlimit="10" stroke-linecap="round" stroke-linejoin="round"/>
<path d="M161.82 138C163.332 135.425 168.373 124.63 169.748 120.519C170.482 118.351 169.473 117.448 168.511 117.177C167.457 116.86 166.449 116.77 165.44 118.667C162.278 124.539 156.642 132.083 156 134.115" stroke="#FFF18D" stroke-width="2" stroke-miterlimit="10" stroke-linecap="round" stroke-linejoin="round"/>
<path d="M161.82 138C163.332 135.425 168.373 124.63 169.748 120.519C170.482 118.351 169.473 117.448 168.511 117.177C167.457 116.86 166.449 116.77 165.44 118.667C162.278 124.539 156.642 132.083 156 134.115" stroke="#FFF5AC" stroke-width="2" stroke-miterlimit="10" stroke-linecap="round" stroke-linejoin="round"/>
<path d="M161.82 138C163.332 135.425 168.373 124.63 169.748 120.519C170.482 118.351 169.473 117.448 168.511 117.177C167.457 116.86 166.449 116.77 165.44 118.667C162.278 124.539 156.642 132.083 156 134.115" stroke="#FDF7C7" stroke-width="2" stroke-miterlimit="10" stroke-linecap="round" stroke-linejoin="round"/>
<path d="M147.094 135.473C146.625 138.247 147 140.551 149.015 141.068C151.921 141.82 152.25 141.444 153.421 139.093C156.421 133.169 157.968 131.006 159.093 127.15C159.515 125.692 158.624 123.153 154.828 122.166C153.609 121.837 152.578 122.448 151.734 123.294C150.937 124.141 150.75 125.081 150.468 125.739" stroke="#FFE003" stroke-width="2" stroke-miterlimit="10" stroke-linecap="round" stroke-linejoin="round"/>
<path d="M147.094 135.473C146.625 138.247 147 140.551 149.015 141.068C151.921 141.82 152.25 141.444 153.421 139.093C156.421 133.169 157.968 131.006 159.093 127.15C159.515 125.692 158.624 123.153 154.828 122.166C153.609 121.837 152.578 122.448 151.734 123.294C150.937 124.141 150.75 125.081 150.468 125.739" stroke="#FFE313" stroke-width="2" stroke-miterlimit="10" stroke-linecap="round" stroke-linejoin="round"/>
<path d="M147.094 135.473C146.625 138.247 147 140.551 149.015 141.068C151.921 141.82 152.25 141.444 153.421 139.093C156.421 133.169 157.968 131.006 159.093 127.15C159.515 125.692 158.624 123.153 154.828 122.166C153.609 121.837 152.578 122.448 151.734 123.294C150.937 124.141 150.75 125.081 150.468 125.739" stroke="#FFE835" stroke-width="2" stroke-miterlimit="10" stroke-linecap="round" stroke-linejoin="round"/>
<path d="M147.094 135.473C146.625 138.247 147 140.551 149.015 141.068C151.921 141.82 152.25 141.444 153.421 139.093C156.421 133.169 157.968 131.006 159.093 127.15C159.515 125.692 158.624 123.153 154.828 122.166C153.609 121.837 152.578 122.448 151.734 123.294C150.937 124.141 150.75 125.081 150.468 125.739" stroke="#FFEB51" stroke-width="2" stroke-miterlimit="10" stroke-linecap="round" stroke-linejoin="round"/>
<path d="M147.094 135.473C146.625 138.247 147 140.551 149.015 141.068C151.921 141.82 152.25 141.444 153.421 139.093C156.421 133.169 157.968 131.006 159.093 127.15C159.515 125.692 158.624 123.153 154.828 122.166C153.609 121.837 152.578 122.448 151.734 123.294C150.937 124.141 150.75 125.081 150.468 125.739" stroke="#FFEE6E" stroke-width="2" stroke-miterlimit="10" stroke-linecap="round" stroke-linejoin="round"/>
<path d="M147.094 135.473C146.625 138.247 147 140.551 149.015 141.068C151.921 141.82 152.25 141.444 153.421 139.093C156.421 133.169 157.968 131.006 159.093 127.15C159.515 125.692 158.624 123.153 154.828 122.166C153.609 121.837 152.578 122.448 151.734 123.294C150.937 124.141 150.75 125.081 150.468 125.739" stroke="#FFF18D" stroke-width="2" stroke-miterlimit="10" stroke-linecap="round" stroke-linejoin="round"/>
<path d="M147.094 135.473C146.625 138.247 147 140.551 149.015 141.068C151.921 141.82 152.25 141.444 153.421 139.093C156.421 133.169 157.968 131.006 159.093 127.15C159.515 125.692 158.624 123.153 154.828 122.166C153.609 121.837 152.578 122.448 151.734 123.294C150.937 124.141 150.75 125.081 150.468 125.739" stroke="#FFF5AC" stroke-width="2" stroke-miterlimit="10" stroke-linecap="round" stroke-linejoin="round"/>
<path d="M147.094 135.473C146.625 138.247 147 140.551 149.015 141.068C151.921 141.82 152.25 141.444 153.421 139.093C156.421 133.169 157.968 131.006 159.093 127.15C159.515 125.692 158.624 123.153 154.828 122.166C153.609 121.837 152.578 122.448 151.734 123.294C150.937 124.141 150.75 125.081 150.468 125.739" stroke="#FDF7C7" stroke-width="2" stroke-miterlimit="10" stroke-linecap="round" stroke-linejoin="round"/>
<path d="M145.359 138.059C146.063 137.589 146.625 136.836 147 135.755C149.156 129.501 150.375 127.197 150.984 123.2C151.218 121.696 150 119.11 146.109 118.686C144.563 118.498 142.828 119.204 142.032 121.555C142.032 121.555 139.688 128.467 140.485 131.57" stroke="#FFE003" stroke-width="2" stroke-miterlimit="10" stroke-linecap="round" stroke-linejoin="round"/>
<path d="M145.359 138.059C146.063 137.589 146.625 136.836 147 135.755C149.156 129.501 150.375 127.197 150.984 123.2C151.218 121.696 150 119.11 146.109 118.686C144.563 118.498 142.828 119.204 142.032 121.555C142.032 121.555 139.688 128.467 140.485 131.57" stroke="#FFE313" stroke-width="2" stroke-miterlimit="10" stroke-linecap="round" stroke-linejoin="round"/>
<path d="M145.359 138.059C146.063 137.589 146.625 136.836 147 135.755C149.156 129.501 150.375 127.197 150.984 123.2C151.218 121.696 150 119.11 146.109 118.686C144.563 118.498 142.828 119.204 142.032 121.555C142.032 121.555 139.688 128.467 140.485 131.57" stroke="#FFE835" stroke-width="2" stroke-miterlimit="10" stroke-linecap="round" stroke-linejoin="round"/>
<path d="M145.359 138.059C146.063 137.589 146.625 136.836 147 135.755C149.156 129.501 150.375 127.197 150.984 123.2C151.218 121.696 150 119.11 146.109 118.686C144.563 118.498 142.828 119.204 142.032 121.555C142.032 121.555 139.688 128.467 140.485 131.57" stroke="#FFEB51" stroke-width="2" stroke-miterlimit="10" stroke-linecap="round" stroke-linejoin="round"/>
<path d="M145.359 138.059C146.063 137.589 146.625 136.836 147 135.755C149.156 129.501 150.375 127.197 150.984 123.2C151.218 121.696 150 119.11 146.109 118.686C144.563 118.498 142.828 119.204 142.032 121.555C142.032 121.555 139.688 128.467 140.485 131.57" stroke="#FFEE6E" stroke-width="2" stroke-miterlimit="10" stroke-linecap="round" stroke-linejoin="round"/>
<path d="M145.359 138.059C146.063 137.589 146.625 136.836 147 135.755C149.156 129.501 150.375 127.197 150.984 123.2C151.218 121.696 150 119.11 146.109 118.686C144.563 118.498 142.828 119.204 142.032 121.555C142.032 121.555 139.688 128.467 140.485 131.57" stroke="#FFF18D" stroke-width="2" stroke-miterlimit="10" stroke-linecap="round" stroke-linejoin="round"/>
<path d="M145.359 138.059C146.063 137.589 146.625 136.836 147 135.755C149.156 129.501 150.375 127.197 150.984 123.2C151.218 121.696 150 119.11 146.109 118.686C144.563 118.498 142.828 119.204 142.032 121.555C142.032 121.555 139.688 128.467 140.485 131.57" stroke="#FFF5AC" stroke-width="2" stroke-miterlimit="10" stroke-linecap="round" stroke-linejoin="round"/>
<path d="M145.359 138.059C146.063 137.589 146.625 136.836 147 135.755C149.156 129.501 150.375 127.197 150.984 123.2C151.218 121.696 150 119.11 146.109 118.686C144.563 118.498 142.828 119.204 142.032 121.555C142.032 121.555 139.688 128.467 140.485 131.57" stroke="#FDF7C7" stroke-width="2" stroke-miterlimit="10" stroke-linecap="round" stroke-linejoin="round"/>
<path d="M133 121.76C134.233 116.013 137.601 103.293 139.119 98.6765C140.02 95.897 141.775 95.7557 142.914 96.1797C144.242 96.6508 145.333 97.3574 144.906 99.9956C143.768 107.486 142.06 121.383 141.064 126" stroke="#FFE003" stroke-width="2" stroke-miterlimit="10" stroke-linecap="round" stroke-linejoin="round"/>
<path d="M133 121.76C134.233 116.013 137.601 103.293 139.119 98.6765C140.02 95.897 141.775 95.7557 142.914 96.1797C144.242 96.6508 145.333 97.3574 144.906 99.9956C143.768 107.486 142.06 121.383 141.064 126" stroke="#FFE313" stroke-width="2" stroke-miterlimit="10" stroke-linecap="round" stroke-linejoin="round"/>
<path d="M133 121.76C134.233 116.013 137.601 103.293 139.119 98.6765C140.02 95.897 141.775 95.7557 142.914 96.1797C144.242 96.6508 145.333 97.3574 144.906 99.9956C143.768 107.486 142.06 121.383 141.064 126" stroke="#FFE835" stroke-width="2" stroke-miterlimit="10" stroke-linecap="round" stroke-linejoin="round"/>
<path d="M133 121.76C134.233 116.013 137.601 103.293 139.119 98.6765C140.02 95.897 141.775 95.7557 142.914 96.1797C144.242 96.6508 145.333 97.3574 144.906 99.9956C143.768 107.486 142.06 121.383 141.064 126" stroke="#FFEB51" stroke-width="2" stroke-miterlimit="10" stroke-linecap="round" stroke-linejoin="round"/>
<path d="M133 121.76C134.233 116.013 137.601 103.293 139.119 98.6765C140.02 95.897 141.775 95.7557 142.914 96.1797C144.242 96.6508 145.333 97.3574 144.906 99.9956C143.768 107.486 142.06 121.383 141.064 126" stroke="#FFEE6E" stroke-width="2" stroke-miterlimit="10" stroke-linecap="round" stroke-linejoin="round"/>
<path d="M133 121.76C134.233 116.013 137.601 103.293 139.119 98.6765C140.02 95.897 141.775 95.7557 142.914 96.1797C144.242 96.6508 145.333 97.3574 144.906 99.9956C143.768 107.486 142.06 121.383 141.064 126" stroke="#FFF18D" stroke-width="2" stroke-miterlimit="10" stroke-linecap="round" stroke-linejoin="round"/>
<path d="M133 121.76C134.233 116.013 137.601 103.293 139.119 98.6765C140.02 95.897 141.775 95.7557 142.914 96.1797C144.242 96.6508 145.333 97.3574 144.906 99.9956C143.768 107.486 142.06 121.383 141.064 126" stroke="#FFF5AC" stroke-width="2" stroke-miterlimit="10" stroke-linecap="round" stroke-linejoin="round"/>
<path d="M133 121.76C134.233 116.013 137.601 103.293 139.119 98.6765C140.02 95.897 141.775 95.7557 142.914 96.1797C144.242 96.6508 145.333 97.3574 144.906 99.9956C143.768 107.486 142.06 121.383 141.064 126" stroke="#FDF7C7" stroke-width="2" stroke-miterlimit="10" stroke-linecap="round" stroke-linejoin="round"/>
<path d="M145.125 196.787L154.031 159.359" stroke="#FFE003" stroke-width="2" stroke-miterlimit="10" stroke-linecap="round" stroke-linejoin="round"/>
<path d="M145.125 196.787L154.031 159.359" stroke="#FFE313" stroke-width="2" stroke-miterlimit="10" stroke-linecap="round" stroke-linejoin="round"/>
<path d="M145.125 196.787L154.031 159.359" stroke="#FFE835" stroke-width="2" stroke-miterlimit="10" stroke-linecap="round" stroke-linejoin="round"/>
<path d="M145.125 196.787L154.031 159.359" stroke="#FFEB51" stroke-width="2" stroke-miterlimit="10" stroke-linecap="round" stroke-linejoin="round"/>
<path d="M145.125 196.787L154.031 159.359" stroke="#FFEE6E" stroke-width="2" stroke-miterlimit="10" stroke-linecap="round" stroke-linejoin="round"/>
<path d="M145.125 196.787L154.031 159.359" stroke="#FFF18D" stroke-width="2" stroke-miterlimit="10" stroke-linecap="round" stroke-linejoin="round"/>
<path d="M145.125 196.787L154.031 159.359" stroke="#FFF5AC" stroke-width="2" stroke-miterlimit="10" stroke-linecap="round" stroke-linejoin="round"/>
<path d="M145.125 196.787L154.031 159.359" stroke="#FDF7C7" stroke-width="2" stroke-miterlimit="10" stroke-linecap="round" stroke-linejoin="round"/>
<path d="M132.611 155.456L122.346 197.022" stroke="#FFE003" stroke-width="2" stroke-miterlimit="10" stroke-linecap="round" stroke-linejoin="round"/>
<path d="M132.611 155.456L122.346 197.022" stroke="#FFE313" stroke-width="2" stroke-miterlimit="10" stroke-linecap="round" stroke-linejoin="round"/>
<path d="M132.611 155.456L122.346 197.022" stroke="#FFE835" stroke-width="2" stroke-miterlimit="10" stroke-linecap="round" stroke-linejoin="round"/>
<path d="M132.611 155.456L122.346 197.022" stroke="#FFEB51" stroke-width="2" stroke-miterlimit="10" stroke-linecap="round" stroke-linejoin="round"/>
<path d="M132.611 155.456L122.346 197.022" stroke="#FFEE6E" stroke-width="2" stroke-miterlimit="10" stroke-linecap="round" stroke-linejoin="round"/>
<path d="M132.611 155.456L122.346 197.022" stroke="#FFF18D" stroke-width="2" stroke-miterlimit="10" stroke-linecap="round" stroke-linejoin="round"/>
<path d="M132.611 155.456L122.346 197.022" stroke="#FFF5AC" stroke-width="2" stroke-miterlimit="10" stroke-linecap="round" stroke-linejoin="round"/>
<path d="M132.611 155.456L122.346 197.022" stroke="#FDF7C7" stroke-width="2" stroke-miterlimit="10" stroke-linecap="round" stroke-linejoin="round"/>
<path d="M158.812 149.626C156.14 158.889 154.125 158.889 149.203 160.393" stroke="#FFE003" stroke-width="2" stroke-miterlimit="10" stroke-linecap="round" stroke-linejoin="round"/>
<path d="M158.812 149.626C156.14 158.889 154.125 158.889 149.203 160.393" stroke="#FFE313" stroke-width="2" stroke-miterlimit="10" stroke-linecap="round" stroke-linejoin="round"/>
<path d="M158.812 149.626C156.14 158.889 154.125 158.889 149.203 160.393" stroke="#FFE835" stroke-width="2" stroke-miterlimit="10" stroke-linecap="round" stroke-linejoin="round"/>
<path d="M158.812 149.626C156.14 158.889 154.125 158.889 149.203 160.393" stroke="#FFEB51" stroke-width="2" stroke-miterlimit="10" stroke-linecap="round" stroke-linejoin="round"/>
<path d="M158.812 149.626C156.14 158.889 154.125 158.889 149.203 160.393" stroke="#FFEE6E" stroke-width="2" stroke-miterlimit="10" stroke-linecap="round" stroke-linejoin="round"/>
<path d="M158.812 149.626C156.14 158.889 154.125 158.889 149.203 160.393" stroke="#FFF18D" stroke-width="2" stroke-miterlimit="10" stroke-linecap="round" stroke-linejoin="round"/>
<path d="M158.812 149.626C156.14 158.889 154.125 158.889 149.203 160.393" stroke="#FFF5AC" stroke-width="2" stroke-miterlimit="10" stroke-linecap="round" stroke-linejoin="round"/>
<path d="M158.812 149.626C156.14 158.889 154.125 158.889 149.203 160.393" stroke="#FDF7C7" stroke-width="2" stroke-miterlimit="10" stroke-linecap="round" stroke-linejoin="round"/>
<path d="M116.581 108.201C118.549 109.847 120.002 112.01 120.799 114.408" stroke="#43C0EF" stroke-width="2" stroke-miterlimit="10" stroke-linecap="round" stroke-linejoin="round"/>
<path d="M116.581 108.201C118.549 109.847 120.002 112.01 120.799 114.408" stroke="#4BC1ED" stroke-width="2" stroke-miterlimit="10" stroke-linecap="round" stroke-linejoin="round"/>
<path d="M116.581 108.201C118.549 109.847 120.002 112.01 120.799 114.408" stroke="#5DC5EC" stroke-width="2" stroke-miterlimit="10" stroke-linecap="round" stroke-linejoin="round"/>
<path d="M116.581 108.201C118.549 109.847 120.002 112.01 120.799 114.408" stroke="#6EC9EB" stroke-width="2" stroke-miterlimit="10" stroke-linecap="round" stroke-linejoin="round"/>
<path d="M116.581 108.201C118.549 109.847 120.002 112.01 120.799 114.408" stroke="#7DCDEB" stroke-width="2" stroke-miterlimit="10" stroke-linecap="round" stroke-linejoin="round"/>
<path d="M116.581 108.201C118.549 109.847 120.002 112.01 120.799 114.408" stroke="#87CFE8" stroke-width="2" stroke-miterlimit="10" stroke-linecap="round" stroke-linejoin="round"/>
<path d="M116.581 108.201C118.549 109.847 120.002 112.01 120.799 114.408" stroke="#B1DEEF" stroke-width="2" stroke-miterlimit="10" stroke-linecap="round" stroke-linejoin="round"/>
<path d="M116.581 108.201C118.549 109.847 120.002 112.01 120.799 114.408" stroke="#C2E4ED" stroke-width="2" stroke-miterlimit="10" stroke-linecap="round" stroke-linejoin="round"/>
<path d="M116.581 108.201C118.549 109.847 120.002 112.01 120.799 114.408" stroke="#D8EDF4" stroke-width="2" stroke-miterlimit="10" stroke-linecap="round" stroke-linejoin="round"/>
<path d="M99.9412 130.253C94.4572 126.445 92.3949 119.11 95.3478 112.903C98.3007 106.649 105.378 103.687 111.8 105.615" stroke="#43C0EF" stroke-width="2" stroke-miterlimit="10" stroke-linecap="round" stroke-linejoin="round"/>
<path d="M99.9412 130.253C94.4572 126.445 92.3949 119.11 95.3478 112.903C98.3007 106.649 105.378 103.687 111.8 105.615" stroke="#4BC1ED" stroke-width="2" stroke-miterlimit="10" stroke-linecap="round" stroke-linejoin="round"/>
<path d="M99.9412 130.253C94.4572 126.445 92.3949 119.11 95.3478 112.903C98.3007 106.649 105.378 103.687 111.8 105.615" stroke="#5DC5EC" stroke-width="2" stroke-miterlimit="10" stroke-linecap="round" stroke-linejoin="round"/>
<path d="M99.9412 130.253C94.4572 126.445 92.3949 119.11 95.3478 112.903C98.3007 106.649 105.378 103.687 111.8 105.615" stroke="#6EC9EB" stroke-width="2" stroke-miterlimit="10" stroke-linecap="round" stroke-linejoin="round"/>
<path d="M99.9412 130.253C94.4572 126.445 92.3949 119.11 95.3478 112.903C98.3007 106.649 105.378 103.687 111.8 105.615" stroke="#7DCDEB" stroke-width="2" stroke-miterlimit="10" stroke-linecap="round" stroke-linejoin="round"/>
<path d="M99.9412 130.253C94.4572 126.445 92.3949 119.11 95.3478 112.903C98.3007 106.649 105.378 103.687 111.8 105.615" stroke="#87CFE8" stroke-width="2" stroke-miterlimit="10" stroke-linecap="round" stroke-linejoin="round"/>
<path d="M99.9412 130.253C94.4572 126.445 92.3949 119.11 95.3478 112.903C98.3007 106.649 105.378 103.687 111.8 105.615" stroke="#B1DEEF" stroke-width="2" stroke-miterlimit="10" stroke-linecap="round" stroke-linejoin="round"/>
<path d="M99.9412 130.253C94.4572 126.445 92.3949 119.11 95.3478 112.903C98.3007 106.649 105.378 103.687 111.8 105.615" stroke="#C2E4ED" stroke-width="2" stroke-miterlimit="10" stroke-linecap="round" stroke-linejoin="round"/>
<path d="M99.9412 130.253C94.4572 126.445 92.3949 119.11 95.3478 112.903C98.3007 106.649 105.378 103.687 111.8 105.615" stroke="#D8EDF4" stroke-width="2" stroke-miterlimit="10" stroke-linecap="round" stroke-linejoin="round"/>
<path d="M112.268 131.946C112.174 131.993 112.034 132.04 111.94 132.04C109.69 132.746 107.3 132.887 104.956 132.416" stroke="#43C0EF" stroke-width="2" stroke-miterlimit="10" stroke-linecap="round" stroke-linejoin="round"/>
<path d="M112.268 131.946C112.174 131.993 112.034 132.04 111.94 132.04C109.69 132.746 107.3 132.887 104.956 132.416" stroke="#4BC1ED" stroke-width="2" stroke-miterlimit="10" stroke-linecap="round" stroke-linejoin="round"/>
<path d="M112.268 131.946C112.174 131.993 112.034 132.04 111.94 132.04C109.69 132.746 107.3 132.887 104.956 132.416" stroke="#5DC5EC" stroke-width="2" stroke-miterlimit="10" stroke-linecap="round" stroke-linejoin="round"/>
<path d="M112.268 131.946C112.174 131.993 112.034 132.04 111.94 132.04C109.69 132.746 107.3 132.887 104.956 132.416" stroke="#6EC9EB" stroke-width="2" stroke-miterlimit="10" stroke-linecap="round" stroke-linejoin="round"/>
<path d="M112.268 131.946C112.174 131.993 112.034 132.04 111.94 132.04C109.69 132.746 107.3 132.887 104.956 132.416" stroke="#7DCDEB" stroke-width="2" stroke-miterlimit="10" stroke-linecap="round" stroke-linejoin="round"/>
<path d="M112.268 131.946C112.174 131.993 112.034 132.04 111.94 132.04C109.69 132.746 107.3 132.887 104.956 132.416" stroke="#87CFE8" stroke-width="2" stroke-miterlimit="10" stroke-linecap="round" stroke-linejoin="round"/>
<path d="M112.268 131.946C112.174 131.993 112.034 132.04 111.94 132.04C109.69 132.746 107.3 132.887 104.956 132.416" stroke="#B1DEEF" stroke-width="2" stroke-miterlimit="10" stroke-linecap="round" stroke-linejoin="round"/>
<path d="M112.268 131.946C112.174 131.993 112.034 132.04 111.94 132.04C109.69 132.746 107.3 132.887 104.956 132.416" stroke="#C2E4ED" stroke-width="2" stroke-miterlimit="10" stroke-linecap="round" stroke-linejoin="round"/>
<path d="M112.268 131.946C112.174 131.993 112.034 132.04 111.94 132.04C109.69 132.746 107.3 132.887 104.956 132.416" stroke="#D8EDF4" stroke-width="2" stroke-miterlimit="10" stroke-linecap="round" stroke-linejoin="round"/>
<path d="M175.076 147.792L181.966 152.306L180.279 155.832L172.451 153.293" stroke="#E82C88" stroke-width="2" stroke-miterlimit="10" stroke-linecap="round" stroke-linejoin="round"/>
<path d="M175.076 147.792L181.966 152.306L180.279 155.832L172.451 153.293" stroke="#E44592" stroke-width="2" stroke-miterlimit="10" stroke-linecap="round" stroke-linejoin="round"/>
<path d="M175.076 147.792L181.966 152.306L180.279 155.832L172.451 153.293" stroke="#DE6DA7" stroke-width="2" stroke-miterlimit="10" stroke-linecap="round" stroke-linejoin="round"/>
<path d="M175.076 147.792L181.966 152.306L180.279 155.832L172.451 153.293" stroke="#E77BAF" stroke-width="2" stroke-miterlimit="10" stroke-linecap="round" stroke-linejoin="round"/>
<path d="M175.076 147.792L181.966 152.306L180.279 155.832L172.451 153.293" stroke="#EE96C0" stroke-width="2" stroke-miterlimit="10" stroke-linecap="round" stroke-linejoin="round"/>
<path d="M175.076 147.792L181.966 152.306L180.279 155.832L172.451 153.293" stroke="#F1A5C9" stroke-width="2" stroke-miterlimit="10" stroke-linecap="round" stroke-linejoin="round"/>
<path d="M175.076 147.792L181.966 152.306L180.279 155.832L172.451 153.293" stroke="#F7C3DC" stroke-width="2" stroke-miterlimit="10" stroke-linecap="round" stroke-linejoin="round"/>
<path d="M175.076 147.792L181.966 152.306L180.279 155.832L172.451 153.293" stroke="#F2CCE3" stroke-width="2" stroke-miterlimit="10" stroke-linecap="round" stroke-linejoin="round"/>
<path d="M175.076 147.792L181.966 152.306L180.279 155.832L172.451 153.293" stroke="#F9DEED" stroke-width="2" stroke-miterlimit="10" stroke-linecap="round" stroke-linejoin="round"/>
<path d="M126.002 135.896L116.393 132.087" stroke="#E82C88" stroke-width="2" stroke-miterlimit="10" stroke-linecap="round" stroke-linejoin="round"/>
<path d="M126.002 135.896L116.393 132.087" stroke="#E44592" stroke-width="2" stroke-miterlimit="10" stroke-linecap="round" stroke-linejoin="round"/>
<path d="M126.002 135.896L116.393 132.087" stroke="#DE6DA7" stroke-width="2" stroke-miterlimit="10" stroke-linecap="round" stroke-linejoin="round"/>
<path d="M126.002 135.896L116.393 132.087" stroke="#E77BAF" stroke-width="2" stroke-miterlimit="10" stroke-linecap="round" stroke-linejoin="round"/>
<path d="M126.002 135.896L116.393 132.087" stroke="#EE96C0" stroke-width="2" stroke-miterlimit="10" stroke-linecap="round" stroke-linejoin="round"/>
<path d="M126.002 135.896L116.393 132.087" stroke="#F1A5C9" stroke-width="2" stroke-miterlimit="10" stroke-linecap="round" stroke-linejoin="round"/>
<path d="M126.002 135.896L116.393 132.087" stroke="#F7C3DC" stroke-width="2" stroke-miterlimit="10" stroke-linecap="round" stroke-linejoin="round"/>
<path d="M126.002 135.896L116.393 132.087" stroke="#F2CCE3" stroke-width="2" stroke-miterlimit="10" stroke-linecap="round" stroke-linejoin="round"/>
<path d="M126.002 135.896L116.393 132.087" stroke="#F9DEED" stroke-width="2" stroke-miterlimit="10" stroke-linecap="round" stroke-linejoin="round"/>
<path d="M143.625 142.808L171.092 153.575L174.467 146.522L162.843 139.846L158.812 137.401" stroke="#E82C88" stroke-width="2" stroke-miterlimit="10" stroke-linecap="round" stroke-linejoin="round"/>
<path d="M143.625 142.808L171.092 153.575L174.467 146.522L162.843 139.846L158.812 137.401" stroke="#E44592" stroke-width="2" stroke-miterlimit="10" stroke-linecap="round" stroke-linejoin="round"/>
<path d="M143.625 142.808L171.092 153.575L174.467 146.522L162.843 139.846L158.812 137.401" stroke="#DE6DA7" stroke-width="2" stroke-miterlimit="10" stroke-linecap="round" stroke-linejoin="round"/>
<path d="M143.625 142.808L171.092 153.575L174.467 146.522L162.843 139.846L158.812 137.401" stroke="#E77BAF" stroke-width="2" stroke-miterlimit="10" stroke-linecap="round" stroke-linejoin="round"/>
<path d="M143.625 142.808L171.092 153.575L174.467 146.522L162.843 139.846L158.812 137.401" stroke="#EE96C0" stroke-width="2" stroke-miterlimit="10" stroke-linecap="round" stroke-linejoin="round"/>
<path d="M143.625 142.808L171.092 153.575L174.467 146.522L162.843 139.846L158.812 137.401" stroke="#F1A5C9" stroke-width="2" stroke-miterlimit="10" stroke-linecap="round" stroke-linejoin="round"/>
<path d="M143.625 142.808L171.092 153.575L174.467 146.522L162.843 139.846L158.812 137.401" stroke="#F7C3DC" stroke-width="2" stroke-miterlimit="10" stroke-linecap="round" stroke-linejoin="round"/>
<path d="M143.625 142.808L171.092 153.575L174.467 146.522L162.843 139.846L158.812 137.401" stroke="#F2CCE3" stroke-width="2" stroke-miterlimit="10" stroke-linecap="round" stroke-linejoin="round"/>
<path d="M143.625 142.808L171.092 153.575L174.467 146.522L162.843 139.846L158.812 137.401" stroke="#F9DEED" stroke-width="2" stroke-miterlimit="10" stroke-linecap="round" stroke-linejoin="round"/>
<path d="M123.424 117.276L131.72 122.025L137.72 125.269" stroke="#E82C88" stroke-width="2" stroke-miterlimit="10" stroke-linecap="round" stroke-linejoin="round"/>
<path d="M123.424 117.276L131.72 122.025L137.72 125.269" stroke="#E44592" stroke-width="2" stroke-miterlimit="10" stroke-linecap="round" stroke-linejoin="round"/>
<path d="M123.424 117.276L131.72 122.025L137.72 125.269" stroke="#DE6DA7" stroke-width="2" stroke-miterlimit="10" stroke-linecap="round" stroke-linejoin="round"/>
<path d="M123.424 117.276L131.72 122.025L137.72 125.269" stroke="#E77BAF" stroke-width="2" stroke-miterlimit="10" stroke-linecap="round" stroke-linejoin="round"/>
<path d="M123.424 117.276L131.72 122.025L137.72 125.269" stroke="#EE96C0" stroke-width="2" stroke-miterlimit="10" stroke-linecap="round" stroke-linejoin="round"/>
<path d="M123.424 117.276L131.72 122.025L137.72 125.269" stroke="#F1A5C9" stroke-width="2" stroke-miterlimit="10" stroke-linecap="round" stroke-linejoin="round"/>
<path d="M123.424 117.276L131.72 122.025L137.72 125.269" stroke="#F7C3DC" stroke-width="2" stroke-miterlimit="10" stroke-linecap="round" stroke-linejoin="round"/>
<path d="M123.424 117.276L131.72 122.025L137.72 125.269" stroke="#F2CCE3" stroke-width="2" stroke-miterlimit="10" stroke-linecap="round" stroke-linejoin="round"/>
<path d="M123.424 117.276L131.72 122.025L137.72 125.269" stroke="#F9DEED" stroke-width="2" stroke-miterlimit="10" stroke-linecap="round" stroke-linejoin="round"/>
<path d="M129.048 130.771L125.908 129.454L127.361 126.398L134.439 130.112" stroke="#E82C88" stroke-width="2" stroke-miterlimit="10" stroke-linecap="round" stroke-linejoin="round"/>
<path d="M129.048 130.771L125.908 129.454L127.361 126.398L134.439 130.112" stroke="#E44592" stroke-width="2" stroke-miterlimit="10" stroke-linecap="round" stroke-linejoin="round"/>
<path d="M129.048 130.771L125.908 129.454L127.361 126.398L134.439 130.112" stroke="#DE6DA7" stroke-width="2" stroke-miterlimit="10" stroke-linecap="round" stroke-linejoin="round"/>
<path d="M129.048 130.771L125.908 129.454L127.361 126.398L134.439 130.112" stroke="#E77BAF" stroke-width="2" stroke-miterlimit="10" stroke-linecap="round" stroke-linejoin="round"/>
<path d="M129.048 130.771L125.908 129.454L127.361 126.398L134.439 130.112" stroke="#EE96C0" stroke-width="2" stroke-miterlimit="10" stroke-linecap="round" stroke-linejoin="round"/>
<path d="M129.048 130.771L125.908 129.454L127.361 126.398L134.439 130.112" stroke="#F1A5C9" stroke-width="2" stroke-miterlimit="10" stroke-linecap="round" stroke-linejoin="round"/>
<path d="M129.048 130.771L125.908 129.454L127.361 126.398L134.439 130.112" stroke="#F7C3DC" stroke-width="2" stroke-miterlimit="10" stroke-linecap="round" stroke-linejoin="round"/>
<path d="M129.048 130.771L125.908 129.454L127.361 126.398L134.439 130.112" stroke="#F2CCE3" stroke-width="2" stroke-miterlimit="10" stroke-linecap="round" stroke-linejoin="round"/>
<path d="M129.048 130.771L125.908 129.454L127.361 126.398L134.439 130.112" stroke="#F9DEED" stroke-width="2" stroke-miterlimit="10" stroke-linecap="round" stroke-linejoin="round"/>
<path d="M103.644 132.604C103.222 133.357 102.238 133.639 101.488 133.216C100.738 132.793 100.504 131.805 100.925 131.053C105.472 123.059 109.409 114.737 112.784 106.132C113.112 105.333 114.002 104.91 114.799 105.239C115.596 105.568 116.018 106.461 115.69 107.308C112.268 116.006 108.237 124.423 103.644 132.604Z" stroke="#43C0EF" stroke-width="2" stroke-miterlimit="10" stroke-linecap="round" stroke-linejoin="round"/>
<path d="M103.644 132.604C103.222 133.357 102.238 133.639 101.488 133.216C100.738 132.793 100.504 131.805 100.925 131.053C105.472 123.059 109.409 114.737 112.784 106.132C113.112 105.333 114.002 104.91 114.799 105.239C115.596 105.568 116.018 106.461 115.69 107.308C112.268 116.006 108.237 124.423 103.644 132.604Z" stroke="#4BC1ED" stroke-width="2" stroke-miterlimit="10" stroke-linecap="round" stroke-linejoin="round"/>
<path d="M103.644 132.604C103.222 133.357 102.238 133.639 101.488 133.216C100.738 132.793 100.504 131.805 100.925 131.053C105.472 123.059 109.409 114.737 112.784 106.132C113.112 105.333 114.002 104.91 114.799 105.239C115.596 105.568 116.018 106.461 115.69 107.308C112.268 116.006 108.237 124.423 103.644 132.604Z" stroke="#5DC5EC" stroke-width="2" stroke-miterlimit="10" stroke-linecap="round" stroke-linejoin="round"/>
<path d="M103.644 132.604C103.222 133.357 102.238 133.639 101.488 133.216C100.738 132.793 100.504 131.805 100.925 131.053C105.472 123.059 109.409 114.737 112.784 106.132C113.112 105.333 114.002 104.91 114.799 105.239C115.596 105.568 116.018 106.461 115.69 107.308C112.268 116.006 108.237 124.423 103.644 132.604Z" stroke="#6EC9EB" stroke-width="2" stroke-miterlimit="10" stroke-linecap="round" stroke-linejoin="round"/>
<path d="M103.644 132.604C103.222 133.357 102.238 133.639 101.488 133.216C100.738 132.793 100.504 131.805 100.925 131.053C105.472 123.059 109.409 114.737 112.784 106.132C113.112 105.333 114.002 104.91 114.799 105.239C115.596 105.568 116.018 106.461 115.69 107.308C112.268 116.006 108.237 124.423 103.644 132.604Z" stroke="#7DCDEB" stroke-width="2" stroke-miterlimit="10" stroke-linecap="round" stroke-linejoin="round"/>
<path d="M103.644 132.604C103.222 133.357 102.238 133.639 101.488 133.216C100.738 132.793 100.504 131.805 100.925 131.053C105.472 123.059 109.409 114.737 112.784 106.132C113.112 105.333 114.002 104.91 114.799 105.239C115.596 105.568 116.018 106.461 115.69 107.308C112.268 116.006 108.237 124.423 103.644 132.604Z" stroke="#87CFE8" stroke-width="2" stroke-miterlimit="10" stroke-linecap="round" stroke-linejoin="round"/>
<path d="M103.644 132.604C103.222 133.357 102.238 133.639 101.488 133.216C100.738 132.793 100.504 131.805 100.925 131.053C105.472 123.059 109.409 114.737 112.784 106.132C113.112 105.333 114.002 104.91 114.799 105.239C115.596 105.568 116.018 106.461 115.69 107.308C112.268 116.006 108.237 124.423 103.644 132.604Z" stroke="#B1DEEF" stroke-width="2" stroke-miterlimit="10" stroke-linecap="round" stroke-linejoin="round"/>
<path d="M103.644 132.604C103.222 133.357 102.238 133.639 101.488 133.216C100.738 132.793 100.504 131.805 100.925 131.053C105.472 123.059 109.409 114.737 112.784 106.132C113.112 105.333 114.002 104.91 114.799 105.239C115.596 105.568 116.018 106.461 115.69 107.308C112.268 116.006 108.237 124.423 103.644 132.604Z" stroke="#C2E4ED" stroke-width="2" stroke-miterlimit="10" stroke-linecap="round" stroke-linejoin="round"/>
<path d="M103.644 132.604C103.222 133.357 102.238 133.639 101.488 133.216C100.738 132.793 100.504 131.805 100.925 131.053C105.472 123.059 109.409 114.737 112.784 106.132C113.112 105.333 114.002 104.91 114.799 105.239C115.596 105.568 116.018 106.461 115.69 107.308C112.268 116.006 108.237 124.423 103.644 132.604Z" stroke="#D8EDF4" stroke-width="2" stroke-miterlimit="10" stroke-linecap="round" stroke-linejoin="round"/>
<path d="M115.128 132.275C114.846 132.746 114.237 132.934 113.768 132.651C113.3 132.369 113.159 131.758 113.393 131.288C116.206 126.304 118.69 121.085 120.799 115.724C120.986 115.207 121.549 114.972 122.065 115.16C122.58 115.348 122.814 115.912 122.627 116.43C120.518 121.931 118.034 127.197 115.128 132.275Z" stroke="#43C0EF" stroke-width="2" stroke-miterlimit="10" stroke-linecap="round" stroke-linejoin="round"/>
<path d="M115.128 132.275C114.846 132.746 114.237 132.934 113.768 132.651C113.3 132.369 113.159 131.758 113.393 131.288C116.206 126.304 118.69 121.085 120.799 115.724C120.986 115.207 121.549 114.972 122.065 115.16C122.58 115.348 122.814 115.912 122.627 116.43C120.518 121.931 118.034 127.197 115.128 132.275Z" stroke="#4BC1ED" stroke-width="2" stroke-miterlimit="10" stroke-linecap="round" stroke-linejoin="round"/>
<path d="M115.128 132.275C114.846 132.746 114.237 132.934 113.768 132.651C113.3 132.369 113.159 131.758 113.393 131.288C116.206 126.304 118.69 121.085 120.799 115.724C120.986 115.207 121.549 114.972 122.065 115.16C122.58 115.348 122.814 115.912 122.627 116.43C120.518 121.931 118.034 127.197 115.128 132.275Z" stroke="#5DC5EC" stroke-width="2" stroke-miterlimit="10" stroke-linecap="round" stroke-linejoin="round"/>
<path d="M115.128 132.275C114.846 132.746 114.237 132.934 113.768 132.651C113.3 132.369 113.159 131.758 113.393 131.288C116.206 126.304 118.69 121.085 120.799 115.724C120.986 115.207 121.549 114.972 122.065 115.16C122.58 115.348 122.814 115.912 122.627 116.43C120.518 121.931 118.034 127.197 115.128 132.275Z" stroke="#6EC9EB" stroke-width="2" stroke-miterlimit="10" stroke-linecap="round" stroke-linejoin="round"/>
<path d="M115.128 132.275C114.846 132.746 114.237 132.934 113.768 132.651C113.3 132.369 113.159 131.758 113.393 131.288C116.206 126.304 118.69 121.085 120.799 115.724C120.986 115.207 121.549 114.972 122.065 115.16C122.58 115.348 122.814 115.912 122.627 116.43C120.518 121.931 118.034 127.197 115.128 132.275Z" stroke="#7DCDEB" stroke-width="2" stroke-miterlimit="10" stroke-linecap="round" stroke-linejoin="round"/>
<path d="M115.128 132.275C114.846 132.746 114.237 132.934 113.768 132.651C113.3 132.369 113.159 131.758 113.393 131.288C116.206 126.304 118.69 121.085 120.799 115.724C120.986 115.207 121.549 114.972 122.065 115.16C122.58 115.348 122.814 115.912 122.627 116.43C120.518 121.931 118.034 127.197 115.128 132.275Z" stroke="#87CFE8" stroke-width="2" stroke-miterlimit="10" stroke-linecap="round" stroke-linejoin="round"/>
<path d="M115.128 132.275C114.846 132.746 114.237 132.934 113.768 132.651C113.3 132.369 113.159 131.758 113.393 131.288C116.206 126.304 118.69 121.085 120.799 115.724C120.986 115.207 121.549 114.972 122.065 115.16C122.58 115.348 122.814 115.912 122.627 116.43C120.518 121.931 118.034 127.197 115.128 132.275Z" stroke="#B1DEEF" stroke-width="2" stroke-miterlimit="10" stroke-linecap="round" stroke-linejoin="round"/>
<path d="M115.128 132.275C114.846 132.746 114.237 132.934 113.768 132.651C113.3 132.369 113.159 131.758 113.393 131.288C116.206 126.304 118.69 121.085 120.799 115.724C120.986 115.207 121.549 114.972 122.065 115.16C122.58 115.348 122.814 115.912 122.627 116.43C120.518 121.931 118.034 127.197 115.128 132.275Z" stroke="#C2E4ED" stroke-width="2" stroke-miterlimit="10" stroke-linecap="round" stroke-linejoin="round"/>
<path d="M115.128 132.275C114.846 132.746 114.237 132.934 113.768 132.651C113.3 132.369 113.159 131.758 113.393 131.288C116.206 126.304 118.69 121.085 120.799 115.724C120.986 115.207 121.549 114.972 122.065 115.16C122.58 115.348 122.814 115.912 122.627 116.43C120.518 121.931 118.034 127.197 115.128 132.275Z" stroke="#D8EDF4" stroke-width="2" stroke-miterlimit="10" stroke-linecap="round" stroke-linejoin="round"/>
<path d="M100.129 126.962C100.129 126.962 94.2229 121.696 97.8789 114.125" stroke="#43C0EF" stroke-width="2" stroke-miterlimit="10" stroke-linecap="round" stroke-linejoin="round"/>
<path d="M100.129 126.962C100.129 126.962 94.2229 121.696 97.8789 114.125" stroke="#4BC1ED" stroke-width="2" stroke-miterlimit="10" stroke-linecap="round" stroke-linejoin="round"/>
<path d="M100.129 126.962C100.129 126.962 94.2229 121.696 97.8789 114.125" stroke="#5DC5EC" stroke-width="2" stroke-miterlimit="10" stroke-linecap="round" stroke-linejoin="round"/>
<path d="M100.129 126.962C100.129 126.962 94.2229 121.696 97.8789 114.125" stroke="#6EC9EB" stroke-width="2" stroke-miterlimit="10" stroke-linecap="round" stroke-linejoin="round"/>
<path d="M100.129 126.962C100.129 126.962 94.2229 121.696 97.8789 114.125" stroke="#7DCDEB" stroke-width="2" stroke-miterlimit="10" stroke-linecap="round" stroke-linejoin="round"/>
<path d="M100.129 126.962C100.129 126.962 94.2229 121.696 97.8789 114.125" stroke="#87CFE8" stroke-width="2" stroke-miterlimit="10" stroke-linecap="round" stroke-linejoin="round"/>
<path d="M100.129 126.962C100.129 126.962 94.2229 121.696 97.8789 114.125" stroke="#B1DEEF" stroke-width="2" stroke-miterlimit="10" stroke-linecap="round" stroke-linejoin="round"/>
<path d="M100.129 126.962C100.129 126.962 94.2229 121.696 97.8789 114.125" stroke="#C2E4ED" stroke-width="2" stroke-miterlimit="10" stroke-linecap="round" stroke-linejoin="round"/>
<path d="M100.129 126.962C100.129 126.962 94.2229 121.696 97.8789 114.125" stroke="#D8EDF4" stroke-width="2" stroke-miterlimit="10" stroke-linecap="round" stroke-linejoin="round"/>
<path d="M128 192L127 196" stroke="#FFE003" stroke-width="2" stroke-miterlimit="10" stroke-linecap="round" stroke-linejoin="round"/>
<path d="M128 192L127 196" stroke="#FFE313" stroke-width="2" stroke-miterlimit="10" stroke-linecap="round" stroke-linejoin="round"/>
<path d="M128 192L127 196" stroke="#FFE835" stroke-width="2" stroke-miterlimit="10" stroke-linecap="round" stroke-linejoin="round"/>
<path d="M128 192L127 196" stroke="#FFEB51" stroke-width="2" stroke-miterlimit="10" stroke-linecap="round" stroke-linejoin="round"/>
<path d="M128 192L127 196" stroke="#FFEE6E" stroke-width="2" stroke-miterlimit="10" stroke-linecap="round" stroke-linejoin="round"/>
<path d="M128 192L127 196" stroke="#FFF18D" stroke-width="2" stroke-miterlimit="10" stroke-linecap="round" stroke-linejoin="round"/>
<path d="M128 192L127 196" stroke="#FFF5AC" stroke-width="2" stroke-miterlimit="10" stroke-linecap="round" stroke-linejoin="round"/>
<path d="M128 192L127 196" stroke="#FDF7C7" stroke-width="2" stroke-miterlimit="10" stroke-linecap="round" stroke-linejoin="round"/>
<path d="M133 171L128 188" stroke="#FFE003" stroke-width="2" stroke-miterlimit="10" stroke-linecap="round" stroke-linejoin="round"/>
<path d="M133 171L128 188" stroke="#FFE313" stroke-width="2" stroke-miterlimit="10" stroke-linecap="round" stroke-linejoin="round"/>
<path d="M133 171L128 188" stroke="#FFE835" stroke-width="2" stroke-miterlimit="10" stroke-linecap="round" stroke-linejoin="round"/>
<path d="M133 171L128 188" stroke="#FFEB51" stroke-width="2" stroke-miterlimit="10" stroke-linecap="round" stroke-linejoin="round"/>
<path d="M133 171L128 188" stroke="#FFEE6E" stroke-width="2" stroke-miterlimit="10" stroke-linecap="round" stroke-linejoin="round"/>
<path d="M133 171L128 188" stroke="#FFF18D" stroke-width="2" stroke-miterlimit="10" stroke-linecap="round" stroke-linejoin="round"/>
<path d="M133 171L128 188" stroke="#FFF5AC" stroke-width="2" stroke-miterlimit="10" stroke-linecap="round" stroke-linejoin="round"/>
<path d="M133 171L128 188" stroke="#FDF7C7" stroke-width="2" stroke-miterlimit="10" stroke-linecap="round" stroke-linejoin="round"/>
<path d="M135 161L134 167" stroke="#FFE003" stroke-width="2" stroke-miterlimit="10" stroke-linecap="round" stroke-linejoin="round"/>
<path d="M135 161L134 167" stroke="#FFE313" stroke-width="2" stroke-miterlimit="10" stroke-linecap="round" stroke-linejoin="round"/>
<path d="M135 161L134 167" stroke="#FFE835" stroke-width="2" stroke-miterlimit="10" stroke-linecap="round" stroke-linejoin="round"/>
<path d="M135 161L134 167" stroke="#FFEB51" stroke-width="2" stroke-miterlimit="10" stroke-linecap="round" stroke-linejoin="round"/>
<path d="M135 161L134 167" stroke="#FFEE6E" stroke-width="2" stroke-miterlimit="10" stroke-linecap="round" stroke-linejoin="round"/>
<path d="M135 161L134 167" stroke="#FFF18D" stroke-width="2" stroke-miterlimit="10" stroke-linecap="round" stroke-linejoin="round"/>
<path d="M135 161L134 167" stroke="#FFF5AC" stroke-width="2" stroke-miterlimit="10" stroke-linecap="round" stroke-linejoin="round"/>
<path d="M135 161L134 167" stroke="#FDF7C7" stroke-width="2" stroke-miterlimit="10" stroke-linecap="round" stroke-linejoin="round"/>
<path d="M135.924 158C134.806 157.002 132.757 155.1 131.918 153.958C130.94 152.627 129.589 150.06 128.75 148.063C125.769 141.216 126.794 133.418 130.334 131.611C133.595 129.947 139.465 132.324 142.959 131.278C144.31 130.898 146.173 131.754 145.987 134.084C145.428 140.978 138.021 140.693 135.971 140.408C135.971 140.408 147.291 142.975 145.009 149.394" stroke="#FFE003" stroke-width="2" stroke-miterlimit="10" stroke-linecap="round" stroke-linejoin="round"/>
<path d="M135.924 158C134.806 157.002 132.757 155.1 131.918 153.958C130.94 152.627 129.589 150.06 128.75 148.063C125.769 141.216 126.794 133.418 130.334 131.611C133.595 129.947 139.465 132.324 142.959 131.278C144.31 130.898 146.173 131.754 145.987 134.084C145.428 140.978 138.021 140.693 135.971 140.408C135.971 140.408 147.291 142.975 145.009 149.394" stroke="#FFE313" stroke-width="2" stroke-miterlimit="10" stroke-linecap="round" stroke-linejoin="round"/>
<path d="M135.924 158C134.806 157.002 132.757 155.1 131.918 153.958C130.94 152.627 129.589 150.06 128.75 148.063C125.769 141.216 126.794 133.418 130.334 131.611C133.595 129.947 139.465 132.324 142.959 131.278C144.31 130.898 146.173 131.754 145.987 134.084C145.428 140.978 138.021 140.693 135.971 140.408C135.971 140.408 147.291 142.975 145.009 149.394" stroke="#FFE835" stroke-width="2" stroke-miterlimit="10" stroke-linecap="round" stroke-linejoin="round"/>
<path d="M135.924 158C134.806 157.002 132.757 155.1 131.918 153.958C130.94 152.627 129.589 150.06 128.75 148.063C125.769 141.216 126.794 133.418 130.334 131.611C133.595 129.947 139.465 132.324 142.959 131.278C144.31 130.898 146.173 131.754 145.987 134.084C145.428 140.978 138.021 140.693 135.971 140.408C135.971 140.408 147.291 142.975 145.009 149.394" stroke="#FFEB51" stroke-width="2" stroke-miterlimit="10" stroke-linecap="round" stroke-linejoin="round"/>
<path d="M135.924 158C134.806 157.002 132.757 155.1 131.918 153.958C130.94 152.627 129.589 150.06 128.75 148.063C125.769 141.216 126.794 133.418 130.334 131.611C133.595 129.947 139.465 132.324 142.959 131.278C144.31 130.898 146.173 131.754 145.987 134.084C145.428 140.978 138.021 140.693 135.971 140.408C135.971 140.408 147.291 142.975 145.009 149.394" stroke="#FFEE6E" stroke-width="2" stroke-miterlimit="10" stroke-linecap="round" stroke-linejoin="round"/>
<path d="M135.924 158C134.806 157.002 132.757 155.1 131.918 153.958C130.94 152.627 129.589 150.06 128.75 148.063C125.769 141.216 126.794 133.418 130.334 131.611C133.595 129.947 139.465 132.324 142.959 131.278C144.31 130.898 146.173 131.754 145.987 134.084C145.428 140.978 138.021 140.693 135.971 140.408C135.971 140.408 147.291 142.975 145.009 149.394" stroke="#FFF18D" stroke-width="2" stroke-miterlimit="10" stroke-linecap="round" stroke-linejoin="round"/>
<path d="M135.924 158C134.806 157.002 132.757 155.1 131.918 153.958C130.94 152.627 129.589 150.06 128.75 148.063C125.769 141.216 126.794 133.418 130.334 131.611C133.595 129.947 139.465 132.324 142.959 131.278C144.31 130.898 146.173 131.754 145.987 134.084C145.428 140.978 138.021 140.693 135.971 140.408C135.971 140.408 147.291 142.975 145.009 149.394" stroke="#FFF5AC" stroke-width="2" stroke-miterlimit="10" stroke-linecap="round" stroke-linejoin="round"/>
<path d="M135.924 158C134.806 157.002 132.757 155.1 131.918 153.958C130.94 152.627 129.589 150.06 128.75 148.063C125.769 141.216 126.794 133.418 130.334 131.611C133.595 129.947 139.465 132.324 142.959 131.278C144.31 130.898 146.173 131.754 145.987 134.084C145.428 140.978 138.021 140.693 135.971 140.408C135.971 140.408 147.291 142.975 145.009 149.394" stroke="#FDF7C7" stroke-width="2" stroke-miterlimit="10" stroke-linecap="round" stroke-linejoin="round"/>
<rect x="130" y="289" width="117" height="4" rx="2" fill="#DCDBE4"/>
<rect x="130" y="299" width="95" height="4" rx="2" fill="#DCDBE4"/>
<rect x="106" y="471" width="95" height="6" rx="3" fill="#9282FD"/>
<rect x="106" y="485" width="48" height="6" rx="3" fill="#9282FD"/>
<rect x="130" y="309" width="106" height="4" rx="2" fill="#DCDBE4"/>
<path d="M143.98 323.936C143.932 323.792 143.803 323.687 143.649 323.665L139.309 323.051L137.368 319.223C137.299 319.086 137.156 319 137 319C136.844 319 136.701 319.086 136.632 319.223L134.691 323.051L130.351 323.665C130.197 323.687 130.068 323.792 130.02 323.936C129.972 324.081 130.012 324.24 130.124 324.346L133.264 327.326L132.523 331.533C132.497 331.683 132.56 331.834 132.686 331.924C132.758 331.974 132.842 332 132.927 332C132.993 332 133.058 331.985 133.118 331.954L137 329.968L140.882 331.954C141.02 332.025 141.187 332.013 141.314 331.924C141.44 331.834 141.503 331.683 141.477 331.533L140.735 327.326L143.876 324.346C143.988 324.24 144.028 324.081 143.98 323.936Z" fill="#DCDBE4"/>
<path d="M160.98 323.936C160.932 323.792 160.803 323.687 160.649 323.665L156.309 323.051L154.368 319.223C154.299 319.086 154.156 319 154 319C153.844 319 153.701 319.086 153.632 319.223L151.691 323.051L147.351 323.665C147.197 323.687 147.068 323.792 147.02 323.936C146.972 324.081 147.012 324.24 147.124 324.346L150.264 327.326L149.523 331.533C149.497 331.683 149.56 331.834 149.686 331.924C149.758 331.974 149.842 332 149.927 332C149.993 332 150.058 331.985 150.118 331.954L154 329.968L157.882 331.954C158.02 332.025 158.187 332.013 158.314 331.924C158.44 331.834 158.503 331.683 158.477 331.533L157.735 327.326L160.876 324.346C160.988 324.24 161.028 324.081 160.98 323.936Z" fill="#DCDBE4"/>
<path d="M177.98 323.936C177.932 323.792 177.803 323.687 177.649 323.665L173.309 323.051L171.368 319.223C171.299 319.086 171.156 319 171 319C170.844 319 170.701 319.086 170.632 319.223L168.691 323.051L164.351 323.665C164.197 323.687 164.068 323.792 164.02 323.936C163.972 324.081 164.012 324.24 164.124 324.346L167.264 327.326L166.523 331.533C166.497 331.683 166.56 331.834 166.686 331.924C166.758 331.974 166.842 332 166.927 332C166.993 332 167.058 331.985 167.118 331.954L171 329.968L174.882 331.954C175.02 332.025 175.187 332.013 175.314 331.924C175.44 331.834 175.503 331.683 175.477 331.533L174.735 327.326L177.876 324.346C177.988 324.24 178.028 324.081 177.98 323.936Z" fill="#DCDBE4"/>
<path d="M194.98 323.936C194.932 323.792 194.803 323.687 194.649 323.665L190.309 323.051L188.368 319.223C188.299 319.086 188.156 319 188 319C187.844 319 187.701 319.086 187.632 319.223L185.691 323.051L181.351 323.665C181.197 323.687 181.068 323.792 181.02 323.936C180.972 324.081 181.012 324.24 181.124 324.346L184.264 327.326L183.523 331.533C183.497 331.683 183.56 331.834 183.686 331.924C183.758 331.974 183.842 332 183.927 332C183.993 332 184.058 331.985 184.118 331.954L188 329.968L191.882 331.954C192.02 332.025 192.187 332.013 192.314 331.924C192.44 331.834 192.503 331.683 192.477 331.533L191.735 327.326L194.876 324.346C194.988 324.24 195.028 324.081 194.98 323.936Z" fill="#DCDBE4"/>
<path d="M211.98 323.936C211.932 323.792 211.803 323.687 211.649 323.665L207.309 323.051L205.368 319.223C205.299 319.086 205.156 319 205 319C204.844 319 204.701 319.086 204.632 319.223L202.691 323.051L198.351 323.665C198.197 323.687 198.068 323.792 198.02 323.936C197.972 324.081 198.012 324.24 198.124 324.346L201.264 327.326L200.523 331.533C200.497 331.683 200.56 331.834 200.686 331.924C200.758 331.974 200.842 332 200.927 332C200.993 332 201.058 331.985 201.118 331.954L205 329.968L208.882 331.954C209.02 332.025 209.187 332.013 209.314 331.924C209.44 331.834 209.503 331.683 209.477 331.533L208.735 327.326L211.876 324.346C211.988 324.24 212.028 324.081 211.98 323.936Z" fill="#DCDBE4"/>
<path d="M188.313 217.528C189.003 219.094 190.702 220.125 192.583 220.051H201.46V218.114C201.455 218.114 201.453 218.114 201.453 218.114H201.461C201.44 218.114 200.806 218.114 192.519 218.115C191.278 218.171 190.403 217.468 190.085 216.747C189.924 216.382 189.755 215.668 190.436 214.988L192.675 212.741L194.561 214.627L205.61 206.025C201.87 205.061 198.913 202.092 197.964 198.349L189.237 209.303L191.305 211.372L189.065 213.62C187.99 214.695 187.709 216.156 188.313 217.528ZM196.585 206.047L198.638 203.993L200.007 205.362L197.954 207.416L196.585 206.047Z" fill="white"/>
<path d="M204.528 187.848C207.698 186.331 211.714 186.819 214.447 189.553C217.178 192.284 217.671 196.299 216.152 199.472L204.528 187.848Z" fill="white"/>
<path d="M200.421 191.956L212.044 203.579C208.874 205.096 204.859 204.609 202.125 201.875C199.394 199.144 198.902 195.129 200.421 191.956Z" fill="white"/>
<path d="M200.177 188.979L201.546 187.61L216.388 202.452L215.019 203.821L200.177 188.979Z" fill="white"/>
<path d="M266.525 455.454C266.116 455.05 265.575 454.828 265 454.828C264.42 454.828 263.875 455.054 263.464 455.464L262.188 456.741V449.188C262.188 447.981 261.206 447 260 447C258.794 447 257.813 447.981 257.813 449.188V456.741L256.555 455.484C256.145 455.073 255.575 454.839 254.991 454.839H254.983C254.4 454.841 253.857 455.067 253.454 455.475C253.05 455.884 252.828 456.425 252.828 457C252.828 457.58 253.054 458.125 253.464 458.536L258.729 463.801C259.08 464.151 259.54 464.326 260 464.326C260.46 464.326 260.92 464.151 261.271 463.801L266.516 458.555C266.928 458.143 267.163 457.57 267.161 456.983C267.159 456.4 266.933 455.857 266.525 455.454Z" fill="#FFFDFD"/>
<path d="M269.375 467H268.438C268.092 467 267.812 466.72 267.812 466.375C267.812 466.03 268.092 465.75 268.438 465.75H269.375C269.72 465.75 270 466.03 270 466.375C270 466.72 269.72 467 269.375 467Z" fill="#FFFDFD"/>
<path d="M251.562 467H250.625C250.28 467 250 466.72 250 466.375C250 466.03 250.28 465.75 250.625 465.75H251.562C251.908 465.75 252.188 466.03 252.188 466.375C252.188 466.72 251.908 467 251.562 467Z" fill="#FFFDFD"/>
<path d="M266.25 467H253.75C253.405 467 253.125 466.72 253.125 466.375C253.125 466.03 253.405 465.75 253.75 465.75H266.25C266.595 465.75 266.875 466.03 266.875 466.375C266.875 466.72 266.595 467 266.25 467Z" fill="#FFFDFD"/>
<defs>
<filter id="filter0_bd" x="0" y="0" width="396.263" height="638" filterUnits="userSpaceOnUse" color-interpolation-filters="sRGB">
<feFlood flood-opacity="0" result="BackgroundImageFix"/>
<feGaussianBlur stdDeviation="10"/>
<feComposite in2="SourceAlpha" operator="in" result="effect1_backgroundBlur"/>
<feColorMatrix in="SourceAlpha" type="matrix" values="0 0 0 0 0 0 0 0 0 0 0 0 0 0 0 0 0 0 127 0"/>
<feOffset dy="40"/>
<feGaussianBlur stdDeviation="40"/>
<feColorMatrix type="matrix" values="0 0 0 0 0.167986 0 0 0 0 0.168504 0 0 0 0 0.170833 0 0 0 0.21 0"/>
<feBlend mode="normal" in2="effect1_backgroundBlur" result="effect2_dropShadow"/>
<feBlend mode="normal" in="SourceGraphic" in2="effect2_dropShadow" result="shape"/>
</filter>
<linearGradient id="paint0_linear" x1="86" y1="57" x2="311" y2="197" gradientUnits="userSpaceOnUse">
<stop stop-color="#5BBCDB"/>
<stop offset="0.399871" stop-color="#492EF9"/>
<stop offset="0.958333" stop-color="#8F138A"/>
</linearGradient>
</defs>
</svg>
