<svg width="965" height="882" viewBox="0 0 965 882" fill="none" xmlns="http://www.w3.org/2000/svg">
<g filter="url(#filter0_f_10428_2651)">
<path d="M567.613 815.689C546.18 816.239 214.087 761.616 202.76 761.659C250.319 757.37 406.938 768.008 492.598 770.262C599.673 773.08 765.487 775.423 756.43 778.507C747.373 781.591 589.046 815.14 567.613 815.689Z" fill="#B9BCD7"/>
</g>
<path d="M382.206 15.9384C385.033 7.44258 394.626 3.30023 402.749 7.06752L951.656 261.641C959.068 265.078 962.366 273.815 959.074 281.292L794.917 654.226C793.273 657.96 788.798 659.503 785.202 657.575L262.02 377.053L382.206 15.9384Z" fill="url(#paint0_linear_10428_2651)"/>
<path d="M262.02 377.053L785.249 656.589C788.584 658.371 788.811 663.067 785.663 665.161L577.605 803.614C572.901 806.745 566.837 806.966 561.917 804.187L26.6714 501.806C15.8092 495.669 16.7492 479.726 28.2573 474.909L262.02 377.053Z" fill="url(#paint1_linear_10428_2651)"/>
<g filter="url(#filter1_bd_10428_2651)">
<path d="M871.492 278.95L329.801 35.4066C324.506 33.0258 318.303 35.6398 316.309 41.0923L212.026 326.227C210.296 330.956 212.352 336.233 216.825 338.545L729.5 603.589C734.641 606.246 740.957 603.999 743.264 598.692L876.563 292.057C878.745 287.037 876.485 281.195 871.492 278.95Z" fill="white" fill-opacity="0.1" shape-rendering="crispEdges"/>
</g>
<g filter="url(#filter2_bd_10428_2651)">
<path d="M444.442 146.106L249.056 62.1083C243.841 59.866 237.806 62.4106 235.771 67.7107L173.407 230.128C171.498 235.099 173.819 240.694 178.687 242.854L369.121 327.339C374.261 329.62 380.271 327.215 382.418 322.017L449.735 159.112C451.823 154.059 449.465 148.265 444.442 146.106Z" fill="white" fill-opacity="0.1" shape-rendering="crispEdges"/>
</g>
<g filter="url(#filter3_bd_10428_2651)">
<path d="M788.764 299.407L490.655 167.279C485.41 164.954 479.289 167.51 477.253 172.873L447.293 251.824C445.436 256.717 447.666 262.214 452.407 264.43L742.85 400.222C747.889 402.578 753.881 400.37 756.186 395.308L793.813 312.694C796.118 307.631 793.85 301.661 788.764 299.407Z" fill="#78ECE3" fill-opacity="0.2" shape-rendering="crispEdges"/>
</g>
<path d="M263.251 514.534C264.673 513.934 266.294 514.024 267.641 514.779L487.44 638C490.92 639.951 490.826 644.991 487.276 646.811L408.392 687.245C406.914 688.002 405.158 687.977 403.703 687.178L174.046 560.99C170.384 558.978 170.659 553.628 174.509 552.002L263.251 514.534Z" fill="#222EAF"/>
<path d="M351.42 527.945C351.996 527.681 352.663 527.706 353.218 528.012L374.284 539.628C375.698 540.407 375.652 542.455 374.205 543.172L359.815 550.291C359.216 550.587 358.509 550.565 357.93 550.232L336.844 538.098C335.435 537.288 335.53 535.224 337.008 534.547L351.42 527.945Z" fill="#222EAF"/>
<path d="M383.992 544.175C384.548 543.933 385.182 543.956 385.718 544.237L406.601 555.176C408.066 555.943 408.02 558.055 406.524 558.758L392.31 565.438C391.733 565.71 391.06 565.689 390.5 565.383L369.598 553.957C368.139 553.159 368.234 551.032 369.76 550.368L383.992 544.175Z" fill="#222EAF"/>
<path d="M417.042 561.586C417.587 561.356 418.205 561.377 418.732 561.646L440.184 572.595C441.673 573.355 441.628 575.499 440.107 576.195L425.493 582.887C424.926 583.147 424.271 583.127 423.72 582.834L402.249 571.398C400.764 570.607 400.859 568.448 402.408 567.791L417.042 561.586Z" fill="#222EAF"/>
<path d="M450.701 581.376C451.267 581.123 451.917 581.147 452.463 581.44L474.103 593.066C475.542 593.84 475.497 595.92 474.025 596.63L459.228 603.762C458.64 604.046 457.951 604.024 457.382 603.705L435.72 591.56C434.285 590.756 434.38 588.66 435.883 587.989L450.701 581.376Z" fill="#222EAF"/>
<path d="M483.236 599.967C483.801 599.714 484.452 599.738 484.997 600.031L506.637 611.658C508.077 612.431 508.032 614.511 506.559 615.221L491.763 622.353C491.175 622.637 490.486 622.616 489.917 622.296L468.254 610.151C466.819 609.347 466.915 607.251 468.417 606.581L483.236 599.967Z" fill="#222EAF"/>
<path d="M515.255 618.577C515.831 618.313 516.498 618.338 517.053 618.644L538.119 630.26C539.533 631.039 539.487 633.087 538.04 633.804L523.65 640.923C523.051 641.219 522.344 641.197 521.765 640.864L500.679 628.73C499.27 627.92 499.365 625.856 500.843 625.179L515.255 618.577Z" fill="#222EAF"/>
<path d="M547.789 636.007C548.366 635.743 549.033 635.767 549.588 636.073L570.653 647.689C572.068 648.469 572.022 650.517 570.574 651.233L556.184 658.352C555.586 658.648 554.879 658.626 554.3 658.293L533.213 646.16C531.804 645.349 531.9 643.285 533.378 642.608L547.789 636.007Z" fill="#222EAF"/>
<path d="M581.827 654.576C582.39 654.325 583.036 654.347 583.58 654.636L607.696 667.437C609.144 668.205 609.104 670.293 607.627 671.005L592.846 678.13C592.262 678.412 591.578 678.393 591.01 678.08L566.881 664.756C565.436 663.958 565.525 661.852 567.033 661.179L581.827 654.576Z" fill="#222EAF"/>
<path d="M616.685 674.329C617.248 674.078 617.895 674.1 618.439 674.39L658.924 695.904C660.371 696.673 660.33 698.76 658.854 699.472L644.064 706.601C643.484 706.881 642.804 706.864 642.239 706.556L601.775 684.503C600.321 683.711 600.405 681.596 601.917 680.921L616.685 674.329Z" fill="#222EAF"/>
<path d="M670.302 649.934C670.872 649.68 671.528 649.706 672.075 650.005L705.47 668.227C706.899 669.007 706.847 671.077 705.38 671.784L690.557 678.93C689.968 679.213 689.278 679.192 688.709 678.872L655.323 660.116C653.89 659.311 653.986 657.216 655.487 656.546L670.302 649.934Z" fill="#222EAF"/>
<path d="M362.393 508.173C362.958 507.92 363.609 507.944 364.154 508.237L385.794 519.863C387.234 520.637 387.189 522.717 385.716 523.427L370.92 530.559C370.332 530.843 369.643 530.821 369.074 530.502L347.411 518.357C345.977 517.553 346.072 515.457 347.574 514.786L362.393 508.173Z" fill="#222EAF"/>
<path d="M394.965 524.404C395.51 524.173 396.128 524.195 396.655 524.464L418.107 535.413C419.596 536.173 419.551 538.316 418.03 539.012L403.416 545.705C402.849 545.965 402.194 545.945 401.643 545.652L380.171 534.215C378.687 533.425 378.782 531.266 380.331 530.609L394.965 524.404Z" fill="#222EAF"/>
<path d="M426.985 541.851C427.54 541.609 428.174 541.632 428.711 541.913L449.593 552.852C451.058 553.619 451.012 555.731 449.516 556.434L435.302 563.114C434.725 563.386 434.052 563.365 433.492 563.059L412.591 551.633C411.131 550.835 411.227 548.708 412.752 548.045L426.985 541.851Z" fill="#222EAF"/>
<path d="M461.805 561.642C462.381 561.378 463.048 561.403 463.603 561.709L484.669 573.324C486.083 574.104 486.038 576.152 484.59 576.868L470.2 583.987C469.601 584.283 468.894 584.261 468.316 583.928L447.229 571.795C445.82 570.984 445.916 568.92 447.394 568.243L461.805 561.642Z" fill="#222EAF"/>
<path d="M494.339 579.071C494.916 578.807 495.583 578.832 496.138 579.138L517.203 590.753C518.618 591.533 518.572 593.581 517.125 594.297L502.735 601.416C502.136 601.713 501.429 601.69 500.85 601.357L479.764 589.224C478.355 588.413 478.45 586.349 479.928 585.672L494.339 579.071Z" fill="#222EAF"/>
<path d="M527.39 596.481C527.955 596.228 528.606 596.252 529.151 596.545L550.791 608.171C552.231 608.945 552.186 611.025 550.713 611.735L535.917 618.867C535.329 619.151 534.64 619.129 534.071 618.81L512.408 606.665C510.974 605.861 511.069 603.765 512.571 603.094L527.39 596.481Z" fill="#222EAF"/>
<path d="M559.409 615.092C559.985 614.828 560.652 614.852 561.207 615.158L582.273 626.774C583.687 627.554 583.641 629.602 582.194 630.318L567.804 637.437C567.205 637.733 566.498 637.711 565.92 637.378L544.833 625.245C543.424 624.434 543.519 622.37 544.998 621.693L559.409 615.092Z" fill="#222EAF"/>
<path d="M593.621 633.663C594.187 633.411 594.837 633.435 595.383 633.728L617.023 645.354C618.462 646.128 618.417 648.208 616.945 648.918L602.148 656.05C601.56 656.333 600.871 656.312 600.302 655.993L578.64 643.848C577.205 643.044 577.3 640.947 578.802 640.277L593.621 633.663Z" fill="#222EAF"/>
<path d="M626.802 653.436C627.378 653.172 628.045 653.197 628.6 653.503L649.666 665.118C651.08 665.898 651.035 667.946 649.587 668.662L635.197 675.781C634.598 676.078 633.891 676.055 633.313 675.722L612.226 663.589C610.817 662.778 610.913 660.714 612.391 660.037L626.802 653.436Z" fill="#222EAF"/>
<path d="M659.336 670.865C659.913 670.601 660.58 670.626 661.135 670.932L682.2 682.547C683.615 683.327 683.569 685.375 682.122 686.091L667.732 693.211C667.133 693.507 666.426 693.485 665.847 693.152L644.761 681.018C643.352 680.207 643.447 678.143 644.925 677.466L659.336 670.865Z" fill="#222EAF"/>
<path d="M372.85 489.581C373.416 489.329 374.066 489.353 374.612 489.646L396.252 501.272C397.692 502.046 397.646 504.126 396.174 504.836L381.378 511.968C380.79 512.251 380.101 512.23 379.531 511.911L357.869 499.766C356.434 498.962 356.53 496.865 358.032 496.195L372.85 489.581Z" fill="#222EAF"/>
<path d="M343.286 472.172C343.862 471.908 344.529 471.932 345.084 472.239L366.15 483.854C367.564 484.634 367.519 486.682 366.071 487.398L351.681 494.517C351.082 494.813 350.376 494.791 349.797 494.458L328.71 482.325C327.301 481.514 327.397 479.45 328.875 478.773L343.286 472.172Z" fill="#222EAF"/>
<path d="M333.99 490.763C334.567 490.499 335.234 490.524 335.789 490.83L356.854 502.445C358.269 503.225 358.223 505.273 356.775 505.989L342.385 513.108C341.787 513.404 341.08 513.382 340.501 513.049L319.414 500.916C318.005 500.105 318.101 498.041 319.579 497.364L333.99 490.763Z" fill="#222EAF"/>
<path d="M320.563 510.497C321.128 510.244 321.779 510.268 322.324 510.561L343.964 522.187C345.404 522.961 345.358 525.041 343.886 525.751L329.09 532.883C328.502 533.167 327.813 533.145 327.243 532.826L305.581 520.681C304.146 519.877 304.242 517.781 305.744 517.11L320.563 510.497Z" fill="#222EAF"/>
<path d="M406.715 505.85C407.282 505.597 407.933 505.621 408.479 505.914L428.792 516.843C430.231 517.616 430.185 519.695 428.714 520.405L414.902 527.072C414.313 527.356 413.623 527.335 413.053 527.015L392.722 515.601C391.288 514.796 391.384 512.702 392.885 512.031L406.715 505.85Z" fill="#222EAF"/>
<path d="M439.766 524.422C440.321 524.18 440.956 524.203 441.492 524.484L462.375 535.423C463.839 536.19 463.794 538.301 462.297 539.005L448.084 545.685C447.506 545.956 446.834 545.936 446.274 545.63L425.372 534.204C423.912 533.406 424.008 531.279 425.533 530.615L439.766 524.422Z" fill="#222EAF"/>
<path d="M473.293 543.013C473.848 542.771 474.483 542.794 475.019 543.075L497.233 554.711C498.698 555.479 498.652 557.59 497.156 558.293L481.954 565.438C481.377 565.709 480.704 565.689 480.144 565.383L457.907 553.227C456.447 552.429 456.543 550.302 458.068 549.638L473.293 543.013Z" fill="#222EAF"/>
<path d="M505.959 561.642C506.535 561.378 507.203 561.403 507.758 561.709L528.823 573.324C530.237 574.104 530.192 576.152 528.744 576.868L514.354 583.987C513.755 584.283 513.049 584.261 512.47 583.928L491.383 571.795C489.974 570.984 490.07 568.92 491.548 568.243L505.959 561.642Z" fill="#222EAF"/>
<path d="M539.009 579.052C539.575 578.799 540.225 578.823 540.771 579.116L562.411 590.742C563.851 591.516 563.805 593.596 562.333 594.306L547.537 601.438C546.949 601.722 546.259 601.7 545.69 601.381L524.028 589.236C522.593 588.432 522.689 586.336 524.191 585.665L539.009 579.052Z" fill="#222EAF"/>
<path d="M572.19 596.5C572.766 596.236 573.434 596.261 573.989 596.567L595.054 608.182C596.468 608.962 596.423 611.01 594.975 611.726L580.585 618.846C579.987 619.142 579.28 619.12 578.701 618.787L557.614 606.653C556.205 605.842 556.301 603.778 557.779 603.101L572.19 596.5Z" fill="#222EAF"/>
<path d="M605.37 616.274C605.958 615.998 606.642 616.024 607.207 616.344L627.698 627.947C629.085 628.733 629.04 630.748 627.618 631.471L613.635 638.576C613.025 638.885 612.3 638.862 611.711 638.514L591.201 626.394C589.818 625.577 589.914 623.546 591.367 622.862L605.37 616.274Z" fill="#222EAF"/>
<path d="M637.775 632.501C638.341 632.249 638.991 632.273 639.537 632.566L661.177 644.192C662.617 644.966 662.571 647.046 661.099 647.755L646.302 654.888C645.715 655.171 645.025 655.15 644.456 654.831L622.794 642.686C621.359 641.881 621.455 639.785 622.957 639.115L637.775 632.501Z" fill="#222EAF"/>
<path d="M385.116 471.01C385.692 470.746 386.36 470.771 386.915 471.077L407.98 482.692C409.394 483.472 409.349 485.52 407.901 486.236L393.511 493.355C392.913 493.651 392.206 493.629 391.627 493.296L370.54 481.163C369.131 480.352 369.227 478.288 370.705 477.611L385.116 471.01Z" fill="#222EAF"/>
<path d="M356.067 453.58C356.644 453.316 357.311 453.341 357.866 453.647L378.931 465.263C380.346 466.042 380.3 468.09 378.852 468.807L364.462 475.926C363.864 476.222 363.157 476.2 362.578 475.867L341.492 463.733C340.082 462.923 340.178 460.859 341.656 460.182L356.067 453.58Z" fill="#222EAF"/>
<path d="M325.857 436.151C326.433 435.887 327.1 435.912 327.655 436.218L348.721 447.833C350.135 448.613 350.089 450.661 348.642 451.377L334.252 458.497C333.653 458.793 332.946 458.77 332.367 458.437L311.281 446.304C309.872 445.493 309.967 443.429 311.445 442.752L325.857 436.151Z" fill="#222EAF"/>
<path d="M295.646 417.56C296.222 417.296 296.889 417.321 297.445 417.627L318.51 429.242C319.924 430.022 319.879 432.07 318.431 432.786L304.041 439.905C303.442 440.202 302.736 440.179 302.157 439.846L281.07 427.713C279.661 426.902 279.757 424.838 281.235 424.161L295.646 417.56Z" fill="#222EAF"/>
<path d="M251.82 393.153C252.39 392.893 253.048 392.913 253.6 393.21L288.235 411.825C289.666 412.594 289.631 414.659 288.175 415.379L273.81 422.486C273.223 422.777 272.529 422.761 271.956 422.443L237.336 403.294C235.9 402.5 235.979 400.41 237.471 399.726L251.82 393.153Z" fill="#222EAF"/>
<path d="M314.237 454.742C314.813 454.478 315.481 454.503 316.036 454.809L337.101 466.425C338.515 467.204 338.47 469.252 337.022 469.969L322.632 477.088C322.034 477.384 321.327 477.362 320.748 477.029L299.661 464.895C298.252 464.085 298.348 462.021 299.826 461.344L314.237 454.742Z" fill="#222EAF"/>
<path d="M284.026 437.313C284.603 437.049 285.27 437.074 285.825 437.38L306.89 448.995C308.305 449.775 308.259 451.823 306.812 452.539L292.422 459.659C291.823 459.955 291.116 459.933 290.537 459.6L269.451 447.466C268.042 446.655 268.137 444.591 269.615 443.914L284.026 437.313Z" fill="#222EAF"/>
<path d="M253.816 418.722C254.392 418.458 255.059 418.483 255.614 418.789L276.68 430.404C278.094 431.184 278.048 433.232 276.601 433.948L262.211 441.067C261.612 441.363 260.905 441.341 260.326 441.008L239.24 428.875C237.831 428.064 237.926 426 239.404 425.323L253.816 418.722Z" fill="#222EAF"/>
<path d="M227.158 404.825C227.696 404.579 228.316 404.583 228.85 404.838L246.099 413.051C247.607 413.769 247.623 415.909 246.126 416.649L231.937 423.669C231.374 423.948 230.712 423.945 230.15 423.662L212.864 414.946C211.367 414.191 211.408 412.04 212.932 411.342L227.158 404.825Z" fill="#222EAF"/>
<path d="M303.78 473.333C304.356 473.07 305.023 473.094 305.578 473.4L326.644 485.016C328.058 485.796 328.012 487.844 326.565 488.56L312.175 495.679C311.576 495.975 310.869 495.953 310.29 495.62L289.204 483.487C287.795 482.676 287.89 480.612 289.368 479.935L303.78 473.333Z" fill="#222EAF"/>
<path d="M273.569 455.904C274.145 455.64 274.812 455.665 275.367 455.971L296.433 467.586C297.847 468.366 297.802 470.414 296.354 471.131L281.964 478.25C281.365 478.546 280.658 478.524 280.08 478.191L258.993 466.057C257.584 465.247 257.68 463.183 259.158 462.505L273.569 455.904Z" fill="#222EAF"/>
<path d="M243.358 437.313C243.934 437.049 244.602 437.074 245.157 437.38L266.222 448.995C267.636 449.775 267.591 451.823 266.143 452.539L251.753 459.659C251.155 459.955 250.448 459.933 249.869 459.6L228.782 447.466C227.373 446.655 227.469 444.591 228.947 443.914L243.358 437.313Z" fill="#222EAF"/>
<path d="M206.728 415.327C207.32 415.055 208.008 415.09 208.57 415.418L236.157 431.54C237.531 432.344 237.462 434.354 236.034 435.06L221.567 442.217C220.955 442.52 220.231 442.49 219.646 442.137L192.056 425.486C190.681 424.656 190.796 422.624 192.257 421.955L206.728 415.327Z" fill="#222EAF"/>
<path d="M289.836 491.925C290.412 491.661 291.08 491.686 291.635 491.992L312.7 503.607C314.114 504.387 314.069 506.435 312.621 507.151L298.231 514.27C297.633 514.566 296.926 514.544 296.347 514.211L275.26 502.078C273.851 501.267 273.947 499.203 275.425 498.526L289.836 491.925Z" fill="#222EAF"/>
<path d="M259.625 474.496C260.202 474.232 260.869 474.256 261.424 474.563L282.489 486.178C283.904 486.958 283.858 489.006 282.411 489.722L268.021 496.841C267.422 497.137 266.715 497.115 266.136 496.782L245.05 484.649C243.641 483.838 243.736 481.774 245.214 481.097L259.625 474.496Z" fill="#222EAF"/>
<path d="M229.415 455.904C229.991 455.64 230.658 455.665 231.213 455.971L252.279 467.586C253.693 468.366 253.647 470.414 252.2 471.131L237.81 478.25C237.211 478.546 236.504 478.524 235.926 478.191L214.839 466.057C213.43 465.247 213.525 463.183 215.003 462.505L229.415 455.904Z" fill="#222EAF"/>
<path d="M180.324 426.866C180.914 426.596 181.598 426.629 182.159 426.954L222.19 450.135C223.571 450.935 223.505 452.951 222.075 453.659L207.614 460.813C207.007 461.113 206.29 461.086 205.707 460.741L165.694 437.021C164.306 436.198 164.414 434.154 165.881 433.482L180.324 426.866Z" fill="#222EAF"/>
<path d="M417.042 488.383C417.587 488.153 418.205 488.175 418.732 488.443L440.184 499.392C441.673 500.152 441.628 502.296 440.107 502.992L425.493 509.684C424.926 509.944 424.271 509.924 423.72 509.631L402.249 498.195C400.764 497.404 400.859 495.245 402.408 494.588L417.042 488.383Z" fill="#222EAF"/>
<path d="M449.577 505.813C450.121 505.582 450.74 505.604 451.267 505.873L472.718 516.821C474.208 517.582 474.162 519.725 472.642 520.421L458.028 527.114C457.461 527.373 456.805 527.354 456.255 527.06L434.783 515.624C433.298 514.833 433.394 512.674 434.943 512.018L449.577 505.813Z" fill="#222EAF"/>
<path d="M482.074 523.278C482.639 523.025 483.29 523.049 483.835 523.342L505.475 534.969C506.915 535.742 506.87 537.822 505.397 538.532L490.601 545.664C490.013 545.948 489.324 545.927 488.755 545.607L467.092 533.462C465.658 532.658 465.753 530.562 467.255 529.892L482.074 523.278Z" fill="#222EAF"/>
<path d="M516.417 541.889C516.993 541.625 517.66 541.65 518.215 541.956L539.281 553.571C540.695 554.351 540.649 556.399 539.202 557.115L524.812 564.234C524.213 564.53 523.506 564.508 522.927 564.175L501.841 552.042C500.432 551.231 500.527 549.167 502.005 548.49L516.417 541.889Z" fill="#222EAF"/>
<path d="M550.113 561.642C550.689 561.378 551.357 561.403 551.912 561.709L572.977 573.324C574.391 574.104 574.346 576.152 572.898 576.868L558.508 583.987C557.91 584.283 557.203 584.261 556.624 583.928L535.537 571.795C534.128 570.984 534.224 568.92 535.702 568.243L550.113 561.642Z" fill="#222EAF"/>
<path d="M582.648 577.909C583.224 577.645 583.891 577.67 584.446 577.976L605.512 589.591C606.926 590.371 606.88 592.419 605.433 593.135L591.043 600.255C590.444 600.551 589.737 600.529 589.159 600.195L568.072 588.062C566.663 587.251 566.758 585.187 568.237 584.51L582.648 577.909Z" fill="#222EAF"/>
<path d="M615.698 596.481C616.264 596.228 616.914 596.252 617.46 596.545L639.1 608.171C640.539 608.945 640.494 611.025 639.022 611.735L624.225 618.867C623.638 619.151 622.948 619.129 622.379 618.81L600.717 606.665C599.282 605.861 599.378 603.765 600.88 603.094L615.698 596.481Z" fill="#222EAF"/>
<path d="M649.395 613.91C649.96 613.658 650.611 613.682 651.156 613.975L672.796 625.601C674.236 626.374 674.191 628.455 672.718 629.164L657.922 636.297C657.334 636.58 656.645 636.559 656.076 636.24L634.413 624.095C632.978 623.29 633.074 621.194 634.576 620.524L649.395 613.91Z" fill="#222EAF"/>
<path d="M684.279 632.49C684.83 632.244 685.462 632.26 686 632.533L727.266 653.51C728.742 654.26 728.719 656.375 727.228 657.094L712.499 664.194C711.931 664.468 711.266 664.458 710.706 664.166L669.466 642.652C667.983 641.878 668.048 639.734 669.576 639.052L684.279 632.49Z" fill="#222EAF"/>
<defs>
<filter id="filter0_f_10428_2651" x="182.76" y="740.65" width="594.026" height="95.0435" filterUnits="userSpaceOnUse" color-interpolation-filters="sRGB">
<feFlood flood-opacity="0" result="BackgroundImageFix"/>
<feBlend mode="normal" in="SourceGraphic" in2="BackgroundImageFix" result="shape"/>
<feGaussianBlur stdDeviation="10" result="effect1_foregroundBlur_10428_2651"/>
</filter>
<filter id="filter1_bd_10428_2651" x="181.416" y="14.5239" width="765.978" height="680.185" filterUnits="userSpaceOnUse" color-interpolation-filters="sRGB">
<feFlood flood-opacity="0" result="BackgroundImageFix"/>
<feGaussianBlur in="BackgroundImageFix" stdDeviation="10"/>
<feComposite in2="SourceAlpha" operator="in" result="effect1_backgroundBlur_10428_2651"/>
<feColorMatrix in="SourceAlpha" type="matrix" values="0 0 0 0 0 0 0 0 0 0 0 0 0 0 0 0 0 0 127 0" result="hardAlpha"/>
<feOffset dx="20" dy="40"/>
<feGaussianBlur stdDeviation="25"/>
<feComposite in2="hardAlpha" operator="out"/>
<feColorMatrix type="matrix" values="0 0 0 0 0.155775 0 0 0 0 0.111198 0 0 0 0 0.4375 0 0 0 0.2 0"/>
<feBlend mode="normal" in2="effect1_backgroundBlur_10428_2651" result="effect2_dropShadow_10428_2651"/>
<feBlend mode="normal" in="SourceGraphic" in2="effect2_dropShadow_10428_2651" result="shape"/>
</filter>
<filter id="filter2_bd_10428_2651" x="142.74" y="41.2925" width="377.755" height="376.909" filterUnits="userSpaceOnUse" color-interpolation-filters="sRGB">
<feFlood flood-opacity="0" result="BackgroundImageFix"/>
<feGaussianBlur in="BackgroundImageFix" stdDeviation="10"/>
<feComposite in2="SourceAlpha" operator="in" result="effect1_backgroundBlur_10428_2651"/>
<feColorMatrix in="SourceAlpha" type="matrix" values="0 0 0 0 0 0 0 0 0 0 0 0 0 0 0 0 0 0 127 0" result="hardAlpha"/>
<feOffset dx="20" dy="40"/>
<feGaussianBlur stdDeviation="25"/>
<feComposite in2="hardAlpha" operator="out"/>
<feColorMatrix type="matrix" values="0 0 0 0 0.155775 0 0 0 0 0.111198 0 0 0 0 0.4375 0 0 0 0.2 0"/>
<feBlend mode="normal" in2="effect1_backgroundBlur_10428_2651" result="effect2_dropShadow_10428_2651"/>
<feBlend mode="normal" in="SourceGraphic" in2="effect2_dropShadow_10428_2651" result="shape"/>
</filter>
<filter id="filter3_bd_10428_2651" x="416.64" y="146.418" width="448.075" height="344.748" filterUnits="userSpaceOnUse" color-interpolation-filters="sRGB">
<feFlood flood-opacity="0" result="BackgroundImageFix"/>
<feGaussianBlur in="BackgroundImageFix" stdDeviation="10"/>
<feComposite in2="SourceAlpha" operator="in" result="effect1_backgroundBlur_10428_2651"/>
<feColorMatrix in="SourceAlpha" type="matrix" values="0 0 0 0 0 0 0 0 0 0 0 0 0 0 0 0 0 0 127 0" result="hardAlpha"/>
<feOffset dx="20" dy="40"/>
<feGaussianBlur stdDeviation="25"/>
<feComposite in2="hardAlpha" operator="out"/>
<feColorMatrix type="matrix" values="0 0 0 0 0.155775 0 0 0 0 0.111198 0 0 0 0 0.4375 0 0 0 0.2 0"/>
<feBlend mode="normal" in2="effect1_backgroundBlur_10428_2651" result="effect2_dropShadow_10428_2651"/>
<feBlend mode="normal" in="SourceGraphic" in2="effect2_dropShadow_10428_2651" result="shape"/>
</filter>
<linearGradient id="paint0_linear_10428_2651" x1="736.677" y1="555.412" x2="461.294" y2="185.912" gradientUnits="userSpaceOnUse">
<stop stop-color="#3F27DD"/>
<stop offset="1" stop-color="#4537F9"/>
</linearGradient>
<linearGradient id="paint1_linear_10428_2651" x1="187.074" y1="395.063" x2="407.557" y2="795.473" gradientUnits="userSpaceOnUse">
<stop stop-color="#4429F2"/>
<stop offset="1" stop-color="#492EF9"/>
</linearGradient>
</defs>
</svg>
