<svg width="397" height="638" viewBox="0 0 397 638" fill="none" xmlns="http://www.w3.org/2000/svg">
<style>
@keyframes bannerProgress {
    from {
        width: 0;
    }
    to {
        width: 35%;
    }
}
    #banner2_progress {
    width: 0;
    animation: bannerProgress 6s ease-out infinite;
} 
  </style>
<g filter="url(#filter0_bd)">
<rect x="80" y="40" width="236.263" height="478" rx="30" fill="white" fill-opacity="0.5"/>
<rect x="81" y="41" width="234.263" height="476" rx="29" stroke="white" stroke-opacity="0.8" stroke-width="2"/>
</g>
<path d="M86 76.1974C86 59.6288 99.4315 46.1974 116 46.1974L281 46.1974C297.569 46.1974 311 59.6288 311 76.1974V481.802C311 498.371 297.569 511.802 281 511.802H116C99.4315 511.802 86 498.371 86 481.802L86 76.1974Z" fill="#484C74"/>
<path d="M175.13 297H180.512V296.077H176.261V287.705H175.13V297ZM184.703 297.117C186.64 297.117 188.057 295.7 188.057 293.646V293.542C188.057 291.501 186.64 290.084 184.716 290.084C182.792 290.084 181.375 291.514 181.375 293.555V293.659C181.375 295.648 182.766 297.117 184.703 297.117ZM184.716 296.22C183.338 296.22 182.493 295.206 182.493 293.659V293.555C182.493 291.995 183.351 290.981 184.716 290.981C186.068 290.981 186.939 291.995 186.939 293.568V293.659C186.939 295.193 186.081 296.22 184.716 296.22ZM191.535 296.259C190.586 296.259 190.248 295.817 190.248 295.115C190.248 294.114 191.249 293.776 192.614 293.776H193.55V294.621C193.55 295.674 192.679 296.259 191.535 296.259ZM191.431 297.117C192.432 297.117 193.043 296.779 193.55 296.142V297H194.629V292.515C194.629 290.617 193.446 290.084 192.146 290.084C190.833 290.084 189.598 290.656 189.455 292.203H190.534C190.638 291.371 191.158 290.981 192.094 290.981C193.134 290.981 193.55 291.436 193.55 292.515V293.009H192.575C190.833 293.009 189.169 293.542 189.169 295.115C189.169 296.506 190.17 297.117 191.431 297.117ZM199.426 296.22C198.282 296.22 197.359 295.401 197.359 293.685V293.581C197.359 291.93 198.165 290.981 199.517 290.981C200.843 290.981 201.675 291.8 201.675 293.542V293.646C201.675 295.388 200.687 296.22 199.426 296.22ZM199.309 297.117C200.297 297.117 201.246 296.493 201.636 295.83V297H202.715V286.951H201.636V291.293C201.246 290.63 200.544 290.084 199.413 290.084C197.541 290.084 196.241 291.553 196.241 293.633V293.737C196.241 295.856 197.528 297.117 199.309 297.117ZM205.445 288.784C205.835 288.784 206.16 288.459 206.16 288.069C206.16 287.679 205.835 287.354 205.445 287.354C205.055 287.354 204.73 287.679 204.73 288.069C204.73 288.459 205.055 288.784 205.445 288.784ZM204.925 297H206.004V290.201H204.925V297ZM208.212 297H209.291V292.879C209.291 291.657 210.188 291.02 211.189 291.02C212.281 291.02 212.788 291.553 212.788 292.749V297H213.867V292.827C213.867 290.851 212.879 290.084 211.475 290.084C210.357 290.084 209.603 290.643 209.291 291.28V290.201H208.212V297ZM218.686 295.882C217.542 295.882 216.593 294.998 216.593 293.516V293.412C216.593 291.982 217.399 290.981 218.751 290.981C220.077 290.981 220.909 291.865 220.909 293.386V293.477C220.909 294.998 219.947 295.882 218.686 295.882ZM218.699 299.483C220.597 299.483 221.936 298.521 221.949 296.545V290.201H220.87V291.293C220.48 290.63 219.778 290.084 218.647 290.084C216.775 290.084 215.475 291.618 215.475 293.464V293.555C215.475 295.427 216.788 296.779 218.569 296.779C219.557 296.779 220.48 296.155 220.87 295.492V296.48C220.87 297.936 220.025 298.573 218.686 298.573C217.529 298.573 216.879 298.17 216.723 297.39H215.618C215.8 298.534 216.684 299.483 218.699 299.483Z" fill="#979BC6"/>
<rect x="125" y="266" width="145" height="8" rx="4" fill="#DCDBE4"/>
<rect id="banner2_progress" x="125" y="266" width="118" height="8" rx="4" fill="url(#paint0_linear)"/>
<path d="M128.704 220.18C131.548 220.18 133.438 218.434 133.438 216.202C133.438 213.628 131.872 212.764 128.848 212.35C126.616 212.026 126.184 211.504 126.184 210.46C126.184 209.47 126.94 208.768 128.398 208.768C129.874 208.768 130.648 209.344 130.882 210.694H133.078C132.826 208.228 131.17 206.968 128.398 206.968C125.716 206.968 123.916 208.552 123.916 210.658C123.916 213.07 125.374 214.006 128.452 214.42C130.54 214.762 131.134 215.212 131.134 216.4C131.134 217.588 130.126 218.38 128.704 218.38C126.526 218.38 126.004 217.3 125.842 216.004H123.538C123.718 218.434 125.194 220.18 128.704 220.18ZM135.828 220H138.24V207.13H135.828V220ZM141.276 220H143.454V210.136L149.25 220H151.734V207.13H149.556V216.436L144.138 207.13H141.276V220ZM160.466 220.18C164.102 220.18 166.334 218.02 166.334 214.456V213.268H160.736V215.068H163.976C163.904 216.85 162.914 218.308 160.502 218.308C157.802 218.308 156.524 216.418 156.524 213.664V213.52C156.524 210.694 157.982 208.822 160.502 208.822C162.176 208.822 163.328 209.56 163.616 211.27H166.01C165.668 208.192 163.22 206.932 160.466 206.932C156.704 206.932 154.04 209.668 154.04 213.502V213.646C154.04 217.444 156.344 220.18 160.466 220.18ZM168.645 220H176.529V218.092H171.039V207.13H168.645V220ZM178.955 216.13H180.719L181.061 207.13H178.631L178.955 216.13ZM179.819 220.126C180.629 220.126 181.277 219.514 181.277 218.74C181.277 217.948 180.629 217.336 179.819 217.336C179.027 217.336 178.379 217.948 178.379 218.74C178.379 219.514 179.027 220.126 179.819 220.126ZM188.332 220H190.726V213.988L195.676 220H198.502L192.904 213.268L198.232 207.112H195.658L190.726 212.962V207.13H188.332V220ZM204.932 209.092L206.822 215.068H203.024L204.932 209.092ZM199.208 220H201.458L202.466 216.814H207.38L208.406 220H210.89L206.642 207.13H203.51L199.208 220ZM215.248 213.088V208.984H217.174C218.704 208.984 219.622 209.488 219.622 210.964V211.036C219.622 212.404 218.776 213.088 217.174 213.088H215.248ZM212.854 220H215.248V214.798H216.778L220.144 220H222.736L219.118 214.438C220.72 214.024 221.98 212.998 221.98 210.982V210.91C221.98 208.282 220 207.13 217.174 207.13H212.854V220ZM229.383 209.092L231.273 215.068H227.475L229.383 209.092ZM223.659 220H225.909L226.917 216.814H231.831L232.857 220H235.341L231.093 207.13H227.961L223.659 220ZM242.452 220.18C246.358 220.18 248.932 217.354 248.932 213.592V213.448C248.932 209.668 246.286 206.95 242.452 206.95C238.636 206.95 235.936 209.74 235.936 213.502V213.646C235.936 217.354 238.51 220.18 242.452 220.18ZM242.488 218.254C240.148 218.254 238.438 216.436 238.438 213.628V213.484C238.438 210.712 239.932 208.858 242.452 208.858C244.972 208.858 246.448 210.82 246.448 213.466V213.61C246.448 216.4 244.918 218.254 242.488 218.254ZM251.245 220H253.639V213.988L258.589 220H261.415L255.817 213.268L261.145 207.112H258.571L253.639 212.962V207.13H251.245V220ZM263.11 220H271.462V218.11H265.504V214.348H270.04V212.548H265.504V209.02H271.156V207.13H263.11V220Z" fill="white"/>
<path d="M187.313 192.528C188.003 194.094 189.702 195.125 191.583 195.051H200.46V193.114C200.455 193.114 200.453 193.114 200.453 193.114H200.461C200.44 193.114 199.806 193.114 191.519 193.115C190.278 193.171 189.403 192.468 189.085 191.747C188.924 191.382 188.755 190.668 189.436 189.988L191.675 187.741L193.561 189.627L204.61 181.025C200.87 180.061 197.913 177.092 196.964 173.349L188.237 184.303L190.305 186.372L188.065 188.62C186.99 189.695 186.709 191.156 187.313 192.528ZM195.585 181.047L197.638 178.993L199.007 180.362L196.954 182.416L195.585 181.047Z" fill="white"/>
<path d="M203.528 162.848C206.698 161.331 210.714 161.819 213.447 164.553C216.178 167.284 216.671 171.299 215.152 174.472L203.528 162.848Z" fill="white"/>
<path d="M199.421 166.956L211.044 178.579C207.874 180.096 203.859 179.609 201.125 176.875C198.394 174.144 197.902 170.129 199.421 166.956Z" fill="white"/>
<path d="M199.177 163.979L200.546 162.61L215.388 177.452L214.019 178.821L199.177 163.979Z" fill="white"/>
<defs>
<filter id="filter0_bd" x="0" y="0" width="396.263" height="638" filterUnits="userSpaceOnUse" color-interpolation-filters="sRGB">
<feFlood flood-opacity="0" result="BackgroundImageFix"/>
<feGaussianBlur stdDeviation="10"/>
<feComposite in2="SourceAlpha" operator="in" result="effect1_backgroundBlur"/>
<feColorMatrix in="SourceAlpha" type="matrix" values="0 0 0 0 0 0 0 0 0 0 0 0 0 0 0 0 0 0 127 0"/>
<feOffset dy="40"/>
<feGaussianBlur stdDeviation="40"/>
<feColorMatrix type="matrix" values="0 0 0 0 0.167986 0 0 0 0 0.168504 0 0 0 0 0.170833 0 0 0 0.21 0"/>
<feBlend mode="normal" in2="effect1_backgroundBlur" result="effect2_dropShadow"/>
<feBlend mode="normal" in="SourceGraphic" in2="effect2_dropShadow" result="shape"/>
</filter>
<linearGradient id="paint0_linear" x1="125" y1="278" x2="223.667" y2="320.931" gradientUnits="userSpaceOnUse">
<stop stop-color="#59AFDE"/>
<stop offset="0.520833" stop-color="#4930F9"/>
<stop offset="1" stop-color="#7C1BAA"/>
</linearGradient>
</defs>
</svg>
