<svg width="917" height="769" viewBox="0 0 917 769" fill="none" xmlns="http://www.w3.org/2000/svg">
<circle cx="756" cy="523" r="97" fill="#57D69E"/>
<g filter="url(#filter0_f_7045_2988)">
<ellipse cx="479" cy="246" rx="117" ry="101" fill="#75E195"/>
</g>
<g filter="url(#filter1_f_7045_2988)">
<ellipse cx="353" cy="297.5" rx="153" ry="126.5" fill="#4EC0EB"/>
</g>
<g filter="url(#filter2_f_7045_2988)">
<ellipse cx="525.5" cy="410.5" rx="191.5" ry="158.5" fill="#4EC0EB"/>
</g>
<g filter="url(#filter3_d_7045_2988)">
<path d="M575.7 338.034C550.225 343.252 539.249 336.278 536.945 332.138C529.642 322.269 512.528 300.026 502.5 290C492.472 279.974 473.195 280.541 464.809 282.078L342.09 305.941C332.211 307.862 325.827 317.508 327.918 327.352L393.814 637.441C394.97 642.884 400.347 646.336 405.777 645.121L797.778 557.463C803.085 556.276 806.471 551.075 805.406 545.743C786.773 452.525 762.308 325.367 760.53 315.441C758.691 305.171 747.964 304.444 742.831 305.364L709.209 312.066C675.321 318.548 601.175 332.816 575.7 338.034Z" fill="#75E195"/>
</g>
<g filter="url(#filter4_d_7045_2988)">
<rect x="321.773" y="316.851" width="247.233" height="241.769" rx="8" transform="rotate(-31.5008 321.773 316.851)" fill="#F2F3F9"/>
<path d="M325.954 323.672C323.645 319.905 324.827 314.98 328.595 312.671L525.751 191.85C529.518 189.541 534.444 190.723 536.752 194.491L551.129 217.95L340.33 347.132L325.954 323.672Z" fill="#D6DDE8"/>
<rect x="452.013" y="440.494" width="147.52" height="10.9274" rx="5.46371" transform="rotate(-31.5008 452.013 440.494)" fill="#D6DDE8"/>
<rect x="464.859" y="461.457" width="66.9304" height="10.9274" rx="5.46371" transform="rotate(-31.5008 464.859 461.457)" fill="#D6DDE8"/>
<path d="M518.458 318.873C512.698 309.472 504.128 302.12 493.96 297.856C483.793 293.591 472.542 292.63 461.799 295.108C451.056 297.587 441.363 303.379 434.091 311.666C426.82 319.954 422.336 330.317 421.276 341.292C420.215 352.266 422.63 363.296 428.18 372.823C433.73 382.349 442.134 389.891 452.204 394.381C462.274 398.871 473.5 400.082 484.296 397.844C495.092 395.606 504.911 390.031 512.366 381.908L489.375 360.81C486.344 364.113 482.351 366.38 477.961 367.29C473.571 368.2 469.006 367.707 464.911 365.882C460.817 364.056 457.399 360.989 455.143 357.115C452.886 353.241 451.904 348.756 452.335 344.294C452.766 339.831 454.589 335.617 457.546 332.247C460.503 328.877 464.445 326.522 468.813 325.514C473.182 324.506 477.757 324.897 481.891 326.631C486.025 328.365 489.51 331.355 491.853 335.177L518.458 318.873Z" fill="#75E195"/>
<path d="M497.494 331.719C494.427 326.714 489.864 322.799 484.45 320.528C479.036 318.258 473.046 317.746 467.325 319.066C461.605 320.385 456.444 323.469 452.572 327.882C448.7 332.295 446.313 337.813 445.748 343.657C445.183 349.5 446.469 355.373 449.424 360.446C452.379 365.519 456.854 369.534 462.216 371.925C467.578 374.316 473.555 374.961 479.304 373.769C485.052 372.577 490.281 369.609 494.25 365.283L489.325 360.763C486.303 364.056 482.323 366.316 477.947 367.223C473.571 368.13 469.02 367.639 464.939 365.819C460.857 363.999 457.45 360.942 455.201 357.081C452.951 353.219 451.972 348.748 452.402 344.3C452.832 339.851 454.649 335.651 457.597 332.291C460.544 328.932 464.473 326.584 468.828 325.58C473.183 324.575 477.743 324.965 481.864 326.693C485.985 328.422 489.459 331.402 491.794 335.213L497.494 331.719Z" fill="#D6DDE8"/>
<path d="M521.665 367.734C526.168 357.617 527.362 346.336 525.076 335.5L494.399 341.969C495.321 346.345 494.839 350.9 493.021 354.986L521.665 367.734Z" fill="#ACB2C7"/>
<path d="M499.202 357.736C501.599 352.349 502.235 346.342 501.018 340.573L494.456 341.956C495.381 346.344 494.897 350.912 493.074 355.009L499.202 357.736Z" fill="#D6DDE8"/>
<circle cx="345.967" cy="323.652" r="4.78074" transform="rotate(-31.5008 345.967 323.652)" fill="#ACB2C7"/>
<circle cx="357.613" cy="316.515" r="4.78074" transform="rotate(-31.5008 357.613 316.515)" fill="#ACB2C7"/>
<circle cx="370.424" cy="308.664" r="4.78074" transform="rotate(-31.5008 370.424 308.664)" fill="#ACB2C7"/>
</g>
<g filter="url(#filter5_d_7045_2988)">
<path d="M341.459 412.613C348.953 415.61 356.486 415.686 363.848 412.835C371.21 409.986 376.417 404.98 379.329 397.954C382.239 390.931 382.072 383.775 378.829 376.682C375.586 369.593 370.142 364.478 362.649 361.482C355.155 358.485 347.623 358.41 340.262 361.259C332.9 364.109 327.691 369.116 324.781 376.139C321.869 383.165 322.037 390.322 325.28 397.412C328.524 404.502 333.968 409.617 341.459 412.613Z" fill="white" fill-opacity="0.85"/>
<path d="M374.018 462.075C374.724 459.937 375.352 457.547 375.887 454.972C376.424 452.378 376.774 449.862 376.926 447.496C377.083 445.05 376.966 442.525 376.576 439.995C376.171 437.368 375.429 434.926 374.369 432.736C373.261 430.445 371.628 428.307 369.514 426.378C367.407 424.458 364.842 422.886 361.891 421.705C360.731 421.241 359.426 421.239 356.713 421.696C355.043 421.979 353.094 422.298 350.922 422.646C349.066 422.94 346.706 422.968 343.905 422.727C341.171 422.493 338.551 421.881 336.117 420.907C333.684 419.934 331.374 418.574 329.249 416.864C327.074 415.115 325.405 413.476 324.287 411.992C322.992 410.269 321.823 408.702 320.814 407.334C319.199 405.147 318.262 404.251 317.103 403.788C314.151 402.607 311.198 401.972 308.326 401.902C305.445 401.831 302.756 402.241 300.333 403.121C298.018 403.961 295.752 405.2 293.598 406.801C291.521 408.345 289.644 410.071 288.017 411.931C286.445 413.729 284.909 415.769 283.45 417.995C282.004 420.201 280.755 422.344 279.74 424.364C278.745 426.343 277.792 428.429 276.906 430.566C274.603 436.13 274.622 441.387 276.962 446.195C279.274 450.941 283.441 454.546 289.346 456.908L344.02 478.779C349.924 481.141 355.467 481.421 360.495 479.611C365.586 477.778 369.335 474.027 371.64 468.462C372.529 466.314 373.329 464.165 374.018 462.075Z" fill="white" fill-opacity="0.85"/>
</g>
<g filter="url(#filter6_d_7045_2988)">
<path d="M661.521 283.658C615.938 284.977 579.93 323.133 581.25 368.71C583.15 434.333 658.854 498.119 662.077 500.807C663.763 502.202 665.825 502.863 667.867 502.804C669.989 502.743 672.089 501.903 673.699 500.303C676.745 497.283 748.365 425.601 746.579 363.928C745.259 318.352 707.092 282.338 661.521 283.658ZM665.056 405.734C643.285 406.364 625.133 389.222 624.503 367.469C623.873 345.716 641.003 327.552 662.774 326.922C684.533 326.292 702.685 343.428 703.315 365.187C703.945 386.946 686.815 405.104 665.056 405.734Z" fill="#836BB3"/>
<path d="M663.035 499.653C663.036 499.654 663.037 499.655 663.038 499.655L662.077 500.807C663.763 502.202 665.825 502.863 667.867 502.804C669.989 502.743 672.089 501.903 673.699 500.303L663.035 499.653ZM663.035 499.653C664.432 500.808 666.136 501.354 667.823 501.305C669.579 501.254 671.312 500.56 672.642 499.239L672.643 499.238C674.136 497.758 692.731 479.155 710.719 453.255C728.752 427.289 745.958 394.295 745.08 363.972C743.784 319.223 706.307 283.861 661.564 285.157C616.81 286.453 581.454 323.918 582.749 368.667C583.685 400.972 602.823 433 622.339 457.423C641.805 481.782 661.44 498.322 663.035 499.653ZM623.004 367.512C623.657 390.094 642.5 407.888 665.099 407.233C687.687 406.579 705.468 387.73 704.814 365.143C704.16 342.557 685.318 324.768 662.73 325.422C640.132 326.077 622.35 344.931 623.004 367.512Z" stroke="url(#paint0_linear_7045_2988)" stroke-width="3"/>
</g>
<circle cx="290" cy="366" r="7" fill="white" fill-opacity="0.36"/>
<g filter="url(#filter7_d_7045_2988)">
<rect x="296.344" y="147.685" width="145.019" height="141.814" rx="8" transform="rotate(11.665 296.344 147.685)" fill="#F2F3F9"/>
</g>
<path d="M294.726 155.52C295.62 151.193 299.851 148.409 304.179 149.303L430.533 175.389C434.86 176.282 437.643 180.514 436.75 184.841L434.155 197.408L292.132 168.086L294.726 155.52Z" fill="#D6DDE8"/>
<rect x="320.757" y="190.945" width="17.6157" height="82.8056" rx="4" transform="rotate(11.665 320.757 190.945)" fill="#D6DDE8"/>
<rect x="350.41" y="197.216" width="17.6157" height="82.8056" rx="4" transform="rotate(11.665 350.41 197.216)" fill="#D6DDE8"/>
<rect x="380.064" y="203.488" width="17.6157" height="82.8056" rx="4" transform="rotate(11.665 380.064 203.488)" fill="#D6DDE8"/>
<rect width="17.6156" height="38.6502" rx="4" transform="matrix(0.978822 0.204711 -0.196781 0.980447 311.619 234.146)" fill="#AD93E1"/>
<rect width="17.6156" height="63.7112" rx="4" transform="matrix(0.978822 0.204711 -0.196781 0.980447 346.205 215.847)" fill="#AD93E1"/>
<rect width="17.6156" height="38.6502" rx="4" transform="matrix(0.978822 0.204711 -0.196781 0.980447 370.927 246.689)" fill="#836BB3"/>
<circle cx="303.964" cy="160.303" r="2.80423" transform="rotate(11.665 303.964 160.303)" fill="#ACB2C7"/>
<circle cx="311.811" cy="161.923" r="2.80423" transform="rotate(11.665 311.811 161.923)" fill="#ACB2C7"/>
<circle cx="320.443" cy="163.705" r="2.80423" transform="rotate(11.665 320.443 163.705)" fill="#ACB2C7"/>
<g filter="url(#filter8_b_7045_2988)">
<path d="M674.675 279.292C673.608 284.65 668.068 288.077 662.3 286.945C656.532 285.813 652.722 280.552 653.788 275.194C654.855 269.836 660.395 266.409 666.163 267.541C671.931 268.672 675.741 273.934 674.675 279.292ZM708.448 275.837C702.68 274.705 697.14 278.132 696.073 283.49C695.007 288.848 698.817 294.11 704.585 295.241C710.353 296.373 715.893 292.946 716.96 287.588C718.026 282.229 714.215 276.968 708.448 275.837ZM749.931 236.651L730.017 269.613C730.017 269.613 727.905 274.67 722.486 273.607C717.066 272.543 664.066 262.145 657.599 260.876C651.131 259.607 652.173 252.954 652.173 252.954C652.173 252.954 654.739 204.079 654.968 201.141C655.198 198.203 651.67 195.3 651.67 195.3L636.135 184.584C627.726 178.235 633.67 170.46 638.355 173.432C658.035 187.112 667.125 193.73 667.029 197.579C666.939 201.436 666.284 210.639 666.284 210.639L666.273 210.697C666.412 210.687 666.51 210.683 666.51 210.683C666.51 210.683 732.631 223.656 745.986 226.276C755.583 228.159 749.928 236.666 749.931 236.651ZM727.41 252.762L727.276 252.743L664.369 240.401L663.765 250.206L722.448 261.719L727.41 252.762ZM737.37 234.704L665.604 220.624L664.954 231.102C678.72 233.803 719.033 241.712 732.093 244.274L737.37 234.704Z" fill="#84F2A5"/>
</g>
<g filter="url(#filter9_b_7045_2988)">
<path d="M438.886 435.306L396.286 633.154C394.751 640.284 401.12 646.607 408.239 645.019L798.418 557.997C801.81 557.241 804.565 554.778 805.697 551.493L878.374 340.434C880.404 334.538 875.208 328.689 869.115 330.011L454.2 419.97C446.528 421.634 440.539 427.632 438.886 435.306Z" fill="url(#paint1_linear_7045_2988)" fill-opacity="0.75"/>
<path d="M438.886 435.306L396.286 633.154C394.751 640.284 401.12 646.607 408.239 645.019L798.418 557.997C801.81 557.241 804.565 554.778 805.697 551.493L878.374 340.434C880.404 334.538 875.208 328.689 869.115 330.011L454.2 419.97C446.528 421.634 440.539 427.632 438.886 435.306Z" stroke="url(#paint2_linear_7045_2988)" stroke-opacity="0.63" stroke-width="3"/>
</g>
<path d="M568.873 508.364C569.165 499.073 575.893 491.241 585.034 489.552L699.161 468.458C711.558 466.166 722.903 475.912 722.506 488.514C722.214 497.805 715.486 505.636 706.345 507.326L592.218 528.42C579.821 530.711 568.476 520.965 568.873 508.364Z" fill="#FEFFFF" fill-opacity="0.49"/>
<circle cx="317.5" cy="552.5" r="16.5" fill="#E4E8F9" fill-opacity="0.42"/>
<circle cx="578.5" cy="170.5" r="17.5" fill="white" fill-opacity="0.35"/>
<circle cx="561" cy="129" r="8" fill="white" fill-opacity="0.35"/>
<defs>
<filter id="filter0_f_7045_2988" x="162" y="-55" width="634" height="602" filterUnits="userSpaceOnUse" color-interpolation-filters="sRGB">
<feFlood flood-opacity="0" result="BackgroundImageFix"/>
<feBlend mode="normal" in="SourceGraphic" in2="BackgroundImageFix" result="shape"/>
<feGaussianBlur stdDeviation="100" result="effect1_foregroundBlur_7045_2988"/>
</filter>
<filter id="filter1_f_7045_2988" x="0" y="-29" width="706" height="653" filterUnits="userSpaceOnUse" color-interpolation-filters="sRGB">
<feFlood flood-opacity="0" result="BackgroundImageFix"/>
<feBlend mode="normal" in="SourceGraphic" in2="BackgroundImageFix" result="shape"/>
<feGaussianBlur stdDeviation="100" result="effect1_foregroundBlur_7045_2988"/>
</filter>
<filter id="filter2_f_7045_2988" x="134" y="52" width="783" height="717" filterUnits="userSpaceOnUse" color-interpolation-filters="sRGB">
<feFlood flood-opacity="0" result="BackgroundImageFix"/>
<feBlend mode="normal" in="SourceGraphic" in2="BackgroundImageFix" result="shape"/>
<feGaussianBlur stdDeviation="100" result="effect1_foregroundBlur_7045_2988"/>
</filter>
<filter id="filter3_d_7045_2988" x="277.521" y="281.215" width="598.08" height="484.149" filterUnits="userSpaceOnUse" color-interpolation-filters="sRGB">
<feFlood flood-opacity="0" result="BackgroundImageFix"/>
<feColorMatrix in="SourceAlpha" type="matrix" values="0 0 0 0 0 0 0 0 0 0 0 0 0 0 0 0 0 0 127 0" result="hardAlpha"/>
<feOffset dx="10" dy="60"/>
<feGaussianBlur stdDeviation="30"/>
<feComposite in2="hardAlpha" operator="out"/>
<feColorMatrix type="matrix" values="0 0 0 0 0.172549 0 0 0 0 0.168627 0 0 0 0 0.317647 0 0 0 0.15 0"/>
<feBlend mode="normal" in2="BackgroundImageFix" result="effect1_dropShadow_7045_2988"/>
<feBlend mode="normal" in="SourceGraphic" in2="effect1_dropShadow_7045_2988" result="shape"/>
</filter>
<filter id="filter4_d_7045_2988" x="320.773" y="186.669" width="343.126" height="341.322" filterUnits="userSpaceOnUse" color-interpolation-filters="sRGB">
<feFlood flood-opacity="0" result="BackgroundImageFix"/>
<feColorMatrix in="SourceAlpha" type="matrix" values="0 0 0 0 0 0 0 0 0 0 0 0 0 0 0 0 0 0 127 0" result="hardAlpha"/>
<feOffset dx="2" dy="2"/>
<feGaussianBlur stdDeviation="3"/>
<feComposite in2="hardAlpha" operator="out"/>
<feColorMatrix type="matrix" values="0 0 0 0 0.172549 0 0 0 0 0.168627 0 0 0 0 0.317647 0 0 0 0.15 0"/>
<feBlend mode="normal" in2="BackgroundImageFix" result="effect1_dropShadow_7045_2988"/>
<feBlend mode="normal" in="SourceGraphic" in2="effect1_dropShadow_7045_2988" result="shape"/>
</filter>
<filter id="filter5_d_7045_2988" x="271.192" y="355.177" width="118.201" height="133.611" filterUnits="userSpaceOnUse" color-interpolation-filters="sRGB">
<feFlood flood-opacity="0" result="BackgroundImageFix"/>
<feColorMatrix in="SourceAlpha" type="matrix" values="0 0 0 0 0 0 0 0 0 0 0 0 0 0 0 0 0 0 127 0" result="hardAlpha"/>
<feOffset dx="2" dy="2"/>
<feGaussianBlur stdDeviation="3"/>
<feComposite in2="hardAlpha" operator="out"/>
<feColorMatrix type="matrix" values="0 0 0 0 0.172549 0 0 0 0 0.168627 0 0 0 0 0.317647 0 0 0 0.15 0"/>
<feBlend mode="normal" in2="BackgroundImageFix" result="effect1_dropShadow_7045_2988"/>
<feBlend mode="normal" in="SourceGraphic" in2="effect1_dropShadow_7045_2988" result="shape"/>
</filter>
<filter id="filter6_d_7045_2988" x="557.215" y="267.622" width="213.396" height="267.185" filterUnits="userSpaceOnUse" color-interpolation-filters="sRGB">
<feFlood flood-opacity="0" result="BackgroundImageFix"/>
<feColorMatrix in="SourceAlpha" type="matrix" values="0 0 0 0 0 0 0 0 0 0 0 0 0 0 0 0 0 0 127 0" result="hardAlpha"/>
<feOffset dy="8"/>
<feGaussianBlur stdDeviation="12"/>
<feComposite in2="hardAlpha" operator="out"/>
<feColorMatrix type="matrix" values="0 0 0 0 0.172549 0 0 0 0 0.168627 0 0 0 0 0.317647 0 0 0 0.15 0"/>
<feBlend mode="normal" in2="BackgroundImageFix" result="effect1_dropShadow_7045_2988"/>
<feBlend mode="normal" in="SourceGraphic" in2="effect1_dropShadow_7045_2988" result="shape"/>
</filter>
<filter id="filter7_d_7045_2988" x="265.121" y="145.136" width="179.796" height="177.305" filterUnits="userSpaceOnUse" color-interpolation-filters="sRGB">
<feFlood flood-opacity="0" result="BackgroundImageFix"/>
<feColorMatrix in="SourceAlpha" type="matrix" values="0 0 0 0 0 0 0 0 0 0 0 0 0 0 0 0 0 0 127 0" result="hardAlpha"/>
<feOffset dx="2" dy="2"/>
<feGaussianBlur stdDeviation="3"/>
<feComposite in2="hardAlpha" operator="out"/>
<feColorMatrix type="matrix" values="0 0 0 0 0.172549 0 0 0 0 0.168627 0 0 0 0 0.317647 0 0 0 0.15 0"/>
<feBlend mode="normal" in2="BackgroundImageFix" result="effect1_dropShadow_7045_2988"/>
<feBlend mode="normal" in="SourceGraphic" in2="effect1_dropShadow_7045_2988" result="shape"/>
</filter>
<filter id="filter8_b_7045_2988" x="627.904" y="168.779" width="127.679" height="130.678" filterUnits="userSpaceOnUse" color-interpolation-filters="sRGB">
<feFlood flood-opacity="0" result="BackgroundImageFix"/>
<feGaussianBlur in="BackgroundImage" stdDeviation="2"/>
<feComposite in2="SourceAlpha" operator="in" result="effect1_backgroundBlur_7045_2988"/>
<feBlend mode="normal" in="SourceGraphic" in2="effect1_backgroundBlur_7045_2988" result="shape"/>
</filter>
<filter id="filter9_b_7045_2988" x="390.555" y="324.321" width="493.769" height="326.446" filterUnits="userSpaceOnUse" color-interpolation-filters="sRGB">
<feFlood flood-opacity="0" result="BackgroundImageFix"/>
<feGaussianBlur in="BackgroundImage" stdDeviation="2"/>
<feComposite in2="SourceAlpha" operator="in" result="effect1_backgroundBlur_7045_2988"/>
<feBlend mode="normal" in="SourceGraphic" in2="effect1_backgroundBlur_7045_2988" result="shape"/>
</filter>
<linearGradient id="paint0_linear_7045_2988" x1="641" y1="286.5" x2="665" y2="335" gradientUnits="userSpaceOnUse">
<stop stop-color="#C3A8F8"/>
<stop offset="1" stop-color="#C3A8F8" stop-opacity="0"/>
</linearGradient>
<linearGradient id="paint1_linear_7045_2988" x1="723.999" y1="488" x2="923" y2="367.5" gradientUnits="userSpaceOnUse">
<stop stop-color="#C5DBEC"/>
<stop offset="1" stop-color="white" stop-opacity="0.61"/>
</linearGradient>
<linearGradient id="paint2_linear_7045_2988" x1="475.54" y1="416.755" x2="546.04" y2="566.255" gradientUnits="userSpaceOnUse">
<stop stop-color="white"/>
<stop offset="1" stop-color="white" stop-opacity="0"/>
</linearGradient>
</defs>
</svg>
