<svg width="520" height="300" viewBox="0 0 520 300" fill="none" xmlns="http://www.w3.org/2000/svg">
<rect x="167" y="78" width="144" height="95" rx="30" fill="#836BB3"/>
<rect x="263.249" y="116.085" width="3.49703" height="2.62277" fill="white"/>
<path fill-rule="evenodd" clip-rule="evenodd" d="M210.69 120.697V129.008C210.69 133.412 214.278 136.982 218.704 136.982C223.13 136.982 226.718 133.412 226.718 129.008V120.697H223.191V129.008C223.191 131.637 221.346 133.768 218.704 133.768C216.063 133.768 214.218 131.637 214.218 129.008V120.697H210.69Z" fill="white"/>
<path d="M239.381 120.246C241.577 120.246 243.454 121.057 245.011 122.677C246.568 124.298 247.346 126.292 247.346 128.66C247.346 131.005 246.568 132.999 245.011 134.642C243.454 136.262 241.577 137.073 239.381 137.073C236.95 137.073 235.083 136.166 233.783 134.354V136.657H230.328V116H233.783V122.933C235.083 121.142 236.95 120.246 239.381 120.246ZM235.222 132.338C236.182 133.298 237.387 133.778 238.837 133.778C240.287 133.778 241.492 133.298 242.452 132.338C243.411 131.357 243.891 130.131 243.891 128.66C243.891 127.188 243.411 125.972 242.452 125.013C241.492 124.032 240.287 123.541 238.837 123.541C237.387 123.541 236.182 124.032 235.222 125.013C234.262 125.972 233.783 127.188 233.783 128.66C233.783 130.131 234.262 131.357 235.222 132.338Z" fill="white"/>
<path d="M254.549 122.557C255.423 121.974 257.35 120.662 260.96 120.662V124.305C259.535 124.487 257.172 124.743 255.715 126.491C254.841 127.657 254.545 128.929 254.545 130.571V136.657H251.09V120.662H254.545L254.549 122.557Z" fill="white"/>
<path d="M263.133 136.657V120.662H266.588V136.657H263.133Z" fill="white"/>
<path d="M283.545 116H287V136.657H283.545V134.354C282.244 136.166 280.378 137.073 277.947 137.073C275.75 137.073 273.874 136.262 272.317 134.642C270.76 132.999 269.981 131.005 269.981 128.66C269.981 126.292 270.76 124.298 272.317 122.677C273.874 121.057 275.75 120.246 277.947 120.246C280.378 120.246 282.244 121.142 283.545 122.933V116ZM274.876 132.338C275.836 133.298 277.04 133.778 278.491 133.778C279.941 133.778 281.146 133.298 282.106 132.338C283.065 131.357 283.545 130.131 283.545 128.66C283.545 127.188 283.065 125.972 282.106 125.013C281.146 124.032 279.941 123.541 278.491 123.541C277.04 123.541 275.836 124.032 274.876 125.013C273.916 125.972 273.436 127.188 273.436 128.66C273.436 130.131 273.916 131.357 274.876 132.338Z" fill="white"/>
<path fill-rule="evenodd" clip-rule="evenodd" d="M193.497 116H190V136.657H193.497V116ZM203.405 136.657H206.955V116H203.405V136.657Z" fill="white"/>
<rect x="192.623" y="125.189" width="11.9605" height="3.5377" transform="rotate(-12 192.623 125.189)" fill="white"/>
<path d="M210.628 140.149L223.513 138.357L223.513 141.581L210.628 143.373L210.628 140.149Z" fill="white"/>
<rect x="263.146" y="116" width="3.49703" height="2.62277" fill="white"/>
<path d="M20.52 36.304L22.2 41.616H18.824L20.52 36.304ZM15.432 46H17.432L18.328 43.168H22.696L23.608 46H25.816L22.04 34.56H19.256L15.432 46ZM28.394 36.256C29.034 36.256 29.546 35.776 29.546 35.152C29.546 34.512 29.034 34.032 28.394 34.032C27.754 34.032 27.242 34.512 27.242 35.152C27.242 35.776 27.754 36.256 28.394 36.256ZM27.45 46H29.386V37.632H27.45V46ZM35.3618 44.624C34.1138 44.624 33.1858 43.744 33.1858 41.904V41.776C33.1858 39.968 34.0178 38.976 35.4418 38.976C36.8498 38.976 37.6978 39.888 37.6978 41.728V41.856C37.6978 43.728 36.7058 44.624 35.3618 44.624ZM34.8818 46.16C36.1138 46.16 37.1858 45.424 37.6338 44.592V46H39.5698V33.76H37.6338V38.912C37.1698 38.08 36.3218 37.456 34.9618 37.456C32.7858 37.456 31.2018 39.152 31.2018 41.824V41.952C31.2018 44.672 32.7858 46.16 34.8818 46.16ZM44.5268 44.768C43.5668 44.768 43.1828 44.304 43.1828 43.6C43.1828 42.576 44.1268 42.24 45.5988 42.24H46.5908V43.072C46.5908 44.144 45.7108 44.768 44.5268 44.768ZM44.0628 46.16C45.3428 46.16 46.0788 45.696 46.6228 44.976V46H48.5268V40.512C48.5268 38.224 47.0548 37.456 45.1828 37.456C43.3108 37.456 41.7588 38.272 41.5988 40.224H43.4708C43.5668 39.392 44.0628 38.912 45.0708 38.912C46.2068 38.912 46.5908 39.472 46.5908 40.592V41.024H45.5508C43.1508 41.024 41.2628 41.728 41.2628 43.68C41.2628 45.424 42.5268 46.16 44.0628 46.16ZM53.5938 46.144C54.1858 46.144 54.6018 46.048 54.9058 45.936V44.4C54.6338 44.512 54.3458 44.56 53.9618 44.56C53.3538 44.56 53.0018 44.224 53.0018 43.488V39.088H54.8418V37.632H53.0018V35.792H51.0658V37.632H49.9458V39.088H51.0658V43.664C51.0658 45.248 51.9298 46.144 53.5938 46.144ZM59.3861 44.768C58.4261 44.768 58.0421 44.304 58.0421 43.6C58.0421 42.576 58.9861 42.24 60.4581 42.24H61.4501V43.072C61.4501 44.144 60.5701 44.768 59.3861 44.768ZM58.9221 46.16C60.2021 46.16 60.9381 45.696 61.4821 44.976V46H63.3861V40.512C63.3861 38.224 61.9141 37.456 60.0421 37.456C58.1701 37.456 56.6181 38.272 56.4581 40.224H58.3301C58.4261 39.392 58.9221 38.912 59.9301 38.912C61.0661 38.912 61.4501 39.472 61.4501 40.592V41.024H60.4101C58.0101 41.024 56.1221 41.728 56.1221 43.68C56.1221 45.424 57.3861 46.16 58.9221 46.16Z" fill="white"/>
<path d="M22.928 138H25.072V126.56H23.168L20.512 128.448V130.32L22.928 128.672V138ZM28.0151 138H31.4551C35.4711 138 37.4071 135.632 37.4071 132.304V132.16C37.4071 128.832 35.4711 126.56 31.4871 126.56H28.0151V138ZM30.1431 136.32V128.24H31.3751C34.0631 128.24 35.1831 129.728 35.1831 132.192V132.32C35.1831 134.848 33.9511 136.32 31.3911 136.32H30.1431ZM39.437 138H41.357V129.36L44.829 138H45.517L48.925 129.36V138H51.053V126.56H48.237L45.293 134.368L42.285 126.56H39.437V138ZM58.6794 138.16C61.3994 138.16 63.3514 136.768 63.6874 134.016H61.6074C61.3834 135.632 60.2634 136.432 58.6794 136.432C56.5674 136.432 55.3354 134.912 55.3354 132.336V132.208C55.3354 129.648 56.6474 128.08 58.6634 128.08C60.3114 128.08 61.1594 128.864 61.3994 130.384H63.5594C63.3034 127.696 61.2714 126.384 58.6474 126.384C55.4634 126.384 53.0954 128.784 53.0954 132.224V132.352C53.0954 135.872 55.0954 138.16 58.6794 138.16Z" fill="white"/>
<path d="M5.2 221.16C7.728 221.16 9.408 219.608 9.408 217.624C9.408 215.336 8.016 214.568 5.328 214.2C3.344 213.912 2.96 213.448 2.96 212.52C2.96 211.64 3.632 211.016 4.928 211.016C6.24 211.016 6.928 211.528 7.136 212.728H9.088C8.864 210.536 7.392 209.416 4.928 209.416C2.544 209.416 0.944 210.824 0.944 212.696C0.944 214.84 2.24 215.672 4.976 216.04C6.832 216.344 7.36 216.744 7.36 217.8C7.36 218.856 6.464 219.56 5.2 219.56C3.264 219.56 2.8 218.6 2.656 217.448H0.608C0.768 219.608 2.08 221.16 5.2 221.16ZM15.0363 221.16C17.5003 221.16 19.3403 219.464 19.3403 216.856V216.728C19.3403 214.168 17.5003 212.456 15.0523 212.456C12.5883 212.456 10.7483 214.184 10.7483 216.776V216.904C10.7483 219.448 12.5723 221.16 15.0363 221.16ZM15.0523 219.656C13.5803 219.656 12.7323 218.584 12.7323 216.872V216.744C12.7323 215.016 13.6123 213.976 15.0523 213.976C16.4923 213.976 17.3563 215.032 17.3563 216.76V216.872C17.3563 218.584 16.4923 219.656 15.0523 219.656ZM21.1375 221H23.0735V208.76H21.1375V221ZM29.1613 221.16C31.6253 221.16 33.4653 219.464 33.4653 216.856V216.728C33.4653 214.168 31.6253 212.456 29.1773 212.456C26.7133 212.456 24.8733 214.184 24.8733 216.776V216.904C24.8733 219.448 26.6973 221.16 29.1613 221.16ZM29.1773 219.656C27.7053 219.656 26.8573 218.584 26.8573 216.872V216.744C26.8573 215.016 27.7373 213.976 29.1773 213.976C30.6173 213.976 31.4813 215.032 31.4813 216.76V216.872C31.4813 218.584 30.6173 219.656 29.1773 219.656ZM36.7081 221H38.6921L40.3881 215.368L41.9401 221H43.9081L46.5321 212.632H44.6441L42.9001 218.68L41.2681 212.632H39.6521L37.8761 218.68L36.2121 212.632H34.1481L36.7081 221ZM50.433 219.768C49.473 219.768 49.089 219.304 49.089 218.6C49.089 217.576 50.033 217.24 51.505 217.24H52.497V218.072C52.497 219.144 51.617 219.768 50.433 219.768ZM49.969 221.16C51.249 221.16 51.985 220.696 52.529 219.976V221H54.433V215.512C54.433 213.224 52.961 212.456 51.089 212.456C49.217 212.456 47.665 213.272 47.505 215.224H49.377C49.473 214.392 49.969 213.912 50.977 213.912C52.113 213.912 52.497 214.472 52.497 215.592V216.024H51.457C49.057 216.024 47.169 216.728 47.169 218.68C47.169 220.424 48.433 221.16 49.969 221.16ZM57.3456 223.864H59.2496L63.8096 212.632H61.9216L59.8736 218.024L57.6496 212.632H55.5536L58.8656 220.152L57.3456 223.864Z" fill="white"/>
<path d="M376.523 214.147L382.478 204.898L385.283 213.472L376.523 214.147Z" fill="#8692FF"/>
<path d="M363.937 205.986L369.892 196.737L372.697 205.31L363.937 205.986Z" fill="#8692FF"/>
<path d="M351.696 198.763L357.651 189.514L360.457 198.087L351.696 198.763Z" fill="#8692FF"/>
<path d="M338.173 190.946L344.127 181.698L346.933 190.271L338.173 190.946Z" fill="#8692FF"/>
<path d="M325.932 183.724L331.887 174.475L334.692 183.048L325.932 183.724Z" fill="#8692FF"/>
<path d="M314.285 175.217L320.24 165.969L323.046 174.542L314.285 175.217Z" fill="#8692FF"/>
<path d="M100.52 215.264L94.3984 206.124L91.7485 214.747L100.52 215.264Z" fill="#8692FF"/>
<path d="M112.956 206.876L106.834 197.736L104.185 206.359L112.956 206.876Z" fill="#8692FF"/>
<path d="M125.064 199.433L118.942 190.293L116.292 198.916L125.064 199.433Z" fill="#8692FF"/>
<path d="M138.444 191.373L132.323 182.234L129.673 190.856L138.444 191.373Z" fill="#8692FF"/>
<path d="M150.552 183.93L144.431 174.791L141.781 183.413L150.552 183.93Z" fill="#8692FF"/>
<path d="M162.043 175.215L155.922 166.075L153.272 174.698L162.043 175.215Z" fill="#8692FF"/>
<path d="M381.271 138.171L381.8 127.184L388.518 133.204L381.271 138.171Z" fill="#01B7B9"/>
<path d="M367.059 138.04L367.588 127.053L374.306 133.073L367.059 138.04Z" fill="#01B7B9"/>
<path d="M351.438 138.038L351.968 127.05L358.686 133.07L351.438 138.038Z" fill="#01B7B9"/>
<path d="M337.226 137.907L337.755 126.92L344.473 132.94L337.226 137.907Z" fill="#01B7B9"/>
<path d="M323 137.987L323.529 127L330.247 133.02L323 137.987Z" fill="#01B7B9"/>
<path d="M95.613 137.682L95.0835 126.695L88.3655 132.715L95.613 137.682Z" fill="#01B7B9"/>
<path d="M109.825 137.552L109.296 126.564L102.578 132.584L109.825 137.552Z" fill="#01B7B9"/>
<path d="M125.445 137.549L124.916 126.562L118.198 132.582L125.445 137.549Z" fill="#01B7B9"/>
<path d="M139.658 137.418L139.128 126.431L132.41 132.451L139.658 137.418Z" fill="#01B7B9"/>
<path d="M154.521 136.987L153.992 126L147.274 132.02L154.521 136.987Z" fill="#01B7B9"/>
<path d="M391.33 56.6748L386.594 46.7468L395.362 48.8678L391.33 56.6748Z" fill="#60DA9C"/>
<path d="M377.771 63.0896L373.035 53.1616L381.802 55.2826L377.771 63.0896Z" fill="#60DA9C"/>
<path d="M365.192 69.7046L360.456 59.7766L369.223 61.8976L365.192 69.7046Z" fill="#60DA9C"/>
<path d="M351.433 77.0991L346.696 67.1711L355.464 69.2921L351.433 77.0991Z" fill="#60DA9C"/>
<path d="M338.853 83.7144L334.117 73.7864L342.884 75.9074L338.853 83.7144Z" fill="#60DA9C"/>
<path d="M325.494 89.1494L320.758 79.2214L329.526 81.3424L325.494 89.1494Z" fill="#60DA9C"/>
<path d="M86.0759 56.6748L90.8125 46.7468L82.0447 48.8678L86.0759 56.6748Z" fill="#60DA9C"/>
<path d="M99.635 63.0896L104.372 53.1616L95.6038 55.2826L99.635 63.0896Z" fill="#60DA9C"/>
<path d="M112.214 69.7046L116.951 59.7766L108.183 61.8976L112.214 69.7046Z" fill="#60DA9C"/>
<path d="M125.973 77.0991L130.71 67.1711L121.942 69.2921L125.973 77.0991Z" fill="#60DA9C"/>
<path d="M138.553 83.7144L143.29 73.7864L134.522 75.9074L138.553 83.7144Z" fill="#60DA9C"/>
<path d="M151.912 89.1494L156.648 79.2214L147.881 81.3424L151.912 89.1494Z" fill="#60DA9C"/>
<path d="M410 12.1538C410 8.75517 412.743 6 416.127 6H490.873C494.257 6 497 8.75517 497 12.1538V55.8462C497 59.2448 494.257 62 490.873 62H416.127C412.743 62 410 59.2448 410 55.8462V12.1538Z" fill="#B8A0EA"/>
<path d="M410 11.8333C410 8.61167 412.743 6 416.127 6H490.873C494.257 6 497 8.61167 497 11.8333V13H410V11.8333Z" fill="#836BB3"/>
<g filter="url(#filter0_d_6462_2087)">
<path d="M457 21.5385C457 18.4797 459.498 16 462.58 16H482.42C485.502 16 488 18.4797 488 21.5385V74.4615C488 77.5203 485.502 80 482.42 80H462.58C459.498 80 457 77.5203 457 74.4615V21.5385Z" fill="#836BB3"/>
</g>
<path d="M465 16H480C480 17.6569 478.601 19 476.875 19H468.125C466.399 19 465 17.6569 465 16Z" fill="#8E76BF"/>
<path d="M460 26.4096C460 25.0788 461.119 24 462.5 24H482.5C483.881 24 485 25.0788 485 26.4096V71.5904C485 72.9212 483.881 74 482.5 74H462.5C461.119 74 460 72.9212 460 71.5904V26.4096Z" fill="#B79FE9"/>
<path d="M466 69C466 67.8954 466.914 67 468.042 67H477.958C479.086 67 480 67.8954 480 69C480 70.1046 479.086 71 477.958 71H468.042C466.914 71 466 70.1046 466 69Z" fill="#836BB3"/>
<path d="M464 34C464 33.4477 464.403 33 464.9 33H481.1C481.597 33 482 33.4477 482 34C482 34.5523 481.597 35 481.1 35H464.9C464.403 35 464 34.5523 464 34Z" fill="#836BB3"/>
<path d="M464 37C464 36.4477 464.416 36 464.929 36H476.071C476.584 36 477 36.4477 477 37C477 37.5523 476.584 38 476.071 38H464.929C464.416 38 464 37.5523 464 37Z" fill="#836BB3"/>
<path d="M418 19.5C418 18.6716 418.541 18 419.208 18H448.792C449.459 18 450 18.6716 450 19.5C450 20.3284 449.459 21 448.792 21H419.208C418.541 21 418 20.3284 418 19.5Z" fill="#AA8CE8"/>
<path d="M418 23.5C418 22.6716 418.549 22 419.227 22H443.773C444.451 22 445 22.6716 445 23.5C445 24.3284 444.451 25 443.773 25H419.227C418.549 25 418 24.3284 418 23.5Z" fill="#AA8CE8"/>
<path d="M418 43C418 42.4477 418.544 42 419.216 42H447.784C448.456 42 449 42.4477 449 43C449 43.5523 448.456 44 447.784 44H419.216C418.544 44 418 43.5523 418 43Z" fill="#AA8CE8"/>
<path d="M418 48C418 47.4477 418.541 47 419.209 47H442.791C443.459 47 444 47.4477 444 48C444 48.5523 443.459 49 442.791 49H419.209C418.541 49 418 48.5523 418 48Z" fill="#AA8CE8"/>
<path d="M418 53C418 52.4477 418.544 52 419.216 52H447.784C448.456 52 449 52.4477 449 53C449 53.5523 448.456 54 447.784 54H419.216C418.544 54 418 53.5523 418 53Z" fill="#AA8CE8"/>
<path d="M418 30.1579C418 28.4138 419.352 27 421.019 27H446.981C448.648 27 450 28.4138 450 30.1579V35.8421C450 37.5862 448.648 39 446.981 39H421.019C419.352 39 418 37.5862 418 35.8421V30.1579Z" fill="#836BB3"/>
<path d="M439 33.5C439 32.6716 439.72 32 440.607 32H446.393C447.28 32 448 32.6716 448 33.5C448 34.3284 447.28 35 446.393 35H440.607C439.72 35 439 34.3284 439 33.5Z" fill="#AA8CE8"/>
<path d="M420 31.5C420 31.2239 420.291 31 420.65 31H432.35C432.709 31 433 31.2239 433 31.5C433 31.7761 432.709 32 432.35 32H420.65C420.291 32 420 31.7761 420 31.5Z" fill="#AA8CE8"/>
<path d="M420 34C420 33.4477 420.288 33 420.643 33H428.357C428.712 33 429 33.4477 429 34C429 34.5523 428.712 35 428.357 35H420.643C420.288 35 420 34.5523 420 34Z" fill="#AA8CE8"/>
<path d="M409 200.154C409 196.755 411.743 194 415.127 194H489.873C493.257 194 496 196.755 496 200.154V243.846C496 247.245 493.257 250 489.873 250H415.127C411.743 250 409 247.245 409 243.846V200.154Z" fill="#B8A0EA"/>
<path d="M409 199.833C409 196.612 411.743 194 415.127 194H489.873C493.257 194 496 196.612 496 199.833V201H409V199.833Z" fill="#836BB3"/>
<g filter="url(#filter1_d_6462_2087)">
<path d="M456 209.538C456 206.48 458.498 204 461.58 204H481.42C484.502 204 487 206.48 487 209.538V262.462C487 265.52 484.502 268 481.42 268H461.58C458.498 268 456 265.52 456 262.462V209.538Z" fill="#836BB3"/>
</g>
<path d="M464 204H479C479 205.657 477.601 207 475.875 207H467.125C465.399 207 464 205.657 464 204Z" fill="#8E76BF"/>
<path d="M459 214.41C459 213.079 460.119 212 461.5 212H481.5C482.881 212 484 213.079 484 214.41V259.59C484 260.921 482.881 262 481.5 262H461.5C460.119 262 459 260.921 459 259.59V214.41Z" fill="#B79FE9"/>
<path d="M465 257C465 255.895 465.914 255 467.042 255H476.958C478.086 255 479 255.895 479 257C479 258.105 478.086 259 476.958 259H467.042C465.914 259 465 258.105 465 257Z" fill="#836BB3"/>
<path d="M463 222C463 221.448 463.403 221 463.9 221H480.1C480.597 221 481 221.448 481 222C481 222.552 480.597 223 480.1 223H463.9C463.403 223 463 222.552 463 222Z" fill="#836BB3"/>
<path d="M463 225C463 224.448 463.416 224 463.929 224H475.071C475.584 224 476 224.448 476 225C476 225.552 475.584 226 475.071 226H463.929C463.416 226 463 225.552 463 225Z" fill="#836BB3"/>
<path d="M417 207.5C417 206.672 417.541 206 418.208 206H447.792C448.459 206 449 206.672 449 207.5C449 208.328 448.459 209 447.792 209H418.208C417.541 209 417 208.328 417 207.5Z" fill="#AA8CE8"/>
<path d="M417 211.5C417 210.672 417.549 210 418.227 210H442.773C443.451 210 444 210.672 444 211.5C444 212.328 443.451 213 442.773 213H418.227C417.549 213 417 212.328 417 211.5Z" fill="#AA8CE8"/>
<path d="M417 231C417 230.448 417.544 230 418.216 230H446.784C447.456 230 448 230.448 448 231C448 231.552 447.456 232 446.784 232H418.216C417.544 232 417 231.552 417 231Z" fill="#AA8CE8"/>
<path d="M417 236C417 235.448 417.541 235 418.209 235H441.791C442.459 235 443 235.448 443 236C443 236.552 442.459 237 441.791 237H418.209C417.541 237 417 236.552 417 236Z" fill="#AA8CE8"/>
<path d="M417 241C417 240.448 417.544 240 418.216 240H446.784C447.456 240 448 240.448 448 241C448 241.552 447.456 242 446.784 242H418.216C417.544 242 417 241.552 417 241Z" fill="#AA8CE8"/>
<path d="M417 218.158C417 216.414 418.352 215 420.019 215H445.981C447.648 215 449 216.414 449 218.158V223.842C449 225.586 447.648 227 445.981 227H420.019C418.352 227 417 225.586 417 223.842V218.158Z" fill="#836BB3"/>
<path d="M438 221.5C438 220.672 438.72 220 439.607 220H445.393C446.28 220 447 220.672 447 221.5C447 222.328 446.28 223 445.393 223H439.607C438.72 223 438 222.328 438 221.5Z" fill="#AA8CE8"/>
<path d="M419 219.5C419 219.224 419.291 219 419.65 219H431.35C431.709 219 432 219.224 432 219.5C432 219.776 431.709 220 431.35 220H419.65C419.291 220 419 219.776 419 219.5Z" fill="#AA8CE8"/>
<path d="M419 222C419 221.448 419.288 221 419.643 221H427.357C427.712 221 428 221.448 428 222C428 222.552 427.712 223 427.357 223H419.643C419.288 223 419 222.552 419 222Z" fill="#AA8CE8"/>
<path d="M409 104.154C409 100.755 411.743 98 415.127 98H489.873C493.257 98 496 100.755 496 104.154V147.846C496 151.245 493.257 154 489.873 154H415.127C411.743 154 409 151.245 409 147.846V104.154Z" fill="#B8A0EA"/>
<path d="M409 103.833C409 100.612 411.743 98 415.127 98H489.873C493.257 98 496 100.612 496 103.833V105H409V103.833Z" fill="#836BB3"/>
<g filter="url(#filter2_d_6462_2087)">
<path d="M456 113.538C456 110.48 458.498 108 461.58 108H481.42C484.502 108 487 110.48 487 113.538V166.462C487 169.52 484.502 172 481.42 172H461.58C458.498 172 456 169.52 456 166.462V113.538Z" fill="#836BB3"/>
</g>
<path d="M464 108H479C479 109.657 477.601 111 475.875 111H467.125C465.399 111 464 109.657 464 108Z" fill="#8E76BF"/>
<path d="M459 118.41C459 117.079 460.119 116 461.5 116H481.5C482.881 116 484 117.079 484 118.41V163.59C484 164.921 482.881 166 481.5 166H461.5C460.119 166 459 164.921 459 163.59V118.41Z" fill="#60DA9C"/>
<path d="M465 161C465 159.895 465.914 159 467.042 159H476.958C478.086 159 479 159.895 479 161C479 162.105 478.086 163 476.958 163H467.042C465.914 163 465 162.105 465 161Z" fill="#01B7B9"/>
<path d="M463 126C463 125.448 463.403 125 463.9 125H480.1C480.597 125 481 125.448 481 126C481 126.552 480.597 127 480.1 127H463.9C463.403 127 463 126.552 463 126Z" fill="#01B7B9"/>
<path d="M463 129C463 128.448 463.416 128 463.929 128H475.071C475.584 128 476 128.448 476 129C476 129.552 475.584 130 475.071 130H463.929C463.416 130 463 129.552 463 129Z" fill="#01B7B9"/>
<path d="M417 111.5C417 110.672 417.541 110 418.208 110H447.792C448.459 110 449 110.672 449 111.5C449 112.328 448.459 113 447.792 113H418.208C417.541 113 417 112.328 417 111.5Z" fill="#AA8CE8"/>
<path d="M417 115.5C417 114.672 417.549 114 418.227 114H442.773C443.451 114 444 114.672 444 115.5C444 116.328 443.451 117 442.773 117H418.227C417.549 117 417 116.328 417 115.5Z" fill="#AA8CE8"/>
<path d="M417 135C417 134.448 417.544 134 418.216 134H446.784C447.456 134 448 134.448 448 135C448 135.552 447.456 136 446.784 136H418.216C417.544 136 417 135.552 417 135Z" fill="#AA8CE8"/>
<path d="M417 140C417 139.448 417.541 139 418.209 139H441.791C442.459 139 443 139.448 443 140C443 140.552 442.459 141 441.791 141H418.209C417.541 141 417 140.552 417 140Z" fill="#AA8CE8"/>
<path d="M417 145C417 144.448 417.544 144 418.216 144H446.784C447.456 144 448 144.448 448 145C448 145.552 447.456 146 446.784 146H418.216C417.544 146 417 145.552 417 145Z" fill="#AA8CE8"/>
<path d="M417 122.158C417 120.414 418.352 119 420.019 119H445.981C447.648 119 449 120.414 449 122.158V127.842C449 129.586 447.648 131 445.981 131H420.019C418.352 131 417 129.586 417 127.842V122.158Z" fill="#60DA9C"/>
<path d="M438 125.5C438 124.672 438.72 124 439.607 124H445.393C446.28 124 447 124.672 447 125.5C447 126.328 446.28 127 445.393 127H439.607C438.72 127 438 126.328 438 125.5Z" fill="#01B7B9"/>
<path d="M419 123.5C419 123.224 419.291 123 419.65 123H431.35C431.709 123 432 123.224 432 123.5C432 123.776 431.709 124 431.35 124H419.65C419.291 124 419 123.776 419 123.5Z" fill="#01B7B9"/>
<path d="M419 126C419 125.448 419.288 125 419.643 125H427.357C427.712 125 428 125.448 428 126C428 126.552 427.712 127 427.357 127H419.643C419.288 127 419 126.552 419 126Z" fill="#01B7B9"/>
<defs>
<filter id="filter0_d_6462_2087" x="441" y="0" width="79" height="112" filterUnits="userSpaceOnUse" color-interpolation-filters="sRGB">
<feFlood flood-opacity="0" result="BackgroundImageFix"/>
<feColorMatrix in="SourceAlpha" type="matrix" values="0 0 0 0 0 0 0 0 0 0 0 0 0 0 0 0 0 0 127 0" result="hardAlpha"/>
<feOffset dx="8" dy="8"/>
<feGaussianBlur stdDeviation="12"/>
<feComposite in2="hardAlpha" operator="out"/>
<feColorMatrix type="matrix" values="0 0 0 0 0.172549 0 0 0 0 0.168627 0 0 0 0 0.317647 0 0 0 0.15 0"/>
<feBlend mode="normal" in2="BackgroundImageFix" result="effect1_dropShadow_6462_2087"/>
<feBlend mode="normal" in="SourceGraphic" in2="effect1_dropShadow_6462_2087" result="shape"/>
</filter>
<filter id="filter1_d_6462_2087" x="440" y="188" width="79" height="112" filterUnits="userSpaceOnUse" color-interpolation-filters="sRGB">
<feFlood flood-opacity="0" result="BackgroundImageFix"/>
<feColorMatrix in="SourceAlpha" type="matrix" values="0 0 0 0 0 0 0 0 0 0 0 0 0 0 0 0 0 0 127 0" result="hardAlpha"/>
<feOffset dx="8" dy="8"/>
<feGaussianBlur stdDeviation="12"/>
<feComposite in2="hardAlpha" operator="out"/>
<feColorMatrix type="matrix" values="0 0 0 0 0.172549 0 0 0 0 0.168627 0 0 0 0 0.317647 0 0 0 0.15 0"/>
<feBlend mode="normal" in2="BackgroundImageFix" result="effect1_dropShadow_6462_2087"/>
<feBlend mode="normal" in="SourceGraphic" in2="effect1_dropShadow_6462_2087" result="shape"/>
</filter>
<filter id="filter2_d_6462_2087" x="440" y="92" width="79" height="112" filterUnits="userSpaceOnUse" color-interpolation-filters="sRGB">
<feFlood flood-opacity="0" result="BackgroundImageFix"/>
<feColorMatrix in="SourceAlpha" type="matrix" values="0 0 0 0 0 0 0 0 0 0 0 0 0 0 0 0 0 0 127 0" result="hardAlpha"/>
<feOffset dx="8" dy="8"/>
<feGaussianBlur stdDeviation="12"/>
<feComposite in2="hardAlpha" operator="out"/>
<feColorMatrix type="matrix" values="0 0 0 0 0.172549 0 0 0 0 0.168627 0 0 0 0 0.317647 0 0 0 0.15 0"/>
<feBlend mode="normal" in2="BackgroundImageFix" result="effect1_dropShadow_6462_2087"/>
<feBlend mode="normal" in="SourceGraphic" in2="effect1_dropShadow_6462_2087" result="shape"/>
</filter>
</defs>
</svg>
