<svg width="525" height="260" viewBox="0 0 525 260" fill="none" xmlns="http://www.w3.org/2000/svg">
<rect y="79" width="144" height="95" rx="30" fill="#836BB3"/>
<circle cx="260.5" cy="36.5" r="36.5" fill="#836BB3"/>
<circle cx="260.5" cy="223.5" r="36.5" fill="#836BB3"/>
<rect x="97.249" y="117.085" width="3.49703" height="2.62277" fill="white"/>
<path fill-rule="evenodd" clip-rule="evenodd" d="M44.6904 121.697V130.008C44.6904 134.412 48.2784 137.982 52.7044 137.982C57.1305 137.982 60.7185 134.412 60.7185 130.008V121.697H57.1912V130.008C57.1912 132.637 55.3463 134.768 52.7044 134.768C50.0626 134.768 48.2177 132.637 48.2177 130.008V121.697H44.6904Z" fill="white"/>
<path d="M73.3807 121.246C75.5774 121.246 77.4541 122.057 79.0109 123.677C80.5678 125.298 81.3462 127.292 81.3462 129.66C81.3462 132.005 80.5678 133.999 79.0109 135.642C77.4541 137.262 75.5774 138.073 73.3807 138.073C70.9495 138.073 69.0834 137.166 67.7825 135.354V137.657H64.3276V117H67.7825V123.933C69.0834 122.142 70.9495 121.246 73.3807 121.246ZM69.2221 133.338C70.1818 134.298 71.3867 134.778 72.8369 134.778C74.2871 134.778 75.4921 134.298 76.4517 133.338C77.4114 132.357 77.8913 131.131 77.8913 129.66C77.8913 128.188 77.4114 126.972 76.4517 126.013C75.4921 125.032 74.2871 124.541 72.8369 124.541C71.3867 124.541 70.1818 125.032 69.2221 126.013C68.2624 126.972 67.7825 128.188 67.7825 129.66C67.7825 131.131 68.2624 132.357 69.2221 133.338Z" fill="white"/>
<path d="M88.5492 123.557C89.4235 122.974 91.3496 121.662 94.9604 121.662V125.305C93.5352 125.487 91.172 125.743 89.7149 127.491C88.8406 128.657 88.5451 129.929 88.5451 131.571V137.657H85.0902V121.662H88.5451L88.5492 123.557Z" fill="white"/>
<path d="M97.1329 137.657V121.662H100.588V137.657H97.1329Z" fill="white"/>
<path d="M117.545 117H121V137.657H117.545V135.354C116.244 137.166 114.378 138.073 111.947 138.073C109.75 138.073 107.874 137.262 106.317 135.642C104.76 133.999 103.981 132.005 103.981 129.66C103.981 127.292 104.76 125.298 106.317 123.677C107.874 122.057 109.75 121.246 111.947 121.246C114.378 121.246 116.244 122.142 117.545 123.933V117ZM108.876 133.338C109.836 134.298 111.04 134.778 112.491 134.778C113.941 134.778 115.146 134.298 116.106 133.338C117.065 132.357 117.545 131.131 117.545 129.66C117.545 128.188 117.065 126.972 116.106 126.013C115.146 125.032 113.941 124.541 112.491 124.541C111.04 124.541 109.836 125.032 108.876 126.013C107.916 126.972 107.436 128.188 107.436 129.66C107.436 131.131 107.916 132.357 108.876 133.338Z" fill="white"/>
<path fill-rule="evenodd" clip-rule="evenodd" d="M27.4971 117H24V137.657H27.4971V117ZM37.4053 137.657H40.9546V117H37.4053V137.657Z" fill="white"/>
<rect x="26.6226" y="126.189" width="11.9605" height="3.5377" transform="rotate(-12 26.6226 126.189)" fill="white"/>
<path d="M44.6284 141.149L57.5132 139.357L57.5132 142.581L44.6283 144.373L44.6284 141.149Z" fill="white"/>
<rect x="97.146" y="117" width="3.49703" height="2.62277" fill="white"/>
<path d="M260.874 52C251.259 52 242.539 46.7392 236.104 38.1942C235.579 37.4941 235.579 36.5161 236.104 35.816C242.539 27.2608 251.259 21.9999 260.874 21.9999C270.49 21.9999 279.21 27.2608 285.644 35.8057C286.17 36.5058 286.17 37.4838 285.644 38.1839C279.21 46.7392 270.49 52 260.874 52ZM261.564 26.4371C255.181 26.0356 249.91 31.2965 250.312 37.6897C250.641 42.9609 254.913 47.2333 260.185 47.5628C266.568 47.9643 271.839 42.7035 271.437 36.3102C271.097 31.0494 266.825 26.7769 261.564 26.4371ZM261.245 31.317C257.806 31.1008 254.965 33.932 255.191 37.3706C255.366 40.2121 257.673 42.5079 260.514 42.6932C263.953 42.9094 266.794 40.0782 266.568 36.6396C266.382 33.7879 264.076 31.4921 261.245 31.317Z" fill="#B8A0EA"/>
<path d="M261 200C247.767 200 237 210.767 237 224C237 237.233 247.767 248 261 248C274.233 248 285 237.233 285 224C285 210.767 274.233 200 261 200ZM274.414 217.684L259.075 232.902C258.173 233.804 256.729 233.865 255.767 232.962L247.647 225.564C246.684 224.662 246.624 223.158 247.466 222.195C248.368 221.233 249.872 221.173 250.835 222.075L257.271 227.97L270.985 214.256C271.947 213.293 273.451 213.293 274.414 214.256C275.376 215.218 275.376 216.722 274.414 217.684Z" fill="#B8A0EA"/>
<path d="M217.862 58.7052L209.953 51.0599L218.909 49.9815L217.862 58.7052Z" fill="#60DA9C"/>
<path d="M207.401 69.456L199.493 61.8107L208.449 60.7323L207.401 69.456Z" fill="#60DA9C"/>
<path d="M197.929 80.0517L190.02 72.4064L198.976 71.328L197.929 80.0517Z" fill="#60DA9C"/>
<path d="M187.624 91.7903L179.715 84.145L188.671 83.0666L187.624 91.7903Z" fill="#60DA9C"/>
<path d="M178.151 102.386L170.242 94.7408L179.198 93.6624L178.151 102.386Z" fill="#60DA9C"/>
<path d="M167.535 112.149L159.626 104.504L168.582 103.425L167.535 112.149Z" fill="#60DA9C"/>
<path d="M301.325 194.529L309.233 202.174L300.277 203.252L301.325 194.529Z" fill="#01B7B9"/>
<path d="M311.785 183.778L319.694 191.423L310.738 192.502L311.785 183.778Z" fill="#01B7B9"/>
<path d="M321.258 173.182L329.167 180.828L320.211 181.906L321.258 173.182Z" fill="#01B7B9"/>
<path d="M331.563 161.444L339.472 169.089L330.516 170.168L331.563 161.444Z" fill="#01B7B9"/>
<path d="M341.036 150.848L348.944 158.493L339.988 159.572L341.036 150.848Z" fill="#01B7B9"/>
<path d="M351.651 141.085L359.56 148.73L350.604 149.809L351.651 141.085Z" fill="#01B7B9"/>
<path d="M350.733 106.548L358.867 99.1426L359.372 108.149L350.733 106.548Z" fill="#60DA9C"/>
<path d="M340.671 95.4228L348.805 88.0177L349.31 97.0242L340.671 95.4228Z" fill="#60DA9C"/>
<path d="M330.701 85.2938L338.835 77.8887L339.34 86.8952L330.701 85.2938Z" fill="#60DA9C"/>
<path d="M319.643 74.2607L327.777 66.8556L328.282 75.8621L319.643 74.2607Z" fill="#60DA9C"/>
<path d="M309.674 64.1317L317.808 56.7266L318.313 65.7331L309.674 64.1317Z" fill="#60DA9C"/>
<path d="M300.608 52.9152L308.742 45.51L309.247 54.5165L300.608 52.9152Z" fill="#60DA9C"/>
<path d="M168.454 146.686L160.32 154.091L159.815 145.085L168.454 146.686Z" fill="#01B7B9"/>
<path d="M178.515 157.811L170.381 165.216L169.876 156.21L178.515 157.811Z" fill="#01B7B9"/>
<path d="M188.486 167.94L180.352 175.345L179.846 166.339L188.486 167.94Z" fill="#01B7B9"/>
<path d="M199.543 178.973L191.409 186.378L190.904 177.372L199.543 178.973Z" fill="#01B7B9"/>
<path d="M209.513 189.102L201.379 196.507L200.874 187.501L209.513 189.102Z" fill="#01B7B9"/>
<path d="M218.579 200.319L210.445 207.724L209.94 198.717L218.579 200.319Z" fill="#01B7B9"/>
<rect x="374" y="70" width="142" height="91" rx="10" fill="#B8A0EA"/>
<path d="M374 80C374 74.4772 378.477 70 384 70H506C511.523 70 516 74.4772 516 80V82H374V80Z" fill="#836BB3"/>
<g filter="url(#filter0_d_6461_2086)">
<rect x="451" y="87" width="50" height="104" rx="9" fill="#836BB3"/>
</g>
<path d="M464 87H488C488 89.7614 485.761 92 483 92H469C466.239 92 464 89.7614 464 87Z" fill="#8E76BF"/>
<rect x="456" y="99" width="40" height="83" rx="4" fill="#60DA9C"/>
<rect x="465" y="169" width="24" height="7" rx="3.5" fill="#01B7B9"/>
<rect x="462" y="114" width="30" height="3" rx="1.5" fill="#01B7B9"/>
<rect x="462" y="120" width="21" height="3" rx="1.5" fill="#01B7B9"/>
<path d="M387 92C387 90.8954 387.895 90 389 90H438C439.105 90 440 90.8954 440 92C440 93.1046 439.105 94 438 94H389C387.895 94 387 93.1046 387 92Z" fill="#AA8CE8"/>
<path d="M387 99C387 97.8954 387.895 97 389 97H429C430.105 97 431 97.8954 431 99C431 100.105 430.105 101 429 101H389C387.895 101 387 100.105 387 99Z" fill="#AA8CE8"/>
<path d="M387 131C387 129.895 387.895 129 389 129H436C437.105 129 438 129.895 438 131C438 132.105 437.105 133 436 133H389C387.895 133 387 132.105 387 131Z" fill="#AA8CE8"/>
<path d="M387 139C387 137.895 387.895 137 389 137H428C429.105 137 430 137.895 430 139C430 140.105 429.105 141 428 141H389C387.895 141 387 140.105 387 139Z" fill="#AA8CE8"/>
<path d="M387 147C387 145.895 387.895 145 389 145H436C437.105 145 438 145.895 438 147C438 148.105 437.105 149 436 149H389C387.895 149 387 148.105 387 147Z" fill="#AA8CE8"/>
<path d="M387 110C387 107.239 389.239 105 392 105H435C437.761 105 440 107.239 440 110V119C440 121.761 437.761 124 435 124H392C389.239 124 387 121.761 387 119V110Z" fill="#60DA9C"/>
<path d="M422 114.5C422 113.119 423.119 112 424.5 112H433.5C434.881 112 436 113.119 436 114.5C436 115.881 434.881 117 433.5 117H424.5C423.119 117 422 115.881 422 114.5Z" fill="#01B7B9"/>
<path d="M391 112C391 111.448 391.448 111 392 111H410C410.552 111 411 111.448 411 112C411 112.552 410.552 113 410 113H392C391.448 113 391 112.552 391 112Z" fill="#01B7B9"/>
<path d="M391 116C391 115.448 391.448 115 392 115H404C404.552 115 405 115.448 405 116C405 116.552 404.552 117 404 117H392C391.448 117 391 116.552 391 116Z" fill="#01B7B9"/>
<defs>
<filter id="filter0_d_6461_2086" x="427" y="71" width="98" height="152" filterUnits="userSpaceOnUse" color-interpolation-filters="sRGB">
<feFlood flood-opacity="0" result="BackgroundImageFix"/>
<feColorMatrix in="SourceAlpha" type="matrix" values="0 0 0 0 0 0 0 0 0 0 0 0 0 0 0 0 0 0 127 0" result="hardAlpha"/>
<feOffset dy="8"/>
<feGaussianBlur stdDeviation="12"/>
<feComposite in2="hardAlpha" operator="out"/>
<feColorMatrix type="matrix" values="0 0 0 0 0.172549 0 0 0 0 0.168627 0 0 0 0 0.317647 0 0 0 0.15 0"/>
<feBlend mode="normal" in2="BackgroundImageFix" result="effect1_dropShadow_6461_2086"/>
<feBlend mode="normal" in="SourceGraphic" in2="effect1_dropShadow_6461_2086" result="shape"/>
</filter>
</defs>
</svg>
