<svg width="321" height="324" viewBox="0 0 321 324" fill="none" xmlns="http://www.w3.org/2000/svg">
    <g class="flyingImgPath1">
        <path d="M139.359 73.582C132.726 79.4643 124.059 83 114.547 83C93.8335 83 77 66.1665 77 45.4531C77 25.5219 92.582 9.18899 112.2 8V23.7071C101.218 24.8648 92.6446 34.189 92.6446 45.4531C92.6446 57.5307 102.469 67.3554 114.547 67.3554C119.741 67.3554 124.528 65.5407 128.283 62.5056L139.359 73.582Z" fill="#D1D1F2"></path>
        <path d="M152 47.7998C151.499 56.373 148.089 64.1953 142.676 70.2654L131.6 59.189C134.165 56.0288 135.855 52.0864 136.293 47.7998H152Z" fill="#D1D1F2"></path>
        <path d="M152 43.1064H136.293C135.229 32.9061 127.094 24.771 116.894 23.7071V8C135.73 9.12641 150.874 24.2703 152 43.1064Z" fill="#D1D1F2"></path>
    </g>
    <g class="flyingImgPath2">
        <circle class="" cx="238" cy="86" r="67" fill="#E6E6F7"></circle>
        <path d="M270.722 86.2361V103.167H253.056V86.2361C253.056 84.2044 254.704 82.5555 256.736 82.5555H267.042C269.073 82.5555 270.722 84.2044 270.722 86.2361Z" fill="#D1D1F2"></path>
        <path d="M247.167 74.4583V103.167H229.5V74.4583C229.5 72.4266 231.149 70.7777 233.181 70.7777H243.486C245.518 70.7777 247.167 72.4266 247.167 74.4583Z" fill="#D1D1F2"></path>
        <path d="M223.611 62.6806V103.167H205.944V62.6806C205.944 60.6489 207.593 59 209.625 59H219.931C221.962 59 223.611 60.6489 223.611 62.6806Z" fill="#D1D1F2"></path>
        <path d="M271.458 112H205.208C203.989 112 203 111.011 203 109.792C203 108.573 203.989 107.583 205.208 107.583H271.458C272.677 107.583 273.667 108.573 273.667 109.792C273.667 111.011 272.677 112 271.458 112Z" fill="#D1D1F2"></path>
    </g>
    <circle cx="181.5" cy="7.5" r="7.5" fill="#D1D1F2"></circle>
    <circle cx="306" cy="153" r="15" fill="#D1D1F2"></circle>
    <path d="M255.618 127.974H148.007L126.573 104.097C125.933 103.376 124.975 102.972 123.975 103.001H37.3824C24.4207 103.122 13.9851 113.007 14 125.15V271.187C13.9994 283.321 24.4311 293.192 37.3824 293.312H255.618C268.569 293.192 279.001 283.321 279 271.187V150.098C279.001 137.965 268.569 128.094 255.618 127.974Z" fill="url(#paint0_linear_6228_3905)"></path>
    <g filter="url(#filter0_d_6228_3905)">
        <path d="M255.618 138.974H148.007L40.5477 136.71C25.9771 136.403 14 148.13 14 162.704V271.187C13.9994 283.321 24.4311 293.192 37.3823 293.312H255.618C268.569 293.192 279.001 283.321 279 271.187V161.098C279.001 148.965 268.569 139.094 255.618 138.974Z" fill="url(#paint1_linear_6228_3905)"></path>
    </g>
    <path d="M52 218C52 206.954 60.9543 198 72 198H220.8C231.846 198 240.8 206.954 240.8 218C240.8 229.046 231.846 238 220.8 238H72C60.9543 238 52 229.046 52 218Z" fill="white" fill-opacity="0.19"></path>
    <path d="M83.6431 225.2H87.0127V219.064H92.9823V225.2H96.3519V210.328H92.9823V216.402H87.0127V210.328H83.6431V225.2Z" fill="white" fill-opacity="0.56"></path>
    <path d="M102.897 225.2H106.287V218.794L110.926 210.328H107.66L104.707 216.027L101.691 210.328H97.9882L102.897 218.794V225.2Z" fill="white" fill-opacity="0.56"></path>
    <path d="M112.599 225.2H118.714C122.146 225.2 123.935 223.765 123.935 221.04V220.957C123.935 218.96 122.895 217.858 120.961 217.462C122.625 216.984 123.373 215.84 123.373 214.28V214.197C123.373 211.659 121.689 210.328 118.444 210.328H112.599V225.2ZM115.885 216.443V212.637H117.882C119.463 212.637 120.17 213.198 120.17 214.446V214.53C120.17 215.861 119.525 216.443 117.903 216.443H115.885ZM115.885 222.87V218.606H118.028C119.858 218.606 120.607 219.314 120.607 220.686V220.77C120.607 222.122 119.858 222.87 118.194 222.87H115.885Z" fill="white" fill-opacity="0.56"></path>
    <path d="M129.451 217.171V212.907H131.343C132.966 212.907 133.881 213.427 133.881 214.946V215.029C133.881 216.464 133.028 217.171 131.343 217.171H129.451ZM126.102 225.2H129.451V219.459H130.907L134.463 225.2H138.041L134.11 218.877C135.857 218.357 137.167 217.171 137.167 214.925V214.842C137.167 211.763 134.942 210.328 131.427 210.328H126.102V225.2Z" fill="white" fill-opacity="0.56"></path>
    <path d="M139.952 225.2H143.342V210.328H139.952V225.2Z" fill="white" fill-opacity="0.56"></path>
    <path d="M146.425 225.2H151.271C156.492 225.2 159.092 222.226 159.092 217.774V217.608C159.092 213.157 156.513 210.328 151.292 210.328H146.425V225.2ZM149.795 222.579V212.949H151.126C154.267 212.949 155.577 214.592 155.577 217.65V217.816C155.577 220.894 154.163 222.579 151.167 222.579H149.795Z" fill="white" fill-opacity="0.56"></path>
    <path d="M165.712 225.2H170.558C175.779 225.2 178.379 222.226 178.379 217.774V217.608C178.379 213.157 175.8 210.328 170.579 210.328H165.712V225.2ZM169.082 222.579V212.949H170.413C173.554 212.949 174.864 214.592 174.864 217.65V217.816C174.864 220.894 173.45 222.579 170.454 222.579H169.082Z" fill="white" fill-opacity="0.56"></path>
    <path d="M180.596 225.2H183.612V214.758L187.751 225.2H188.854L192.972 214.758V225.2H196.321V210.328H191.953L188.521 219.584L185.047 210.328H180.596V225.2Z" fill="white" fill-opacity="0.56"></path>
    <path d="M199.34 225.2H202.689V219.792H204.581C207.972 219.792 210.156 218.294 210.156 215.154V215.07C210.156 211.93 208.097 210.328 204.477 210.328H199.34V225.2ZM202.689 217.442V212.886H204.394C205.996 212.886 206.911 213.51 206.911 215.091V215.174C206.911 216.651 206.037 217.442 204.394 217.442H202.689Z" fill="white" fill-opacity="0.56"></path>
    <g class="animateArrow" opacity="0.9" filter="url(#filter1_b_6228_3905)">
        <path fill-rule="evenodd" clip-rule="evenodd" d="M187.424 155.739L205.755 159.698C207.459 160.065 207.909 162.285 206.484 163.288L144.539 206.878C143.566 207.563 142.214 207.252 141.638 206.211L105.848 141.513C105.017 140.01 106.342 138.228 108.021 138.59L128.468 143.006C154.52 94.7822 195.761 86.7033 236.495 82.6201C237.571 82.5122 238.016 83.9546 237.074 84.4856C200.987 104.824 177.5 121.225 187.424 155.739Z" fill="#836BB3"></path>
    </g>
    <circle cx="106.975" cy="316.724" r="7.27551" fill="#E3E3F4"></circle>
    <circle cx="137.071" cy="316.724" r="7.27551" fill="#E3E3F4"></circle>
    <circle cx="167.168" cy="316.724" r="7.27551" fill="#E3E3F4"></circle>
    <rect x="135.761" y="293" width="2.53061" height="11.3878" fill="#E3E3F4"></rect>
    <rect x="105.394" y="301.857" width="2.53061" height="9.4898" fill="#E3E3F4"></rect>
    <rect x="135.761" y="301.857" width="2.53061" height="9.4898" fill="#E3E3F4"></rect>
    <rect x="166.128" y="301.857" width="2.53061" height="9.4898" fill="#E3E3F4"></rect>
    <rect x="167.394" y="301.857" width="2.53061" height="60.7347" transform="rotate(90 167.394 301.857)" fill="#E3E3F4"></rect>
    <defs>
        <filter id="filter0_d_6228_3905" x="0" y="121.704" width="293" height="184.608" filterUnits="userSpaceOnUse" color-interpolation-filters="sRGB">
            <feFlood flood-opacity="0" result="BackgroundImageFix"></feFlood>
            <feColorMatrix in="SourceAlpha" type="matrix" values="0 0 0 0 0 0 0 0 0 0 0 0 0 0 0 0 0 0 127 0" result="hardAlpha"></feColorMatrix>
            <feOffset dy="-1"></feOffset>
            <feGaussianBlur stdDeviation="7"></feGaussianBlur>
            <feComposite in2="hardAlpha" operator="out"></feComposite>
            <feColorMatrix type="matrix" values="0 0 0 0 0 0 0 0 0 0 0 0 0 0 0 0 0 0 0.09 0"></feColorMatrix>
            <feBlend mode="normal" in2="BackgroundImageFix" result="effect1_dropShadow_6228_3905"></feBlend>
            <feBlend mode="normal" in="SourceGraphic" in2="effect1_dropShadow_6228_3905" result="shape"></feBlend>
        </filter>
        <filter id="filter1_b_6228_3905" x="101.593" y="78.6144" width="139.995" height="132.629" filterUnits="userSpaceOnUse" color-interpolation-filters="sRGB">
            <feFlood flood-opacity="0" result="BackgroundImageFix"></feFlood>
            <feGaussianBlur in="BackgroundImage" stdDeviation="2"></feGaussianBlur>
            <feComposite in2="SourceAlpha" operator="in" result="effect1_backgroundBlur_6228_3905"></feComposite>
            <feBlend mode="normal" in="SourceGraphic" in2="effect1_backgroundBlur_6228_3905" result="shape"></feBlend>
        </filter>
        <linearGradient id="paint0_linear_6228_3905" x1="81.4022" y1="107.857" x2="219.663" y2="277.092" gradientUnits="userSpaceOnUse">
            <stop stop-color="#5AD9A4"></stop>
            <stop offset="1" stop-color="#25C3B3"></stop>
        </linearGradient>
        <linearGradient id="paint1_linear_6228_3905" x1="81.402" y1="107.857" x2="219.663" y2="277.092" gradientUnits="userSpaceOnUse">
            <stop stop-color="#5AD9A4"></stop>
            <stop offset="1" stop-color="#25C3B3"></stop>
        </linearGradient>
    </defs>
</svg>