<svg width="388" height="375" viewBox="0 0 388 375" fill="none" xmlns="http://www.w3.org/2000/svg">
<rect x="177.271" y="138.123" width="210" height="95" rx="30" fill="#836BB3"/>
<rect x="310.438" y="173.218" width="3.92272" height="2.94204" fill="white"/>
<path fill-rule="evenodd" clip-rule="evenodd" d="M251.481 178.391V187.714C251.481 192.654 255.505 196.659 260.47 196.659C265.435 196.659 269.46 192.654 269.46 187.714V178.391H265.503V187.714C265.503 190.663 263.434 193.053 260.47 193.053C257.507 193.053 255.437 190.663 255.437 187.714V178.391H251.481Z" fill="white"/>
<path d="M283.663 177.886C286.127 177.886 288.232 178.795 289.979 180.613C291.725 182.431 292.598 184.668 292.598 187.323C292.598 189.955 291.725 192.191 289.979 194.033C288.232 195.851 286.127 196.761 283.663 196.761C280.936 196.761 278.843 195.744 277.384 193.71V196.294H273.508V173.123H277.384V180.9C278.843 178.89 280.936 177.886 283.663 177.886ZM278.998 191.45C280.075 192.526 281.426 193.065 283.053 193.065C284.68 193.065 286.032 192.526 287.108 191.45C288.185 190.349 288.723 188.974 288.723 187.323C288.723 185.672 288.185 184.309 287.108 183.232C286.032 182.132 284.68 181.582 283.053 181.582C281.426 181.582 280.075 182.132 278.998 183.232C277.922 184.309 277.384 185.672 277.384 187.323C277.384 188.974 277.922 190.349 278.998 191.45Z" fill="white"/>
<path d="M300.678 180.478C301.659 179.824 303.819 178.352 307.87 178.352V182.439C306.271 182.643 303.62 182.929 301.986 184.891C301.005 186.198 300.673 187.625 300.673 189.467V196.294H296.798V178.352H300.673L300.678 180.478Z" fill="white"/>
<path d="M310.307 196.294V178.352H314.182V196.294H310.307Z" fill="white"/>
<path d="M333.204 173.123H337.079V196.294H333.204V193.71C331.744 195.744 329.651 196.761 326.924 196.761C324.46 196.761 322.355 195.851 320.608 194.033C318.862 192.191 317.989 189.955 317.989 187.323C317.989 184.668 318.862 182.431 320.608 180.613C322.355 178.795 324.46 177.886 326.924 177.886C329.651 177.886 331.744 178.89 333.204 180.9V173.123ZM323.479 191.45C324.556 192.526 325.907 193.065 327.534 193.065C329.161 193.065 330.512 192.526 331.589 191.45C332.665 190.349 333.204 188.974 333.204 187.323C333.204 185.672 332.665 184.309 331.589 183.232C330.512 182.132 329.161 181.582 327.534 181.582C325.907 181.582 324.556 182.132 323.479 183.232C322.403 184.309 321.864 185.672 321.864 187.323C321.864 188.974 322.403 190.349 323.479 191.45Z" fill="white"/>
<path fill-rule="evenodd" clip-rule="evenodd" d="M232.194 173.123H228.271V196.294H232.194V173.123ZM243.309 196.294H247.29V173.123H243.309V196.294Z" fill="white"/>
<rect x="231.213" y="183.431" width="13.4164" height="3.96834" transform="rotate(-12 231.213 183.431)" fill="white"/>
<path d="M251.411 200.211L265.864 198.201L265.864 201.817L251.411 203.828L251.411 200.211Z" fill="white"/>
<rect x="310.322" y="173.123" width="3.92272" height="2.94204" fill="white"/>
<circle cx="88.7715" cy="36.6226" r="36.5" fill="#836BB3" fill-opacity="0.7"/>
<path d="M105.048 24.1226H71.4949C70.8192 24.1226 70.2715 24.6703 70.2715 25.3459V43.5829C70.2715 44.2586 70.8192 44.8063 71.4949 44.8063H105.048C105.724 44.8063 106.271 44.2586 106.271 43.5829V25.3459C106.271 24.6703 105.724 24.1226 105.048 24.1226Z" fill="#B8A0EA"/>
<path d="M95.2621 48.5692H91.1088V46.9287H85.4341V48.5692H81.2807C80.6947 48.5692 80.2195 49.0443 80.2195 49.6304C80.2195 50.2165 80.6946 50.6916 81.2807 50.6916H95.2621C95.8482 50.6916 96.3234 50.2165 96.3234 49.6304C96.3234 49.0443 95.8483 48.5692 95.2621 48.5692Z" fill="#B8A0EA"/>
<circle cx="36.7715" cy="137.623" r="36.5" fill="#836BB3" fill-opacity="0.7"/>
<path d="M55.3334 126.052L43.6875 137.623L55.3334 149.194C55.544 148.754 55.6717 148.267 55.6717 147.748V127.498C55.6717 126.978 55.544 126.492 55.3334 126.052Z" fill="#B8A0EA"/>
<path d="M52.2966 124.123H20.6466C20.1271 124.123 19.6407 124.25 19.2007 124.461L34.0854 139.271C35.4015 140.587 37.5417 140.587 38.8578 139.271L53.7425 124.461C53.3025 124.25 52.8161 124.123 52.2966 124.123Z" fill="#B8A0EA"/>
<path d="M17.6097 126.052C17.3992 126.492 17.2715 126.978 17.2715 127.498V147.748C17.2715 148.267 17.3992 148.754 17.6097 149.194L29.2557 137.623L17.6097 126.052Z" fill="#B8A0EA"/>
<path d="M42.0966 139.213L40.4486 140.861C38.2557 143.054 34.6874 143.054 32.4945 140.861L30.8466 139.213L19.2007 150.784C19.6407 150.995 20.1271 151.123 20.6466 151.123H52.2966C52.8161 151.123 53.3025 150.995 53.7425 150.784L42.0966 139.213Z" fill="#B8A0EA"/>
<circle cx="36.7715" cy="241.623" r="36.5" fill="#836BB3" fill-opacity="0.7"/>
<path d="M36.5524 237.866C38.8527 237.866 40.8446 237.041 42.4721 235.414C44.0996 233.786 44.9246 231.795 44.9246 229.494C44.9246 227.194 44.0996 225.203 42.4718 223.575C40.844 221.948 38.8524 221.123 36.5524 221.123C34.2518 221.123 32.2605 221.948 30.633 223.575C29.0055 225.203 28.1802 227.194 28.1802 229.494C28.1802 231.795 29.0055 233.786 30.6332 235.414C32.261 237.041 34.2526 237.866 36.5524 237.866Z" fill="#B8A0EA"/>
<path d="M51.2012 247.851C51.1543 247.174 51.0593 246.435 50.9196 245.655C50.7785 244.869 50.5968 244.126 50.3794 243.446C50.1548 242.744 49.8493 242.051 49.4716 241.387C49.0797 240.697 48.6193 240.097 48.1027 239.603C47.5625 239.086 46.9011 238.671 46.1363 238.367C45.3741 238.066 44.5295 237.913 43.6259 237.913C43.2711 237.913 42.928 238.059 42.2652 238.49C41.8574 238.756 41.3803 239.064 40.8478 239.404C40.3924 239.694 39.7756 239.966 39.0137 240.212C38.2704 240.453 37.5156 240.575 36.7707 240.575C36.0258 240.575 35.2713 240.453 34.5272 240.212C33.766 239.966 33.1492 239.694 32.6944 239.404C32.1669 239.067 31.6896 238.76 31.2756 238.49C30.6137 238.058 30.2703 237.913 29.9154 237.913C29.0116 237.913 28.1673 238.066 27.4054 238.368C26.6411 238.67 25.9794 239.086 25.4387 239.603C24.9224 240.098 24.4617 240.698 24.0703 241.387C23.6929 242.051 23.3874 242.744 23.1625 243.447C22.9453 244.126 22.7637 244.869 22.6226 245.655C22.4828 246.434 22.3879 247.173 22.341 247.852C22.2948 248.517 22.2715 249.207 22.2715 249.904C22.2715 251.719 22.8483 253.188 23.9857 254.271C25.1091 255.34 26.5955 255.882 28.403 255.882H45.1399C46.9475 255.882 48.4334 255.34 49.557 254.271C50.6947 253.189 51.2715 251.719 51.2715 249.904C51.2712 249.204 51.2476 248.513 51.2012 247.851Z" fill="#B8A0EA"/>
<circle cx="89.7715" cy="338.5" r="36.5" fill="#836BB3" fill-opacity="0.7"/>
<path d="M108.272 328.532V342.905C108.272 343.522 107.771 344.023 107.154 344.023H105.425V332.687C105.425 331.347 104.339 330.261 102.999 330.261H88.2968C88.2241 330.261 88.1577 330.22 88.1255 330.154L86.6086 327.077C86.1964 326.242 85.3629 325.724 84.4322 325.724H80.4346V323.995C80.4346 323.378 80.935 322.877 81.5522 322.877H89.5136C89.5875 322.877 89.6531 322.918 89.685 322.984L91.2021 326.061C91.6141 326.896 92.4479 327.414 93.3785 327.414H107.154C107.771 327.414 108.272 327.915 108.272 328.532Z" fill="#B8A0EA"/>
<path d="M103.19 332.687V347.986C103.19 348.604 102.689 349.104 102.072 349.104H100.344V337.768C100.344 336.428 99.2573 335.342 97.9176 335.342H83.2153C83.1422 335.342 83.0758 335.301 83.0439 335.236L81.5268 332.159C81.1082 331.311 80.2668 330.806 79.3504 330.806H75.353V329.077C75.353 328.46 75.8534 327.959 76.4707 327.959H84.4321C84.5057 327.959 84.5712 328 84.6034 328.065L86.1203 331.142C86.5325 331.977 87.366 332.496 88.2967 332.496H102.999C103.104 332.496 103.19 332.582 103.19 332.687Z" fill="#B8A0EA"/>
<path d="M97.9177 337.577H83.2154C82.2848 337.577 81.451 337.059 81.039 336.224C80.2745 334.673 80.6111 335.357 79.5219 333.148C79.49 333.082 79.4242 333.041 79.3505 333.041H71.3891C70.7719 333.041 70.2715 333.542 70.2715 334.159V353.069C70.2715 353.686 70.7719 354.186 71.3891 354.186H96.9908C97.608 354.186 98.1084 353.686 98.1084 353.069V337.768C98.1084 337.663 98.0226 337.577 97.9177 337.577ZM91.3577 350.564C91.3577 351.184 90.8527 351.681 90.2401 351.681C89.6284 351.681 89.1225 351.184 89.1225 350.564C89.1225 350.156 89.1225 350.243 89.1225 349.836C89.1225 349.222 89.6208 348.719 90.2401 348.719C90.8585 348.719 91.3577 349.222 91.3577 349.836V350.564ZM95.0223 350.564C95.0223 351.184 94.517 351.681 93.9046 351.681C93.2892 351.681 92.7867 351.182 92.7867 350.564C92.7867 350.156 92.7867 350.243 92.7867 349.836C92.7867 349.222 93.2854 348.719 93.9046 348.719C94.523 348.719 95.0223 349.222 95.0223 349.836V350.564Z" fill="#B8A0EA"/>
<path d="M167.272 131.629L176.05 125L175.728 134.015L167.272 131.629Z" fill="#60DA9C"/>
<path d="M158.272 119.629L167.05 113L166.728 122.015L158.272 119.629Z" fill="#60DA9C"/>
<path d="M149.272 108.629L158.05 102L157.728 111.015L149.272 108.629Z" fill="#60DA9C"/>
<path d="M139.272 96.6286L148.05 90L147.728 99.0149L139.272 96.6286Z" fill="#60DA9C"/>
<path d="M130.272 85.6286L139.05 79L138.728 88.0149L130.272 85.6286Z" fill="#60DA9C"/>
<path d="M122.272 73.6286L131.05 67L130.728 76.0149L122.272 73.6286Z" fill="#60DA9C"/>
<path d="M155.21 176.246L158.665 165.802L163.524 173.402L155.21 176.246Z" fill="#01B7B9"/>
<path d="M140.985 171.489L144.439 161.045L149.298 168.645L140.985 171.489Z" fill="#01B7B9"/>
<path d="M127.328 167.554L130.782 157.111L135.641 164.711L127.328 167.554Z" fill="#01B7B9"/>
<path d="M112.279 163.365L115.734 152.922L120.593 160.522L112.279 163.365Z" fill="#01B7B9"/>
<path d="M98.6219 159.431L102.076 148.988L106.935 156.588L98.6219 159.431Z" fill="#01B7B9"/>
<path d="M85.219 154.106L88.6736 143.662L93.5326 151.262L85.219 154.106Z" fill="#01B7B9"/>
<path d="M158.751 216.607L155.21 206.192L163.669 209.325L158.751 216.607Z" fill="#8692FF"/>
<path d="M144.534 221.39L140.993 210.976L149.452 214.108L144.534 221.39Z" fill="#8692FF"/>
<path d="M131.267 226.487L127.725 216.072L136.184 219.205L131.267 226.487Z" fill="#8692FF"/>
<path d="M116.736 232.219L113.195 221.805L121.654 224.938L116.736 232.219Z" fill="#8692FF"/>
<path d="M103.469 237.316L99.9275 226.902L108.387 230.035L103.469 237.316Z" fill="#8692FF"/>
<path d="M89.5658 241.15L86.0242 230.736L94.4833 233.869L89.5658 241.15Z" fill="#8692FF"/>
<path d="M176.289 253.636L168.25 246.128L177.186 244.896L176.289 253.636Z" fill="#B094E9"/>
<path d="M166.014 264.565L157.975 257.057L166.911 255.825L166.014 264.565Z" fill="#B094E9"/>
<path d="M156.725 275.322L148.686 267.813L157.622 266.581L156.725 275.322Z" fill="#B094E9"/>
<path d="M146.622 287.235L138.583 279.727L147.519 278.495L146.622 287.235Z" fill="#B094E9"/>
<path d="M137.332 297.992L129.294 290.483L138.23 289.252L137.332 297.992Z" fill="#B094E9"/>
<path d="M126.886 307.936L118.847 300.427L127.783 299.195L126.886 307.936Z" fill="#B094E9"/>
</svg>
