<svg width="484" height="281" viewBox="0 0 484 281" fill="none" xmlns="http://www.w3.org/2000/svg">
    <ellipse cx="86.7079" cy="73.5156" rx="75.0163" ry="57.1306" transform="rotate(13.3559 86.7079 73.5156)" fill="url(#paint0_linear_6020_1686)"></ellipse>
    <ellipse cx="243.783" cy="75.3062" rx="75.7969" ry="58.527" transform="rotate(12.7826 243.783 75.3062)" fill="url(#paint1_linear_6020_1686)"></ellipse>
    <ellipse cx="398.061" cy="75.7063" rx="74.9409" ry="59.4" transform="rotate(12.3871 398.061 75.7063)" fill="#836BB3"></ellipse>
    <circle cx="119.858" cy="148.915" r="3.76258" fill="#5AD9A4"></circle>
    <circle cx="257.193" cy="152.678" r="3.76258" fill="#5AD9A4"></circle>
    <circle cx="399.23" cy="152.678" r="3.76258" fill="#9F7DE3"></circle>
    <circle cx="129.265" cy="128.221" r="10.3471" fill="#5AD9A4"></circle>
    <circle cx="266.599" cy="131.984" r="10.3471" fill="#5AD9A4"></circle>
    <circle cx="408.636" cy="131.984" r="10.3471" fill="#9F7DE3"></circle>
    <path d="M57.3646 191.619C57.0428 194.516 51.8671 231.979 49.3195 250.348C49.1854 251.153 50.4458 254.21 56.5601 260.003C62.6743 265.795 70.639 270.998 73.857 272.875C79.2204 276.361 95.3374 282.609 116.898 279.713C138.459 276.817 154.844 258.93 160.342 250.349L157.124 226.616C155.917 217.096 152.94 194.274 150.688 179.15C147.872 160.244 141.033 153.808 140.229 153.405C139.424 153.003 138.218 153.003 132.988 156.221C128.805 158.796 125.882 164.266 124.943 166.68C122.932 165.473 116.415 162.818 106.44 161.853C96.4637 160.887 87.8018 164.668 84.7179 166.68C84.7179 166.412 84.0742 164.91 81.4998 161.048C78.9254 157.186 73.7229 154.344 71.4435 153.405C70.639 152.601 68.145 152.762 64.6052 159.841C60.1804 168.691 57.7668 187.999 57.3646 191.619Z" fill="#E6E6F7"></path>
    <path d="M97.5899 183.977C96.6245 187.838 102.015 193.631 104.83 196.044C110.462 192.022 113.487 184.588 110.864 181.965C109.255 180.356 98.7967 179.15 97.5899 183.977Z" fill="#CECEE8"></path>
    <circle cx="80.2929" cy="187.195" r="10.8609" fill="white"></circle>
    <circle class="eye" cx="80.2932" cy="187.195" r="7.64283" fill="#CECEE8"></circle>
    <circle cx="129.368" cy="187.195" r="10.8609" fill="white"></circle>
    <circle class="eye" cx="129.368" cy="187.195" r="7.64283" fill="#CECEE8"></circle>
    <path d="M104.428 195.24C104.562 197.653 103.222 201.274 100.406 202.883C98.278 204.098 94.372 204.089 92.763 202.078" stroke="#CECEE8" stroke-width="2" stroke-linecap="round"></path>
    <path d="M105.233 194.435C105.099 196.849 105.923 200.851 108.451 202.883C110.453 204.492 114.887 204.089 116.094 202.078" stroke="#CECEE8" stroke-width="2" stroke-linecap="round"></path>
    <path d="M73.5776 174.082C75.7378 173.181 77.0088 170.984 76.5949 168.763C75.8646 164.845 72.7417 160.051 70.2515 160.25C66.6423 160.537 63.1283 175.529 67.3073 175.529C69.5878 175.529 71.9249 174.771 73.5776 174.082Z" fill="#DADAEF"></path>
    <path d="M136.083 174.082C133.923 173.181 132.652 170.984 133.066 168.763C133.796 164.845 136.919 160.051 139.41 160.25C143.019 160.537 146.533 175.529 142.354 175.529C140.073 175.529 137.736 174.771 136.083 174.082Z" fill="#DADAEF"></path>
    <path d="M198.857 191.222C198.536 194.118 193.36 231.582 190.812 249.951C190.678 250.756 191.939 253.813 198.053 259.605C204.167 265.398 212.132 270.6 215.35 272.477C220.713 275.964 236.83 282.212 258.391 279.316C279.952 276.42 296.337 258.533 301.834 249.951L298.616 226.218C297.41 216.698 294.433 193.877 292.18 178.752C289.365 159.846 282.526 153.41 281.722 153.008C280.917 152.606 279.711 152.606 274.481 155.824C270.298 158.398 267.375 163.869 266.436 166.282C264.425 165.076 257.908 162.421 247.932 161.455C237.957 160.49 229.295 164.271 226.211 166.282C226.211 166.014 225.567 164.512 222.993 160.651C220.418 156.789 215.216 153.947 212.936 153.008C212.132 152.203 209.638 152.364 206.098 159.444C201.673 168.294 199.26 187.602 198.857 191.222Z" fill="#E6E6F7"></path>
    <path d="M239.083 183.579C238.117 187.441 243.508 193.233 246.323 195.647C251.955 191.624 254.98 184.191 252.357 181.568C250.748 179.959 240.289 178.752 239.083 183.579Z" fill="#CECEE8"></path>
    <circle cx="221.786" cy="186.797" r="10.8609" fill="white"></circle>
    <circle class="eye" cx="221.786" cy="186.797" r="7.64283" fill="#CECEE8"></circle>
    <circle cx="270.861" cy="186.797" r="10.8609" fill="white"></circle>
    <circle class="eye" cx="270.861" cy="186.797" r="7.64283" fill="#CECEE8"></circle>
    <path d="M245.921 194.842C246.056 197.256 244.715 200.876 241.899 202.485C239.771 203.701 235.865 203.692 234.256 201.681" stroke="#CECEE8" stroke-width="2" stroke-linecap="round"></path>
    <path d="M246.726 194.038C246.592 196.451 247.416 200.454 249.944 202.485C251.946 204.094 256.38 203.692 257.587 201.681" stroke="#CECEE8" stroke-width="2" stroke-linecap="round"></path>
    <path d="M215.071 173.684C217.231 172.784 218.502 170.587 218.088 168.366C217.358 164.448 214.235 159.654 211.745 159.852C208.135 160.14 204.621 175.132 208.8 175.132C211.081 175.132 213.418 174.373 215.071 173.684Z" fill="#DADAEF"></path>
    <path d="M277.576 173.684C275.416 172.784 274.145 170.587 274.559 168.366C275.289 164.448 278.412 159.654 280.903 159.852C284.512 160.14 288.026 175.132 283.847 175.132C281.566 175.132 279.229 174.373 277.576 173.684Z" fill="#DADAEF"></path>
    <path d="M339.558 191.619C339.236 194.516 334.06 231.979 331.513 250.348C331.379 251.153 332.639 254.21 338.753 260.003C344.868 265.795 352.832 270.998 356.05 272.875C361.414 276.361 377.531 282.609 399.091 279.713C420.652 276.817 437.037 258.93 442.535 250.349L439.317 226.616C438.11 217.096 435.133 194.274 432.881 179.15C430.065 160.244 423.227 153.808 422.422 153.405C421.618 153.003 420.411 153.003 415.182 156.221C410.998 158.796 408.075 164.266 407.136 166.68C405.125 165.473 398.609 162.818 388.633 161.853C378.657 160.887 369.995 164.668 366.911 166.68C366.911 166.412 366.267 164.91 363.693 161.048C361.119 157.186 355.916 154.344 353.637 153.405C352.832 152.601 350.338 152.762 346.798 159.841C342.374 168.691 339.96 187.999 339.558 191.619Z" fill="#E6E6F7"></path>
    <path d="M379.783 183.977C378.818 187.838 384.208 193.631 387.024 196.044C392.655 192.022 395.68 184.588 393.058 181.965C391.449 180.356 380.99 179.15 379.783 183.977Z" fill="#CECEE8"></path>
    <circle cx="362.486" cy="187.195" r="10.8609" fill="white"></circle>
    <circle class="eye" cx="362.486" cy="187.195" r="7.64283" fill="#CECEE8"></circle>
    <circle cx="411.561" cy="187.195" r="10.8609" fill="white"></circle>
    <circle class="eye" cx="411.561" cy="187.195" r="7.64283" fill="#CECEE8"></circle>
    <path d="M386.621 195.24C386.756 197.653 385.415 201.274 382.599 202.883C380.471 204.098 376.565 204.089 374.956 202.078" stroke="#CECEE8" stroke-width="2" stroke-linecap="round"></path>
    <path d="M387.426 194.435C387.292 196.849 388.116 200.851 390.644 202.883C392.646 204.492 397.08 204.089 398.287 202.078" stroke="#CECEE8" stroke-width="2" stroke-linecap="round"></path>
    <path d="M355.771 174.082C357.931 173.181 359.202 170.984 358.788 168.763C358.058 164.845 354.935 160.051 352.445 160.25C348.836 160.537 345.322 175.529 349.501 175.529C351.781 175.529 354.118 174.771 355.771 174.082Z" fill="#DADAEF"></path>
    <path d="M418.277 174.082C416.117 173.181 414.846 170.984 415.259 168.763C415.99 164.845 419.113 160.051 421.603 160.25C425.212 160.537 428.726 175.529 424.547 175.529C422.267 175.529 419.929 174.771 418.277 174.082Z" fill="#DADAEF"></path>
    <rect x="375.344" y="65.4807" width="33.7118" height="49.2711" rx="12" transform="rotate(-23.4528 375.344 65.4807)" fill="white"></rect>
    <rect x="390.515" y="64.1487" width="6.01996" height="10.8359" rx="3.00998" transform="rotate(-23.4528 390.515 64.1487)" fill="#01B7B9"></rect>
    <path d="M370.578 48.7394C373.229 53.7978 378.806 62.3909 381.035 56.799C383.635 50.2778 390.241 51.6444 391.359 58.5325" stroke="white" stroke-width="2" stroke-linecap="round"></path>
    <path fill-rule="evenodd" clip-rule="evenodd" d="M79.3145 48.9328C79.3145 48.9328 93.6165 49.24 101.612 56.0034C114.729 56.816 124.95 66.5015 129.007 77.7579C124.701 89.7084 113.446 99.8889 99.1547 99.5608C93.8358 105.316 87.0958 106.052 87.0958 106.052C86.6839 102.449 86.7523 99.4453 87.0901 96.8659C81.2311 94.3985 75.0929 90.1282 68.881 83.5937C68.881 83.5937 62.3379 91.5516 53.4959 90.6674C53.4959 90.6674 52.4348 84.1243 57.3864 77.7579C52.4348 71.3916 53.4959 64.8485 53.4959 64.8485C62.3379 63.9643 68.881 71.9222 68.881 71.9222C73.3117 67.2611 77.7048 63.7528 81.9862 61.2281C81.7644 53.9371 79.3145 48.9328 79.3145 48.9328ZM113.629 81.0547C115.847 81.0547 117.644 79.257 117.644 77.0395C117.644 74.8219 115.847 73.0242 113.629 73.0242C111.412 73.0242 109.614 74.8219 109.614 77.0395C109.614 79.257 111.412 81.0547 113.629 81.0547Z" fill="#F4F6FF"></path>
    <path d="M242.446 52.3934C242.159 51.9577 241.666 51.7025 241.144 51.7176C240.622 51.7332 240.145 52.0181 239.884 52.4703C239.884 52.4703 238.523 54.8295 236.657 58.0607C236.535 58.2713 236.417 58.4839 236.303 58.698L251.688 66.3904L242.446 52.3934Z" fill="#F4F6FF"></path>
    <path d="M270.108 67.8522H269.118L266.765 65.4983C264.605 63.3383 261.09 63.3386 258.929 65.4984L253.675 70.7527L222.376 55.1031C221.909 54.8696 221.354 54.8945 220.91 55.1691C220.466 55.4435 220.196 55.9283 220.196 56.4504V62.9046C220.196 74.2343 228.539 83.5209 239.293 85.1353L223.864 100.564C223.433 100.995 223.304 101.643 223.537 102.206C223.771 102.769 224.32 103.136 224.929 103.136H234.61C235.01 103.136 235.393 102.977 235.675 102.694L241.688 96.6815H246.712C257.774 96.6815 266.774 87.6818 266.774 76.6195V73.2096L269.118 70.8649H270.108C270.94 70.8649 271.614 70.1905 271.614 69.3585C271.614 68.5266 270.94 67.8522 270.108 67.8522Z" fill="#F4F6FF"></path>
    <defs>
        <linearGradient id="paint0_linear_6020_1686" x1="98.1298" y1="30.7239" x2="167.79" y2="149.258" gradientUnits="userSpaceOnUse">
            <stop stop-color="#5AD9A4"></stop>
            <stop offset="1" stop-color="#01B7B9"></stop>
        </linearGradient>
        <linearGradient id="paint1_linear_6020_1686" x1="235.835" y1="42.1652" x2="291.776" y2="140.246" gradientUnits="userSpaceOnUse">
            <stop stop-color="#5AD9A4"></stop>
            <stop offset="1" stop-color="#01B7B9"></stop>
        </linearGradient>
    </defs>
</svg>