<svg width="466" height="330" viewBox="0 0 466 330" fill="none" xmlns="http://www.w3.org/2000/svg">
    <circle cx="315" cy="164" r="133" fill="#E6E6F7"></circle>
    <circle cx="366.5" cy="10.6226" r="10.5" fill="#E6E6F7"></circle>
    <circle cx="218" cy="296.123" r="13" fill="#E6E6F7"></circle>
    <circle cx="235.152" cy="324.274" r="5.15159" fill="#E6E6F7"></circle>
    <g filter="url(#filter0_d_6020_1682)" class="flyingImgPath1">
        <rect x="247.31" y="116.798" width="160.258" height="179.063" rx="8" transform="rotate(-12.6946 247.31 116.798)" fill="white"></rect>
        <path d="M249.068 124.602C248.097 120.292 250.804 116.011 255.114 115.04L395.846 83.3384C400.156 82.3674 404.437 85.0745 405.408 89.3848L409.4 107.105L253.06 142.323L249.068 124.602Z" fill="#D6DDE8"></path>
        <circle cx="266.457" cy="125.778" r="3.55302" transform="rotate(-12.6946 266.457 125.778)" fill="#ACB2C7"></circle>
        <circle cx="276.36" cy="123.547" r="3.55302" transform="rotate(-12.6946 276.36 123.547)" fill="#ACB2C7"></circle>
        <circle cx="287.254" cy="121.093" r="3.55302" transform="rotate(-12.6946 287.254 121.093)" fill="#ACB2C7"></circle>
        <rect x="287.115" y="206.266" width="22.9821" height="63.0466" transform="rotate(-12.6946 287.115 206.266)" stroke="#D6DDE8" stroke-width="4"></rect>
        <rect x="310.247" y="201.056" width="22.9821" height="63.0466" transform="rotate(-12.6946 310.247 201.056)" stroke="#D6DDE8" stroke-width="4"></rect>
        <rect x="333.379" y="195.845" width="22.9821" height="63.0466" transform="rotate(-12.6946 333.379 195.845)" stroke="#D6DDE8" stroke-width="4"></rect>
        <rect x="356.511" y="190.634" width="22.9821" height="63.0466" transform="rotate(-12.6946 356.511 190.634)" stroke="#D6DDE8" stroke-width="4"></rect>
        <rect x="287.115" y="206.266" width="118.646" height="20.5616" transform="rotate(-12.6946 287.115 206.266)" stroke="#D6DDE8" stroke-width="4"></rect>
        <rect x="291.929" y="227.637" width="118.646" height="20.5616" transform="rotate(-12.6946 291.929 227.637)" stroke="#D6DDE8" stroke-width="4"></rect>
        <rect x="296.743" y="249.008" width="118.646" height="19.234" transform="rotate(-12.6946 296.743 249.008)" stroke="#D6DDE8" stroke-width="4"></rect>
        <path d="M283.444 191.633L311.165 171.87L319.733 176.949L342.007 155.812L361.508 160.529L395.726 131.977" stroke="#5BDBA5" stroke-width="8" stroke-linecap="round"></path>
        <circle cx="342.585" cy="156.52" r="8.99405" transform="rotate(-12.6946 342.585 156.52)" fill="#836BB3"></circle>
        <circle cx="370.269" cy="197.937" r="6.85606" transform="rotate(-12.6946 370.269 197.937)" fill="#836BB3"></circle>
        <circle cx="374.529" cy="219.233" r="6.85606" transform="rotate(-12.6946 374.529 219.233)" fill="#836BB3"></circle>
        <circle cx="342.585" cy="156.52" r="3.27056" transform="rotate(-12.6946 342.585 156.52)" fill="white"></circle>
        <circle cx="370.269" cy="197.937" r="2.49311" transform="rotate(-12.6946 370.269 197.937)" fill="white"></circle>
        <circle cx="374.529" cy="219.233" r="2.49311" transform="rotate(-12.6946 374.529 219.233)" fill="white"></circle>
    </g>
    <g filter="url(#filter1_d_6020_1682)" class="flyingImgPath2">
        <rect width="153.831" height="179.118" rx="8" transform="matrix(0.97681 -0.214107 0.213267 0.976994 23.1697 54.1768)" fill="white"></rect>
        <path d="M24.8759 61.9927C23.9336 57.6761 26.6684 53.4099 30.9842 52.4639L165.619 22.9533C169.935 22.0073 174.198 24.7398 175.14 29.0564L178.584 44.8344L28.32 77.7707L24.8759 61.9927Z" fill="#D6DDE8"></path>
        <rect x="175.352" y="163.803" width="7.35877" height="97.2993" rx="3.67938" transform="rotate(77.9393 175.352 163.803)" fill="#D6DDE8"></rect>
        <rect x="149.129" y="181.947" width="7.35877" height="67.8642" rx="3.67938" transform="rotate(77.9393 149.129 181.947)" fill="#D6DDE8"></rect>
        <rect width="21.7966" height="83.3151" rx="4" transform="matrix(0.977099 -0.212787 0.214753 0.976668 59.7175 88.266)" fill="#D6DDE8"></rect>
        <rect width="21.7966" height="83.3151" rx="4" transform="matrix(0.977099 -0.212787 0.214753 0.976668 96.3926 80.4297)" fill="#D6DDE8"></rect>
        <rect width="21.7966" height="83.3151" rx="4" transform="matrix(0.977099 -0.212787 0.214753 0.976668 133.069 72.5934)" fill="#D6DDE8"></rect>
        <rect width="21.7964" height="38.8888" rx="4" transform="matrix(0.977542 -0.21074 0.221376 0.975188 68.9998 131.713)" fill="#836BB3"></rect>
        <rect width="21.7964" height="64.1046" rx="4" transform="matrix(0.977542 -0.21074 0.221376 0.975188 100.093 99.287)" fill="#836BB3"></rect>
        <rect width="21.7964" height="38.8888" rx="4" transform="matrix(0.977542 -0.21074 0.221376 0.975188 142.352 116.041)" fill="#836BB3"></rect>
        <circle cx="38.4529" cy="64.0178" r="3.2509" transform="rotate(-12.3374 38.4529 64.0178)" fill="#ACB2C7"></circle>
        <circle cx="47.5263" cy="62.0332" r="3.2509" transform="rotate(-12.3374 47.5263 62.0332)" fill="#ACB2C7"></circle>
        <circle cx="57.5077" cy="59.85" r="3.2509" transform="rotate(-12.3374 57.5077 59.85)" fill="#ACB2C7"></circle>
    </g>
    <g filter="url(#filter2_d_6020_1682)">
        <rect x="135.652" y="91.1139" width="150.446" height="179.063" rx="8" transform="rotate(-12.4473 135.652 91.1139)" fill="white"></rect>
        <path d="M137.376 98.9259C136.424 94.6114 139.149 90.3419 143.464 89.3896L274.75 60.4109C279.064 59.4586 283.334 62.1841 284.286 66.4986L288.201 84.2361L141.291 116.663L137.376 98.9259Z" fill="#D6DDE8"></path>
        <rect x="180.975" y="212.733" width="109.636" height="8.12119" rx="4.0606" transform="rotate(-12.4473 180.975 212.733)" fill="#D6DDE8"></rect>
        <rect x="184.913" y="230.576" width="49.7423" height="8.12119" rx="4.0606" transform="rotate(-12.4473 184.913 230.576)" fill="#D6DDE8"></rect>
        <path d="M257.158 143.418C255.392 135.417 251.155 128.173 245.048 122.71C238.94 117.248 231.27 113.843 223.122 112.978C214.974 112.112 206.759 113.83 199.64 117.887C192.522 121.944 186.858 128.137 183.45 135.589C180.043 143.041 179.063 151.375 180.651 159.414C182.238 167.453 186.312 174.789 192.296 180.386C198.281 185.984 205.873 189.558 214 190.605C222.127 191.652 230.377 190.118 237.585 186.221L226.553 165.822C223.622 167.407 220.268 168.03 216.963 167.605C213.658 167.179 210.571 165.725 208.137 163.449C205.704 161.173 204.047 158.19 203.402 154.921C202.756 151.652 203.155 148.263 204.54 145.233C205.926 142.203 208.229 139.685 211.124 138.035C214.019 136.385 217.359 135.687 220.672 136.039C223.985 136.391 227.104 137.775 229.588 139.996C232.072 142.218 233.794 145.163 234.512 148.417L257.158 143.418Z" fill="#5AD9A4"></path>
        <path d="M239.315 147.357C238.374 143.096 236.119 139.239 232.867 136.33C229.614 133.422 225.53 131.609 221.192 131.148C216.853 130.687 212.479 131.602 208.689 133.762C204.898 135.923 201.882 139.22 200.068 143.188C198.253 147.156 197.732 151.593 198.577 155.874C199.422 160.154 201.592 164.061 204.778 167.041C207.965 170.021 212.007 171.925 216.335 172.482C220.662 173.04 225.055 172.223 228.893 170.147L226.529 165.777C223.608 167.357 220.264 167.979 216.969 167.554C213.675 167.13 210.598 165.681 208.172 163.412C205.746 161.144 204.095 158.17 203.451 154.911C202.808 151.653 203.205 148.274 204.586 145.254C205.968 142.233 208.263 139.723 211.149 138.079C214.035 136.434 217.364 135.738 220.667 136.089C223.97 136.44 227.079 137.82 229.554 140.034C232.03 142.248 233.747 145.184 234.463 148.428L239.315 147.357Z" fill="#01B7B9"></path>
        <path d="M247.556 178.52C253.174 172.505 256.749 164.87 257.773 156.704L234.653 153.805C234.24 157.103 232.796 160.186 230.527 162.615L247.556 178.52Z" fill="#D6DDE8"></path>
        <path d="M234.202 166.047C237.193 162.844 239.097 158.779 239.642 154.431L234.697 153.811C234.282 157.118 232.834 160.209 230.559 162.645L234.202 166.047Z" fill="#ACB2C7"></path>
        <circle cx="149.986" cy="101.636" r="3.55302" transform="rotate(-12.4473 149.986 101.636)" fill="#ACB2C7"></circle>
        <circle cx="159.899" cy="99.4483" r="3.55302" transform="rotate(-12.4473 159.899 99.4483)" fill="#ACB2C7"></circle>
        <circle cx="170.803" cy="97.0415" r="3.55302" transform="rotate(-12.4473 170.803 97.0415)" fill="#ACB2C7"></circle>
    </g>
    <defs>
        <filter id="filter0_d_6020_1682" x="224.871" y="67.1411" width="240.569" height="254.782" filterUnits="userSpaceOnUse" color-interpolation-filters="sRGB">
            <feFlood flood-opacity="0" result="BackgroundImageFix"></feFlood>
            <feColorMatrix in="SourceAlpha" type="matrix" values="0 0 0 0 0 0 0 0 0 0 0 0 0 0 0 0 0 0 127 0" result="hardAlpha"></feColorMatrix>
            <feOffset dy="8"></feOffset>
            <feGaussianBlur stdDeviation="12"></feGaussianBlur>
            <feComposite in2="hardAlpha" operator="out"></feComposite>
            <feColorMatrix type="matrix" values="0 0 0 0 0.172549 0 0 0 0 0.168627 0 0 0 0 0.317647 0 0 0 0.15 0"></feColorMatrix>
            <feBlend mode="normal" in2="BackgroundImageFix" result="effect1_dropShadow_6020_1682"></feBlend>
            <feBlend mode="normal" in="SourceGraphic" in2="effect1_dropShadow_6020_1682" result="shape"></feBlend>
        </filter>
        <filter id="filter1_d_6020_1682" x="0.690125" y="6.76614" width="233.423" height="252.882" filterUnits="userSpaceOnUse" color-interpolation-filters="sRGB">
            <feFlood flood-opacity="0" result="BackgroundImageFix"></feFlood>
            <feColorMatrix in="SourceAlpha" type="matrix" values="0 0 0 0 0 0 0 0 0 0 0 0 0 0 0 0 0 0 127 0" result="hardAlpha"></feColorMatrix>
            <feOffset dy="8"></feOffset>
            <feGaussianBlur stdDeviation="12"></feGaussianBlur>
            <feComposite in2="hardAlpha" operator="out"></feComposite>
            <feColorMatrix type="matrix" values="0 0 0 0 0.172549 0 0 0 0 0.168627 0 0 0 0 0.317647 0 0 0 0.15 0"></feColorMatrix>
            <feBlend mode="normal" in2="BackgroundImageFix" result="effect1_dropShadow_6020_1682"></feBlend>
            <feBlend mode="normal" in="SourceGraphic" in2="effect1_dropShadow_6020_1682" result="shape"></feBlend>
        </filter>
        <filter id="filter2_d_6020_1682" x="113.186" y="44.2212" width="230.436" height="252.213" filterUnits="userSpaceOnUse" color-interpolation-filters="sRGB">
            <feFlood flood-opacity="0" result="BackgroundImageFix"></feFlood>
            <feColorMatrix in="SourceAlpha" type="matrix" values="0 0 0 0 0 0 0 0 0 0 0 0 0 0 0 0 0 0 127 0" result="hardAlpha"></feColorMatrix>
            <feOffset dy="8"></feOffset>
            <feGaussianBlur stdDeviation="12"></feGaussianBlur>
            <feComposite in2="hardAlpha" operator="out"></feComposite>
            <feColorMatrix type="matrix" values="0 0 0 0 0.172549 0 0 0 0 0.168627 0 0 0 0 0.317647 0 0 0 0.15 0"></feColorMatrix>
            <feBlend mode="normal" in2="BackgroundImageFix" result="effect1_dropShadow_6020_1682"></feBlend>
            <feBlend mode="normal" in="SourceGraphic" in2="effect1_dropShadow_6020_1682" result="shape"></feBlend>
        </filter>
    </defs>
</svg>