<svg width="398" height="399" viewBox="0 0 398 399" fill="none" xmlns="http://www.w3.org/2000/svg">
<path d="M286.191 335.209C285.009 335.96 284.63 337.527 285.402 338.743C286.174 339.958 287.753 340.282 288.935 339.531C290.117 338.781 290.496 337.214 289.724 335.998C288.952 334.782 287.372 334.459 286.191 335.209Z" fill="#E4E8F9"/>
<path d="M271.077 343.775C269.822 344.394 269.277 345.912 269.914 347.203C270.551 348.495 272.087 348.986 273.342 348.366C274.598 347.747 275.143 346.229 274.506 344.938C273.869 343.647 272.333 343.155 271.077 343.775Z" fill="#E4E8F9"/>
<path d="M255.132 350.67C253.817 351.151 253.113 352.602 253.608 353.954C254.103 355.306 255.577 355.959 256.891 355.478C258.206 354.997 258.911 353.547 258.416 352.194C257.921 350.842 256.447 350.189 255.132 350.67Z" fill="#E4E8F9"/>
<path d="M238.54 355.816C237.181 356.153 236.325 357.52 236.672 358.917C237.019 360.315 238.415 361.122 239.773 360.785C241.132 360.448 241.988 359.081 241.641 357.683C241.294 356.286 239.898 355.478 238.54 355.816Z" fill="#E4E8F9"/>
<path d="M221.491 359.152C220.104 359.341 219.106 360.608 219.302 362.035C219.497 363.462 220.798 364.414 222.185 364.225C223.572 364.035 224.569 362.768 224.374 361.341C224.179 359.915 222.878 358.962 221.491 359.152Z" fill="#E4E8F9"/>
<path d="M204.183 360.64C202.784 360.68 201.656 361.832 201.697 363.272C201.738 364.711 202.929 365.798 204.329 365.758C205.728 365.718 206.856 364.566 206.815 363.126C206.774 361.687 205.583 360.6 204.183 360.64Z" fill="#E4E8F9"/>
<path d="M186.816 360.263C185.42 360.153 184.175 361.178 184.062 362.613C183.948 364.049 185.016 365.257 186.412 365.367C187.807 365.478 189.052 364.453 189.166 363.017C189.279 361.582 188.211 360.374 186.816 360.263Z" fill="#E4E8F9"/>
<path d="M169.588 358.026C168.212 357.767 166.865 358.652 166.598 360.067C166.331 361.482 167.263 362.798 168.639 363.057C170.014 363.317 171.362 362.431 171.629 361.016C171.896 359.601 170.964 358.286 169.588 358.026Z" fill="#E4E8F9"/>
<path d="M152.701 353.954C151.361 353.549 149.926 354.285 149.509 355.663C149.092 357.041 149.877 358.449 151.217 358.855C152.557 359.26 153.992 358.524 154.409 357.146C154.826 355.768 154.041 354.36 152.701 353.954Z" fill="#E4E8F9"/>
<path d="M136.346 348.095C135.057 347.548 133.552 348.125 132.989 349.451C132.427 350.777 133.057 352.261 134.346 352.808C135.635 353.355 137.14 352.777 137.703 351.451C138.265 350.126 137.635 348.642 136.346 348.095Z" fill="#E4E8F9"/>
<path d="M120.715 340.514C119.492 339.832 117.934 340.245 117.232 341.503C116.531 342.76 116.998 344.304 118.221 344.986C119.443 345.668 121.002 345.255 121.703 343.997C122.405 342.74 121.938 341.196 120.715 340.514Z" fill="#E4E8F9"/>
<path d="M105.987 331.303C104.845 330.493 103.251 330.737 102.418 331.912C101.586 333.087 101.885 334.671 103.028 335.481C104.17 336.29 105.764 336.046 106.596 334.871C107.429 333.696 107.13 332.112 105.987 331.303Z" fill="#E4E8F9"/>
<path d="M92.333 320.563C91.2839 319.636 89.673 319.707 88.7194 320.786C87.7659 321.865 87.8934 323.473 88.9424 324.4C89.9915 325.327 91.6024 325.256 92.5559 324.177C93.5095 323.098 93.382 321.49 92.333 320.563Z" fill="#E4E8F9"/>
<path d="M79.9082 308.422C78.9646 307.388 77.3554 307.285 76.2916 308.256C75.2278 309.227 75.1822 310.838 76.1257 311.873C77.0693 312.907 78.6785 313.009 79.7423 312.038C80.8061 311.068 80.8517 309.456 79.9082 308.422Z" fill="#E4E8F9"/>
<path d="M68.8576 295.018C68.0304 293.888 66.4415 293.614 65.2797 294.465C64.1179 295.316 63.8997 296.913 64.7269 298.043C65.5541 299.172 67.1431 299.446 68.3048 298.595C69.4666 297.745 69.6848 296.147 68.8576 295.018Z" fill="#E4E8F9"/>
<path d="M59.3089 280.506C58.6076 279.294 57.0572 278.851 55.8109 279.572C54.5646 280.294 54.1763 281.859 54.8775 283.07C55.5788 284.282 57.1292 284.725 58.3755 284.004C59.6219 283.282 60.0102 281.717 59.3089 280.506Z" fill="#E4E8F9"/>
<path d="M51.3715 265.053C50.8042 263.773 49.3103 263.167 47.9938 263.75C46.6773 264.334 46.1234 265.848 46.6906 267.128C47.2579 268.408 48.7519 269.014 50.0684 268.431C51.3849 267.847 51.9388 266.333 51.3715 265.053Z" fill="#E4E8F9"/>
<path d="M45.1365 248.838C44.7098 247.505 43.2895 246.742 41.918 247.181C40.5465 247.619 39.8334 249.066 40.2601 250.399C40.6869 251.732 42.1071 252.496 43.4786 252.057C44.8501 251.618 45.5632 250.172 45.1365 248.838Z" fill="#E4E8F9"/>
<path d="M40.6776 232.049C40.3964 230.677 39.0662 229.766 37.6555 230.055C36.2449 230.345 35.3808 231.706 35.662 233.078C35.9433 234.449 37.2735 235.36 38.6841 235.071C40.0948 234.782 40.9589 233.42 40.6776 232.049Z" fill="#E4E8F9"/>
<path d="M38.0448 214.878C37.9123 213.484 36.6875 212.435 35.254 212.572C33.8204 212.708 32.8153 213.969 32.9478 215.363C33.0804 216.756 34.3052 217.805 35.7387 217.669C37.1722 217.532 38.1774 216.272 38.0448 214.878Z" fill="#E4E8F9"/>
<path d="M37.2683 197.523C37.286 196.123 36.1808 194.949 34.7409 194.931C33.301 194.913 32.1664 196.058 32.1487 197.458C32.131 198.858 33.2363 200.032 34.6762 200.051C36.1161 200.069 37.2506 198.923 37.2683 197.523Z" fill="#E4E8F9"/>
<path d="M38.3578 180.185C38.5255 178.795 37.5526 177.51 36.1229 177.337C34.6933 177.164 33.4424 178.182 33.2747 179.572C33.1069 180.962 34.0799 182.248 35.5095 182.42C36.9391 182.593 38.19 181.575 38.3578 180.185Z" fill="#E4E8F9"/>
<path d="M41.3005 163.065C41.6163 161.701 40.7869 160.318 39.384 159.993C37.9811 159.669 36.6283 160.546 36.3125 161.91C35.9966 163.274 36.8261 164.657 38.2289 164.981C39.6318 165.306 40.9846 164.429 41.3005 163.065Z" fill="#E4E8F9"/>
<path d="M46.0633 146.358C46.5236 145.036 45.8473 143.572 44.4874 143.099C43.1274 142.625 41.6883 143.353 41.228 144.675C40.7677 145.997 41.444 147.461 42.804 147.934C44.1639 148.408 45.603 147.68 46.0633 146.358Z" fill="#E4E8F9"/>
<path d="M52.589 130.259C53.1884 128.994 52.673 127.466 51.3717 126.85C50.0703 126.233 48.5615 126.802 47.9621 128.067C47.3626 129.332 47.8781 130.86 49.1794 131.477C50.4807 132.093 51.9895 131.524 52.589 130.259Z" fill="#E4E8F9"/>
<path d="M60.8044 114.953C61.5361 113.759 61.1875 112.185 59.9598 111.432C58.7321 110.68 57.171 111.083 56.4393 112.277C55.7076 113.471 56.0562 115.045 57.2839 115.797C58.5116 116.55 60.0727 116.146 60.8044 114.953Z" fill="#E4E8F9"/>
<path d="M70.6151 100.616C71.4705 99.5074 71.2928 97.9048 70.1529 97.0249C69.013 96.145 67.4176 96.3788 66.5621 97.487C65.7067 98.5953 65.8844 100.198 67.0243 101.078C68.1642 101.958 69.7596 101.724 70.6151 100.616Z" fill="#E4E8F9"/>
<path d="M81.9056 87.4134C82.875 86.4034 82.8702 84.7909 81.8313 83.7938C80.7923 82.7967 79.181 82.8581 78.2116 83.8682C77.2422 84.8783 77.2471 86.4907 78.286 87.4878C79.3249 88.4849 80.9362 88.4235 81.9056 87.4134Z" fill="#E4E8F9"/>
<path d="M94.5476 75.4981C95.6197 74.5978 95.7878 72.9941 94.8618 71.8914C93.9358 70.7886 92.3273 70.6768 91.2551 71.5771C90.183 72.4774 90.0148 74.081 90.9408 75.1838C91.8668 76.2866 93.4754 76.3984 94.5476 75.4981Z" fill="#E4E8F9"/>
<path d="M108.394 65.0079C109.557 64.2278 109.896 62.6514 109.093 61.4556C108.291 60.2599 106.704 59.9763 105.541 60.7564C104.379 61.5365 104.039 63.1128 104.842 64.3086C105.644 65.5043 107.231 65.7879 108.394 65.0079Z" fill="#E4E8F9"/>
<path d="M123.286 56.063C124.526 55.4121 125.032 53.8812 124.362 52.6063C123.693 51.3314 122.145 50.8791 120.906 51.53C119.666 52.181 119.16 53.7119 119.829 54.9868C120.499 56.2617 122.047 56.7139 123.286 56.063Z" fill="#E4E8F9"/>
<path d="M139.051 48.7665C140.353 48.2523 141.021 46.7845 140.492 45.4451C139.963 44.1058 138.473 43.4901 137.17 44.0044C135.868 44.5186 135.201 45.9864 135.73 47.3257C136.259 48.6651 137.749 49.2807 139.051 48.7665Z" fill="#E4E8F9"/>
<path d="M155.508 43.2036C156.858 42.832 157.679 41.4443 157.297 40.0559C156.914 38.6676 155.499 37.8957 154.149 38.2673C152.799 38.6389 151.978 40.0266 152.36 41.4149C152.742 42.8033 154.158 43.5752 155.508 43.2036Z" fill="#E4E8F9"/>
<path d="M172.467 39.4379C173.849 39.2132 174.814 37.9215 174.583 36.5002C174.352 35.0789 173.027 34.1595 171.645 34.3842C170.263 34.6089 169.298 35.9006 169.529 37.3219C169.76 38.7432 171.085 39.6625 172.467 39.4379Z" fill="#E4E8F9"/>
<path d="M189.732 37.5119C191.13 37.4367 192.228 36.256 192.151 34.8181C192.074 33.3802 190.855 32.3241 189.457 32.3993C188.059 32.4745 186.961 33.6551 187.038 35.0931C187.116 36.531 188.334 37.5871 189.732 37.5119Z" fill="#E4E8F9"/>
<path d="M207.104 37.4497C208.502 37.5249 209.72 36.4688 209.798 35.0309C209.875 33.5929 208.777 32.4123 207.379 32.3371C205.981 32.2619 204.762 33.318 204.685 34.7559C204.608 36.1938 205.706 37.3745 207.104 37.4497Z" fill="#E4E8F9"/>
<path d="M224.382 39.2502C225.764 39.4748 227.088 38.5555 227.319 37.1342C227.551 35.7129 226.585 34.4212 225.203 34.1965C223.822 33.9718 222.497 34.8911 222.266 36.3125C222.035 37.7338 223 39.0255 224.382 39.2502Z" fill="#E4E8F9"/>
<path d="M241.368 42.8942C242.717 43.2658 244.133 42.4938 244.515 41.1055C244.897 39.7171 244.076 38.3294 242.726 37.9578C241.377 37.5862 239.961 38.3582 239.579 39.7465C239.197 41.1349 240.018 42.5226 241.368 42.8942Z" fill="#E4E8F9"/>
<path d="M257.863 48.3384C259.166 48.8526 260.656 48.2369 261.185 46.8976C261.714 45.5582 261.046 44.0905 259.744 43.5762C258.442 43.062 256.952 43.6777 256.423 45.017C255.894 46.3564 256.561 47.8241 257.863 48.3384Z" fill="#E4E8F9"/>
<path d="M273.682 55.5204C274.921 56.1713 276.469 55.7191 277.139 54.4442C277.808 53.1693 277.302 51.6383 276.062 50.9874C274.823 50.3365 273.275 50.7888 272.606 52.0637C271.936 53.3386 272.443 54.8695 273.682 55.5204Z" fill="#E4E8F9"/>
<path d="M288.638 64.3577C289.8 65.1377 291.387 64.8541 292.19 63.6584C292.992 62.4626 292.653 60.8863 291.491 60.1062C290.328 59.3261 288.741 59.6097 287.938 60.8054C287.136 62.0012 287.475 63.5776 288.638 64.3577Z" fill="#E4E8F9"/>
<path d="M302.56 74.7484C303.632 75.6486 305.24 75.5369 306.166 74.4341C307.092 73.3313 306.924 71.7276 305.852 70.8274C304.78 69.9271 303.171 70.0389 302.245 71.1416C301.319 72.2444 301.487 73.8481 302.56 74.7484Z" fill="#E4E8F9"/>
<path d="M315.287 86.572C316.256 87.5821 317.868 87.6435 318.906 86.6464C319.945 85.6493 319.95 84.0368 318.981 83.0268C318.011 82.0167 316.4 81.9553 315.361 82.9524C314.322 83.9495 314.317 85.5619 315.287 86.572Z" fill="#E4E8F9"/>
<path d="M326.672 99.6922C327.528 100.8 329.123 101.034 330.263 100.154C331.403 99.2744 331.581 97.6718 330.725 96.5636C329.87 95.4554 328.274 95.2215 327.134 96.1014C325.994 96.9814 325.817 98.584 326.672 99.6922Z" fill="#E4E8F9"/>
<path d="M336.585 113.958C337.317 115.152 338.878 115.555 340.106 114.803C341.333 114.05 341.682 112.476 340.95 111.282C340.218 110.089 338.657 109.685 337.43 110.438C336.202 111.19 335.853 112.765 336.585 113.958Z" fill="#E4E8F9"/>
<path d="M344.911 129.205C345.51 130.47 347.019 131.039 348.32 130.422C349.622 129.806 350.137 128.278 349.538 127.013C348.938 125.748 347.429 125.179 346.128 125.795C344.827 126.412 344.311 127.94 344.911 129.205Z" fill="#E4E8F9"/>
<path d="M351.554 145.257C352.014 146.579 353.453 147.306 354.813 146.833C356.173 146.36 356.849 144.896 356.389 143.574C355.929 142.251 354.49 141.524 353.13 141.998C351.77 142.471 351.093 143.935 351.554 145.257Z" fill="#E4E8F9"/>
<path d="M356.436 161.928C356.752 163.292 358.104 164.17 359.507 163.845C360.91 163.52 361.74 162.137 361.424 160.773C361.108 159.409 359.755 158.532 358.352 158.857C356.949 159.182 356.12 160.564 356.436 161.928Z" fill="#E4E8F9"/>
<path d="M359.503 179.027C359.67 180.417 360.921 181.434 362.351 181.262C363.78 181.089 364.753 179.804 364.586 178.414C364.418 177.024 363.167 176.006 361.737 176.179C360.308 176.351 359.335 177.637 359.503 179.027Z" fill="#E4E8F9"/>
<path d="M360.717 196.357C360.735 197.757 361.869 198.902 363.309 198.884C364.749 198.866 365.854 197.692 365.837 196.292C365.819 194.892 364.684 193.746 363.244 193.764C361.805 193.783 360.699 194.957 360.717 196.357Z" fill="#E4E8F9"/>
<path d="M360.066 213.716C359.933 215.11 360.939 216.371 362.372 216.507C363.806 216.643 365.03 215.595 365.163 214.201C365.295 212.807 364.29 211.546 362.857 211.41C361.423 211.274 360.198 212.323 360.066 213.716Z" fill="#E4E8F9"/>
<path d="M357.557 230.906C357.276 232.278 358.14 233.639 359.551 233.928C360.961 234.217 362.292 233.306 362.573 231.935C362.854 230.563 361.99 229.202 360.579 228.913C359.169 228.623 357.838 229.535 357.557 230.906Z" fill="#E4E8F9"/>
<path d="M353.218 247.727C352.792 249.061 353.505 250.507 354.876 250.946C356.248 251.385 357.668 250.621 358.095 249.288C358.521 247.954 357.808 246.508 356.437 246.069C355.065 245.63 353.645 246.394 353.218 247.727Z" fill="#E4E8F9"/>
<path d="M347.102 263.987C346.535 265.267 347.088 266.781 348.405 267.364C349.721 267.948 351.215 267.341 351.783 266.061C352.35 264.781 351.796 263.267 350.48 262.684C349.163 262.1 347.669 262.707 347.102 263.987Z" fill="#E4E8F9"/>
<path d="M339.275 279.496C338.574 280.708 338.962 282.273 340.209 282.994C341.455 283.715 343.005 283.272 343.707 282.061C344.408 280.849 344.02 279.284 342.773 278.563C341.527 277.841 339.976 278.284 339.275 279.496Z" fill="#E4E8F9"/>
<path d="M329.831 294.077C329.004 295.206 329.222 296.804 330.384 297.654C331.546 298.505 333.135 298.231 333.962 297.102C334.789 295.972 334.571 294.375 333.409 293.524C332.247 292.673 330.658 292.947 329.831 294.077Z" fill="#E4E8F9"/>
<path d="M318.878 307.56C317.935 308.594 317.98 310.206 319.044 311.176C320.108 312.147 321.717 312.045 322.661 311.01C323.604 309.976 323.559 308.364 322.495 307.394C321.431 306.423 319.822 306.525 318.878 307.56Z" fill="#E4E8F9"/>
<path d="M306.542 319.791C305.493 320.718 305.365 322.325 306.319 323.404C307.273 324.483 308.883 324.555 309.932 323.627C310.981 322.7 311.109 321.093 310.155 320.014C309.202 318.935 307.591 318.864 306.542 319.791Z" fill="#E4E8F9"/>
<path d="M292.964 330.628C291.822 331.437 291.523 333.022 292.355 334.197C293.188 335.372 294.781 335.615 295.924 334.806C297.066 333.997 297.366 332.412 296.533 331.237C295.701 330.062 294.107 329.819 292.964 330.628Z" fill="#E4E8F9"/>
<circle cx="200" cy="198" r="76" fill="url(#paint0_linear_6902_3527)"/>
<circle cx="200" cy="198" r="85" fill="url(#paint1_linear_6902_3527)" fill-opacity="0.4"/>
<circle cx="77" cy="79" r="46" fill="#EFF1FB"/>
<circle cx="266" cy="48" r="46" fill="#EFF1FB"/>
<circle cx="315" cy="317" r="46" fill="#EFF1FB"/>
<circle cx="363.5" cy="184.5" r="28.5" fill="#EFF1FB"/>
<circle cx="79" cy="313" r="46" fill="#EFF1FB"/>
<circle cx="77" cy="79" r="27" fill="#E4E8F9"/>
<circle cx="266" cy="48" r="32" fill="#E4E8F9"/>
<circle cx="315" cy="317" r="34" fill="#E4E8F9"/>
<circle cx="363.5" cy="184.5" r="20.5" fill="#E4E8F9"/>
<circle cx="79" cy="313" r="35" fill="#E4E8F9"/>
<path d="M199.033 187.479C206.644 187.479 212.814 179.984 212.814 170.74C212.814 161.494 210.789 154 199.033 154C187.277 154 185.251 161.494 185.251 170.74C185.251 179.984 191.421 187.479 199.033 187.479Z" fill="white" fill-opacity="0.64"/>
<path d="M173.003 213.038C173 212.474 172.998 212.879 173.003 213.038V213.038Z" fill="white" fill-opacity="0.64"/>
<path d="M225.062 213.478C225.07 213.324 225.065 212.408 225.062 213.478V213.478Z" fill="white" fill-opacity="0.64"/>
<path d="M225.034 212.362C224.779 196.257 222.675 191.668 206.58 188.763C206.58 188.763 204.314 191.65 199.034 191.65C193.753 191.65 191.487 188.763 191.487 188.763C175.567 191.637 173.336 196.158 173.042 211.839C173.018 213.119 173.007 213.187 173.003 213.038C173.004 213.317 173.005 213.832 173.005 214.73C173.005 214.73 176.837 222.455 199.034 222.455C221.23 222.455 225.062 214.73 225.062 214.73C225.062 214.153 225.062 213.752 225.063 213.479C225.059 213.57 225.05 213.392 225.034 212.362Z" fill="white" fill-opacity="0.64"/>
<path d="M170.5 191.077C176.201 191.077 180.823 185.463 180.823 178.538C180.823 171.613 179.305 166 170.5 166C161.695 166 160.177 171.613 160.177 178.538C160.177 185.463 164.799 191.077 170.5 191.077Z" fill="white" fill-opacity="0.64"/>
<path d="M151.002 210.221C151 209.799 150.999 210.102 151.002 210.221V210.221Z" fill="white" fill-opacity="0.64"/>
<path d="M189.997 210.551C190.003 210.436 189.999 209.749 189.997 210.551V210.551Z" fill="white" fill-opacity="0.64"/>
<path d="M189.975 209.715C189.784 197.652 188.208 194.215 176.152 192.039C176.152 192.039 174.455 194.202 170.5 194.202C166.544 194.202 164.847 192.039 164.847 192.039C152.923 194.191 151.251 197.578 151.032 209.324C151.014 210.283 151.005 210.333 151.002 210.222C151.003 210.43 151.004 210.816 151.004 211.489C151.004 211.489 153.874 217.275 170.5 217.275C187.126 217.275 189.996 211.489 189.996 211.489C189.996 211.057 189.997 210.756 189.997 210.552C189.994 210.621 189.987 210.487 189.975 209.715Z" fill="white" fill-opacity="0.64"/>
<path d="M215.297 199.383C224.02 199.383 231.092 190.793 231.092 180.198C231.092 169.602 228.77 161.013 215.297 161.013C201.824 161.013 199.502 169.602 199.502 180.198C199.502 190.793 206.574 199.383 215.297 199.383Z" fill="white" fill-opacity="0.8"/>
<path d="M185.464 228.675C185.461 228.029 185.459 228.493 185.464 228.675V228.675Z" fill="white" fill-opacity="0.8"/>
<path d="M245.129 229.18C245.137 229.003 245.132 227.953 245.129 229.18V229.18Z" fill="white" fill-opacity="0.8"/>
<path d="M245.096 227.901C244.803 209.443 242.392 204.184 223.946 200.855C223.946 200.855 221.349 204.164 215.297 204.164C209.245 204.164 206.648 200.855 206.648 200.855C188.403 204.148 185.845 209.329 185.509 227.301C185.482 228.769 185.469 228.846 185.464 228.675C185.465 228.995 185.466 229.585 185.466 230.615C185.466 230.615 189.858 239.468 215.297 239.468C240.736 239.468 245.128 230.615 245.128 230.615C245.128 229.953 245.128 229.493 245.129 229.18C245.124 229.286 245.114 229.081 245.096 227.901Z" fill="white" fill-opacity="0.8"/>
<path d="M78.829 295C70.6521 295 64 301.33 64 309.111C64 320.313 77.2379 331.567 77.8017 332.041C78.0966 332.287 78.4628 332.411 78.829 332.411C79.2097 332.411 79.5904 332.278 79.8873 332.013C80.4491 331.513 93.658 319.64 93.658 309.112C93.658 301.331 87.0039 295 78.829 295ZM78.829 315.84C74.9236 315.84 71.759 312.826 71.759 309.113C71.759 305.399 74.9236 302.386 78.829 302.386C82.7323 302.386 85.897 305.398 85.897 309.113C85.897 312.827 82.7323 315.84 78.829 315.84Z" fill="white"/>
<path d="M115.882 117.412C116.911 118.376 118.512 118.375 119.473 117.349C120.434 116.322 120.328 114.725 119.299 113.762C118.27 112.798 116.67 112.798 115.708 113.825C114.747 114.852 114.853 116.449 115.882 117.412Z" fill="#E4E8F9"/>
<path d="M124.182 125.182C125.211 126.145 126.811 126.145 127.772 125.118C128.733 124.092 128.628 122.495 127.599 121.531C126.569 120.568 124.969 120.568 124.008 121.595C123.047 122.621 123.152 124.218 124.182 125.182Z" fill="#E4E8F9"/>
<path d="M132.481 132.951C133.51 133.915 135.111 133.915 136.072 132.888C137.033 131.861 136.927 130.265 135.898 129.301C134.869 128.337 133.269 128.338 132.308 129.364C131.347 130.391 131.452 131.988 132.481 132.951Z" fill="#E4E8F9"/>
<path d="M256.742 267.279C257.695 268.318 259.29 268.44 260.327 267.49C261.364 266.54 261.38 264.94 260.428 263.9C259.475 262.861 257.879 262.739 256.843 263.689C255.806 264.64 255.789 266.24 256.742 267.279Z" fill="#E4E8F9"/>
<path d="M264.424 275.659C265.377 276.699 266.973 276.821 268.009 275.87C269.046 274.92 269.063 273.32 268.11 272.281C267.157 271.241 265.562 271.119 264.525 272.07C263.489 273.02 263.472 274.62 264.424 275.659Z" fill="#E4E8F9"/>
<path d="M272.107 284.04C273.06 285.079 274.655 285.201 275.692 284.251C276.728 283.3 276.745 281.7 275.793 280.661C274.84 279.622 273.244 279.5 272.208 280.45C271.171 281.4 271.154 283 272.107 284.04Z" fill="#E4E8F9"/>
<path d="M118.348 277.351C119.351 276.36 119.413 274.761 118.425 273.761C117.436 272.76 115.836 272.804 114.834 273.795C113.831 274.786 113.769 276.385 114.757 277.385C115.746 278.385 117.346 278.342 118.348 277.351Z" fill="#E4E8F9"/>
<path d="M126.435 269.36C127.437 268.369 127.499 266.77 126.511 265.769C125.522 264.769 123.923 264.812 122.92 265.803C121.917 266.794 121.855 268.393 122.844 269.394C123.832 270.394 125.432 270.351 126.435 269.36Z" fill="#E4E8F9"/>
<path d="M134.521 261.368C135.524 260.377 135.586 258.778 134.597 257.778C133.609 256.778 132.009 256.821 131.006 257.812C130.003 258.803 129.941 260.402 130.93 261.402C131.918 262.403 133.518 262.359 134.521 261.368Z" fill="#E4E8F9"/>
<path d="M237.618 116.133C238.197 114.848 237.68 113.334 236.399 112.756C235.117 112.177 233.639 112.793 233.06 114.078C232.48 115.363 232.997 116.878 234.279 117.456C235.561 118.034 237.038 117.419 237.618 116.133Z" fill="#E4E8F9"/>
<path d="M242.291 105.77C242.871 104.484 242.354 102.97 241.072 102.392C239.79 101.814 238.313 102.429 237.733 103.714C237.153 104.999 237.67 106.514 238.952 107.092C240.234 107.67 241.712 107.055 242.291 105.77Z" fill="#E4E8F9"/>
<path d="M246.964 95.4057C247.544 94.1204 247.027 92.6059 245.745 92.0278C244.463 91.4497 242.986 92.0651 242.406 93.3503C241.827 94.6356 242.344 96.1501 243.626 96.7282C244.908 97.3062 246.385 96.6909 246.964 95.4057Z" fill="#E4E8F9"/>
<path d="M303.578 189C304.988 189 306.156 187.906 306.156 186.5C306.156 185.094 304.988 184 303.578 184C302.168 184 301 185.094 301 186.5C301 187.906 302.168 189 303.578 189Z" fill="#E4E8F9"/>
<path d="M314.947 189C316.357 189 317.525 187.906 317.525 186.5C317.525 185.094 316.357 184 314.947 184C313.537 184 312.369 185.094 312.369 186.5C312.369 187.906 313.537 189 314.947 189Z" fill="#E4E8F9"/>
<path d="M326.316 189C327.725 189 328.894 187.906 328.894 186.5C328.894 185.094 327.725 184 326.316 184C324.906 184 323.738 185.094 323.738 186.5C323.738 187.906 324.906 189 326.316 189Z" fill="#E4E8F9"/>
<path d="M292.578 189C293.988 189 295.156 187.906 295.156 186.5C295.156 185.094 293.988 184 292.578 184C291.168 184 290 185.094 290 186.5C290 187.906 291.168 189 292.578 189Z" fill="#E4E8F9"/>
<path d="M300.507 303H330.233C331.618 303 332.74 304.123 332.74 305.507V310.087H298V305.507C298 304.123 299.122 303 300.507 303ZM328.392 307.624C328.993 307.624 329.481 307.137 329.481 306.536C329.481 305.934 328.993 305.447 328.392 305.447C327.791 305.447 327.303 305.934 327.303 306.536C327.303 307.137 327.791 307.624 328.392 307.624ZM323.965 307.624C324.566 307.624 325.054 307.137 325.054 306.536C325.054 305.934 324.567 305.447 323.965 305.447C323.364 305.447 322.877 305.934 322.877 306.536C322.877 307.137 323.364 307.624 323.965 307.624ZM319.338 307.624C319.939 307.624 320.427 307.137 320.427 306.536C320.427 305.934 319.939 305.447 319.338 305.447C318.737 305.447 318.249 305.934 318.249 306.536C318.249 307.137 318.737 307.624 319.338 307.624Z" fill="white"/>
<path d="M332.74 312.25V329.739C332.74 331.124 331.618 332.246 330.233 332.246H300.507C299.122 332.246 298 331.124 298 329.739V312.25H332.74ZM321.291 320.324L322.706 324.442C322.854 324.873 323.256 325.164 323.71 325.172C323.717 325.172 323.723 325.172 323.729 325.172C324.177 325.172 324.579 324.897 324.739 324.477L325.251 323.141L325.698 324.442C325.846 324.873 326.247 325.164 326.702 325.172C326.708 325.172 326.715 325.172 326.721 325.172C327.168 325.172 327.571 324.897 327.731 324.477L329.307 320.359C329.521 319.801 329.241 319.176 328.684 318.962C328.126 318.749 327.5 319.028 327.287 319.586L326.775 320.923L326.328 319.621C326.107 318.837 324.759 318.503 324.295 319.586L323.784 320.923L323.336 319.621C323.142 319.056 322.527 318.756 321.962 318.95C321.397 319.144 321.096 319.759 321.291 320.324ZM311.355 320.324L312.771 324.442C312.919 324.873 313.32 325.164 313.775 325.172C313.782 325.172 313.788 325.172 313.794 325.172C314.241 325.172 314.644 324.897 314.804 324.477L315.316 323.141L315.763 324.442C315.911 324.873 316.312 325.164 316.767 325.172C316.773 325.172 316.78 325.172 316.786 325.172C317.233 325.172 317.635 324.897 317.796 324.477L319.372 320.359C319.585 319.801 319.306 319.176 318.749 318.962C318.191 318.749 317.565 319.028 317.352 319.586L316.84 320.923L316.393 319.621C316.145 318.783 314.761 318.581 314.36 319.586L313.849 320.923L313.401 319.621C313.207 319.056 312.592 318.756 312.027 318.95C311.462 319.144 311.161 319.759 311.355 320.324ZM301.42 320.324L302.836 324.442C302.984 324.873 303.385 325.164 303.84 325.172C303.846 325.172 303.853 325.172 303.859 325.172C304.306 325.172 304.708 324.897 304.869 324.477L305.38 323.141L305.828 324.442C305.976 324.873 306.377 325.164 306.832 325.172C306.838 325.172 306.844 325.172 306.851 325.172C307.298 325.172 307.7 324.897 307.861 324.477L309.437 320.359C309.65 319.801 309.371 319.176 308.813 318.962C308.255 318.749 307.63 319.028 307.417 319.586L306.905 320.923L306.458 319.621C306.212 318.815 304.877 318.517 304.425 319.586L303.913 320.923L303.466 319.621C303.272 319.056 302.656 318.756 302.092 318.95C301.527 319.144 301.226 319.759 301.42 320.324Z" fill="white"/>
<path d="M267.379 33.7329C267.764 33.2227 267.702 32.1407 267.647 31.1861C267.645 31.145 267.643 31.1047 267.64 31.0639C267.101 31.0124 266.555 30.9839 266.002 30.9839C263.884 30.9839 261.857 31.3741 259.986 32.0815C261.321 32.7227 263.386 33.8265 265.682 35.4573C266.465 34.7832 267.056 34.1608 267.379 33.7329Z" fill="white"/>
<path d="M276.001 43.4428C275.162 43.5375 274.455 43.6752 273.85 43.8682C276.741 48.9171 277.869 55.2957 278.145 59.9168C281.01 56.9978 282.829 53.0518 283.001 48.6809C281.027 46.2545 278.412 43.1692 276.001 43.4428Z" fill="white"/>
<path d="M258.809 39.0844C260.841 38.6616 262.75 37.639 264.272 36.5595C261.097 34.3727 258.449 33.2378 257.922 33.0217C254.628 34.8025 251.992 37.6398 250.458 41.0776C252.451 40.2834 254.61 39.8793 256.73 39.4857C257.416 39.3583 258.125 39.2266 258.809 39.0844Z" fill="white"/>
<path d="M270.57 39.5788C270.752 39.761 270.933 39.9464 271.112 40.1353C271.775 40.8311 272.376 41.5922 272.928 42.3974C273.731 42.0941 274.677 41.8791 275.809 41.7511C278.475 41.4495 280.847 43.562 282.882 45.8878C282.446 42.362 280.933 39.1709 278.68 36.6543C277.45 36.8025 276.079 37.0536 274.682 37.4706C273.765 37.7445 272.305 38.4884 270.57 39.5788Z" fill="white"/>
<path d="M268.332 48.3666C269.029 46.0027 269.838 44.2986 271.404 43.1926C270.934 42.5177 270.428 41.8844 269.88 41.3091C269.627 41.0429 269.37 40.7858 269.113 40.5332C262.829 44.8105 254.221 52.6677 253.438 59.4754C256.051 62.334 259.627 64.2945 263.652 64.8507C265.118 61.9326 266.497 56.0005 267.317 52.4725C267.711 50.7779 268.051 49.3147 268.332 48.3666Z" fill="white"/>
<path d="M261.207 44.6186C263.398 42.5996 265.711 40.7891 267.828 39.334C267.122 38.7099 266.415 38.1346 265.72 37.6069C263.962 38.9283 261.661 40.2297 259.156 40.7508C258.454 40.8967 257.736 41.0302 257.041 41.1591C254.365 41.6561 251.796 42.1373 249.636 43.3426C249.215 44.8235 248.985 46.3848 248.985 48.0005C248.985 51.6148 250.116 54.9637 252.037 57.7195C253.282 52.7907 257.552 47.9861 261.207 44.6186Z" fill="white"/>
<path d="M269.294 38.3619C271.318 37.0713 273.063 36.1789 274.196 35.8409C275.213 35.5372 276.21 35.3161 277.155 35.1547C274.972 33.258 272.304 31.9061 269.358 31.3169C269.424 32.5053 269.452 33.81 268.737 34.7579C268.398 35.2081 267.823 35.8254 267.075 36.4952C267.807 37.0652 268.552 37.6868 269.294 38.3619Z" fill="white"/>
<path d="M269.963 48.8487C269.697 49.7487 269.362 51.1896 268.975 52.8579C267.83 57.7837 266.734 62.1914 265.455 65.0022C265.637 65.008 265.818 65.0161 266.001 65.0161C269.967 65.0161 273.613 63.6558 276.506 61.3816C276.391 56.5458 275.232 49.7059 272.312 44.6284C271.179 45.4702 270.57 46.7944 269.963 48.8487Z" fill="white"/>
<path d="M92.813 74.007C92.6565 73.8161 92.423 73.7046 92.178 73.7046H89.064C88.2956 71.6778 87.2944 69.6919 86.1565 68.9423C82.2199 66.3526 71.7784 66.3526 67.8418 68.9423C66.703 69.6927 65.706 71.6811 64.9334 73.7046H61.8194C61.572 73.7046 61.3393 73.8161 61.1845 74.007C61.0288 74.197 60.9666 74.4485 61.0173 74.6902L61.4786 76.9252C61.5572 77.3061 61.8931 77.5781 62.2806 77.5781H63.2031C62.3126 78.6055 61.8808 79.8991 61.8751 81.1935C61.8694 82.7927 62.4765 84.2379 63.5866 85.2604C63.5988 85.271 63.6111 85.2784 63.6226 85.289V88.4162C63.6226 89.0937 64.1731 89.6451 64.8515 89.6451H67.7238C68.4022 89.6451 68.9527 89.0937 68.9527 88.4162V87.1594H85.0439V88.4162C85.0439 89.0937 85.5944 89.6451 86.2728 89.6451H89.1451C89.8218 89.6451 90.374 89.0937 90.374 88.4162V85.3505C91.5521 84.2715 92.115 82.787 92.1223 81.305C92.1272 79.9663 91.6758 78.6251 90.7329 77.5765H91.7168C92.1059 77.5765 92.4418 77.3045 92.5189 76.9227L92.9809 74.6886C93.0284 74.4485 92.9686 74.1987 92.813 74.007ZM69.1911 70.9945C72.3289 68.9292 81.6677 68.9292 84.8039 70.9945C85.4134 71.3943 86.1974 73.0107 86.9159 74.9901H67.0807C67.7976 73.0116 68.5816 71.396 69.1911 70.9945ZM65.5159 81.5016C65.5159 80.1662 66.599 79.0848 67.9336 79.0848C69.2698 79.0848 70.3512 80.1662 70.3512 81.5016C70.3512 82.837 69.2698 83.9192 67.9336 83.9192C66.599 83.9192 65.5159 82.837 65.5159 81.5016ZM86.095 83.9192C84.7604 83.9192 83.6774 82.837 83.6774 81.5016C83.6774 80.1662 84.7604 79.0848 86.095 79.0848C87.4312 79.0848 88.5127 80.1662 88.5127 81.5016C88.5127 82.837 87.4296 83.9192 86.095 83.9192Z" fill="white"/>
<path d="M364.613 188.776C364.443 188.745 364.282 188.675 364.143 188.572C364.004 188.47 363.891 188.336 363.812 188.182C363.714 187.994 363.67 187.782 363.685 187.569C363.7 187.357 363.774 187.154 363.898 186.981L365.985 184.116L363.455 180.639C363.441 180.62 363.433 180.599 363.431 180.576C363.43 180.553 363.434 180.53 363.445 180.51C363.455 180.489 363.471 180.472 363.491 180.46C363.51 180.449 363.533 180.442 363.556 180.443H364.379C364.478 180.439 364.574 180.409 364.657 180.355C364.741 180.301 364.808 180.226 364.851 180.137C364.895 180.048 364.914 179.949 364.906 179.85C364.897 179.752 364.863 179.657 364.805 179.576L361.284 174.409C361.272 174.391 361.265 174.369 361.263 174.346C361.262 174.324 361.267 174.301 361.278 174.282C361.288 174.262 361.304 174.245 361.323 174.233C361.343 174.222 361.365 174.216 361.387 174.215H362.1C362.177 174.214 362.252 174.191 362.316 174.148C362.38 174.106 362.43 174.046 362.461 173.976C362.492 173.905 362.502 173.828 362.49 173.752C362.479 173.676 362.445 173.605 362.395 173.548L359.195 169.206C359.147 169.142 359.085 169.09 359.014 169.055C358.942 169.019 358.863 169 358.783 169C358.703 169 358.625 169.019 358.553 169.055C358.482 169.09 358.42 169.142 358.372 169.206L355.172 173.548C355.122 173.605 355.089 173.676 355.077 173.752C355.065 173.828 355.076 173.905 355.106 173.975C355.137 174.046 355.188 174.105 355.251 174.148C355.315 174.19 355.39 174.214 355.466 174.215H356.18C356.202 174.216 356.224 174.222 356.243 174.233C356.263 174.245 356.279 174.262 356.289 174.282C356.3 174.301 356.305 174.324 356.303 174.346C356.302 174.369 356.295 174.391 356.282 174.409L352.762 179.576C352.704 179.657 352.669 179.752 352.661 179.851C352.653 179.95 352.672 180.049 352.716 180.138C352.76 180.227 352.828 180.302 352.911 180.356C352.995 180.41 353.091 180.44 353.19 180.443H354.014C354.036 180.443 354.059 180.449 354.078 180.461C354.097 180.473 354.113 180.49 354.123 180.51C354.134 180.531 354.138 180.553 354.137 180.576C354.135 180.599 354.127 180.62 354.114 180.639L350.357 185.803C350.299 185.884 350.264 185.979 350.256 186.077C350.248 186.176 350.266 186.275 350.31 186.364C350.354 186.453 350.421 186.529 350.504 186.582C350.588 186.636 350.684 186.666 350.783 186.67H351.889C351.91 186.67 351.931 186.676 351.95 186.687C351.968 186.697 351.984 186.713 351.995 186.731C352.005 186.75 352.011 186.771 352.012 186.793C352.012 186.814 352.007 186.835 351.996 186.854L349.103 192.031C349.045 192.111 349.01 192.206 349.002 192.305C348.994 192.403 349.012 192.503 349.056 192.592C349.1 192.68 349.167 192.756 349.25 192.81C349.333 192.863 349.43 192.894 349.529 192.897H357.091V195.419C357.091 195.499 357.107 195.578 357.138 195.651C357.168 195.725 357.213 195.792 357.269 195.848C357.325 195.905 357.392 195.949 357.466 195.98C357.539 196.01 357.618 196.026 357.698 196.026H359.87C359.95 196.026 360.029 196.01 360.102 195.98C360.176 195.949 360.243 195.905 360.299 195.848C360.355 195.792 360.4 195.725 360.431 195.651C360.461 195.578 360.477 195.499 360.477 195.419V192.897H362.792C362.725 192.727 362.699 192.543 362.717 192.36C362.735 192.178 362.796 192.003 362.895 191.849L364.613 188.776Z" fill="white"/>
<path d="M378.501 192.225L376.26 188.218C376.252 188.204 376.248 188.187 376.248 188.17C376.248 188.153 376.252 188.137 376.261 188.122C376.269 188.107 376.281 188.095 376.296 188.087C376.311 188.079 376.328 188.074 376.344 188.075H377.199C377.275 188.072 377.35 188.048 377.414 188.007C377.478 187.965 377.53 187.907 377.564 187.838C377.598 187.77 377.613 187.693 377.607 187.617C377.601 187.54 377.574 187.467 377.53 187.405L374.621 183.408C374.61 183.394 374.604 183.377 374.603 183.359C374.601 183.341 374.605 183.323 374.613 183.308C374.621 183.292 374.633 183.278 374.648 183.269C374.663 183.26 374.681 183.255 374.699 183.255H375.336C375.413 183.252 375.488 183.229 375.552 183.187C375.617 183.146 375.669 183.087 375.703 183.018C375.737 182.95 375.751 182.873 375.745 182.796C375.739 182.72 375.712 182.646 375.667 182.584L372.941 178.582C372.931 178.568 372.926 178.551 372.925 178.534C372.923 178.516 372.927 178.499 372.935 178.483C372.944 178.468 372.956 178.455 372.971 178.446C372.986 178.437 373.003 178.432 373.021 178.432H373.573C373.632 178.432 373.69 178.414 373.74 178.381C373.79 178.348 373.829 178.302 373.853 178.247C373.877 178.193 373.885 178.132 373.876 178.074C373.867 178.015 373.841 177.96 373.802 177.915L371.324 174.554C371.287 174.504 371.239 174.464 371.183 174.436C371.128 174.408 371.067 174.393 371.005 174.393C370.943 174.393 370.881 174.408 370.826 174.436C370.771 174.464 370.723 174.504 370.686 174.554L368.208 177.915C368.168 177.96 368.142 178.015 368.133 178.074C368.124 178.132 368.132 178.193 368.156 178.247C368.18 178.302 368.22 178.348 368.269 178.381C368.319 178.414 368.377 178.432 368.437 178.432H368.989C369.006 178.432 369.023 178.437 369.038 178.446C369.053 178.455 369.066 178.468 369.074 178.483C369.082 178.499 369.086 178.516 369.085 178.534C369.084 178.551 369.078 178.568 369.068 178.582L366.342 182.582C366.297 182.645 366.27 182.718 366.264 182.795C366.257 182.872 366.272 182.949 366.306 183.018C366.34 183.087 366.392 183.145 366.457 183.187C366.521 183.229 366.596 183.252 366.673 183.255H367.311C367.328 183.255 367.346 183.259 367.361 183.269C367.376 183.278 367.389 183.291 367.397 183.307C367.405 183.323 367.408 183.341 367.407 183.358C367.405 183.376 367.399 183.393 367.388 183.407L364.479 187.404C364.435 187.467 364.408 187.54 364.402 187.616C364.396 187.693 364.411 187.769 364.445 187.838C364.479 187.907 364.531 187.965 364.595 188.006C364.66 188.048 364.734 188.071 364.811 188.074H365.665C365.682 188.074 365.698 188.078 365.713 188.087C365.728 188.095 365.74 188.107 365.749 188.122C365.757 188.136 365.762 188.153 365.762 188.17C365.762 188.186 365.757 188.203 365.749 188.218L363.508 192.225C363.464 192.288 363.437 192.361 363.431 192.438C363.425 192.514 363.44 192.591 363.474 192.659C363.508 192.728 363.559 192.786 363.624 192.828C363.688 192.869 363.763 192.893 363.839 192.896H369.694V195.513C369.694 195.649 369.748 195.779 369.844 195.875C369.94 195.971 370.07 196.025 370.206 196.025H371.804C371.939 196.025 372.07 195.971 372.166 195.875C372.262 195.779 372.316 195.649 372.316 195.513V192.897H378.17C378.247 192.894 378.322 192.871 378.386 192.829C378.451 192.787 378.503 192.729 378.537 192.66C378.571 192.591 378.585 192.514 378.579 192.438C378.573 192.361 378.546 192.288 378.501 192.225Z" fill="white"/>
<defs>
<linearGradient id="paint0_linear_6902_3527" x1="200" y1="122" x2="307.423" y2="385.077" gradientUnits="userSpaceOnUse">
<stop stop-color="#83E592"/>
<stop offset="1" stop-color="#01B7B9"/>
</linearGradient>
<linearGradient id="paint1_linear_6902_3527" x1="200" y1="113" x2="320.144" y2="407.231" gradientUnits="userSpaceOnUse">
<stop stop-color="#83E592"/>
<stop offset="1" stop-color="#01B7B9"/>
</linearGradient>
</defs>
</svg>
