<svg class="animatedDots animate" width="379" height="333" viewBox="0 0 379 333" fill="none" xmlns="http://www.w3.org/2000/svg">
    <path d="M310.069 146.484C309.99 146.484 309.95 146.484 309.871 146.484C306.821 98.2721 266.73 60.1226 217.765 60.1226C172.564 60.1226 134.969 92.6071 127.007 135.471C125.976 135.431 124.907 135.392 123.877 135.392C90.2041 135.392 61.7999 157.695 52.5299 188.318C51.1038 188.199 49.638 188.12 48.1723 188.12C21.5904 188.12 0 209.67 0 236.292C0 262.914 21.5507 284.465 48.1326 284.465C48.5288 284.465 310.03 284.465 310.03 284.465C348.14 284.465 379 253.565 379 215.494C379 177.424 348.179 146.484 310.069 146.484Z" fill="#E6E6F7"></path>
    <g filter="url(#filter0_d_6020_1685)">
        <rect x="103" y="109.672" width="195.085" height="149.451" rx="20" fill="#836BB3"></rect>
        <path d="M163 259.123C163 251.391 169.268 245.123 177 245.123H220C227.732 245.123 234 251.391 234 259.123H163Z" fill="#765EA6"></path>
        <path fill-rule="evenodd" clip-rule="evenodd" d="M269.563 85.7141C269.563 76.5752 267.763 67.5258 264.266 59.0826C260.769 50.6393 255.643 42.9676 249.181 36.5055C242.718 30.0433 235.047 24.9172 226.603 21.4199C218.16 17.9226 209.111 16.1226 199.972 16.1226C190.833 16.1226 181.784 17.9226 173.34 21.4199C164.897 24.9172 157.225 30.0433 150.763 36.5055C144.301 42.9676 139.175 50.6393 135.678 59.0826C132.18 67.5258 130.38 76.5752 130.38 85.7141V109.672H147.493V85.7141L147.502 85.7141C147.502 78.8236 148.859 72.0006 151.496 65.6347C154.133 59.2687 157.998 53.4844 162.87 48.6121C167.742 43.7398 173.526 39.8749 179.892 37.238C186.258 34.6011 193.081 33.244 199.972 33.244C206.862 33.244 213.685 34.6011 220.051 37.238C226.417 39.8749 232.202 43.7398 237.074 48.6121C241.946 53.4844 245.811 59.2687 248.448 65.6347C251.085 72.0006 252.442 78.8236 252.442 85.7141H252.451V109.672H269.563V85.7141H269.563Z" fill="#836BB3"></path>
    </g>
    <circle cx="157.799" cy="183.827" r="15.4394" fill="#E3E3F4"></circle>
    <circle cx="200.257" cy="183.827" r="15.4394" fill="#E3E3F4"></circle>
    <circle cx="242.716" cy="183.827" r="15.4394" fill="#E3E3F4"></circle>
    <circle class="animated-dot animated-dot-3" cx="242.716" cy="183.827" r="9.00634"></circle>
    <circle class="animated-dot animated-dot-2" cx="200.257" cy="183.827" r="9.00634"></circle>
    <circle class="animated-dot animated-dot-1" cx="157.799" cy="183.827" r="9.00634"></circle>
    <circle cx="152.5" cy="320.623" r="11.5" fill="#E3E3F4"></circle>
    <circle cx="200.071" cy="320.623" r="11.5" fill="#E3E3F4"></circle>
    <circle cx="247.643" cy="320.623" r="11.5" fill="#E3E3F4"></circle>
    <rect x="198" y="283.123" width="4" height="18" fill="#E3E3F4"></rect>
    <rect x="150" y="297.123" width="4" height="15" fill="#E3E3F4"></rect>
    <rect x="198" y="297.123" width="4" height="15" fill="#E3E3F4"></rect>
    <rect x="246" y="297.123" width="4" height="15" fill="#E3E3F4"></rect>
    <rect x="248" y="297.123" width="4" height="96" transform="rotate(90 248 297.123)" fill="#E3E3F4"></rect>
    <defs>
        <filter id="filter0_d_6020_1685" x="79" y="0.122559" width="243.085" height="291" filterUnits="userSpaceOnUse" color-interpolation-filters="sRGB">
            <feFlood flood-opacity="0" result="BackgroundImageFix"></feFlood>
            <feColorMatrix in="SourceAlpha" type="matrix" values="0 0 0 0 0 0 0 0 0 0 0 0 0 0 0 0 0 0 127 0" result="hardAlpha"></feColorMatrix>
            <feOffset dy="8"></feOffset>
            <feGaussianBlur stdDeviation="12"></feGaussianBlur>
            <feComposite in2="hardAlpha" operator="out"></feComposite>
            <feColorMatrix type="matrix" values="0 0 0 0 0.172549 0 0 0 0 0.168627 0 0 0 0 0.317647 0 0 0 0.15 0"></feColorMatrix>
            <feBlend mode="normal" in2="BackgroundImageFix" result="effect1_dropShadow_6020_1685"></feBlend>
            <feBlend mode="normal" in="SourceGraphic" in2="effect1_dropShadow_6020_1685" result="shape"></feBlend>
        </filter>
    </defs>
</svg>