<svg width="289" height="336" viewBox="0 0 289 336" fill="none" xmlns="http://www.w3.org/2000/svg">
    <path d="M65.0003 202.084L142 45.084L237 54.084L284.5 242.084C281.5 251.584 241.5 274.584 167 264.584C92.5003 254.584 65.0003 223.084 65.0003 202.084Z" fill="url(#paint0_linear_6042_1580)"></path>
    <path d="M65.0002 202.084L142 45.084L237 54.084L284.5 242.084C281.5 251.584 241.5 274.584 167 264.584C92.5002 254.584 65.0002 223.084 65.0002 202.084Z" fill="url(#paint1_linear_6042_1580)"></path>
    <ellipse cx="187.832" cy="39.5239" rx="76.3906" ry="24.755" transform="rotate(5.23984 187.832 39.5239)" fill="#CECEE8"></ellipse>
    <ellipse cx="188.27" cy="36.7264" rx="60.7263" ry="19.6788" transform="rotate(5.23984 188.27 36.7264)" fill="#E6E6F7"></ellipse>
    <path fill-rule="evenodd" clip-rule="evenodd" d="M140.518 24.552C147.866 11.3946 167.821 -2.61355 193 0.583869C214.917 3.36696 228.589 17.3196 234.082 30.3373C235.998 32.2814 236.961 34.2902 236.779 36.2807C235.98 44.9905 213.544 50.0531 186.666 47.5882C159.789 45.1233 138.648 36.0644 139.447 27.3545C139.537 26.3721 139.902 25.436 140.518 24.552Z" fill="#CECEE8"></path>
    <circle cx="203.5" cy="38.084" r="3.5" fill="white"></circle>
    <circle cx="214.5" cy="38.084" r="3.5" fill="white"></circle>
    <circle cx="192.5" cy="38.084" r="3.5" fill="white"></circle>
    <g class="flyingImgPath1">
        <circle cx="226.5" cy="272.622" r="62.4999" fill="#836BB3"></circle>
        <path d="M221.336 235.64C222.814 240.405 223.145 245.414 222.48 250.283L247.743 255.178C249.07 250.438 251.373 245.939 254.637 242.093L255.361 241.24C256.021 240.463 256.051 239.376 255.435 238.54C254.821 237.704 253.699 237.31 252.647 237.559L243.501 239.733L240.487 235.643C239.697 234.571 238.12 234.266 236.964 234.961L232.553 237.611L224.98 232.197C224.107 231.576 222.922 231.521 222.017 232.064C221.115 232.606 220.709 233.621 221.008 234.584L221.336 235.64Z" fill="#997CD3"></path>
        <path d="M249.792 259.833L219.39 253.953L207.486 262.704C201.642 267.004 197.615 273.254 196.205 280.034C193.08 295.061 203.729 307.22 223.336 311.013C242.943 314.805 257.631 307.546 260.756 292.52C262.166 285.74 260.919 278.625 257.243 272.484L249.792 259.833ZM229.72 280.184C233.827 280.979 236.539 284.651 235.765 288.371C235.158 291.29 232.576 293.357 229.511 293.74L229.092 295.752C228.834 296.995 227.514 297.786 226.142 297.521C224.77 297.255 223.869 296.034 224.127 294.792L224.543 292.795C221.837 291.31 220.258 288.426 220.868 285.49C221.127 284.246 222.447 283.456 223.819 283.721C225.191 283.987 226.092 285.207 225.834 286.45C225.576 287.691 226.48 288.914 227.849 289.179C229.219 289.444 230.541 288.652 230.799 287.411C231.057 286.17 230.154 284.947 228.784 284.682C224.677 283.887 221.965 280.215 222.739 276.495C223.35 273.558 225.96 271.485 229.05 271.121L229.74 267.807C229.998 266.564 231.317 265.772 232.689 266.038C234.062 266.303 234.963 267.524 234.704 268.767L234.012 272.097C236.687 273.59 238.243 276.457 237.636 279.376C237.377 280.619 236.058 281.41 234.685 281.145C233.313 280.879 232.412 279.659 232.67 278.416C232.928 277.175 232.025 275.952 230.655 275.687C229.286 275.422 227.963 276.215 227.705 277.455C227.447 278.696 228.35 279.919 229.72 280.184Z" fill="#997CD3"></path>
    </g>
    <rect x="5.56808" y="196.492" width="141.937" height="125.751" rx="20" transform="rotate(-24.756 5.56808 196.492)" fill="url(#paint2_linear_6042_1580)"></rect>
    <path d="M64.3457 243.14L71.5607 239.963C72.5568 239.524 73.7152 239.937 74.1478 240.887L81.9805 258.08C82.413 259.03 81.9559 260.155 80.9598 260.594L73.7448 263.772C72.7486 264.21 71.5899 263.796 71.1574 262.847L63.3247 245.654C62.8921 244.704 63.3495 243.579 64.3457 243.14Z" fill="#85FDCB"></path>
    <path d="M76.3849 221.154L83.5945 217.993C84.5898 217.556 85.7467 217.97 86.1778 218.916L100.231 249.75C100.662 250.696 100.204 251.817 99.209 252.254L91.9995 255.415C91.0041 255.852 89.8479 255.438 89.4168 254.492L75.3638 223.658C74.9327 222.712 75.3896 221.591 76.3849 221.154Z" fill="#85FDCB"></path>
    <path d="M97.7371 219.609L104.948 216.441C105.944 216.004 107.101 216.418 107.532 217.365L118.477 241.382C118.909 242.329 118.452 243.452 117.457 243.89L110.246 247.058C109.25 247.495 108.093 247.081 107.661 246.134L96.716 222.117C96.2843 221.17 96.7415 220.047 97.7371 219.609Z" fill="#85FDCB"></path>
    <path d="M111.329 201.034L118.538 197.875C119.533 197.439 120.69 197.852 121.121 198.798L136.726 233.039C137.157 233.985 136.7 235.105 135.704 235.541L128.496 238.7C127.5 239.136 126.344 238.723 125.913 237.777L110.307 203.536C109.876 202.59 110.334 201.47 111.329 201.034Z" fill="#85FDCB"></path>
    <path d="M105.422 179.115C102.418 180.461 101.04 183.902 102.342 186.808C102.607 187.378 102.967 187.899 103.409 188.349L96.668 197.625C94.9261 196.936 92.9309 197.115 91.3082 198.108C89.6848 199.1 88.633 200.783 88.4811 202.631L78.7423 202.374C78.6802 202.131 78.6012 201.893 78.5074 201.661C77.5539 199.53 75.3653 198.2 72.9624 198.291C70.5598 198.383 68.4171 199.879 67.5351 202.08C66.6525 204.282 67.2046 206.754 68.9338 208.344L61.9077 220.483C60.8701 220.376 59.8151 220.543 58.8529 220.967C55.8457 222.309 54.4663 225.753 55.7728 228.659C57.079 231.565 60.5762 232.832 63.5834 231.489C66.5906 230.147 67.9697 226.702 66.6635 223.797C66.3742 223.165 65.969 222.594 65.467 222.11L72.5631 209.85C75.1146 210.04 77.5306 208.572 78.5088 206.236L89.5835 206.528C91.3664 208.872 94.7018 209.489 97.3249 207.962C99.9481 206.434 101.02 203.251 99.8119 200.573C99.7519 200.439 99.6647 200.327 99.5958 200.2L106.927 190.111C108.019 190.252 109.137 190.088 110.153 189.638C113.16 188.295 114.539 184.851 113.233 181.946C111.927 179.04 108.429 177.773 105.422 179.115Z" fill="#85FDCB"></path>
    <g class="flyingImgPath2">
        <circle cx="169.016" cy="152.139" r="37.1362" transform="rotate(-80.008 169.016 152.139)" fill="#09B8BB"></circle>
        <path d="M169.657 141.572C169.4 142.283 168.975 142.932 168.413 143.469C167.85 144.007 167.165 144.419 166.408 144.675C165.651 144.931 164.842 145.025 164.041 144.95C163.239 144.874 162.467 144.631 161.78 144.238C161.331 143.986 160.808 143.872 160.285 143.911C159.762 143.95 159.265 144.141 158.865 144.457C157.07 145.846 155.547 147.515 154.364 149.389C154.093 149.816 153.973 150.311 154.021 150.805C154.07 151.299 154.284 151.766 154.634 152.139C155.173 152.704 155.567 153.375 155.787 154.103C156.006 154.831 156.045 155.595 155.9 156.339C155.755 157.083 155.431 157.786 154.951 158.395C154.471 159.005 153.849 159.504 153.131 159.856C152.663 160.092 152.286 160.459 152.055 160.905C151.823 161.351 151.749 161.855 151.842 162.343C152.211 164.321 152.917 166.231 153.932 168.002C154.188 168.448 154.589 168.806 155.079 169.024C155.569 169.242 156.12 169.308 156.653 169.212C157.467 169.052 158.311 169.071 159.116 169.269C159.92 169.467 160.664 169.838 161.288 170.352C161.911 170.866 162.396 171.509 162.704 172.23C163.013 172.951 163.135 173.729 163.063 174.502C163.023 175.005 163.158 175.507 163.448 175.933C163.737 176.359 164.165 176.688 164.67 176.87C165.863 177.313 167.101 177.644 168.364 177.857C169.422 178.038 170.494 178.137 171.569 178.153C172.124 178.165 172.668 178.006 173.116 177.7C173.564 177.395 173.892 176.96 174.049 176.464C174.279 175.7 174.701 174.998 175.281 174.418C175.861 173.838 176.582 173.395 177.383 173.128C178.184 172.86 179.042 172.776 179.885 172.881C180.728 172.986 181.532 173.278 182.229 173.732C182.683 174.029 183.23 174.176 183.783 174.15C184.336 174.124 184.864 173.926 185.283 173.589C187.05 172.205 188.55 170.551 189.72 168.697C189.864 168.459 189.966 168.201 190.022 167.933C190.093 167.564 190.068 167.185 189.949 166.827C189.83 166.469 189.621 166.143 189.339 165.876C188.729 165.312 188.275 164.617 188.017 163.852C187.76 163.087 187.707 162.274 187.863 161.486C188.012 160.721 188.352 160 188.853 159.38C189.355 158.759 190.005 158.256 190.752 157.911C191.249 157.682 191.65 157.305 191.894 156.841C192.137 156.377 192.209 155.85 192.099 155.344C191.668 153.395 190.914 151.521 189.863 149.79C189.601 149.355 189.199 149.009 188.713 148.801C188.227 148.594 187.683 148.535 187.159 148.634C186.353 148.802 185.517 148.793 184.716 148.608C183.914 148.423 183.17 148.067 182.542 147.568C181.913 147.069 181.418 146.44 181.095 145.732C180.772 145.024 180.629 144.256 180.679 143.488C180.702 142.988 180.553 142.494 180.255 142.079C179.957 141.663 179.524 141.346 179.02 141.175C177.938 140.785 176.822 140.483 175.684 140.275C174.48 140.071 173.258 139.972 172.035 139.981C171.509 139.979 170.997 140.132 170.57 140.418C170.143 140.703 169.823 141.107 169.657 141.572ZM173.244 152.802C174.573 153.027 175.8 153.614 176.771 154.489C177.742 155.364 178.413 156.488 178.698 157.719C178.984 158.949 178.872 160.231 178.376 161.402C177.88 162.574 177.023 163.581 175.912 164.299C174.802 165.016 173.489 165.41 172.138 165.431C170.788 165.452 169.461 165.1 168.326 164.418C167.19 163.736 166.297 162.756 165.76 161.601C165.222 160.446 165.064 159.168 165.305 157.93C165.628 156.268 166.647 154.795 168.135 153.833C169.624 152.872 171.462 152.501 173.244 152.802Z" fill="#30D5D7"></path>
        <path d="M163.817 126.332C163.571 126.589 163.268 126.785 162.93 126.908C162.592 127.03 162.227 127.075 161.864 127.039C161.5 127.003 161.146 126.887 160.829 126.699C160.512 126.512 160.239 126.258 160.031 125.956C159.894 125.761 159.7 125.611 159.475 125.527C159.251 125.442 159.008 125.428 158.78 125.487C157.765 125.737 156.807 126.161 155.951 126.738C155.755 126.869 155.609 127.059 155.532 127.281C155.456 127.503 155.453 127.745 155.525 127.973C155.638 128.32 155.67 128.685 155.619 129.041C155.568 129.396 155.434 129.733 155.229 130.024C155.023 130.316 154.751 130.556 154.433 130.725C154.116 130.895 153.76 130.989 153.394 131.002C153.154 131.013 152.926 131.098 152.743 131.245C152.559 131.392 152.43 131.594 152.373 131.822C152.14 132.745 152.059 133.703 152.134 134.661C152.152 134.902 152.249 135.134 152.409 135.322C152.569 135.51 152.785 135.645 153.024 135.707C153.393 135.795 153.739 135.967 154.034 136.207C154.329 136.448 154.565 136.752 154.722 137.093C154.88 137.435 154.956 137.805 154.942 138.175C154.929 138.545 154.828 138.903 154.647 139.222C154.532 139.43 154.49 139.672 154.527 139.911C154.563 140.151 154.677 140.375 154.85 140.551C155.258 140.972 155.706 141.353 156.188 141.69C156.591 141.972 157.016 142.221 157.458 142.436C157.686 142.549 157.942 142.585 158.188 142.541C158.434 142.496 158.654 142.372 158.817 142.189C159.061 141.905 159.373 141.685 159.727 141.547C160.081 141.41 160.466 141.359 160.85 141.399C161.234 141.438 161.606 141.568 161.935 141.776C162.264 141.984 162.54 142.265 162.741 142.595C162.87 142.811 163.068 142.98 163.303 143.075C163.537 143.171 163.795 143.188 164.034 143.124C165.037 142.87 165.982 142.449 166.829 141.878C166.935 141.803 167.028 141.712 167.103 141.607C167.205 141.463 167.269 141.295 167.289 141.118C167.31 140.941 167.287 140.76 167.223 140.591C167.08 140.23 167.028 139.843 167.071 139.465C167.113 139.086 167.25 138.726 167.469 138.417C167.68 138.117 167.962 137.873 168.291 137.703C168.62 137.533 168.988 137.442 169.365 137.438C169.616 137.435 169.856 137.351 170.047 137.198C170.239 137.046 170.372 136.833 170.425 136.594C170.628 135.673 170.681 134.721 170.584 133.773C170.561 133.535 170.461 133.309 170.301 133.125C170.14 132.942 169.926 132.812 169.69 132.753C169.323 132.67 168.978 132.504 168.682 132.27C168.386 132.035 168.147 131.738 167.984 131.402C167.822 131.066 167.739 130.7 167.744 130.333C167.748 129.966 167.839 129.608 168.01 129.287C168.117 129.076 168.152 128.835 168.11 128.599C168.067 128.362 167.95 128.143 167.775 127.972C167.403 127.594 166.999 127.249 166.568 126.939C166.109 126.619 165.622 126.34 165.113 126.108C164.896 126.005 164.653 125.972 164.421 126.012C164.188 126.053 163.977 126.164 163.817 126.332ZM163.108 131.856C163.615 132.21 164.009 132.699 164.24 133.263C164.471 133.828 164.53 134.441 164.407 135.025C164.285 135.61 163.988 136.139 163.554 136.547C163.119 136.955 162.567 137.223 161.967 137.317C161.366 137.411 160.745 137.326 160.181 137.074C159.617 136.822 159.136 136.414 158.799 135.902C158.462 135.389 158.283 134.794 158.286 134.194C158.289 133.593 158.473 133.013 158.816 132.527C159.274 131.875 159.984 131.438 160.789 131.312C161.594 131.186 162.428 131.382 163.108 131.856Z" fill="#30D5D7"></path>
    </g>
    <circle cx="224.175" cy="191.297" r="10" transform="rotate(23.6866 224.175 191.297)" fill="#CECEE8"></circle>
    <circle cx="226.27" cy="163.393" r="4" transform="rotate(23.6866 226.27 163.393)" fill="#CECEE8"></circle>
    <circle cx="147.5" cy="290.084" r="7.5" fill="#E3E3F4"></circle>
    <defs>
        <linearGradient id="paint0_linear_6042_1580" x1="175" y1="155.584" x2="174.75" y2="267.052" gradientUnits="userSpaceOnUse">
            <stop stop-color="#E3E3F4"></stop>
            <stop offset="1" stop-color="#E3E3F4" stop-opacity="0"></stop>
        </linearGradient>
        <linearGradient id="paint1_linear_6042_1580" x1="196.5" y1="65.5" x2="175" y2="178" gradientUnits="userSpaceOnUse">
            <stop stop-color="#5AD9A4"></stop>
            <stop offset="0.0791784" stop-color="#29C5B2"></stop>
            <stop offset="0.587136" stop-color="#E3E3F4" stop-opacity="0"></stop>
        </linearGradient>
        <linearGradient id="paint2_linear_6042_1580" x1="103.898" y1="257.988" x2="160.363" y2="339.161" gradientUnits="userSpaceOnUse">
            <stop stop-color="#5AD9A4"></stop>
            <stop offset="1" stop-color="#09B8BB"></stop>
        </linearGradient>
    </defs>
</svg>