<svg width="39" height="36" viewBox="0 0 39 36" fill="none" xmlns="http://www.w3.org/2000/svg">
    <path d="M35.7312 18.2196C35.4099 17.8612 27.6808 9.43091 18 9.43091C8.31927 9.43091 0.590238 17.8612 0.26884 18.2196C-0.0896133 18.6203 -0.0896133 19.2259 0.26884 19.6266C0.590238 19.985 8.31941 28.4153 18 28.4153C27.6807 28.4153 35.4098 19.985 35.7312 19.6266C36.0896 19.2259 36.0896 18.6203 35.7312 18.2196ZM18 26.3059C13.9296 26.3059 10.6172 22.9936 10.6172 18.9231C10.6172 14.8526 13.9296 11.5403 18 11.5403C22.0705 11.5403 25.3828 14.8526 25.3828 18.9231C25.3828 22.9936 22.0705 26.3059 18 26.3059Z" fill="#FFDF82"></path>
    <path d="M19.2063 16.5231C19.2063 15.3159 19.8056 14.2539 20.7173 13.6007C19.8992 13.1819 18.9867 12.9231 18.0063 12.9231C14.6981 12.9231 12.0063 15.6149 12.0063 18.9231C12.0063 22.2313 14.6981 24.9231 18.0063 24.9231C20.9683 24.9231 23.4198 22.7604 23.9041 19.9345C21.4876 20.7125 19.2063 18.8849 19.2063 16.5231Z" fill="#FF9F58"></path>
    <g class="out_inner3_movable-left">
    <rect width="9.68157" height="1.76029" fill="#FF9F58"></rect>
    <rect y="1.76025" width="1.76029" height="8.80143" fill="#FF9F58"></rect>
    </g>
    <g class="out_inner3_movable-right">
    <rect x="38.2974" y="35.4847" width="9.68157" height="1.76029" transform="rotate(-180 38.2974 35.4847)" fill="#FF9F58"></rect>
    <rect x="38.2974" y="33.7245" width="1.76029" height="8.80143" transform="rotate(-180 38.2974 33.7245)" fill="#FF9F58"></rect>
    </g>
    <defs>
    <clipPath id="clip0">
        <rect width="36" height="36" fill="white"></rect>
    </clipPath>
    </defs>
</svg>