<svg width="29" height="23" viewBox="0 0 29 23" fill="none" xmlns="http://www.w3.org/2000/svg">
    <path d="M15.7474 9.36425L3.17381 0.618114C2.59314 0.21392 2.00807 0 1.52177 0C0.581588 0 0 0.766685 0 2.05002V20.953C0 22.2348 0.580855 23 1.51884 23C2.00587 23 2.5816 22.7859 3.16355 22.3806L15.743 13.6346C16.552 13.0713 17 12.3131 17 11.499C17.0002 10.6854 16.5573 9.92744 15.7474 9.36425Z" fill="#FF9F58"></path>
    <path class="out_inner2_movable" d="M27.7474 9.36425L15.1738 0.618114C14.5931 0.21392 14.0081 0 13.5218 0C12.5816 0 12 0.766685 12 2.05002V20.953C12 22.2348 12.5809 23 13.5188 23C14.0059 23 14.5816 22.7859 15.1636 22.3806L27.743 13.6346C28.552 13.0713 29 12.3131 29 11.499C29.0002 10.6854 28.5573 9.92744 27.7474 9.36425Z" fill="#FFDF82"></path>
</svg>