<svg width="30" height="33" viewBox="0 0 30 33" fill="none" xmlns="http://www.w3.org/2000/svg">
    <path d="M1 14.0001H30V31.0001C30 32.1047 29.1046 33.0001 28 33.0001H3C1.89543 33.0001 1 32.1047 1 31.0001V14.0001Z" fill="#FF9F58"></path>
    <path d="M13 28.162V20.7289C13 19.9598 13.8319 19.4786 14.4986 19.862L20.5802 23.36C21.2287 23.733 21.253 24.66 20.6249 25.0664L14.5433 29.0015C13.8779 29.4321 13 28.9545 13 28.162Z" fill="#FFDF82"></path>
    <path d="M11 15.0001H7.5L6 17.5001H9.5L11 15.0001Z" fill="white"></path>
    <path d="M18 15.0001H14.5L13 17.5001H16.5L18 15.0001Z" fill="white"></path>
    <path d="M26 15.0001H22.5L21 17.5001H24.5L26 15.0001Z" fill="white"></path>
    <g class="director">
    <path d="M1.82422 15.2347L28.8257 4.65543L27.7313 1.86217C27.3283 0.833725 26.1679 0.32666 25.1395 0.729612L1.86237 9.84971C0.833919 10.2527 0.326855 11.413 0.729807 12.4415L1.82422 15.2347Z" fill="#FF9F58"></path>
    <circle cx="3" cy="12.0001" r="2.5" fill="white" stroke="#FF9F58"></circle>
    <path d="M11.6863 7.00011L8.40589 8.22033L7.87159 11.0864L11.152 9.86621L11.6863 7.00011Z" fill="white"></path>
    <path d="M17.6863 5.00011L14.4059 6.22033L13.8716 9.08643L17.152 7.86621L17.6863 5.00011Z" fill="white"></path>
    <path d="M23.6863 3.00011L20.4059 4.22033L19.8716 7.08643L23.152 5.86621L23.6863 3.00011Z" fill="white"></path>
    </g>
</svg>