<svg width="552" height="462" viewBox="0 0 552 462" fill="none" xmlns="http://www.w3.org/2000/svg">
<g filter="url(#filter0_d)">
    <path d="M110.179 60.206c0-5.603 4.603-10.112 10.204-9.998l359.665 7.32a10 10 0 019.787 9.565l11.339 262.027c.24 5.561-4.106 10.248-9.669 10.427l-371.004 11.935c-5.646.182-10.322-4.346-10.322-9.995V60.206z" fill="#E4F1FF"></path>
</g>
<g class="channels_image__video_fly" filter="url(#filter1_d)">
    <path d="M181 94c0-5.523 4.477-10 10-10h236.682a10 10 0 019.996 9.722l4.683 168.726c.154 5.552-4.246 10.166-9.8 10.275l-241.365 4.733c-5.598.109-10.196-4.399-10.196-9.998V94z" fill="url(#paint0_linear)"></path>
</g>
<path d="M110.18 311.641l389.886-8.756 1.484 26.338c.316 5.61-4.05 10.378-9.665 10.558l-371.519 11.887c-5.663.181-10.345-4.373-10.32-10.039l.134-29.988z" fill="#fff"></path>
<g class="channels_image__video_fly" fill="#fff" fill-opacity=".4">
    <path d="M324.314 170.768l-42.825-24.089a2.68 2.68 0 00-2.66.022 2.671 2.671 0 00-1.328 2.312v48.178a2.674 2.674 0 003.988 2.334l42.825-24.089a2.685 2.685 0 001.365-2.334c0-.969-.525-1.857-1.365-2.334z"></path>
    <path d="M355.573 171.005l-38.469-21.639a2.403 2.403 0 00-3.583 2.097v43.278a2.403 2.403 0 003.583 2.097l38.469-21.639a2.413 2.413 0 001.227-2.097c0-.87-.472-1.669-1.227-2.097z"></path>
</g>
<path d="M163 329.5l293-7.5" stroke="#DBE8F7" stroke-width="7" stroke-linecap="round"></path>
<path id="channels_image__load-line" d="M163 329.5l293-7.5" stroke="#60DEB0" stroke-width="7" stroke-linecap="round" stroke-dasharray="293.0959777832031 293.0959777832031"></path>
<defs>
    <filter id="filter0_d" x=".179" y=".206" width="551.004" height="461.282" filterUnits="userSpaceOnUse" color-interpolation-filters="sRGB">
        <feFlood flood-opacity="0" result="BackgroundImageFix"></feFlood>
        <feColorMatrix in="SourceAlpha" values="0 0 0 0 0 0 0 0 0 0 0 0 0 0 0 0 0 0 127 0"></feColorMatrix>
        <feOffset dx="-30" dy="30"></feOffset>
        <feGaussianBlur stdDeviation="40"></feGaussianBlur>
        <feColorMatrix values="0 0 0 0 0.572549 0 0 0 0 0.572549 0 0 0 0 0.623529 0 0 0 0.79 0"></feColorMatrix>
        <feBlend in2="BackgroundImageFix" result="effect1_dropShadow"></feBlend>
        <feBlend in="SourceGraphic" in2="effect1_dropShadow" result="shape"></feBlend>
    </filter>
    <filter id="filter1_d" x="101" y="44" width="381.365" height="313.458" filterUnits="userSpaceOnUse" color-interpolation-filters="sRGB">
        <feFlood flood-opacity="0" result="BackgroundImageFix"></feFlood>
        <feColorMatrix in="SourceAlpha" values="0 0 0 0 0 0 0 0 0 0 0 0 0 0 0 0 0 0 127 0"></feColorMatrix>
        <feOffset dx="-20" dy="20"></feOffset>
        <feGaussianBlur stdDeviation="30"></feGaussianBlur>
        <feColorMatrix values="0 0 0 0 0.533906 0 0 0 0 0.583785 0 0 0 0 0.6375 0 0 0 1 0"></feColorMatrix>
        <feBlend in2="BackgroundImageFix" result="effect1_dropShadow"></feBlend>
        <feBlend in="SourceGraphic" in2="effect1_dropShadow" result="shape"></feBlend>
    </filter>
    <linearGradient id="paint0_linear" x1="181" y1="181.469" x2="500.356" y2="171.849" gradientUnits="userSpaceOnUse">
        <stop stop-color="#5BDBA5"></stop>
        <stop offset="1" stop-color="#78EBE2"></stop>
    </linearGradient>
</defs>
</svg>