<svg width="120" height="120" viewBox="0 0 138 138" fill="none" xmlns="http://www.w3.org/2000/svg">
    <g filter="url(#sec_3_img_cir_c_svg__sec_3_img_cir_c_svg__filter0_b)">
        <circle cx="69" cy="69" r="69" fill="url(#sec_3_img_cir_c_svg__sec_3_img_cir_c_svg__paint0_linear)"/>
    </g>
    <path fill-rule="evenodd" clip-rule="evenodd" d="M85.891 46.833H66.148a7.252 7.252 0 00-13.673 0h-2.828a2.416 2.416 0 100 4.832h2.828a7.252 7.252 0 0013.673 0H85.89a2.416 2.416 0 100-4.832zM49.647 63.746a2.416 2.416 0 100 4.833h19.749a7.252 7.252 0 0013.673 0h2.822a2.416 2.416 0 100-4.832H83.07a7.252 7.252 0 00-13.673 0h-19.75z" fill="#5A5CEC"/>
    <path d="M44.835 98.135c2.4 0 4.11-1.215 4.485-3.69h-1.215c-.27 1.74-1.485 2.625-3.24 2.625-2.31 0-3.69-1.65-3.69-4.38v-.12c0-2.7 1.485-4.425 3.705-4.425 1.83 0 2.775.84 3.045 2.475h1.29c-.225-2.325-2.115-3.51-4.35-3.51-2.91 0-5.04 2.295-5.04 5.475v.12c0 3.3 1.905 5.43 5.01 5.43zm9.637 0c2.235 0 3.87-1.635 3.87-4.005v-.12c0-2.355-1.635-3.99-3.855-3.99-2.22 0-3.855 1.65-3.855 4.005v.12c0 2.295 1.605 3.99 3.84 3.99zm.015-1.035c-1.59 0-2.565-1.17-2.565-2.955v-.12c0-1.8.99-2.97 2.565-2.97 1.56 0 2.565 1.17 2.565 2.985v.105c0 1.77-.99 2.955-2.565 2.955zm5.783.9h1.245v-4.755c0-1.41 1.035-2.145 2.19-2.145 1.26 0 1.845.615 1.845 1.995V98h1.245v-4.815c0-2.28-1.14-3.165-2.76-3.165-1.29 0-2.16.645-2.52 1.38v-1.245H60.27V98zm11.395.135c1.905 0 2.88-.96 2.88-2.385 0-1.665-1.14-2.025-2.76-2.325-1.44-.255-1.83-.54-1.83-1.245 0-.675.585-1.125 1.485-1.125.99 0 1.47.375 1.65 1.23h1.2c-.21-1.695-1.425-2.265-2.835-2.265-1.23 0-2.655.75-2.655 2.205 0 1.365.69 1.935 2.73 2.31 1.215.225 1.83.495 1.83 1.32 0 .84-.525 1.245-1.71 1.245-1.26 0-1.755-.585-1.845-1.515H68.59c.075 1.605 1.2 2.55 3.075 2.55zm8.032 0c2.235 0 3.87-1.635 3.87-4.005v-.12c0-2.355-1.635-3.99-3.855-3.99-2.22 0-3.855 1.65-3.855 4.005v.12c0 2.295 1.605 3.99 3.84 3.99zm.015-1.035c-1.59 0-2.565-1.17-2.565-2.955v-.12c0-1.8.99-2.97 2.565-2.97 1.56 0 2.565 1.17 2.565 2.985v.105c0 1.77-.99 2.955-2.565 2.955zm5.812.9h1.26V86.405h-1.26V98zm7.018.135c1.77 0 3.075-.825 3.345-2.4h-1.245c-.165.915-.87 1.365-2.085 1.365-1.605 0-2.46-.99-2.52-2.775h5.91v-.405c0-2.805-1.71-3.9-3.525-3.9-2.16 0-3.675 1.65-3.675 4.02v.12c0 2.415 1.575 3.975 3.795 3.975zm-2.46-4.815c.21-1.395 1.065-2.265 2.34-2.265 1.29 0 2.13.645 2.25 2.265h-4.59z" fill="#3F3F67"/>
    <defs>
        <linearGradient id="sec_3_img_cir_c_svg__sec_3_img_cir_c_svg__paint0_linear" x1="79" y1="57" x2="122.5" y2="205.5" gradientUnits="userSpaceOnUse">
            <stop stop-color="#fff"/>
            <stop offset="1" stop-color="#fff" stop-opacity="0"/>
        </linearGradient>
        <filter id="sec_3_img_cir_c_svg__sec_3_img_cir_c_svg__filter0_b" x="-4" y="-4" width="146" height="146" filterUnits="userSpaceOnUse" color-interpolation-filters="sRGB">
            <feFlood flood-opacity="0" result="BackgroundImageFix"/>
            <feGaussianBlur stdDeviation="2"/>
            <feComposite in2="SourceAlpha" operator="in" result="effect1_backgroundBlur"/>
            <feBlend in="SourceGraphic" in2="effect1_backgroundBlur" result="shape"/>
        </filter>
    </defs>
</svg>
