<svg width="606" height="444" viewBox="0 0 606 444" fill="none" xmlns="http://www.w3.org/2000/svg">
    <g filter="url(#sec_3_img_insights_svg__sec_3_img_insights_svg__filter0_b)">
        <rect width="606" height="444" rx="10" fill="#fff" fill-opacity=".8"/>
        <rect x=".5" y=".5" width="605" height="443" rx="9.5" stroke="#fff"/>
    </g>
    <path fill-rule="evenodd" clip-rule="evenodd" d="M17.032 197.157a.282.282 0 01.25-.157h12.435c.105 0 .202.061.25.157a.305.305 0 01-.017.304l-6.217 9.412a.281.281 0 01-.233.127.281.281 0 01-.233-.127l-6.217-9.412a.305.305 0 01-.018-.304zm.788.431l5.68 8.599 5.68-8.599H17.82z" fill="#95959F"/>
    <path d="M38.784 200.289h1.613c.758 0 1.306.113 1.645.34.338.226.507.585.507 1.074 0 .339-.095.619-.285.84-.187.219-.462.361-.824.426v.039c.867.148 1.3.604 1.3 1.367 0 .51-.172.909-.519 1.195-.344.287-.825.43-1.445.43h-1.992v-5.711zm.664 2.445h1.093c.47 0 .806-.073 1.012-.218.206-.149.309-.398.309-.746 0-.321-.115-.551-.344-.692-.23-.143-.594-.215-1.094-.215h-.976v1.871zm0 .563v2.137h1.191c.461 0 .807-.089 1.04-.266.234-.18.35-.46.35-.84 0-.354-.119-.614-.359-.781-.237-.167-.599-.25-1.086-.25h-1.136zM46.506 206l-.129-.609h-.03c-.214.268-.428.45-.641.547-.211.093-.476.14-.793.14-.425 0-.758-.109-1-.328-.24-.219-.36-.53-.36-.934 0-.864.692-1.317 2.074-1.359l.727-.023v-.266c0-.336-.073-.583-.219-.742-.143-.162-.373-.242-.691-.242-.357 0-.76.109-1.211.328l-.2-.496c.212-.115.442-.205.692-.27.253-.065.505-.098.758-.098.51 0 .888.114 1.133.34.247.227.37.59.37 1.09V206h-.48zm-1.465-.457c.404 0 .72-.111.95-.332.231-.221.347-.531.347-.93v-.386l-.648.027c-.516.018-.888.099-1.117.242-.227.141-.34.361-.34.66 0 .235.07.413.21.535.144.123.343.184.599.184zm6.215.457v-2.77c0-.348-.08-.609-.238-.781-.159-.172-.407-.258-.746-.258-.448 0-.776.121-.984.364-.209.242-.313.642-.313 1.199V206h-.648v-4.281h.527l.105.586h.032c.133-.211.319-.374.558-.489a1.8 1.8 0 01.801-.175c.516 0 .904.125 1.164.375.26.247.39.644.39 1.191V206h-.648zm4.914 0v-2.77c0-.348-.079-.609-.238-.781-.159-.172-.407-.258-.746-.258-.448 0-.776.121-.984.364-.209.242-.313.642-.313 1.199V206h-.648v-4.281h.527l.105.586h.032c.133-.211.319-.374.558-.489a1.8 1.8 0 01.801-.175c.516 0 .904.125 1.164.375.26.247.39.644.39 1.191V206h-.648zm3.793.078c-.632 0-1.132-.193-1.5-.578-.364-.385-.547-.921-.547-1.605 0-.691.17-1.239.508-1.645.342-.406.798-.609 1.371-.609.537 0 .961.177 1.274.531.312.351.469.816.469 1.394v.411h-2.95c.013.502.14.884.38 1.144.241.261.581.391 1.019.391a3.46 3.46 0 001.367-.289v.578c-.23.099-.447.169-.652.211a3.55 3.55 0 01-.739.066zm-.175-3.894c-.344 0-.619.112-.825.336-.203.223-.322.533-.359.929h2.238c0-.409-.09-.721-.273-.937-.182-.219-.443-.328-.781-.328zm4.812-.543c.19 0 .36.015.512.047l-.09.601a2.217 2.217 0 00-.469-.059c-.346 0-.643.141-.89.422-.245.282-.368.632-.368 1.051V206h-.648v-4.281h.535l.074.793h.032a1.88 1.88 0 01.574-.645c.224-.151.47-.226.738-.226z" fill="#95959F"/>
    <rect x="36.998" y="217" width="64" height="5" rx="2.5" fill="#E5E5F1"/>
    <rect x="36.998" y="230" width="64" height="5" rx="2.5" fill="#E5E5F1"/>
    <rect x="36.998" y="243" width="64" height="5" rx="2.5" fill="#E5E5F1"/>
    <rect x="36.998" y="257" width="64" height="5" rx="2.5" fill="#E5E5F1"/>
    <path d="M0 10C0 4.477 4.477 0 10 0h586c5.523 0 10 4.477 10 10v26H0V10z" fill="#534B85"/>
    <path d="M44.426 22v-4.154c0-.524-.12-.914-.358-1.172-.238-.258-.611-.387-1.119-.387-.676 0-1.17.184-1.482.55-.309.368-.463.97-.463 1.806V22h-.973v-9.117h.973v2.76c0 .332-.016.607-.047.826h.059c.191-.309.462-.551.814-.727.355-.18.76-.27 1.213-.27.785 0 1.373.188 1.764.563.394.371.591.963.591 1.776V22h-.972zm1.957-6.422h1.043l1.406 3.662c.309.836.5 1.44.574 1.81h.047c.05-.198.156-.538.316-1.019.165-.484.696-1.968 1.594-4.453h1.043l-2.76 7.313c-.273.722-.593 1.234-.96 1.535-.364.305-.811.457-1.342.457-.297 0-.59-.033-.88-.1v-.78c.216.048.456.071.721.071.668 0 1.145-.375 1.43-1.125l.358-.914-2.59-6.457zm10.054-.105c.844 0 1.498.289 1.963.867.47.574.703 1.389.703 2.443 0 1.055-.236 1.875-.709 2.461-.468.582-1.12.873-1.956.873-.419 0-.801-.076-1.149-.228a2.182 2.182 0 01-.867-.715h-.07l-.205.826h-.698v-9.117h.973v2.215c0 .496-.016.941-.047 1.336h.047c.453-.641 1.125-.961 2.016-.961zm-.14.814c-.664 0-1.143.192-1.436.574-.293.38-.44 1.02-.44 1.922 0 .902.151 1.549.452 1.94.3.386.783.58 1.447.58.598 0 1.043-.217 1.336-.65.293-.438.44-1.065.44-1.881 0-.836-.147-1.46-.44-1.87-.293-.41-.746-.615-1.36-.615zm7.441-.826c.285 0 .541.023.768.07l-.135.903a3.313 3.313 0 00-.703-.088c-.52 0-.965.21-1.336.633-.367.421-.55.947-.55 1.576V22h-.973v-6.422h.802l.112 1.19h.047c.238-.418.525-.74.86-.967a1.94 1.94 0 011.108-.34zM66.68 22h-.973v-6.422h.973V22zm-1.055-8.162c0-.223.055-.385.164-.486a.567.567 0 01.41-.159.57.57 0 01.404.159c.114.105.17.267.17.486 0 .219-.056.383-.17.492a.573.573 0 01-.404.158.568.568 0 01-.41-.158c-.11-.11-.164-.273-.164-.492zm7.488 7.3h-.052c-.45.653-1.122.98-2.016.98-.84 0-1.494-.288-1.963-.862-.465-.574-.697-1.39-.697-2.45 0-1.058.234-1.88.703-2.466.469-.586 1.121-.88 1.957-.88.871 0 1.539.317 2.004.95h.076l-.041-.463-.023-.45v-2.614h.972V22h-.79l-.13-.861zm-1.945.165c.664 0 1.144-.18 1.441-.54.301-.363.452-.947.452-1.751v-.205c0-.91-.153-1.559-.458-1.946-.3-.39-.783-.586-1.447-.586-.57 0-1.008.223-1.312.668-.301.442-.451 1.067-.451 1.875 0 .82.15 1.44.45 1.858.301.418.743.627 1.325.627zm5.549.697h-.58v-6.37h.58V22zm-.662-8.139c0-.375.123-.562.369-.562a.32.32 0 01.281.146c.07.098.106.237.106.416a.72.72 0 01-.106.416.317.317 0 01-.281.153c-.246 0-.37-.19-.37-.569zM83.297 22v-4.13c0-.642-.135-1.106-.404-1.395-.27-.293-.688-.44-1.254-.44-.762 0-1.32.194-1.676.58-.352.383-.527 1.006-.527 1.87V22h-.58v-6.37h.492l.111.874h.035c.414-.664 1.15-.996 2.21-.996 1.444 0 2.167.775 2.167 2.326V22h-.574zm6.586-1.658c0 .57-.217 1.01-.65 1.318-.434.305-1.05.457-1.846.457-.852 0-1.528-.13-2.028-.392v-.627c.641.32 1.317.48 2.028.48.629 0 1.105-.103 1.43-.31.328-.211.492-.49.492-.838 0-.32-.131-.59-.393-.809-.258-.219-.684-.433-1.277-.644-.637-.23-1.084-.428-1.342-.592a1.934 1.934 0 01-.586-.563 1.445 1.445 0 01-.193-.767c0-.477.199-.854.597-1.131.403-.277.963-.416 1.682-.416.687 0 1.34.129 1.957.387l-.217.527c-.625-.258-1.205-.387-1.74-.387-.52 0-.932.086-1.236.258-.305.172-.458.41-.458.715 0 .332.118.598.352.797.238.199.701.422 1.389.668.574.207.992.394 1.254.562.261.164.457.352.586.563.132.21.199.459.199.744zM92.103 22h-.58v-6.37h.58V22zm-.662-8.139c0-.375.123-.562.37-.562a.32.32 0 01.28.146c.071.098.106.237.106.416a.72.72 0 01-.105.416.317.317 0 01-.281.153c-.247 0-.37-.19-.37-.569zm7.77 1.77v.404l-1.318.082c.351.438.527.918.527 1.442 0 .613-.205 1.11-.615 1.494-.407.379-.953.568-1.64.568-.29 0-.493-.012-.61-.035-.23.121-.407.264-.528.428a.863.863 0 00-.181.521c0 .203.076.352.228.445.157.094.416.141.78.141h1.113c.691 0 1.22.14 1.588.422.367.277.55.69.55 1.236 0 .672-.273 1.19-.82 1.553-.543.367-1.318.55-2.326.55-.8 0-1.422-.154-1.863-.462-.438-.309-.657-.738-.657-1.29 0-.437.135-.8.405-1.089.273-.289.642-.486 1.107-.592a1.157 1.157 0 01-.463-.346.851.851 0 01-.17-.521c0-.426.272-.8.815-1.125a1.82 1.82 0 01-.867-.715 2.063 2.063 0 01-.31-1.125c0-.637.2-1.146.603-1.53.406-.386.953-.58 1.64-.58.418 0 .742.042.973.124h2.039zm-5.156 7.447c0 .875.65 1.313 1.95 1.313 1.673 0 2.509-.534 2.509-1.6 0-.383-.131-.66-.393-.832-.262-.172-.685-.258-1.271-.258h-1.043c-1.168 0-1.752.46-1.752 1.377zm.486-5.46c0 .491.148.874.445 1.148.301.27.701.404 1.201.404.532 0 .938-.135 1.22-.404.284-.27.427-.66.427-1.172 0-.543-.147-.95-.44-1.219-.288-.273-.695-.41-1.218-.41-.508 0-.908.146-1.201.44-.29.288-.434.693-.434 1.212zM104.965 22v-4.13c0-.642-.135-1.106-.404-1.395-.27-.293-.688-.44-1.254-.44-.762 0-1.321.194-1.676.58-.352.383-.527 1.006-.527 1.87V22h-.581v-9.117h.581v2.9l-.03.815h.041c.239-.383.539-.66.903-.832.363-.172.814-.258 1.353-.258 1.445 0 2.168.775 2.168 2.326V22h-.574zm4.318-.398c.367 0 .688-.032.961-.094v.469c-.281.093-.605.14-.973.14-.562 0-.978-.15-1.248-.451-.265-.3-.398-.773-.398-1.418v-4.113h-.943v-.34l.943-.264.293-1.441h.299v1.54h1.869v.505h-1.869v4.031c0 .488.086.85.258 1.084.171.234.441.352.808.352zm6.287-1.26c0 .57-.216 1.01-.65 1.318-.434.305-1.049.457-1.846.457-.851 0-1.527-.13-2.027-.392v-.627c.641.32 1.316.48 2.027.48.629 0 1.106-.103 1.43-.31.328-.211.492-.49.492-.838 0-.32-.131-.59-.392-.809-.258-.219-.684-.433-1.278-.644-.637-.23-1.084-.428-1.342-.592a1.944 1.944 0 01-.586-.563 1.453 1.453 0 01-.193-.767c0-.477.199-.854.598-1.131.402-.277.963-.416 1.681-.416.688 0 1.34.129 1.957.387l-.216.527c-.625-.258-1.205-.387-1.741-.387-.519 0-.931.086-1.236.258-.305.172-.457.41-.457.715 0 .332.117.598.352.797.238.199.701.422 1.388.668.574.207.992.394 1.254.562.262.164.457.352.586.563.133.21.199.459.199.744z" fill="#fff"/>
    <circle cx="581.5" cy="18.5" r="11.5" fill="url(#sec_3_img_insights_svg__sec_3_img_insights_svg__paint0_linear)"/>
    <rect x="20" y="13" width="10" height="1" rx=".5" fill="#fff"/>
    <rect x="20" y="17" width="10" height="1" rx=".5" fill="#fff"/>
    <rect x="20" y="21" width="10" height="1" rx=".5" fill="#fff"/>
    <rect x="547" y="13" width="3" height="3" rx="1.5" fill="#6C63A4"/>
    <rect x="551" y="13" width="3" height="3" rx="1.5" fill="#6C63A4"/>
    <rect x="555" y="13" width="3" height="3" rx="1.5" fill="#6C63A4"/>
    <rect x="547" y="17" width="3" height="3" rx="1.5" fill="#6C63A4"/>
    <rect x="551" y="17" width="3" height="3" rx="1.5" fill="#6C63A4"/>
    <rect x="555" y="17" width="3" height="3" rx="1.5" fill="#6C63A4"/>
    <rect x="547" y="21" width="3" height="3" rx="1.5" fill="#6C63A4"/>
    <rect x="551" y="21" width="3" height="3" rx="1.5" fill="#6C63A4"/>
    <rect x="555" y="21" width="3" height="3" rx="1.5" fill="#6C63A4"/>
    <g filter="url(#sec_3_img_insights_svg__sec_3_img_insights_svg__filter1_d)">
        <path d="M132 53h345v49H132V53z" fill="#fff"/>
    </g>
    <path d="M144.449 70h-.664v-5.71h3.184v.589h-2.52v2.09h2.367v.59h-2.367V70zm4.02 0h-.649v-4.281h.649V70zm-.703-5.441c0-.149.036-.257.109-.325a.378.378 0 01.273-.105c.105 0 .194.035.27.105.075.07.113.179.113.325 0 .145-.038.255-.113.328a.383.383 0 01-.27.105.378.378 0 01-.273-.105c-.073-.073-.109-.183-.109-.328zM150.492 70h-.648v-6.078h.648V70zm2.758-.457a2.236 2.236 0 00.586-.078v.496c-.07.034-.175.061-.313.082a2.164 2.164 0 01-.367.035c-.828 0-1.242-.436-1.242-1.309v-2.546h-.613v-.313l.613-.27.274-.913h.374v.992h1.243v.504h-1.243v2.52c0 .257.062.455.184.593.122.138.29.207.504.207zm3.254.535c-.633 0-1.133-.193-1.5-.578-.365-.385-.547-.92-.547-1.606 0-.69.169-1.238.508-1.644.341-.406.798-.61 1.371-.61.536 0 .961.178 1.273.532.313.351.469.816.469 1.394v.41h-2.949c.013.503.139.885.379 1.145.242.26.582.39 1.019.39.461 0 .917-.096 1.368-.288v.578c-.23.099-.447.17-.653.21a3.517 3.517 0 01-.738.067zm-.176-3.894c-.344 0-.618.112-.824.335-.203.224-.323.534-.359.93h2.238c0-.409-.091-.721-.274-.937-.182-.219-.442-.328-.781-.328zm4.813-.543c.19 0 .36.015.511.046l-.09.602a2.203 2.203 0 00-.468-.058c-.347 0-.643.14-.891.421-.245.282-.367.632-.367 1.051V70h-.648v-4.281h.535l.074.793h.031a1.88 1.88 0 01.574-.645 1.3 1.3 0 01.739-.226zM147.008 89.48c0 .503-.182.895-.547 1.176-.365.281-.859.422-1.484.422-.678 0-1.198-.087-1.563-.262v-.64c.234.099.49.177.766.234.276.057.549.086.82.086.443 0 .776-.083 1-.25a.832.832 0 00.336-.703c0-.198-.04-.36-.121-.484-.078-.128-.211-.245-.399-.352a5.44 5.44 0 00-.847-.363c-.531-.19-.912-.416-1.141-.676-.226-.26-.34-.6-.34-1.02 0-.44.166-.79.496-1.05.331-.26.769-.391 1.313-.391.568 0 1.09.104 1.566.313l-.207.578a3.535 3.535 0 00-1.375-.297c-.351 0-.626.075-.824.226a.747.747 0 00-.297.63c0 .197.037.36.11.487.072.125.195.241.367.348.174.104.44.22.797.348.599.213 1.01.443 1.234.687.227.245.34.563.34.954zm4 1.52v-2.77c0-.349-.08-.609-.238-.78-.159-.173-.408-.259-.747-.259-.45 0-.78.123-.988.368-.206.244-.308.645-.308 1.203V91h-.649v-6.078h.649v1.84c0 .221-.011.405-.032.55h.039a1.32 1.32 0 01.543-.484c.237-.12.507-.18.809-.18.523 0 .915.125 1.176.375.263.248.394.642.394 1.184V91h-.648zm5.68-2.144c0 .697-.176 1.243-.528 1.636-.351.39-.837.586-1.457.586-.383 0-.723-.09-1.019-.27a1.783 1.783 0 01-.688-.773c-.161-.336-.242-.729-.242-1.18 0-.697.174-1.24.523-1.628.349-.391.834-.586 1.453-.586.599 0 1.075.199 1.426.597.354.399.532.938.532 1.618zm-3.262 0c0 .546.109.963.328 1.25.219.286.54.43.965.43.424 0 .746-.143.965-.427.221-.286.332-.704.332-1.253 0-.545-.111-.958-.332-1.239-.219-.284-.543-.426-.973-.426-.425 0-.745.14-.961.418-.216.279-.324.694-.324 1.247zM161.324 91l-.785-2.512a21.526 21.526 0 01-.277-1.047h-.032c-.104.456-.195.808-.273 1.055L159.148 91h-.75l-1.168-4.281h.68c.276 1.075.486 1.894.629 2.457.146.562.229.941.25 1.136h.031a10.197 10.197 0 01.305-1.137l.785-2.456h.703l.766 2.457c.146.448.245.824.297 1.129h.031a4.32 4.32 0 01.082-.434c.047-.195.319-1.246.816-3.152h.672L162.094 91h-.77zm288.973-4.492h1.941v2.777a6.088 6.088 0 01-2.008.293c-.864 0-1.537-.256-2.019-.77-.482-.515-.723-1.236-.723-2.164 0-.593.119-1.113.356-1.558a2.41 2.41 0 011.031-1.023c.448-.237.973-.356 1.574-.356.61 0 1.177.112 1.703.336l-.257.586c-.516-.219-1.012-.328-1.489-.328-.695 0-1.238.207-1.629.62-.39.415-.586.99-.586 1.723 0 .771.188 1.356.563 1.754.378.399.931.598 1.66.598.396 0 .783-.045 1.16-.137v-1.757h-1.277v-.594zm5.172-1.367c.19 0 .36.015.511.046l-.089.602a2.211 2.211 0 00-.469-.058c-.346 0-.643.14-.891.421-.245.282-.367.632-.367 1.051V89.5h-.648v-4.281h.535l.074.793h.031a1.89 1.89 0 01.574-.645c.224-.15.471-.226.739-.226zm1.961 4.359h-.649v-4.281h.649V89.5zm-.703-5.441c0-.149.036-.257.109-.325a.378.378 0 01.273-.105c.105 0 .194.035.27.105.075.07.113.179.113.325 0 .145-.038.255-.113.328a.383.383 0 01-.27.105.378.378 0 01-.273-.105c-.073-.073-.109-.183-.109-.328zm4.992 4.867h-.035c-.3.435-.748.652-1.344.652-.56 0-.996-.191-1.309-.574-.31-.383-.465-.927-.465-1.633s.157-1.254.469-1.644c.313-.391.748-.586 1.305-.586.581 0 1.026.21 1.336.632h.051l-.028-.308-.015-.3v-1.743h.648V89.5h-.527l-.086-.574zm-1.297.11c.443 0 .763-.12.961-.36.2-.242.301-.632.301-1.168v-.137c0-.607-.102-1.039-.305-1.297-.201-.26-.522-.39-.965-.39-.38 0-.672.148-.875.445-.2.294-.301.71-.301 1.25 0 .547.101.96.301 1.238.201.279.495.418.883.418z" fill="#95959F"/>
    <path fill="url(#sec_3_img_insights_svg__sec_3_img_insights_svg__paint1_linear)" d="M173 62h65v12h-65z"/>
    <path fill="url(#sec_3_img_insights_svg__sec_3_img_insights_svg__paint2_linear)" d="M248 62h65v12h-65z"/>
    <path fill-rule="evenodd" clip-rule="evenodd" d="M445 66a.5.5 0 00-.5.5v12a.5.5 0 00.5.5h20a.5.5 0 00.5-.5v-12a.5.5 0 00-.5-.5h-20zm.5 3v-2h4v2h-4zm0 1v2h4v-2h-4zm0 3v2h4v-2h-4zm0 3v2h4v-2h-4zm5 2h4v-2h-4v2zm5 0h4v-2h-4v2zm5 0h4v-2h-4v2zm4-3v-2h-4v2h4zm0-3v-2h-4v2h4zm0-3v-2h-4v2h4zm-5-2h-4v2h4v-2zm-5 0h-4v2h4v-2zm1 3h4v2h-4v-2zm0 3h4v2h-4v-2zm-1-3h-4v2h4v-2zm-4 5v-2h4v2h-4z" fill="#CDCDD8"/>
    <path fill="url(#sec_3_img_insights_svg__sec_3_img_insights_svg__paint3_linear)" d="M173 82h65v12h-65z"/>
    <path fill="url(#sec_3_img_insights_svg__sec_3_img_insights_svg__paint4_linear)" d="M248 82h65v12h-65z"/>
    <g filter="url(#sec_3_img_insights_svg__sec_3_img_insights_svg__filter2_d)">
        <path d="M488 53h99v49h-99V53z" fill="#fff"/>
    </g>
    <path d="M502.312 70l-1.937-5.063h-.031c.036.401.054.878.054 1.43V70h-.613v-5.71h1l1.809 4.71h.031l1.824-4.71h.992V70h-.664v-3.68c0-.422.019-.88.055-1.375h-.031L502.848 70h-.536zm6.411.078c-.633 0-1.133-.193-1.5-.578-.365-.385-.547-.92-.547-1.606 0-.69.169-1.238.508-1.644.341-.406.798-.61 1.371-.61.536 0 .961.178 1.273.532.313.351.469.816.469 1.394v.41h-2.949c.013.503.139.885.379 1.145.242.26.582.39 1.019.39.461 0 .917-.096 1.367-.288v.578c-.229.099-.446.17-.652.21a3.517 3.517 0 01-.738.067zm-.176-3.894c-.344 0-.619.112-.824.335-.203.224-.323.534-.36.93h2.239c0-.409-.092-.721-.274-.937-.182-.219-.443-.328-.781-.328zM514.039 70l-.129-.61h-.031c-.214.269-.427.451-.641.547-.211.094-.475.141-.793.141-.424 0-.757-.11-1-.328-.239-.219-.359-.53-.359-.934 0-.864.691-1.317 2.074-1.359l.727-.023v-.266c0-.336-.073-.583-.219-.742-.143-.162-.374-.242-.691-.242-.357 0-.761.109-1.211.328l-.2-.496a3.06 3.06 0 01.692-.27c.252-.065.505-.098.758-.098.51 0 .888.114 1.132.34.248.227.372.59.372 1.09V70h-.481zm-1.465-.457c.404 0 .72-.11.949-.332.232-.221.348-.531.348-.93v-.387l-.648.028c-.516.018-.888.099-1.118.242-.226.14-.339.36-.339.66 0 .235.07.413.211.535.143.123.342.184.597.184zm6.047-.711c0 .399-.148.706-.445.922-.297.216-.714.324-1.25.324-.568 0-1.011-.09-1.328-.27v-.601c.205.104.425.186.66.246.237.06.465.09.683.09.339 0 .599-.053.782-.16a.54.54 0 00.273-.496.53.53 0 00-.219-.426c-.143-.12-.424-.26-.843-.422-.399-.148-.683-.277-.852-.387a1.196 1.196 0 01-.375-.379.993.993 0 01-.121-.504c0-.348.142-.623.426-.824.284-.203.673-.304 1.168-.304.461 0 .911.093 1.351.28l-.23.528c-.43-.177-.819-.265-1.168-.265-.307 0-.539.048-.695.144a.446.446 0 00-.235.399c0 .114.029.212.086.292.06.081.155.158.285.231.13.073.38.178.75.316.508.185.85.371 1.028.559a.984.984 0 01.269.707zm1.668-3.113v2.777c0 .35.079.61.238.781.159.172.408.258.746.258.448 0 .775-.122.981-.367.208-.245.312-.645.312-1.2v-2.25h.649V70h-.535l-.094-.574h-.035c-.133.21-.318.372-.555.484a1.847 1.847 0 01-.805.168c-.52 0-.911-.124-1.171-.371-.258-.247-.387-.643-.387-1.188v-2.8h.656zm6.258-.078c.19 0 .361.015.512.046l-.09.602a2.211 2.211 0 00-.469-.058c-.346 0-.643.14-.891.421-.244.282-.367.632-.367 1.051V70h-.648v-4.281h.535l.074.793h.031c.159-.279.351-.494.575-.645a1.3 1.3 0 01.738-.226zm3.121 4.437c-.633 0-1.133-.193-1.5-.578-.365-.385-.547-.92-.547-1.606 0-.69.169-1.238.508-1.644.341-.406.798-.61 1.371-.61.536 0 .961.178 1.273.532.313.351.469.816.469 1.394v.41h-2.949c.013.503.139.885.379 1.145.242.26.582.39 1.019.39.461 0 .917-.096 1.368-.288v.578c-.23.099-.447.17-.653.21a3.517 3.517 0 01-.738.067zm-.176-3.894c-.344 0-.618.112-.824.335-.203.224-.323.534-.359.93h2.238c0-.409-.091-.721-.274-.937-.182-.219-.442-.328-.781-.328z" fill="#95959F"/>
    <path fill="#E8E8F4" d="M499 82h65v12h-65z"/>
    <g filter="url(#sec_3_img_insights_svg__sec_3_img_insights_svg__filter3_d)">
        <path d="M488 113h99v111h-99V113z" fill="#fff"/>
    </g>
    <path d="M533.601 180.208a.596.596 0 00.42-.174l14.013-14.013a.584.584 0 00.171-.478.59.59 0 00-.26-.437l-16.182-10.843a.596.596 0 00-.752.073l-8.674 8.675a.593.593 0 00-.074.752l10.844 16.181a.595.595 0 00.494.264zm13.081-14.517l-12.99 12.99-10.168-15.175 7.983-7.983 15.175 10.168z" fill="#CDCDD8"/>
    <path d="M520.589 165.901a1.294 1.294 0 00.921-.381l12.011-12.011a1.304 1.304 0 000-1.843l-2.502-2.502a1.315 1.315 0 00-.922-.382 1.309 1.309 0 00-.921.382l-12.011 12.011a1.304 1.304 0 000 1.843l2.503 2.502a1.298 1.298 0 00.921.381zm9.508-15.928c.015 0 .03.003.044.008a.115.115 0 01.037.025l2.502 2.502c.01.01.019.023.024.037a.104.104 0 01.009.043c0 .015-.003.03-.009.043a.112.112 0 01-.024.037l-12.011 12.011a.114.114 0 01-.16 0l-2.502-2.502a.116.116 0 01-.033-.081c0-.03.012-.059.033-.08l12.011-12.011a.112.112 0 01.079-.032zm6.006 37.742a.594.594 0 00.42-.174l19.018-19.017a.594.594 0 000-.84l-2.379-2.379a4.317 4.317 0 00-6.098 0l-13.76 13.759a4.319 4.319 0 000 6.098l2.378 2.379a.598.598 0 00.421.174zm18.177-19.612l-18.177 18.177-1.957-1.958a3.129 3.129 0 010-4.417l13.759-13.759a3.125 3.125 0 014.417 0l1.958 1.957z" fill="#CDCDD8"/>
    <path d="M556.622 189.216a.588.588 0 00.51-.289.589.589 0 00.014-.587l-7.695-14.325a.588.588 0 00-.437-.307.592.592 0 00-.507.168l-6.631 6.631a.606.606 0 00-.168.507.592.592 0 00.307.437l14.326 7.695c.086.046.183.07.281.07zm-7.84-13.934l6.382 11.882-11.882-6.382 5.5-5.5z" fill="#CDCDD8"/>
    <path d="M22.344 53.09c0 .943-.257 1.664-.77 2.164-.51.497-1.246.746-2.207.746h-1.582v-5.71h1.75c.888 0 1.578.245 2.07.737.493.492.739 1.18.739 2.063zm-.703.023c0-.745-.188-1.306-.563-1.683-.372-.378-.927-.567-1.664-.567h-.965v4.563h.809c.791 0 1.387-.194 1.785-.582.398-.39.598-.968.598-1.73zM24.17 56h-.648v-4.281h.649V56zm-.702-5.441c0-.149.036-.257.11-.325a.378.378 0 01.273-.105c.104 0 .194.035.27.105.075.07.112.179.112.325 0 .145-.037.255-.113.328a.382.382 0 01-.27.105.379.379 0 01-.273-.105c-.073-.073-.11-.183-.11-.328zM31.004 56v-2.785c0-.341-.073-.597-.219-.766-.146-.172-.372-.258-.68-.258-.403 0-.701.116-.894.348-.193.232-.29.589-.29 1.07V56h-.648v-2.785c0-.341-.072-.597-.218-.766-.146-.172-.374-.258-.684-.258-.406 0-.704.123-.894.368-.188.242-.282.64-.282 1.195V56h-.648v-4.281h.527l.106.586h.03c.123-.209.295-.371.517-.489.224-.117.474-.175.75-.175.669 0 1.106.242 1.312.726h.031c.128-.224.313-.4.555-.531.242-.13.518-.195.828-.195.485 0 .846.125 1.086.375.242.247.363.644.363 1.191V56h-.648zm3.797.078c-.633 0-1.133-.193-1.5-.578-.365-.385-.547-.92-.547-1.605 0-.69.17-1.239.508-1.645.34-.406.798-.61 1.37-.61.537 0 .962.178 1.274.532.313.351.469.816.469 1.394v.41h-2.95c.014.503.14.885.38 1.145.242.26.582.39 1.02.39.46 0 .916-.096 1.366-.288v.578a3.188 3.188 0 01-1.39.277zm-.176-3.894c-.344 0-.618.112-.824.336-.203.223-.323.533-.36.93h2.239c0-.41-.091-.722-.274-.938-.182-.219-.442-.328-.781-.328zM40.415 56v-2.77c0-.348-.08-.609-.24-.78-.158-.173-.407-.259-.745-.259-.448 0-.776.121-.985.364-.208.242-.312.642-.312 1.199V56h-.649v-4.281h.528l.105.586h.031a1.32 1.32 0 01.559-.489c.24-.117.507-.175.8-.175.516 0 .904.125 1.165.375.26.247.39.644.39 1.191V56h-.648zm4.745-1.168c0 .398-.148.706-.445.922-.297.216-.714.324-1.25.324-.568 0-1.01-.09-1.328-.27v-.601c.205.104.425.186.66.246.237.06.465.09.684.09.338 0 .598-.053.78-.16a.54.54 0 00.274-.496.53.53 0 00-.219-.426c-.143-.12-.424-.26-.843-.422-.399-.148-.683-.277-.852-.387a1.203 1.203 0 01-.375-.379.996.996 0 01-.121-.504c0-.348.142-.623.426-.824.284-.203.673-.304 1.168-.304.46 0 .911.093 1.351.28l-.23.528c-.43-.177-.82-.265-1.168-.265-.307 0-.54.048-.695.144a.447.447 0 00-.235.399c0 .114.029.212.086.293.06.08.155.157.285.23.13.073.38.178.75.316.508.185.85.371 1.028.559a.98.98 0 01.27.707zM46.867 56h-.648v-4.281h.648V56zm-.703-5.441c0-.149.036-.257.11-.325a.379.379 0 01.273-.105c.104 0 .194.035.27.105.075.07.113.179.113.325 0 .145-.038.255-.114.328a.382.382 0 01-.27.105.38.38 0 01-.273-.105c-.073-.073-.109-.183-.109-.328zm5.773 3.297c0 .697-.175 1.243-.527 1.636-.351.39-.837.586-1.457.586a1.93 1.93 0 01-1.02-.27 1.78 1.78 0 01-.687-.773c-.161-.336-.242-.729-.242-1.18 0-.697.174-1.24.523-1.628.35-.391.834-.586 1.453-.586.6 0 1.075.199 1.426.597.354.399.532.938.532 1.617zm-3.261 0c0 .546.11.963.328 1.25.219.286.54.43.965.43.424 0 .746-.143.965-.427.22-.286.332-.704.332-1.254 0-.544-.111-.957-.332-1.238-.22-.284-.543-.426-.973-.426-.425 0-.745.14-.961.418-.216.279-.324.694-.324 1.246zM56.008 56v-2.77c0-.348-.08-.609-.239-.78-.158-.173-.407-.259-.746-.259-.448 0-.776.121-.984.364-.208.242-.312.642-.312 1.199V56h-.649v-4.281h.527l.106.586h.031a1.32 1.32 0 01.559-.489c.24-.117.506-.175.8-.175.516 0 .904.125 1.165.375.26.247.39.644.39 1.191V56h-.648zm4.746-1.168c0 .398-.148.706-.445.922-.297.216-.714.324-1.25.324-.568 0-1.01-.09-1.328-.27v-.601c.205.104.425.186.66.246.237.06.465.09.683.09.339 0 .6-.053.782-.16a.54.54 0 00.273-.496.53.53 0 00-.219-.426c-.143-.12-.424-.26-.844-.422-.398-.148-.682-.277-.851-.387a1.205 1.205 0 01-.375-.379.996.996 0 01-.121-.504c0-.348.142-.623.425-.824.284-.203.674-.304 1.169-.304.46 0 .911.093 1.351.28l-.23.528c-.43-.177-.82-.265-1.168-.265-.308 0-.54.048-.696.144a.447.447 0 00-.234.399c0 .114.029.212.086.293a.89.89 0 00.285.23c.13.073.38.178.75.316.508.185.85.371 1.027.559a.98.98 0 01.27.707z" fill="#95959F"/>
    <rect x="38" y="68" width="64" height="5" rx="2.5" fill="#E5E5F1"/>
    <rect x="38" y="81" width="64" height="5" rx="2.5" fill="#E5E5F1"/>
    <rect x="38" y="94" width="64" height="5" rx="2.5" fill="#E5E5F1"/>
    <rect x="38" y="107" width="64" height="5" rx="2.5" fill="#E5E5F1"/>
    <rect x="38" y="120" width="64" height="5" rx="2.5" fill="#E5E5F1"/>
    <rect x="38" y="133" width="64" height="5" rx="2.5" fill="#E5E5F1"/>
    <rect x="38" y="146" width="64" height="5" rx="2.5" fill="#E5E5F1"/>
    <rect x="38" y="159" width="64" height="5" rx="2.5" fill="#E5E5F1"/>
    <rect x="38" y="172" width="64" height="5" rx="2.5" fill="#E5E5F1"/>
    <g filter="url(#sec_3_img_insights_svg__sec_3_img_insights_svg__filter4_d)">
        <path d="M132 113h345v316H132V113z" fill="#fff"/>
    </g>
    <rect x="143" y="129" width="44" height="4" rx="2" fill="#E8E8F4"/>
    <rect x="205" y="129" width="28" height="4" rx="2" fill="#E8E8F4"/>
    <rect x="252" y="129" width="28" height="4" rx="2" fill="#E8E8F4"/>
    <rect x="299" y="129" width="28" height="4" rx="2" fill="#E8E8F4"/>
    <rect x="346" y="129" width="28" height="4" rx="2" fill="#E8E8F4"/>
    <rect x="393" y="129" width="28" height="4" rx="2" fill="#E8E8F4"/>
    <rect x="440" y="129" width="28" height="4" rx="2" fill="#E8E8F4"/>
    <path fill="#F1EFEF" d="M143 145h323v1H143z"/>
    <rect x="143" y="161" width="44" height="3" rx="1.5" fill="#CDCDD8"/>
    <path fill="#81ACFF" d="M205 159h28v7h-28zm47 0h28v7h-28zm47 0h28v7h-28z"/>
    <path fill="#85BEFE" d="M346 159h28v7h-28zm47 0h28v7h-28zm47 0h28v7h-28z"/>
    <rect x="143" y="179" width="44" height="3" rx="1.5" fill="#CDCDD8"/>
    <path fill="#81ACFF" d="M205 177h28v7h-28zm47 0h28v7h-28zm47 0h28v7h-28z"/>
    <path fill="#85BEFE" d="M346 177h28v7h-28zm47 0h28v7h-28z"/>
    <path fill="#8BD5FD" d="M440 177h28v7h-28z"/>
    <rect x="143" y="197" width="44" height="3" rx="1.5" fill="#CDCDD8"/>
    <path fill="#81ACFF" d="M205 195h28v7h-28zm47 0h28v7h-28zm47 0h28v7h-28z"/>
    <path fill="#8BD5FD" d="M346 195h28v7h-28zm47 0h28v7h-28z"/>
    <rect x="143" y="215" width="44" height="3" rx="1.5" fill="#CDCDD8"/>
    <path fill="#81ACFF" d="M205 213h28v7h-28zm47 0h28v7h-28zm47 0h28v7h-28z"/>
    <rect x="143" y="233" width="44" height="3" rx="1.5" fill="#CDCDD8"/>
    <path fill="#81ACFF" d="M205 231h28v7h-28zm47 0h28v7h-28zm47 0h28v7h-28z"/>
    <path fill="#85BEFE" d="M346 231h28v7h-28z"/>
    <path fill="#8BD5FD" d="M393 231h28v7h-28z"/>
    <rect x="143" y="251" width="44" height="3" rx="1.5" fill="#CDCDD8"/>
    <path fill="#81ACFF" d="M205 249h28v7h-28zm47 0h28v7h-28zm47 0h28v7h-28z"/>
    <path fill="#85BEFE" d="M346 249h28v7h-28zm47 0h28v7h-28z"/>
    <rect x="143" y="269" width="44" height="3" rx="1.5" fill="#CDCDD8"/>
    <path fill="#81ACFF" d="M205 267h28v7h-28zm47 0h28v7h-28zm47 0h28v7h-28z"/>
    <path fill="#85BEFE" d="M346 267h28v7h-28z"/>
    <path fill="#8BD5FD" d="M393 267h28v7h-28z"/>
    <rect x="143" y="287" width="44" height="3" rx="1.5" fill="#CDCDD8"/>
    <path fill="#81ACFF" d="M205 285h28v7h-28zm47 0h28v7h-28zm47 0h28v7h-28z"/>
    <path fill="#8BD5FD" d="M346 285h28v7h-28zm47 0h28v7h-28z"/>
    <rect x="143" y="305" width="44" height="3" rx="1.5" fill="#CDCDD8"/>
    <path fill="#81ACFF" d="M205 303h28v7h-28zm47 0h28v7h-28zm47 0h28v7h-28z"/>
    <path fill="#8BD5FD" d="M346 303h28v7h-28zm47 0h28v7h-28z"/>
    <rect x="143" y="323" width="44" height="3" rx="1.5" fill="#CDCDD8"/>
    <path fill="#81ACFF" d="M205 321h28v7h-28zm47 0h28v7h-28zm47 0h28v7h-28z"/>
    <path fill="#8BD5FD" d="M346 321h28v7h-28zm47 0h28v7h-28z"/>
    <rect x="143" y="341" width="44" height="3" rx="1.5" fill="#CDCDD8"/>
    <path fill="#81ACFF" d="M205 339h28v7h-28zm47 0h28v7h-28zm47 0h28v7h-28z"/>
    <path fill="#8BD5FD" d="M346 339h28v7h-28zm47 0h28v7h-28zm47 0h28v7h-28z"/>
    <rect x="143" y="359" width="44" height="3" rx="1.5" fill="#CDCDD8"/>
    <path fill="#81ACFF" d="M205 357h28v7h-28zm47 0h28v7h-28z"/>
    <path fill="#85BEFE" d="M299 357h28v7h-28z"/>
    <path fill="#8BD5FD" d="M346 357h28v7h-28z"/>
    <rect x="143" y="377" width="44" height="3" rx="1.5" fill="#CDCDD8"/>
    <path fill="#81ACFF" d="M205 375h28v7h-28z"/>
    <path fill="#85BEFE" d="M252 375h28v7h-28zm47 0h28v7h-28z"/>
    <path fill="#8BD5FD" d="M346 375h28v7h-28zm47 0h28v7h-28z"/>
    <rect x="143" y="395" width="44" height="3" rx="1.5" fill="#CDCDD8"/>
    <path fill="#81ACFF" d="M205 393h28v7h-28zm47 0h28v7h-28z"/>
    <path fill="#85BEFE" d="M299 393h28v7h-28z"/>
    <path fill="#8BD5FD" d="M346 393h28v7h-28zm47 0h28v7h-28z"/>
    <rect x="143" y="413" width="44" height="3" rx="1.5" fill="#CDCDD8"/>
    <path fill="#81ACFF" d="M205 411h28v7h-28zm47 0h28v7h-28z"/>
    <path fill="#85BEFE" d="M299 411h28v7h-28z"/>
    <path fill="#8BD5FD" d="M346 411h28v7h-28zm94 0h28v7h-28z"/>
    <defs>
        <linearGradient id="sec_3_img_insights_svg__sec_3_img_insights_svg__paint0_linear" x1="581.5" y1="7" x2="581.5" y2="30" gradientUnits="userSpaceOnUse">
            <stop stop-color="#8BD5FD"/>
            <stop offset="1" stop-color="#3595DA"/>
        </linearGradient>
        <linearGradient id="sec_3_img_insights_svg__sec_3_img_insights_svg__paint1_linear" x1="184" y1="62" x2="229" y2="62" gradientUnits="userSpaceOnUse">
            <stop stop-color="#8BD5FD"/>
            <stop offset="1" stop-color="#81ACFF"/>
        </linearGradient>
        <linearGradient id="sec_3_img_insights_svg__sec_3_img_insights_svg__paint2_linear" x1="259" y1="62" x2="304" y2="62" gradientUnits="userSpaceOnUse">
            <stop stop-color="#8BD5FD"/>
            <stop offset="1" stop-color="#81ACFF"/>
        </linearGradient>
        <linearGradient id="sec_3_img_insights_svg__sec_3_img_insights_svg__paint3_linear" x1="184" y1="82" x2="229" y2="82" gradientUnits="userSpaceOnUse">
            <stop stop-color="#8BD5FD"/>
            <stop offset="1" stop-color="#81ACFF"/>
        </linearGradient>
        <linearGradient id="sec_3_img_insights_svg__sec_3_img_insights_svg__paint4_linear" x1="259" y1="82" x2="304" y2="82" gradientUnits="userSpaceOnUse">
            <stop stop-color="#8BD5FD"/>
            <stop offset="1" stop-color="#81ACFF"/>
        </linearGradient>
        <filter id="sec_3_img_insights_svg__sec_3_img_insights_svg__filter0_b" x="-4" y="-4" width="614" height="452" filterUnits="userSpaceOnUse" color-interpolation-filters="sRGB">
            <feFlood flood-opacity="0" result="BackgroundImageFix"/>
            <feGaussianBlur in="BackgroundImage" stdDeviation="2"/>
            <feComposite in2="SourceAlpha" operator="in" result="effect1_backgroundBlur"/>
            <feBlend in="SourceGraphic" in2="effect1_backgroundBlur" result="shape"/>
        </filter>
        <filter id="sec_3_img_insights_svg__sec_3_img_insights_svg__filter1_d" x="128" y="53" width="353" height="57" filterUnits="userSpaceOnUse" color-interpolation-filters="sRGB">
            <feFlood flood-opacity="0" result="BackgroundImageFix"/>
            <feColorMatrix in="SourceAlpha" values="0 0 0 0 0 0 0 0 0 0 0 0 0 0 0 0 0 0 127 0"/>
            <feOffset dy="4"/>
            <feGaussianBlur stdDeviation="2"/>
            <feColorMatrix values="0 0 0 0 0 0 0 0 0 0 0 0 0 0 0 0 0 0 0.06 0"/>
            <feBlend in2="BackgroundImageFix" result="effect1_dropShadow"/>
            <feBlend in="SourceGraphic" in2="effect1_dropShadow" result="shape"/>
        </filter>
        <filter id="sec_3_img_insights_svg__sec_3_img_insights_svg__filter2_d" x="484" y="53" width="107" height="57" filterUnits="userSpaceOnUse" color-interpolation-filters="sRGB">
            <feFlood flood-opacity="0" result="BackgroundImageFix"/>
            <feColorMatrix in="SourceAlpha" values="0 0 0 0 0 0 0 0 0 0 0 0 0 0 0 0 0 0 127 0"/>
            <feOffset dy="4"/>
            <feGaussianBlur stdDeviation="2"/>
            <feColorMatrix values="0 0 0 0 0 0 0 0 0 0 0 0 0 0 0 0 0 0 0.06 0"/>
            <feBlend in2="BackgroundImageFix" result="effect1_dropShadow"/>
            <feBlend in="SourceGraphic" in2="effect1_dropShadow" result="shape"/>
        </filter>
        <filter id="sec_3_img_insights_svg__sec_3_img_insights_svg__filter3_d" x="484" y="113" width="107" height="119" filterUnits="userSpaceOnUse" color-interpolation-filters="sRGB">
            <feFlood flood-opacity="0" result="BackgroundImageFix"/>
            <feColorMatrix in="SourceAlpha" values="0 0 0 0 0 0 0 0 0 0 0 0 0 0 0 0 0 0 127 0"/>
            <feOffset dy="4"/>
            <feGaussianBlur stdDeviation="2"/>
            <feColorMatrix values="0 0 0 0 0 0 0 0 0 0 0 0 0 0 0 0 0 0 0.06 0"/>
            <feBlend in2="BackgroundImageFix" result="effect1_dropShadow"/>
            <feBlend in="SourceGraphic" in2="effect1_dropShadow" result="shape"/>
        </filter>
        <filter id="sec_3_img_insights_svg__sec_3_img_insights_svg__filter4_d" x="128" y="113" width="353" height="324" filterUnits="userSpaceOnUse" color-interpolation-filters="sRGB">
            <feFlood flood-opacity="0" result="BackgroundImageFix"/>
            <feColorMatrix in="SourceAlpha" values="0 0 0 0 0 0 0 0 0 0 0 0 0 0 0 0 0 0 127 0"/>
            <feOffset dy="4"/>
            <feGaussianBlur stdDeviation="2"/>
            <feColorMatrix values="0 0 0 0 0 0 0 0 0 0 0 0 0 0 0 0 0 0 0.06 0"/>
            <feBlend in2="BackgroundImageFix" result="effect1_dropShadow"/>
            <feBlend in="SourceGraphic" in2="effect1_dropShadow" result="shape"/>
        </filter>
    </defs>
</svg>
