<svg width="293" height="577" viewBox="0 0 293 577" fill="none" xmlns="http://www.w3.org/2000/svg">
    <g filter="url(#phone_svg__phone_svg__filter0_i)">
        <path fill-rule="evenodd" clip-rule="evenodd" d="M9.503 289.156c-.316-80.884-.65-161.768-.933-242.651-.045-12.95 4.884-23.778 14.108-32.55 4.706-4.475 10.251-7.414 16.66-8.434a33.08 33.08 0 015.042-.39c50.849-.218 101.697-.414 152.545-.613 16.012-.062 32.025.004 48.034-.234 10.416-.156 18.915 3.84 25.877 11.501 6.654 7.321 10.467 16.014 11.444 25.972.127 1.296.09 2.611.095 3.918.394 99.706.785 199.412 1.176 299.118.243 62.009.408 124.019.784 186.027.093 15.342-9.893 31.416-23.645 37.89-4.34 2.043-8.883 3.033-13.669 3.05-54.634.196-109.269.416-163.903.63-11.407.045-22.817-.023-34.222.171-9 .153-16.752-2.94-23.48-8.834-7.63-6.684-12.596-15.047-14.397-25.217-.407-2.299-.534-4.675-.545-7.017-.182-38.743-.325-77.485-.477-116.228l-.494-126.109z" fill="#FEFEFE"/>
    </g>
    <path d="M22.28 102.13a5 5 0 014.994-5.005l234.597-.25a5 5 0 015.006 4.994l.003 2.941a5 5 0 01-4.995 5.006l-234.597.25a5 5 0 01-5.005-4.995l-.004-2.941z" fill="#F4F6FF"/>
    <path d="M28.425 130.536a1.316 1.316 0 011.334-1.298l229.222 3.109a1.316 1.316 0 11-.036 2.632L29.724 131.87a1.316 1.316 0 01-1.299-1.334z" fill="#E3E6F2"/>
    <path d="M28.41 131.058a1.316 1.316 0 011.334-1.298l56.657.768a1.316 1.316 0 01-.036 2.633l-56.657-.769a1.316 1.316 0 01-1.298-1.334z" fill="#32325D"/>
    <path d="M29.334 211.86a.189.189 0 01.194-.208l231.409 2.683c.117.001.22.097.229.213a.189.189 0 01-.194.209l-231.408-2.683a.237.237 0 01-.23-.214z" fill="#AEAFB4"/>
    <path d="M29.94 166.25a3.787 3.787 0 013.837-3.735l114.22 1.549a3.786 3.786 0 11-.103 7.574l-114.22-1.549a3.788 3.788 0 01-3.735-3.839zm124.974 1.734a3.787 3.787 0 013.839-3.735l33.212.45a3.786 3.786 0 11-.103 7.574l-33.212-.451a3.787 3.787 0 01-3.736-3.838zM30.582 188.162a3.788 3.788 0 013.839-3.736l97.29 1.32a3.788 3.788 0 01-.103 7.574L34.318 192a3.787 3.787 0 01-3.736-3.838z" fill="#32325D"/>
    <path d="M31.871 237.253a3.787 3.787 0 013.838-3.736l165.427 2.244a3.787 3.787 0 11-.103 7.573l-165.426-2.243a3.787 3.787 0 01-3.736-3.838zm-1.515 247.534a3.788 3.788 0 013.838-3.736l221.419 3.003a3.787 3.787 0 01-.103 7.574l-221.419-3.003a3.787 3.787 0 01-3.735-3.838zm.696 22a3.787 3.787 0 013.838-3.736l165.427 2.244a3.788 3.788 0 01-.103 7.574l-165.426-2.244a3.787 3.787 0 01-3.736-3.838zm.515-248.537a3.787 3.787 0 013.838-3.735l97.29 1.319a3.788 3.788 0 01-.103 7.574l-97.29-1.319a3.788 3.788 0 01-3.735-3.839zm114.988 1.668a3.786 3.786 0 013.838-3.735l29.546.4a3.788 3.788 0 01-.102 7.574l-29.546-.4a3.788 3.788 0 01-3.736-3.839z" fill="#E4E7F0"/>
    <path d="M139.051 189.787a3.787 3.787 0 013.838-3.736l90.287 1.228a3.787 3.787 0 11-.102 7.574l-90.287-1.228a3.787 3.787 0 01-3.736-3.838zM257.712 49.325l-4.852-5.19a7.52 7.52 0 001.498-4.543c-.005-3.987-3.035-7.228-6.754-7.224-3.719.004-6.741 3.25-6.736 7.237.004 3.986 3.034 7.227 6.753 7.223 1.605-.001 3.078-.609 4.236-1.616l4.852 5.19a.687.687 0 00.502.222.685.685 0 00.502-.223.8.8 0 00-.001-1.076zm-10.092-4.019c-2.937.003-5.329-2.555-5.332-5.703-.004-3.148 2.381-5.71 5.318-5.713 2.937-.003 5.328 2.555 5.332 5.703.004 3.148-2.382 5.71-5.318 5.713zM63.138 35.034h20v2h-20v-2zm0 6h20v2h-20v-2zm0 6h20v2h-20v-2z" fill="#32325D"/>
    <path d="M51.137 42.534c0 6.904-5.597 12.5-12.5 12.5-6.904 0-12.5-5.596-12.5-12.5 0-6.903 5.596-12.5 12.5-12.5 6.903 0 12.5 5.597 12.5 12.5z" fill="#7066FA"/>
    <path d="M31.547 87.124c1.84 0 2.71-1.07 2.71-2.81v-4.43h-.87v4.31c0 1.75-.68 2.21-1.82 2.21-1.19 0-1.72-.58-1.72-2.08v-4.44h-.87v4.54c0 1.74.93 2.7 2.57 2.7zm6.763 0c1.42 0 2.47-.91 2.47-2.11 0-1.35-.84-1.83-2.43-2.08-1.46-.22-1.72-.58-1.72-1.28 0-.67.51-1.16 1.49-1.16.99 0 1.51.37 1.68 1.27h.78c-.14-1.27-1.03-1.97-2.46-1.97-1.35 0-2.3.84-2.3 1.94 0 1.27.89 1.74 2.39 1.97 1.36.22 1.73.56 1.73 1.37s-.71 1.35-1.63 1.35c-1.44 0-1.78-.72-1.89-1.57h-.84c.13 1.22.82 2.27 2.73 2.27zm3.96-.09h1.87c2.5 0 3.64-1.57 3.64-3.55v-.09c0-1.99-1.16-3.51-3.62-3.51h-1.89v7.15zm.87-.71v-5.74h.97c1.97 0 2.77 1.16 2.77 2.81v.08c0 1.75-.92 2.85-2.76 2.85h-.98zm111.898.71h4.35v-.71h-3.48v-2.59h2.66v-.71h-2.66v-2.43h3.3v-.71h-4.17v7.15zm8.174.09c1.84 0 2.71-1.07 2.71-2.81v-4.43h-.87v4.31c0 1.75-.68 2.21-1.82 2.21-1.19 0-1.72-.58-1.72-2.08v-4.44h-.87v4.54c0 1.74.93 2.7 2.57 2.7zm5.323-3.89v-2.65h1.34c.97 0 1.57.32 1.57 1.29v.04c0 .88-.55 1.32-1.57 1.32h-1.34zm-.87 3.8h.87v-3.11h1.1l2.13 3.11h.97l-2.19-3.17c.98-.19 1.77-.77 1.77-1.95v-.04c0-1.43-1.13-1.99-2.5-1.99h-2.15v7.15zm-137.151 21h2.466l4.68-12.582v-.288h-9v1.944h5.994l-4.14 10.926zm9.896 0h2.466l4.68-12.582v-.288h-9v1.944h5.994l-4.14 10.926zm7.388 2.214l2.358-4.032-2.07-.828-1.638 4.266 1.35.594zm8.417-2.034c2.952 0 4.824-1.476 4.824-3.852 0-1.71-.99-2.772-2.484-3.114 1.242-.468 2.088-1.35 2.088-2.808 0-1.908-1.566-3.456-4.248-3.456-2.754 0-4.428 1.71-4.554 3.942h2.124c.144-1.296 1.026-2.124 2.394-2.124 1.332 0 1.998.774 1.998 1.818 0 1.206-.666 1.89-2.142 1.89h-.918v1.71h.99c1.566 0 2.322.702 2.322 2.106 0 1.278-.774 2.088-2.448 2.088-1.728 0-2.484-1.008-2.61-2.358h-2.178c.108 2.466 1.782 4.158 4.842 4.158zm10.981 0c2.772 0 4.734-1.71 4.734-4.428 0-2.7-1.638-4.32-3.96-4.32-1.368 0-2.268.504-2.772 1.08l.018-3.492h5.976v-1.89H63.38l-.108 7.164h1.224c.576-.666 1.368-1.116 2.682-1.116 1.422 0 2.322.99 2.322 2.538 0 1.584-.846 2.61-2.322 2.61-1.656 0-2.142-.828-2.34-2.016h-2.232c.144 2.214 1.566 3.87 4.59 3.87zm17.269-1.524h1.414v-2.772h2.562v-1.316H85.88V99.83h-1.414v2.772h-2.548v1.316h2.548v2.772zm9.395 1.484c2.618 0 4.186-1.918 4.186-4.928v-.504c0-3.01-1.652-4.858-4.186-4.858-2.52 0-4.2 1.862-4.2 4.9v.504c0 3.01 1.652 4.886 4.2 4.886zm.042-1.484c-1.498 0-2.366-1.148-2.366-3.416v-.504c0-2.226.826-3.43 2.338-3.43 1.498 0 2.31 1.288 2.31 3.416v.49c0 2.268-.742 3.444-2.282 3.444zm5.605 3.066l1.834-3.136-1.61-.644-1.274 3.318 1.05.462zm6.547-1.582c2.296 0 3.752-1.148 3.752-2.996 0-1.33-.77-2.156-1.932-2.422.966-.364 1.624-1.05 1.624-2.184 0-1.484-1.218-2.688-3.304-2.688-2.142 0-3.444 1.33-3.542 3.066h1.652c.112-1.008.798-1.652 1.862-1.652 1.036 0 1.554.602 1.554 1.414 0 .938-.518 1.47-1.666 1.47h-.714v1.33h.77c1.218 0 1.806.546 1.806 1.638 0 .994-.602 1.624-1.904 1.624-1.344 0-1.932-.784-2.03-1.834h-1.694c.084 1.918 1.386 3.234 3.766 3.234zm9.38 0c2.618 0 4.186-1.918 4.186-4.928v-.504c0-3.01-1.652-4.858-4.186-4.858-2.52 0-4.2 1.862-4.2 4.9v.504c0 3.01 1.652 4.886 4.2 4.886zm.042-1.484c-1.498 0-2.366-1.148-2.366-3.416v-.504c0-2.226.826-3.43 2.338-3.43 1.498 0 2.31 1.288 2.31 3.416v.49c0 2.268-.742 3.444-2.282 3.444zm44.26-4.812c-1.476 0-2.412-1.026-2.412-2.574 0-1.53.954-2.556 2.394-2.556 1.476 0 2.502 1.008 2.502 2.736 0 1.422-1.026 2.394-2.484 2.394zm-.162 6.318c3.312 0 5.184-2.358 5.184-6.588v-.666c0-3.708-1.656-5.976-5.022-5.976-2.934 0-4.77 1.782-4.77 4.41 0 2.538 1.782 4.176 4.266 4.176 1.53 0 2.574-.648 3.168-1.62-.036 2.934-1.026 4.41-2.862 4.41-1.386 0-1.98-.648-2.214-1.656h-2.25c.306 2.214 1.872 3.51 4.5 3.51zm12.43.018c3.366 0 5.382-2.466 5.382-6.336v-.648c0-3.87-2.124-6.246-5.382-6.246-3.24 0-5.4 2.394-5.4 6.3v.648c0 3.87 2.124 6.282 5.4 6.282zm.054-1.908c-1.926 0-3.042-1.476-3.042-4.392v-.648c0-2.862 1.062-4.41 3.006-4.41 1.926 0 2.97 1.656 2.97 4.392v.63c0 2.916-.954 4.428-2.934 4.428zm7.207 3.942l2.358-4.032-2.07-.828-1.638 4.266 1.35.594zm4.6-2.214h2.466l4.68-12.582v-.288h-9v1.944h5.994l-4.14 10.926zm13.039.18c2.916 0 4.752-1.764 4.752-4.374 0-2.502-1.764-4.194-4.23-4.194-1.53 0-2.592.666-3.186 1.656.072-2.934 1.206-4.464 2.934-4.464 1.242 0 1.746.576 1.98 1.548h2.232c-.306-2.25-1.854-3.402-4.194-3.402-3.078 0-5.328 2.43-5.328 6.894v.306c0 3.402 1.296 6.03 5.04 6.03zm-.036-1.764c-1.458 0-2.484-.99-2.484-2.7 0-1.422 1.026-2.448 2.484-2.448 1.476 0 2.412 1.044 2.412 2.592 0 1.53-.972 2.556-2.412 2.556zm17.254.24h1.414v-2.772h2.562v-1.316h-2.562V99.83h-1.414v2.772h-2.548v1.316h2.548v2.772zm9.394 1.484c2.618 0 4.186-1.918 4.186-4.928v-.504c0-3.01-1.652-4.858-4.186-4.858-2.52 0-4.2 1.862-4.2 4.9v.504c0 3.01 1.652 4.886 4.2 4.886zm.042-1.484c-1.498 0-2.366-1.148-2.366-3.416v-.504c0-2.226.826-3.43 2.338-3.43 1.498 0 2.31 1.288 2.31 3.416v.49c0 2.268-.742 3.444-2.282 3.444zm5.606 3.066l1.834-3.136-1.61-.644-1.274 3.318 1.05.462zm2.719-1.722h7.238v-1.442h-4.256l2.226-2.17c1.19-1.148 1.96-2.282 1.96-3.584 0-1.764-1.232-2.954-3.304-2.954-2.114 0-3.43 1.26-3.556 3.444h1.708c.168-1.414.798-1.988 1.792-1.988.966 0 1.498.588 1.498 1.526 0 .952-.574 1.834-1.526 2.842l-3.78 3.99v.336zm12.237-4.788c-1.148 0-1.876-.798-1.876-2.002 0-1.19.742-1.988 1.862-1.988 1.148 0 1.946.784 1.946 2.128 0 1.106-.798 1.862-1.932 1.862zm-.126 4.914c2.576 0 4.032-1.834 4.032-5.124v-.518c0-2.884-1.288-4.648-3.906-4.648-2.282 0-3.71 1.386-3.71 3.43 0 1.974 1.386 3.248 3.318 3.248 1.19 0 2.002-.504 2.464-1.26-.028 2.282-.798 3.43-2.226 3.43-1.078 0-1.54-.504-1.722-1.288h-1.75c.238 1.722 1.456 2.73 3.5 2.73z" fill="#32325D"/>
    <path d="M27.229 294.199c-.014-5.523 4.452-10.011 9.975-10.025l212.81-.53c5.523-.014 10.011 4.452 10.025 9.975l.387 155.236c.014 5.523-4.452 10.011-9.975 10.025l-212.81.53c-5.523.014-10.012-4.452-10.025-9.975l-.387-155.236z" fill="url(#phone_svg__phone_svg__paint0_linear)"/>
    <path d="M241 313c-5.523 0-10-4.477-10-10s4.477-10 10-10 10 4.477 10 10-4.477 10-10 10z" fill="#fff"/>
    <path d="M245.1 306.698l-.757.758-8.334-8.334.758-.757 8.333 8.333z" fill="#494949"/>
    <path d="M244.387 298.484l.758.757-8.333 8.334-.758-.758 8.333-8.333z" fill="#494949"/>
    <path d="M44 428a3 3 0 013-3h86a3 3 0 110 6H47a3 3 0 01-3-3zm0 13a3 3 0 013-3h48a3 3 0 110 6H47a3 3 0 01-3-3z" fill="#FFEAAD"/>
    <defs>
        <linearGradient id="phone_svg__phone_svg__paint0_linear" x1="144.001" y1="316" x2="201.001" y2="484.5" gradientUnits="userSpaceOnUse">
            <stop stop-color="#FDD661"/>
            <stop offset="1" stop-color="#ECBE48"/>
        </linearGradient>
        <filter id="phone_svg__phone_svg__filter0_i" x="8.387" y="4.135" width="278.108" height="570.579" filterUnits="userSpaceOnUse" color-interpolation-filters="sRGB">
            <feFlood flood-opacity="0" result="BackgroundImageFix"/>
            <feBlend in="SourceGraphic" in2="BackgroundImageFix" result="shape"/>
            <feColorMatrix in="SourceAlpha" values="0 0 0 0 0 0 0 0 0 0 0 0 0 0 0 0 0 0 127 0" result="hardAlpha"/>
            <feOffset dx="2" dy="2"/>
            <feGaussianBlur stdDeviation="5"/>
            <feComposite in2="hardAlpha" operator="arithmetic" k2="-1" k3="1"/>
            <feColorMatrix values="0 0 0 0 0.259271 0 0 0 0 0.293788 0 0 0 0 0.475 0 0 0 0.4 0"/>
            <feBlend in2="shape" result="effect1_innerShadow"/>
        </filter>
    </defs>
</svg>
